<?xml version="1.0" encoding="UTF-8"?><svg id="Layer_1" xmlns="http://www.w3.org/2000/svg" xmlns:xlink="http://www.w3.org/1999/xlink" viewBox="0 0 3311.33 1699.18"><defs><style>.cls-1{clip-path:url(#clippath);}.cls-2{fill:#f9dec1;}.cls-3{fill:#fff;}.cls-4{fill:#ffc0b1;}.cls-5{fill:#ffb841;}.cls-6{fill:#fca714;}.cls-7{fill:#b3b3b3;}.cls-8{fill:#666;}.cls-9{fill:#a67c52;}.cls-10{fill:#dfc2a1;}.cls-11{fill:#102a54;}.cls-12{fill:#1a1a1a;}.cls-13{fill:gray;}.cls-14{fill:#754c24;}.cls-15{fill:#4d4d4d;}.cls-16{clip-path:url(#clippath-1);}.cls-17{clip-path:url(#clippath-3);}.cls-18{fill:url(#Unbenannter_Verlauf_2);}.cls-18,.cls-19,.cls-20{opacity:.5;}.cls-21{fill:url(#Unbenannter_Verlauf_2-7);}.cls-22{fill:url(#Unbenannter_Verlauf_2-6);}.cls-23{fill:url(#Unbenannter_Verlauf_2-8);}.cls-24{fill:url(#Unbenannter_Verlauf_2-5);}.cls-25{fill:url(#Unbenannter_Verlauf_2-4);}.cls-19{fill:url(#Unbenannter_Verlauf_2-2);}.cls-20{fill:url(#Unbenannter_Verlauf_2-3);}</style><linearGradient id="Unbenannter_Verlauf_2" x1="19.44" y1="779.6" x2="547.03" y2="779.6" gradientUnits="userSpaceOnUse"><stop offset="0" stop-color="#b9852b"/><stop offset=".04" stop-color="#c28d25"/><stop offset=".12" stop-color="#daa417"/><stop offset=".17" stop-color="#f1b90a"/><stop offset=".44" stop-color="#fcf18a"/><stop offset=".73" stop-color="#f1b90a"/><stop offset=".89" stop-color="#ecca64"/><stop offset="1" stop-color="#b9852b"/></linearGradient><linearGradient id="Unbenannter_Verlauf_2-2" x1="0" y1="1038.33" x2="3258.43" y2="1038.33" xlink:href="#Unbenannter_Verlauf_2"/><linearGradient id="Unbenannter_Verlauf_2-3" x1="2915.94" y1="1046.76" x2="3199.21" y2="1046.76" xlink:href="#Unbenannter_Verlauf_2"/><clipPath id="clippath"><path class="cls-4" d="M2013.35,372.25s15.23-31.35,18.45-35.53c3.22-4.18,36.05-24.78,36.05-24.78,0,0,3.22,6.44,1.61,10.3-1.61,3.86-16.09,21.24-16.09,21.24l40.23-8.69s40.88-22.53,43.78-19.96c2.9,2.57,.77,50.37-9.33,57.42-8.17,5.7-74.35,13.39-74.35,13.39l-14.42,13.27-25.91-26.67Z"/></clipPath><clipPath id="clippath-1"><path class="cls-4" d="M1108.25,372.55s-15.23-31.35-18.45-35.53c-3.22-4.18-36.05-24.78-36.05-24.78,0,0-3.22,6.44-1.61,10.3,1.61,3.86,16.09,21.24,16.09,21.24l-40.23-8.69s-40.88-22.53-43.78-19.96c-2.9,2.57,2.9,49.82,9.33,57.42,6.44,7.6,74.35,13.39,74.35,13.39l14.42,13.27,25.91-26.67Z"/></clipPath><linearGradient id="Unbenannter_Verlauf_2-4" x1="2561.77" y1="938.98" x2="2880.54" y2="938.98" xlink:href="#Unbenannter_Verlauf_2"/><linearGradient id="Unbenannter_Verlauf_2-5" x1="2326.05" y1="938.98" x2="2644.83" y2="938.98" gradientTransform="translate(1391.93 -1482.45) rotate(45)" xlink:href="#Unbenannter_Verlauf_2"/><linearGradient id="Unbenannter_Verlauf_2-6" x1="2422.94" y1="939.14" x2="2552.11" y2="939.14" xlink:href="#Unbenannter_Verlauf_2"/><clipPath id="clippath-3"><path class="cls-2" d="M402.86,802.96c3.46,5.03,3.13,12.04-1.36,16.19-58.8,54.27-158.86,277.11-72.94,276.99,119.61-.17,130.36,2.43,250.89-.36,94.49-2.19-5.21-231.23-61.75-276.57-5.82-4.67-7.2-12.96-3.17-19.24,13.98-21.74,41.72-67.01,33.96-72.54-10.25-7.3-38.4,11.03-57.42,8.13-19.03-2.9-21.24-13.87-45.36,.8-24.12,14.67-67.49-10.97-79.56-6.19-9.54,3.77,22.76,52.54,36.71,72.79Z"/></clipPath><linearGradient id="Unbenannter_Verlauf_2-7" x1="920.34" y1="131.6" x2="1089.01" y2="131.6" xlink:href="#Unbenannter_Verlauf_2"/><linearGradient id="Unbenannter_Verlauf_2-8" x1="2007.51" y1="125.79" x2="2173.52" y2="125.79" xlink:href="#Unbenannter_Verlauf_2"/></defs><g><path class="cls-18" d="M103.65,1038.68c41.18,16.06,87.77,13.58,130.23,1.29,84.68-24.52,156.76-75.84,207.46-147.81,23.89-33.91,43.06-70.96,58.29-109.5,21.74-55.03,52.34-126.06,46.73-186.23-8.94-95.98-128.4-104.44-195.14-65.33-66.97,39.25-92.25,113.64-149.23,162.18-33.32,28.38-76.61,40.87-110.87,66.84-38.34,29.06-64.05,77.4-70.15,124.65-8.49,65.78,18.31,128.8,82.68,153.9Z"/><path class="cls-19" d="M3258.42,1581.09c-.79-34.77-9.23-69.95-22.43-102.01-63.79-154.95-260.45-159.76-356.75-283-66.44-85.03-44.96-221.26-56.41-321.53-37.17-325.56-376.17-507.02-679.6-491.95-164.15,8.15-293.02,126.5-429.49,203.59-69.28,39.13-145.15,71.91-226.11,72.09-101.95,.22-186.57-57.91-277.51-95.54-106.76-44.16-225-62.95-340.19-53.79-79.46,6.32-163.65,29.14-214.03,90.91-85.67,105.05-37.79,271.71-110.59,386.05-83.79,131.62-276.41,129.22-407.56,213.74-156.12,100.62-180.96,348.47-67.21,495.31H3229.97c21.53,0,28.77-99.74,28.45-113.85Z"/><path class="cls-20" d="M2938.07,1129.24c50.35,93.92,170.46,96.26,232.49,11.01,45.95-63.16,32.75-137.44-12.11-195.49-48.32-62.53-132.98-72.03-192.55-17.78-34.87,31.76-52.69,80.42-49.61,127.49,1.64,25.02,9.2,51.29,21.78,74.77Z"/></g><g><path class="cls-9" d="M2157.95,1407.22l-1046.95,127.78c-24.17,2.95-46.15-14.25-49.1-38.41l-86.36-707.53c-2.95-24.17,14.25-46.15,38.41-49.1l1046.95-127.78c24.17-2.95,46.15,14.25,49.1,38.41l86.36,707.53c2.95,24.17-14.25,46.15-38.41,49.1Z"/><path class="cls-15" d="M1108.86,1499.11c-.42,0-.83-.02-1.25-.05l.24-3.17c.88,.06,1.79,.04,2.7-.07l9.61-1.17,.38,3.16-9.61,1.17c-.69,.08-1.39,.13-2.07,.13Zm24.28-2.84l-.38-3.16,12.6-1.54,.38,3.16-12.6,1.54Zm25.2-3.08l-.38-3.16,12.6-1.54,.38,3.16-12.6,1.54Zm-62.74-.52c-1.92-2.43-3.14-5.35-3.52-8.45l-.52-4.26,3.15-.38,.52,4.26c.31,2.51,1.3,4.89,2.86,6.86l-2.49,1.97Zm87.93-2.56l-.38-3.16,12.6-1.54,.38,3.16-12.6,1.54Zm25.2-3.07l-.38-3.16,12.6-1.54,.38,3.16-12.6,1.54Zm25.2-3.08l-.38-3.16,12.6-1.54,.38,3.16-12.6,1.54Zm25.2-3.08l-.38-3.16,12.6-1.54,.38,3.16-12.6,1.54Zm25.2-3.08l-.38-3.16,12.6-1.54,.38,3.16-12.6,1.54Zm25.2-3.08l-.38-3.16,12.6-1.54,.38,3.16-12.6,1.54Zm25.2-3.07l-.38-3.16,12.6-1.54,.38,3.16-12.6,1.54Zm25.2-3.08l-.38-3.16,12.6-1.54,.38,3.16-12.6,1.54Zm-269.89-1.23l-1.54-12.6,3.15-.38,1.54,12.6-3.15,.38Zm295.09-1.85l-.38-3.16,12.6-1.54,.38,3.16-12.6,1.54Zm25.2-3.08l-.38-3.16,12.6-1.54,.38,3.16-12.6,1.54Zm25.2-3.08l-.38-3.16,12.6-1.54,.38,3.16-12.6,1.54Zm25.2-3.07l-.38-3.16,12.6-1.54,.38,3.16-12.6,1.54Zm25.2-3.08l-.38-3.16,12.6-1.54,.38,3.16-12.6,1.54Zm25.2-3.08l-.38-3.16,12.6-1.54,.38,3.16-12.6,1.54Zm25.2-3.08l-.38-3.16,12.6-1.54,.38,3.16-12.6,1.54Zm25.2-3.07l-.38-3.16,12.6-1.54,.38,3.16-12.6,1.54Zm-474.54-1.82l-1.54-12.6,3.15-.38,1.54,12.6-3.15,.38Zm499.74-1.26l-.38-3.16,12.6-1.54,.38,3.16-12.6,1.54Zm25.2-3.08l-.38-3.16,12.6-1.54,.38,3.16-12.6,1.54Zm25.2-3.08l-.38-3.16,12.6-1.54,.38,3.16-12.6,1.54Zm25.2-3.08l-.38-3.16,12.6-1.54,.38,3.16-12.6,1.54Zm25.2-3.07l-.38-3.16,12.6-1.54,.38,3.16-12.6,1.54Zm25.2-3.08l-.38-3.16,12.6-1.54,.38,3.16-12.6,1.54Zm25.2-3.08l-.38-3.16,12.6-1.54,.38,3.16-12.6,1.54Zm25.2-3.08l-.38-3.16,12.6-1.54,.38,3.16-12.6,1.54Zm-679.2-2.41l-1.54-12.6,3.15-.38,1.54,12.6-3.15,.38Zm704.39-.66l-.38-3.16,12.6-1.54,.38,3.16-12.6,1.54Zm25.2-3.07l-.38-3.16,12.6-1.54,.38,3.16-12.6,1.54Zm25.2-3.08l-.38-3.16,12.6-1.54,.38,3.16-12.6,1.54Zm25.2-3.08l-.38-3.16,12.6-1.54,.38,3.16-12.6,1.54Zm25.2-3.08l-.38-3.16,12.6-1.54,.38,3.16-12.6,1.54Zm25.2-3.08l-.38-3.16,12.6-1.54,.38,3.16-12.6,1.54Zm25.2-3.07l-.38-3.16,12.6-1.54,.38,3.16-12.6,1.54Zm25.2-3.08l-.38-3.16,12.6-1.54,.38,3.16-12.6,1.54Zm-883.85-3.01l-1.54-12.6,3.15-.38,1.54,12.6-3.15,.38Zm909.04-.07l-.38-3.16,12.6-1.54,.38,3.16-12.6,1.54Zm25.2-3.08l-.38-3.16,12.6-1.54,.38,3.16-12.6,1.54Zm25.2-3.07l-.38-3.16,12.6-1.54,.38,3.16-12.6,1.54Zm25.2-3.08l-.38-3.16,12.6-1.54,.38,3.16-12.6,1.54Zm25.2-3.08l-.38-3.16,12.6-1.54,.38,3.16-12.6,1.54Zm25.2-3.08l-.38-3.16,12.6-1.54,.38,3.16-12.6,1.54Zm25.2-3.08l-.38-3.16,12.6-1.54,.25,1.57,.17,1.58h-.06s-12.57,1.54-12.57,1.54Zm-1063.3-6.68l-1.54-12.6,3.15-.38,1.54,12.6-3.15,.38Zm1087.64-1.85l-2.59-1.84c1.67-2.34,2.55-5.09,2.55-7.95,0-.55-.04-1.12-.1-1.69l-.16-1.33,3.16-.38,.16,1.33c.08,.69,.13,1.39,.13,2.07,0,3.52-1.08,6.91-3.13,9.79Zm-1090.72-23.35l-1.54-12.6,3.15-.38,1.54,12.6-3.15,.38Zm1088.87-2.06l-1.54-12.6,3.16-.38,1.54,12.6-3.16,.38Zm-1091.95-23.14l-1.54-12.6,3.15-.38,1.54,12.6-3.15,.38Zm1088.87-2.06l-1.54-12.6,3.16-.38,1.54,12.6-3.16,.38Zm-1091.95-23.14l-1.54-12.6,3.15-.38,1.54,12.6-3.15,.38Zm1088.87-2.06l-1.54-12.6,3.16-.38,1.54,12.6-3.16,.38Zm-1091.95-23.13l-1.54-12.6,3.15-.38,1.54,12.6-3.15,.38Zm1088.87-2.06l-1.54-12.6,3.16-.38,1.54,12.6-3.16,.38Zm-1091.95-23.13l-1.54-12.6,3.15-.38,1.54,12.6-3.15,.38Zm1088.87-2.06l-1.54-12.6,3.16-.38,1.54,12.6-3.16,.38Zm-1091.95-23.14l-1.54-12.6,3.15-.38,1.54,12.6-3.15,.38Zm1088.87-2.06l-1.54-12.6,3.16-.38,1.54,12.6-3.16,.38Zm-1091.95-23.14l-1.54-12.6,3.15-.38,1.54,12.6-3.15,.38Zm1088.87-2.06l-1.54-12.6,3.16-.38,1.54,12.6-3.16,.38Zm-1091.95-23.14l-1.54-12.6,3.15-.38,1.54,12.6-3.15,.38Zm1088.87-2.06l-1.54-12.6,3.16-.38,1.54,12.6-3.16,.38Zm-1091.95-23.13l-1.54-12.6,3.15-.38,1.54,12.6-3.15,.38Zm1088.87-2.06l-1.54-12.6,3.16-.38,1.54,12.6-3.16,.38Zm-1091.95-23.14l-1.54-12.6,3.15-.38,1.54,12.6-3.15,.38Zm1088.87-2.06l-1.54-12.6,3.16-.38,1.54,12.6-3.16,.38Zm-1091.95-23.14l-1.54-12.6,3.15-.38,1.54,12.6-3.15,.38Zm1088.87-2.06l-1.54-12.6,3.16-.38,1.54,12.6-3.16,.38Zm-1091.95-23.13l-1.54-12.6,3.15-.38,1.54,12.6-3.15,.38Zm1088.87-2.06l-1.54-12.6,3.16-.38,1.54,12.6-3.16,.38Zm-1091.95-23.13l-1.54-12.6,3.15-.38,1.54,12.6-3.15,.38Zm1088.87-2.06l-1.54-12.6,3.16-.38,1.54,12.6-3.16,.38Zm-1091.95-23.14l-1.54-12.6,3.15-.38,1.54,12.6-3.15,.38Zm1088.87-2.06l-1.54-12.6,3.16-.38,1.54,12.6-3.16,.38Zm-1091.95-23.14l-1.54-12.6,3.15-.38,1.54,12.6-3.15,.38Zm1088.87-2.06l-1.54-12.6,3.16-.38,1.54,12.6-3.16,.38Zm-1091.95-23.13l-1.54-12.6,3.15-.38,1.54,12.6-3.15,.38Zm1088.87-2.06l-1.54-12.6,3.16-.38,1.54,12.6-3.16,.38Zm-1091.95-23.14l-1.54-12.6,3.15-.38,1.54,12.6-3.15,.38Zm1088.87-2.06l-1.54-12.6,3.16-.38,1.54,12.6-3.16,.38Zm-1091.95-23.14l-1.54-12.6,3.15-.38,1.54,12.6-3.15,.38Zm1088.87-2.06l-1.54-12.6,3.16-.38,1.54,12.6-3.16,.38Zm-1091.95-23.14l-1.54-12.6,3.15-.38,1.54,12.6-3.15,.38Zm1088.87-2.06l-1.54-12.6,3.16-.38,1.54,12.6-3.16,.38Zm-1091.95-23.14l-1.54-12.6,3.15-.38,1.54,12.6-3.15,.38Zm1088.87-2.06l-1.54-12.6,3.16-.38,1.54,12.6-3.16,.38Zm-1091.95-23.13l-1.54-12.6,3.15-.38,1.54,12.6-3.15,.38Zm1088.87-2.06l-1.54-12.6,3.16-.38,1.54,12.6-3.16,.38Zm-1091.95-23.14l-1.54-12.6,3.15-.38,1.54,12.6-3.15,.38Zm1088.87-2.06l-1.54-12.6,3.16-.38,1.54,12.6-3.16,.38Zm-1084.95-21.88l-2.59-1.85c2.75-3.84,7.01-6.38,11.69-6.96l.39,3.15c-3.8,.47-7.27,2.53-9.5,5.65Zm1081.88-3.32l-1.54-12.6,3.16-.38,1.54,12.6-3.16,.38Zm-1059.79-3.88l-.38-3.15,12.6-1.54,.38,3.15-12.6,1.54Zm25.2-3.08l-.38-3.15,12.6-1.54,.38,3.15-12.6,1.54Zm25.2-3.08l-.38-3.15,12.6-1.54,.38,3.15-12.6,1.54Zm25.2-3.08l-.38-3.15,12.6-1.54,.38,3.15-12.6,1.54Zm25.2-3.07l-.38-3.15,12.6-1.54,.38,3.15-12.6,1.54Zm25.2-3.08l-.38-3.15,12.6-1.54,.38,3.15-12.6,1.54Zm25.2-3.08l-.38-3.15,12.6-1.54,.38,3.15-12.6,1.54Zm905.53-2.87l-1.54-12.6,3.16-.38,1.54,12.6-3.16,.38Zm-880.33-.2l-.38-3.15,12.6-1.54,.38,3.15-12.6,1.54Zm25.2-3.08l-.38-3.15,12.6-1.54,.38,3.15-12.6,1.54Zm25.2-3.07l-.38-3.15,12.6-1.54,.38,3.15-12.6,1.54Zm25.2-3.08l-.38-3.15,12.6-1.54,.38,3.15-12.6,1.54Zm25.2-3.07l-.38-3.15,12.6-1.54,.38,3.15-12.6,1.54Zm25.2-3.08l-.38-3.15,12.6-1.54,.38,3.15-12.6,1.54Zm25.2-3.08l-.38-3.15,12.6-1.54,.38,3.15-12.6,1.54Zm25.2-3.08l-.38-3.15,12.6-1.54,.38,3.15-12.6,1.54Zm25.2-3.08l-.38-3.15,12.6-1.54,.38,3.15-12.6,1.54Zm675.68-.39l-1.54-12.6,3.16-.38,1.54,12.6-3.16,.38Zm-650.48-2.69l-.38-3.15,12.6-1.54,.38,3.15-12.6,1.54Zm25.2-3.08l-.38-3.15,12.6-1.54,.38,3.15-12.6,1.54Zm25.2-3.08l-.38-3.15,12.6-1.54,.38,3.15-12.6,1.54Zm25.2-3.08l-.38-3.15,12.6-1.54,.38,3.15-12.6,1.54Zm25.2-3.07l-.38-3.15,12.6-1.54,.38,3.15-12.6,1.54Zm25.2-3.08l-.38-3.15,12.6-1.54,.38,3.15-12.6,1.54Zm25.2-3.08l-.38-3.15,12.6-1.54,.38,3.15-12.6,1.54Zm25.2-3.07l-.38-3.15,12.6-1.54,.38,3.15-12.6,1.54Zm471.03-.98l-1.54-12.6,3.16-.38,1.54,12.6-3.16,.38Zm-445.83-2.09l-.38-3.15,12.6-1.54,.38,3.15-12.6,1.54Zm25.2-3.08l-.38-3.15,12.6-1.54,.38,3.15-12.6,1.54Zm25.2-3.08l-.38-3.15,12.6-1.54,.38,3.15-12.6,1.54Zm25.2-3.08l-.38-3.15,12.6-1.54,.38,3.15-12.6,1.54Zm25.2-3.07l-.38-3.15,12.6-1.54,.38,3.15-12.6,1.54Zm25.2-3.08l-.38-3.15,12.6-1.54,.38,3.15-12.6,1.54Zm25.2-3.08l-.38-3.15,12.6-1.54,.38,3.15-12.6,1.54Zm25.2-3.07l-.38-3.15,12.6-1.54,.38,3.15-12.6,1.54Zm266.38-1.58l-1.54-12.6,3.16-.38,1.54,12.6-3.16,.38Zm-241.18-1.5l-.38-3.15,12.6-1.54,.38,3.15-12.6,1.54Zm25.2-3.07l-.38-3.15,12.6-1.54,.38,3.15-12.6,1.54Zm25.2-3.08l-.38-3.15,12.6-1.54,.38,3.15-12.6,1.54Zm25.2-3.07l-.38-3.15,12.6-1.54,.38,3.15-12.6,1.54Zm25.2-3.07l-.38-3.15,12.6-1.54,.38,3.15-12.6,1.54Zm25.2-3.08l-.38-3.15,12.6-1.54,.38,3.15-12.6,1.54Zm25.2-3.08l-.38-3.15,12.6-1.54,.38,3.15-12.6,1.54Zm25.2-3.08l-.38-3.15,12.6-1.54,.38,3.15-12.6,1.54Zm59.87-.69c-2.39-3.01-5.95-4.9-9.77-5.17l.23-3.17c4.7,.34,9.08,2.66,12.03,6.36l-2.49,1.98Zm-34.67-2.39l-.38-3.15,12.6-1.54,.38,3.15-12.6,1.54Z"/><g><path class="cls-14" d="M2163.32,1087.35l-275.16,33.58c-45.84,5.59-87.53-27.03-93.13-72.87h0c-5.59-45.84,27.03-87.53,72.87-93.13l275.16-33.58,20.26,165.99Z"/><circle class="cls-12" cx="1885.83" cy="1036.99" r="61.28" transform="translate(-180.91 1637.21) rotate(-45)"/></g></g><g><g><path class="cls-11" d="M1731.29,933.03c-2.71-60.01-35.19-172.4-35.19-172.4h-252.97s-32.48,112.38-35.19,172.4c-2.71,60.01,0,652.72,0,652.72h85.85l75.82-618.13,75.82,618.13h85.85s2.71-592.71,0-652.72Z"/><g><g><g><path class="cls-4" d="M2013.35,372.25s15.23-31.35,18.45-35.53c3.22-4.18,36.05-24.78,36.05-24.78,0,0,3.22,6.44,1.61,10.3-1.61,3.86-16.09,21.24-16.09,21.24l40.23-8.69s40.88-22.53,43.78-19.96c2.9,2.57,.77,50.37-9.33,57.42-8.17,5.7-74.35,13.39-74.35,13.39l-14.42,13.27-25.91-26.67Z"/><g class="cls-1"><path d="M2086.18,350.59c-.65,0-1.27-.41-1.49-1.07-.28-.82,.16-1.71,.98-1.99l21.05-7.15c.91-.24,1.76-.62,2.91-1.32l28.62-16.49c.75-.43,1.71-.18,2.15,.58,.43,.75,.17,1.71-.58,2.15l-28.59,16.47c-1.36,.83-2.47,1.33-3.66,1.64l-20.88,7.09c-.17,.06-.34,.08-.51,.08Z"/><path d="M2090.7,361.96c-.65,0-1.27-.41-1.49-1.07-.28-.82,.16-1.71,.98-1.99l21.05-7.15c.91-.24,1.76-.62,2.91-1.32l28.62-16.49c.75-.43,1.71-.18,2.15,.58,.43,.75,.17,1.71-.58,2.15l-28.59,16.47c-1.36,.83-2.47,1.33-3.66,1.64l-20.88,7.09c-.17,.06-.34,.08-.51,.08Z"/><path d="M2093.55,373.48c-.67,0-1.3-.44-1.5-1.11-.25-.83,.21-1.71,1.04-1.96l21.26-6.5c.92-.21,1.77-.56,2.95-1.23l29.11-15.6c.77-.41,1.72-.12,2.13,.64,.41,.76,.12,1.72-.64,2.13l-29.08,15.59c-1.39,.79-2.52,1.25-3.71,1.53l-21.09,6.45c-.15,.05-.31,.07-.46,.07Z"/></g></g><path d="M2075.75,371.78c-.26,0-.52-.06-.76-.2l-15.47-8.52-7.61-19.01c-.32-.81,.07-1.72,.87-2.04,.81-.32,1.72,.07,2.04,.87l7.19,17.96,14.49,7.98c.76,.42,1.04,1.37,.62,2.13-.29,.52-.82,.81-1.38,.81Z"/></g><g><g><path class="cls-4" d="M1108.25,372.55s-15.23-31.35-18.45-35.53c-3.22-4.18-36.05-24.78-36.05-24.78,0,0-3.22,6.44-1.61,10.3,1.61,3.86,16.09,21.24,16.09,21.24l-40.23-8.69s-40.88-22.53-43.78-19.96c-2.9,2.57,2.9,49.82,9.33,57.42,6.44,7.6,74.35,13.39,74.35,13.39l14.42,13.27,25.91-26.67Z"/><g class="cls-16"><path d="M1032.2,351.01c-.16,0-.32-.02-.48-.07l-18.15-5.82-30.95-19.13c-.74-.46-.97-1.42-.51-2.16,.46-.74,1.42-.97,2.16-.51l30.78,19.03,17.61,5.6c.83,.26,1.28,1.15,1.02,1.97-.21,.67-.83,1.1-1.5,1.1Z"/><path d="M1030.11,362.29c-.11,0-.23-.01-.34-.04l-20.31-4.47-31.17-19.27c-.74-.46-.97-1.42-.51-2.16,.46-.74,1.43-.97,2.16-.51l30.72,18.99,19.79,4.35c.85,.19,1.38,1.02,1.2,1.87-.16,.73-.81,1.23-1.53,1.23Z"/><path d="M1025.68,373.34c-.11,0-.23-.01-.34-.04l-20.31-4.47-31.17-19.27c-.74-.46-.97-1.42-.51-2.16,.46-.74,1.43-.97,2.16-.51l30.72,18.99,19.79,4.35c.85,.19,1.38,1.02,1.2,1.87-.16,.73-.81,1.23-1.53,1.23Z"/></g></g><path d="M1045.86,372.08c-.55,0-1.09-.29-1.38-.81-.42-.76-.14-1.72,.62-2.13l14.49-7.98,7.19-17.96c.32-.81,1.24-1.2,2.04-.87,.81,.32,1.2,1.24,.87,2.04l-7.61,19.01-15.47,8.52c-.24,.13-.5,.2-.76,.2Z"/></g><path class="cls-7" d="M2013.03,355.72l-175.14,145.34-131.73-135.86h0c-14.85-21.85-39.9-36.2-68.3-36.2h-158.5c-11.39,0-22.25,2.31-32.12,6.49-12.55,5.31-23.14,13.55-31.26,23.64v-.02s-133.71,141.95-133.71,141.95l-175.14-145.34-43.1,42.28,156.49,189.14c11.93,14.41,28.65,24.04,47.1,27.12h0c21.09,3.52,42.7-1.8,59.74-14.71l88.09-71.89,4.87,243.11h298.4l1.06-226.55,73.03,55.33c17.04,12.91,38.65,18.23,59.74,14.71h0c18.45-3.08,35.17-12.71,47.1-27.12l156.49-189.14-43.1-42.28Z"/><path d="M1415.44,529.23c-.87,0-1.57-.7-1.57-1.57v-74.55c0-.87,.7-1.57,1.57-1.57s1.57,.7,1.57,1.57v74.55c0,.87-.7,1.57-1.57,1.57Z"/><path d="M1719.76,545.8c-.87,0-1.57-.7-1.57-1.57v-84.01c0-.87,.7-1.57,1.57-1.57s1.57,.7,1.57,1.57v84.01c0,.87-.7,1.57-1.57,1.57Z"/><g><path class="cls-4" d="M1555.27,365.2h0c-19.45,0-34.78-16.57-33.28-35.96l9.03-116.21h47.18l10.31,115.84c1.74,19.52-13.64,36.34-33.25,36.34Z"/><path class="cls-4" d="M1543.32,105.28l68.17-13.29c14.67-2.86,28.7,7.32,30.53,22.15h0c2.54,32.19,8.02,64.11,16.91,95.16,4.25,14.85,7.05,33.04,2.66,49.18-8.61,31.66-40.2,51.82-72.22,44.69-28.77-6.4-69.31-24.04-86.13-141.48-3.79-26.48,13.83-51.3,40.09-56.42Z"/><path d="M1594.59,203.23c-.72,0-1.38-.5-1.53-1.24-.18-.85,.36-1.68,1.21-1.87l13.47-2.91c1.16-.25,2.12-1.01,2.63-2.09,.5-1.08,.48-2.3-.08-3.36l-20.79-39.68c-.4-.77-.11-1.72,.66-2.12,.77-.4,1.72-.11,2.12,.66l20.79,39.68c1.01,1.93,1.06,4.17,.14,6.15-.92,1.98-2.68,3.37-4.81,3.83l-13.47,2.91c-.11,.02-.22,.04-.33,.04Z"/><path d="M1574.08,159.58c.88,4.09-1.72,8.12-5.81,9.01-4.09,.88-8.12-1.72-9.01-5.81-.88-4.09,1.72-8.12,5.81-9.01,4.09-.88,8.12,1.72,9.01,5.81Z"/><path d="M1626.61,146.72c.88,4.09-1.72,8.12-5.81,9.01-4.09,.88-8.12-1.72-9.01-5.81-.88-4.09,1.72-8.12,5.81-9.01,4.09-.88,8.12,1.72,9.01,5.81Z"/><path d="M1596.91,305.93c-.05,0-.11,0-.16,0-.93-.1-23-2.52-40.85-16.19-.69-.53-.82-1.51-.29-2.2,.53-.69,1.51-.82,2.2-.29,17.12,13.12,39.05,15.53,39.27,15.56,.86,.09,1.49,.86,1.4,1.73-.08,.81-.77,1.41-1.56,1.41Z"/><path class="cls-14" d="M1515.08,127.69s15.24,58.89,3.08,71.31c-12.16,12.42-20.74-4.57-20.74-4.57,0,0-33.2-56.45-3.76-76.87,18.04-12.51,21.41,10.12,21.41,10.12Z"/><path class="cls-4" d="M1517.7,195.09c2.85,13.2-2.15,25.48-11.15,27.42-9.01,1.94-18.61-7.18-21.46-20.38-2.85-13.2,2.15-25.48,11.15-27.42,9.01-1.94,18.61,7.18,21.46,20.38Z"/><path d="M1514.83,201.68c-.74,0-1.4-.53-1.54-1.28-2.91-15.66-17.91-13.6-18.55-13.51-.85,.12-1.66-.46-1.79-1.32-.13-.86,.46-1.66,1.31-1.79,.19-.03,18.64-2.64,22.11,16.04,.16,.85-.4,1.67-1.26,1.83-.1,.02-.19,.03-.29,.03Z"/><path class="cls-14" d="M1488.98,140.12s-25.57-41.01,8.98-66.55c31.61-23.37,148.96-47.46,155.25,16.42,1.09,11.09-6.53,21.16-17.48,23.18l-146.74,26.96Z"/><path class="cls-14" d="M1549.72,147.76c-6.94,0-11.56-.41-11.85-.44-2.58-.23-4.48-2.51-4.24-5.09,.23-2.58,2.51-4.48,5.09-4.25,.1,0,10.06,.88,22.53,0,6.17-.44,8.08-2.24,8.31-2.91,.07-2.41,1.97-4.41,4.41-4.55,2.59-.16,4.8,1.82,4.95,4.41,.03,.46,.45,11.16-17.01,12.4-4.49,.32-8.65,.43-12.2,.43Zm19.85-12.29s0,0,0,0c0,0,0,0,0,0Zm0,0s0,0,0,0c0,0,0,0,0,0Zm.01-.45h0Z"/><path class="cls-14" d="M1601.28,138.97c-9.16,0-11.45-6.36-11.56-6.7-.83-2.45,.49-5.11,2.94-5.94,2.32-.78,4.83,.35,5.8,2.56,.47,.54,2.91,1.49,8.79-.42,11.89-3.85,20.8-8.4,20.89-8.44,2.3-1.18,5.13-.27,6.31,2.03,1.18,2.3,.28,5.13-2.03,6.31-.39,.2-9.63,4.93-22.29,9.03-3.5,1.13-6.42,1.58-8.86,1.58Zm-2.68-9.71s0,0,0,0c0,0,0,0,0,0Zm0,0s0,0,0,0c0,0,0,0,0,0Z"/><path d="M1626.38,224.34c-.64,3.91-4.68,5.3-8.14,5.77-4.57,.62-9.26,.77-13.87,.89-9.42,.25-18.85-.18-28.21-1.27-.99-.12-1.82,.92-1.83,1.83-.01,1.08,.85,1.71,1.83,1.83,10.22,1.19,20.52,1.6,30.8,1.19,4.75-.19,9.84-.19,14.48-1.36,3.91-.99,7.78-3.67,8.47-7.9,.38-2.3-3.15-3.29-3.53-.97h0Z"/><path d="M1607.54,248.6c3.23-4.04,8.68-5.43,13.41-3.55,.92,.37,2.01-.4,2.25-1.28,.29-1.04-.36-1.88-1.28-2.25-5.8-2.31-13.07-.39-16.96,4.49-.62,.77-.75,1.83,0,2.59,.64,.64,1.97,.78,2.59,0h0Z"/></g><g><polygon class="cls-12" points="1555.27 365.2 1542.01 375.54 1521.89 662.53 1554.01 734.71 1588.65 660.73 1567.21 374.86 1555.27 365.2"/><g><polygon class="cls-3" points="1522 329.24 1555.27 365.2 1505.83 403.74 1498.2 329 1522 329.24"/><polygon class="cls-3" points="1555.27 365.2 1602.93 403.74 1612.8 329 1588.52 328.87 1555.27 365.2"/></g></g><g><path d="M1276.14,554.3c-.84,0-1.54-.67-1.57-1.51-1.26-33.9,5.92-51.59,6.23-52.32,.33-.8,1.25-1.18,2.05-.85,.8,.33,1.18,1.25,.85,2.05-.07,.17-7.22,17.86-5.99,51,.03,.87-.65,1.6-1.51,1.63-.02,0-.04,0-.06,0Z"/><path d="M1847.44,554.3c-.87,0-1.57-.7-1.57-1.57,0-23.95-9.38-50.87-9.47-51.14-.29-.82,.14-1.72,.96-2,.82-.29,1.72,.14,2,.96,.1,.27,9.65,27.69,9.65,52.18,0,.87-.7,1.57-1.57,1.57Z"/></g></g></g><g><g><path class="cls-11" d="M1717.68,1625.22h-58.79l-12.91,22.58c-3.58,6.27-5.69,13.27-6.15,20.48l-1.37,21.15h178.2l-1.44-7.51c-2.32-12.05-10.78-22-22.29-26.23l-75.24-30.47Z"/><polygon class="cls-4" points="1717.68 1625.22 1719.53 1585.75 1655.51 1585.75 1658.73 1625.22 1717.68 1625.22"/></g><g><path class="cls-11" d="M1480.19,1625.22h-58.79l-12.91,22.58c-3.58,6.27-5.69,13.27-6.15,20.48l-1.37,21.15h178.2l-1.44-7.51c-2.32-12.05-10.78-22-22.29-26.23l-75.24-30.47Z"/><polygon class="cls-4" points="1480.19 1625.22 1484.83 1585.75 1420.39 1585.75 1421.24 1625.22 1480.19 1625.22"/></g></g></g><path class="cls-11" d="M3307.09,1699.18H19.43c-2.34,0-4.24-1.9-4.24-4.24s1.9-4.24,4.24-4.24H3307.09c2.34,0,4.24,1.9,4.24,4.24s-1.9,4.24-4.24,4.24Z"/><g><g><g><path class="cls-8" d="M1574.26,1228.98H556.2c-20.29,0-36.73,16.44-36.73,36.73h0c0,19.67,15.5,35.85,35.15,36.7l1019.63,43.77,1019.63-43.77c19.65-.84,35.15-17.02,35.15-36.7h0c0-20.29-16.44-36.73-36.73-36.73h-1018.06Z"/><g><g><path d="M614.28,1097.03H299.37c0,15.59,12.63,28.22,28.22,28.22h201.01v123.39c0,23.66,19.18,42.84,42.84,42.84h0c23.66,0,42.84-19.18,42.84-42.84v-123.39h201.01c15.59,0,28.22-12.63,28.22-28.22h-229.23Z"/><circle class="cls-8" cx="571.44" cy="1247.94" r="25.09"/></g><g><path d="M2621.05,1099h-314.92c0,15.59,12.63,28.22,28.22,28.22h201.01v123.39c0,23.66,19.18,42.84,42.84,42.84h0c23.66,0,42.84-19.18,42.84-42.84v-123.39h201.01c15.59,0,28.22-12.63,28.22-28.22h-229.23Z"/><circle class="cls-8" cx="2578.21" cy="1249.91" r="25.09"/></g></g></g><g><g><g><path class="cls-8" d="M1887.24,1650.55h-33.4l-240.49-454.7c-16.6-31.39-61.57-31.39-78.17,0l-240.49,454.7h-33.4c-5.5,0-9.97,4.46-9.97,9.97v21.57c0,5.5,4.46,9.97,9.97,9.97h625.96c5.5,0,9.97-4.46,9.97-9.97v-21.57c0-5.5-4.46-9.97-9.97-9.97Z"/><circle class="cls-13" cx="1574.26" cy="1282.05" r="36.2" transform="translate(-343.95 1947.18) rotate(-58.28)"/></g><g><path d="M1853.84,1653.2h-559.15c-1.46,0-2.65-1.19-2.65-2.65s1.19-2.65,2.65-2.65h559.15c1.46,0,2.65,1.19,2.65,2.65s-1.19,2.65-2.65,2.65Z"/><path d="M1576.84,1326.05c-22.84,0-41.42-18.58-41.42-41.42s18.58-41.42,41.42-41.42,41.42,18.58,41.42,41.42-18.58,41.42-41.42,41.42Zm0-77.55c-19.92,0-36.13,16.21-36.13,36.13s16.21,36.13,36.13,36.13,36.13-16.21,36.13-36.13-16.21-36.13-36.13-36.13Z"/></g></g><g><path d="M614.28,1127.89h-85.68c-1.46,0-2.65-1.19-2.65-2.65s1.19-2.65,2.65-2.65h85.68c1.46,0,2.65,1.19,2.65,2.65s-1.19,2.65-2.65,2.65Z"/><path d="M2621.05,1127.89h-85.68c-1.46,0-2.65-1.19-2.65-2.65s1.19-2.65,2.65-2.65h85.68c1.46,0,2.65,1.19,2.65,2.65s-1.19,2.65-2.65,2.65Z"/></g><g><path d="M574.1,1279.92c-16.17,0-29.33-13.16-29.33-29.33s13.16-29.33,29.33-29.33,29.33,13.16,29.33,29.33-13.16,29.33-29.33,29.33Zm0-55.49c-14.42,0-26.15,11.73-26.15,26.15s11.73,26.15,26.15,26.15,26.15-11.73,26.15-26.15-11.73-26.15-26.15-26.15Z"/><path d="M2580.86,1279.24c-16.17,0-29.33-13.16-29.33-29.33s13.16-29.33,29.33-29.33,29.33,13.16,29.33,29.33-13.16,29.33-29.33,29.33Zm0-55.49c-14.42,0-26.15,11.73-26.15,26.15s11.73,26.15,26.15,26.15,26.15-11.73,26.15-26.15-11.73-26.15-26.15-26.15Z"/></g></g></g><g><g><g><circle class="cls-25" cx="2721.15" cy="938.98" r="159.39"/><circle class="cls-3" cx="2721.15" cy="938.98" r="125.48" transform="translate(133.04 2199.17) rotate(-45)"/></g><g><polygon class="cls-5" points="2721.15 965.57 2762.47 944.39 2721.15 841.93 2721.15 842.3 2679.83 944.76 2721.15 965.94 2721.15 965.57"/><polygon class="cls-5" points="2721.15 976.7 2679.83 956.59 2721.15 1036.04 2721.15 1035.67 2762.47 956.23 2721.15 976.34 2721.15 976.7"/></g></g><g><circle class="cls-24" cx="2485.44" cy="938.98" r="159.39" transform="translate(64.01 2032.49) rotate(-45)"/><circle class="cls-3" cx="2485.44" cy="938.98" r="125.48" transform="translate(64.01 2032.49) rotate(-45)"/><path class="cls-22" d="M2545.01,949.2c-4.74-6.99-11.4-12.24-20-15.74,6.56-3.06,11.58-7.57,15.08-13.55,3.5-5.97,5.25-12.53,5.25-19.67s-1.24-13.22-3.72-18.25c-2.48-5.03-5.87-9.07-10.16-12.13-4.3-3.06-9.29-5.28-14.97-6.67-.22-.05-.45-.1-.68-.15v-15.99h-20.96v14.07h-14.65v-14.07h-20.96v14.07h-36.31v24.92h22.94v106.23h-22.94v24.92h36.31v14.07h20.96v-14.07h14.65v14.07h20.96v-15.37c1.78-.34,3.54-.74,5.27-1.21,6.12-1.67,11.48-4.3,16.07-7.87,4.59-3.57,8.23-8.09,10.93-13.55,2.69-5.46,4.04-11.98,4.04-19.56,0-9.32-2.37-17.49-7.1-24.48Zm-26.99-44.81c0,6.48-2.08,11.2-6.23,14.15-4.15,2.95-9.29,4.43-15.41,4.43h-20.55v-36.94h19.23c3.06,0,5.97,.29,8.74,.86,2.77,.58,5.21,1.58,7.32,3.03,2.11,1.44,3.79,3.35,5.03,5.72,1.24,2.38,1.86,5.29,1.86,8.75Zm2.08,76.17c-1.53,2.7-3.61,4.85-6.23,6.45-2.62,1.61-5.61,2.7-8.96,3.28-3.35,.58-6.78,.87-10.27,.87h-19.02v-43.28h19.02c3.64,0,7.14,.37,10.49,1.09,3.35,.73,6.3,1.97,8.85,3.72,2.55,1.75,4.59,4.04,6.12,6.89,1.53,2.84,2.29,6.38,2.29,10.6s-.76,7.69-2.29,10.38Z"/></g></g><g><g><g><path class="cls-2" d="M402.86,802.96c3.46,5.03,3.13,12.04-1.36,16.19-58.8,54.27-158.86,277.11-72.94,276.99,119.61-.17,130.36,2.43,250.89-.36,94.49-2.19-5.21-231.23-61.75-276.57-5.82-4.67-7.2-12.96-3.17-19.24,13.98-21.74,41.72-67.01,33.96-72.54-10.25-7.3-38.4,11.03-57.42,8.13-19.03-2.9-21.24-13.87-45.36,.8-24.12,14.67-67.49-10.97-79.56-6.19-9.54,3.77,22.76,52.54,36.71,72.79Z"/><g class="cls-17"><path class="cls-10" d="M401.04,785.04c8.74,7.32,19.53,12.74,30.93,13.03,9.2,.23,18.52-2.84,27.49-.8,6.45,1.47,12.15,5.5,18.68,6.55,8.57,1.39,17-2.5,25.54-4.02,8.54-1.52,19.38,.78,22.01,9.05,2.29,7.2-3.43,14.91-10.42,17.78-6.99,2.86-14.83,2.25-22.38,2.03-7.55-.22-15.63,.18-21.76,4.61-6.81,4.92-10.15,14.14-17.87,17.47-1.87,.8-4,1.2-5.94,.57-5.11-1.66-5.72-8.76-9.53-12.54-3.77-3.75-10.12-3.5-14.9-1.17-4.78,2.33-8.51,6.31-12.62,9.69-8.5,6.99-18.99,11.55-29.92,12.84-1.61,.19-3.33,.29-4.77-.47-2.06-1.09-2.9-3.59-3.2-5.9-1.9-14.8,10.84-28.03,10.83-42.95,0-12.37-8.62-22.78-14.11-33.87-1.69-3.41-3.39-7.72-1.92-11.51,1.13-2.92,3.99-5.3,7.2-5.06,7.19,.52,12.07,9.7,16.29,14.48,3.21,3.63,6.62,7.09,10.34,10.21Z"/><path class="cls-10" d="M424.2,768.61c1.66,2.75,3.83,5.82,7.04,5.99,2.25,.12,4.29-1.28,6-2.76,6.77-5.88,11.5-13.96,18.83-19.13,6.74-4.76,15.44-6.64,23.54-5.09,10.53,2.01,21.05,9.44,31.02,5.51,2.57-1.01,4.94-2.76,7.7-2.88,4.4-.2,7.97,4,8.83,8.32,.86,4.32-.22,8.76-.94,13.11-.71,4.35-.99,9.09,1.27,12.88,11.99-16.65,21.64-34.99,28.56-54.3,1.01-2.82,1.97-5.83,1.29-8.75-1.5-6.39-9.58-8.46-16.14-8.27-10.11,.29-20.06,2.99-29.29,7.13-10.01,4.49-20.45,10.85-31.14,8.41-5.24-1.19-9.77-4.41-14.79-6.31-10.02-3.79-21.54-2.04-31.08,2.84-7.85,4.01-16.15,10.75-25.52,8.23-1.43-.39-2.8-.94-3.48,.78-.53,1.35-.03,3.21,.47,4.49,1.84,4.74,5.41,9.23,8.04,13.58,3.27,5.41,6.54,10.82,9.81,16.22Z"/><path class="cls-10" d="M472.68,1113.48s1.84-163.88,22.1-185.05c20.25-21.18,79.85-63.53,79.85-63.53,0,0,53.62,114.7,54.67,160.01,1.05,45.3-10.34,92.26-10.34,92.26l-146.28-3.68Z"/></g></g><path class="cls-11" d="M403.43,809.2c-2.06,0-3.76-1.64-3.82-3.71-.06-2.11,1.6-3.88,3.71-3.94l110.13-3.26c2.14-.05,3.88,1.6,3.94,3.71,.06,2.11-1.6,3.88-3.71,3.94l-110.13,3.26s-.08,0-.12,0Z"/><path class="cls-11" d="M403.45,820.13c-2.06,0-3.76-1.64-3.82-3.71-.06-2.11,1.6-3.88,3.71-3.94l110.13-3.26c2.12-.06,3.88,1.6,3.94,3.71,.06,2.11-1.6,3.88-3.71,3.94l-110.13,3.26s-.08,0-.12,0Z"/></g><g><g><polygon class="cls-5" points="695.12 1050.11 362.08 1050.11 387 1003.14 669.79 1003.14 695.12 1050.11"/><polyline class="cls-6" points="387 1003.14 433.88 1003.14 451.63 1050.11 362.08 1050.11"/></g><g><g><polygon class="cls-5" points="648.73 1097.07 315.7 1097.07 340.62 1050.11 623.41 1050.11 648.73 1097.07"/><polyline class="cls-6" points="340.62 1050.11 387.5 1050.11 405.25 1097.07 315.7 1097.07"/></g><g><polygon class="cls-5" points="742.94 1097.07 409.91 1097.07 434.83 1050.11 717.62 1050.11 742.94 1097.07"/><polyline class="cls-6" points="434.83 1050.11 481.71 1050.11 499.46 1097.07 409.91 1097.07"/></g><g><polygon class="cls-5" points="832.49 1097.07 499.46 1097.07 524.38 1050.11 807.17 1050.11 832.49 1097.07"/><polyline class="cls-6" points="524.38 1050.11 571.26 1050.11 589.01 1097.07 499.46 1097.07"/></g></g><g><polygon class="cls-5" points="793.46 1050.11 460.43 1050.11 485.35 1003.14 768.14 1003.14 793.46 1050.11"/><polyline class="cls-6" points="485.35 1003.14 532.23 1003.14 549.98 1050.11 460.43 1050.11"/></g><g><polygon class="cls-5" points="755.52 1003.14 422.49 1003.14 447.41 956.17 730.2 956.17 755.52 1003.14"/><polyline class="cls-6" points="447.41 956.17 494.29 956.17 512.04 1003.14 422.49 1003.14"/></g><rect class="cls-6" x="512.04" y="1001.55" width="243.49" height="3.18"/><rect class="cls-6" x="555.21" y="1048.52" width="243.49" height="3.18"/></g></g></g><path class="cls-21" d="M944.62,26.07c12.15-10.1,27.83-16.32,47.05-18.67,25.25-3.08,46.96,.39,65.14,10.42,18.17,10.03,28.71,26.89,31.6,50.57,1.77,14.53-.36,27.2-6.38,38.03-3.5,6.55-10.69,15.25-21.58,26.11l-10.74,10.67c-5.85,5.82-9.43,12.21-10.72,19.17-.12,.63-.22,1.31-.3,2.03-1.19,10.66-9.33,19.22-19.99,20.52l-.31,.04c-13.93,1.7-26.07-9.44-25.62-23.46,.18-5.55,.71-9.99,1.6-13.32,2.02-7.56,8.47-16.77,19.35-27.62l11.03-11.04c3.64-3.51,6.47-7.19,8.49-11.07,3.7-6.69,5.11-13.72,4.21-21.09-1.04-8.49-4.46-15.93-10.27-22.3-5.81-6.38-15.3-8.76-28.45-7.16-12.93,1.58-21.58,7-25.93,16.26-1.87,3.97-3.23,7.94-4.09,11.91-2.08,9.61-9.76,16.99-19.53,18.18l-3.18,.39c-15.21,1.86-28.06-11.51-25.3-26.58,3.21-17.51,11.18-31.5,23.91-41.96Zm73.5,182.21l4.73-.58c12.53-1.53,23.93,7.39,25.46,19.92l.37,3.05c1.53,12.53-7.39,23.93-19.92,25.46l-4.73,.58c-12.53,1.53-23.93-7.39-25.46-19.92l-.37-3.05c-1.53-12.53,7.39-23.93,19.92-25.46Z"/><path class="cls-23" d="M2041.38,8.91c13.99-7.33,30.63-10.14,49.91-8.41,25.33,2.27,45.84,10.21,61.52,23.82,15.67,13.61,22.45,32.3,20.32,56.06-1.3,14.57-6.04,26.53-14.2,35.85-4.79,5.67-13.64,12.68-26.56,21.01l-12.73,8.18c-6.94,4.46-11.77,9.96-14.5,16.5-.25,.59-.48,1.23-.71,1.92-3.39,10.18-13.15,16.84-23.84,15.88l-.31-.03c-13.97-1.25-23.52-14.68-20.14-28.3,1.34-5.39,2.79-9.62,4.35-12.69,3.55-6.97,11.79-14.62,24.7-22.96l13.1-8.49c4.29-2.67,7.83-5.68,10.61-9.05,5.02-5.76,7.86-12.35,8.53-19.75,.76-8.52-1.03-16.51-5.38-23.96-4.35-7.45-13.12-11.77-26.32-12.95-12.97-1.16-22.56,2.33-28.76,10.48-2.66,3.49-4.82,7.09-6.49,10.79-4.04,8.96-13.1,14.57-22.9,13.7l-3.19-.29c-15.26-1.37-25.03-17.13-19.18-31.29,6.8-16.45,17.52-28.46,32.16-36.03Zm33.76,193.55l4.75,.42c12.57,1.13,21.85,12.23,20.73,24.81l-.27,3.06c-1.13,12.57-12.23,21.85-24.81,20.73l-4.75-.42c-12.57-1.13-21.85-12.23-20.73-24.81l.27-3.06c1.13-12.57,12.23-21.86,24.81-20.73Z"/></svg>