<?xml version="1.0" encoding="UTF-8"?><svg id="Illustration" xmlns="http://www.w3.org/2000/svg" xmlns:xlink="http://www.w3.org/1999/xlink" viewBox="0 0 2167.34 1339.99"><defs><style>.cls-1{fill:url(#linear-gradient);}.cls-2{fill:#fff;}.cls-3{fill:#999;}.cls-4{fill:#666;}.cls-5{fill:#333;}.cls-6{fill:#a9e2a1;}.cls-7{fill:#1a1a1a;}.cls-8{fill:#603813;}.cls-9{fill:#469b4a;}.cls-10{fill:#79c67f;}.cls-11{fill:url(#Unbenannter_Verlauf_2);opacity:.5;}.cls-12{fill:url(#linear-gradient-8);}.cls-13{fill:url(#linear-gradient-9);}.cls-14{fill:url(#linear-gradient-3);}.cls-15{fill:url(#linear-gradient-4);}.cls-16{fill:url(#linear-gradient-2);}.cls-17{fill:url(#linear-gradient-6);}.cls-18{fill:url(#linear-gradient-7);}.cls-19{fill:url(#linear-gradient-5);}.cls-20{fill:url(#Unbenannter_Verlauf_2-3);}.cls-21{fill:url(#Unbenannter_Verlauf_2-2);}.cls-22{fill:url(#linear-gradient-13);}.cls-23{fill:url(#linear-gradient-12);}.cls-24{fill:url(#linear-gradient-10);}.cls-25{fill:url(#linear-gradient-11);}</style><linearGradient id="Unbenannter_Verlauf_2" x1="17.09" y1="722.28" x2="1977.7" y2="722.28" gradientUnits="userSpaceOnUse"><stop offset="0" stop-color="#b9852b"/><stop offset=".04" stop-color="#c28d25"/><stop offset=".12" stop-color="#daa417"/><stop offset=".17" stop-color="#f1b90a"/><stop offset=".44" stop-color="#fcf18a"/><stop offset=".73" stop-color="#f1b90a"/><stop offset=".89" stop-color="#ecca64"/><stop offset="1" stop-color="#b9852b"/></linearGradient><linearGradient id="Unbenannter_Verlauf_2-2" x1="560.44" y1="791.49" x2="1043.38" y2="791.49" xlink:href="#Unbenannter_Verlauf_2"/><linearGradient id="Unbenannter_Verlauf_2-3" x1="1083.99" y1="791.49" x2="1566.93" y2="791.49" xlink:href="#Unbenannter_Verlauf_2"/><linearGradient id="linear-gradient" x1="609.85" y1="1171.84" x2="609.85" y2="1297.04" gradientUnits="userSpaceOnUse"><stop offset="0" stop-color="#09005d"/><stop offset="1" stop-color="#1a0f91"/></linearGradient><linearGradient id="linear-gradient-2" x1="633.31" y1="1028.43" x2="526.02" y2="1319.04" gradientUnits="userSpaceOnUse"><stop offset="0" stop-color="#ff928e"/><stop offset="1" stop-color="#feb3b1"/></linearGradient><linearGradient id="linear-gradient-3" x1="824.27" y1="888.56" x2="744.78" y2="1130.05" xlink:href="#linear-gradient"/><linearGradient id="linear-gradient-4" x1="716.26" y1="1115.96" x2="609.03" y2="1406.41" xlink:href="#linear-gradient-2"/><linearGradient id="linear-gradient-5" x1="469.5" y1="1015.16" x2="477.5" y2="1119.16" xlink:href="#linear-gradient"/><linearGradient id="linear-gradient-6" x1="591.21" y1="1042.68" x2="588.73" y2="827.47" xlink:href="#linear-gradient-2"/><linearGradient id="linear-gradient-7" x1="321.69" y1="972.77" x2="326.69" y2="1046.77" xlink:href="#linear-gradient-2"/><linearGradient id="linear-gradient-8" x1="424.19" y1="899.72" x2="426.19" y2="947.72" xlink:href="#linear-gradient-2"/><linearGradient id="linear-gradient-9" x1="869.32" y1="982.26" x2="862.32" y2="1068.26" xlink:href="#linear-gradient-2"/><linearGradient id="linear-gradient-10" x1="793.63" y1="909.66" x2="773.63" y2="1016.66" xlink:href="#linear-gradient-2"/><linearGradient id="linear-gradient-11" x1="555.64" y1="672.36" x2="580.64" y2="806.36" xlink:href="#linear-gradient-2"/><linearGradient id="linear-gradient-12" x1="597.04" y1="664.63" x2="622.04" y2="798.63" xlink:href="#linear-gradient-2"/><linearGradient id="linear-gradient-13" x1="511.27" y1="680.63" x2="536.27" y2="814.63" xlink:href="#linear-gradient-2"/></defs><path class="cls-11" d="M1919.22,887.3c-30.16-26.62-68.75-41.37-102.64-63.05-33.89-21.68-65.22-55.02-65.74-95.24-.42-32.43,19.57-61.96,43.81-83.51,24.24-21.55,53.06-37.27,78.48-57.42,61.79-48.96,101.76-125.83,101.85-204.66,.09-78.83-41.39-157.51-108.84-198.32-67.45-40.81-158.96-40.15-223.48,5.14-51.24,35.96-81.68,93.79-120.8,142.65-39.13,48.87-97.75,92.53-159.21,80.65-68.82-13.3-105.04-86.28-147.36-142.15-45.39-59.93-132.56-148.88-251.56-146.91-68.59,1.13-136.39,32.44-190.68,75.57-74.19,58.94-126.09,141.47-167.31,226.79-20.87,43.2-43.13,91.37-87.2,110.35-40.15,17.29-87.82,4.27-124.05-20.2-36.23-24.47-64.13-59.07-94.73-90.29-30.6-31.22-66.3-60.41-109.17-69-64.85-12.99-134.05,28.55-160.23,89.28-26.18,60.73-12.01,134.7,28.53,186.96,40.54,52.26,104.3,83.64,169.8,92.8,29.59,4.14,66.09,8.46,76.97,36.29,10.06,25.74-11.36,54.19-36.55,65.58-25.18,11.39-53.85,12.07-80.18,20.5-80.38,25.74-122.21,124.73-100.43,206.28,21.78,81.55,94.08,142.6,173.97,169.82,79.89,27.22,166.75,25.22,250.62,15.73,78.79-8.91,157.09-24.16,236.26-26.9l-.24,1.23c99.39,89.04,243.63,125.2,373.27,93.57,68.24-16.65,132.33-50.71,202.2-57.88,61.17-6.28,122.24,8.49,182.85,18.82,83.46,14.22,170.09,19.98,252.1-1.06,82.01-21.04,159.33-72.04,196.7-148.01,37.37-75.97,26.46-177.39-37.03-233.41Z"/><g><path class="cls-6" d="M1673.78,162.49c28,83.81,171.03,578.19-268.78,795.74,0,0-177.95-301.23,256.07-798.31,3.8-4.35,10.88-2.91,12.71,2.57Z"/><path class="cls-10" d="M1645.75,246.83c-2.24,28.15-5.06,56.23-8.12,84.29-3.07,28.06-6.47,56.08-10.2,84.06-3.72,27.98-7.78,55.91-12.16,83.8-4.4,27.88-9.22,55.7-14.4,83.45-10.45,55.48-22.53,110.7-37.6,165.16-7.45,27.25-15.89,54.24-25.35,80.88-9.5,26.62-20.07,52.91-32.7,78.28-.49,.99-1.69,1.39-2.68,.9-.99-.49-1.39-1.69-.9-2.68h0s0-.01,0-.01c12.62-25.13,23.22-51.25,32.78-77.73,9.52-26.5,18.02-53.38,25.55-80.55,15.22-54.28,27.47-109.38,38.1-164.77,5.26-27.71,10.18-55.48,14.67-83.33,4.48-27.85,8.62-55.75,12.44-83.7,3.82-27.95,7.31-55.94,10.48-83.97,3.15-28.03,6.07-56.1,8.4-84.2h0c.04-.47,.45-.82,.91-.78,.47,.04,.81,.45,.77,.91Z"/></g><g><path class="cls-9" d="M1955.21,339.69c-.15-8.73-11.93-11.47-15.88-3.68-38.17,75.32-144.44,269.69-266.59,359.82-198.89,146.74-365.23,416.04-290.39,587.4,0,0,588.82,7.98,572.86-943.54Z"/><path class="cls-6" d="M1915.98,450.2c-.16,.63-.35,1.19-.54,1.74l-.58,1.66-1.19,3.3-2.45,6.56c-1.65,4.36-3.34,8.71-5.05,13.06-3.41,8.68-6.91,17.34-10.45,25.97-7.1,17.26-14.42,34.42-21.91,51.51-15,34.17-30.8,67.99-47.19,101.53-16.37,33.54-33.51,66.71-51.32,99.51-8.89,16.41-18,32.7-27.26,48.91-9.26,16.21-18.71,32.31-28.37,48.27-9.65,15.98-19.47,31.86-29.59,47.54-10.1,15.7-20.36,31.3-30.92,46.69-10.55,15.4-21.26,30.7-32.3,45.75-11.04,15.05-22.23,30.01-33.84,44.63-11.59,14.63-23.38,29.12-35.58,43.26-12.19,14.14-24.57,28.12-37.43,41.67-3.16,3.43-6.44,6.76-9.69,10.11-3.25,3.35-6.48,6.72-9.82,9.98l-9.94,9.86-10.11,9.69c-13.58,12.81-27.5,25.25-41.82,37.23-.21,.18-.53,.15-.7-.06-.18-.21-.15-.53,.06-.7,14.18-12.1,27.96-24.66,41.39-37.58,13.44-12.91,26.38-26.34,39.11-39.95,12.75-13.59,25.04-27.61,37.13-41.79,12.1-14.18,23.78-28.7,35.27-43.37,45.96-58.71,87.53-120.76,126.18-184.51,9.68-15.93,19.14-31.99,28.41-48.17,9.27-16.17,18.4-32.43,27.31-48.81,8.92-16.37,17.67-32.84,26.25-49.39,8.6-16.54,17.05-33.16,25.31-49.88,16.55-33.42,32.44-67.16,47.67-101.2,7.63-17.01,15.09-34.11,22.33-51.29,3.61-8.59,7.18-17.21,10.66-25.86,1.74-4.32,3.46-8.66,5.15-13l2.5-6.53,1.21-3.27c.38-1.07,.82-2.23,1.1-3.24l.02-.08c.07-.26,.35-.42,.61-.34,.26,.07,.41,.34,.35,.6Z"/></g><g><path class="cls-6" d="M1424.23,1250.4s28.64-117.61,174.11-210.87c134.97-86.53,463.17-283.16,557.19-411.46,4.16-5.68,13.1-1.75,11.65,5.14-15.59,73.96-69.19,256.12-237.43,411.76-216.95,200.7-505.52,205.43-505.52,205.43Z"/><path class="cls-9" d="M2083.19,750.62c-5.81,15.67-13.62,30.52-22.04,44.94-4.19,7.23-8.71,14.26-13.27,21.27-4.67,6.93-9.41,13.82-14.42,20.51-19.96,26.83-42.29,51.89-66.43,75.05-5.96,5.87-12.23,11.4-18.39,17.06-6.34,5.45-12.56,11.05-19.07,16.31-12.81,10.76-26.15,20.86-39.63,30.77l-10.23,7.26-5.12,3.62-5.2,3.5-10.41,7c-3.48,2.31-7.04,4.51-10.56,6.78-3.53,2.23-7.03,4.53-10.59,6.71l-10.68,6.54c-7.11,4.38-14.29,8.65-21.43,12.97-57.29,34.34-115.64,66.89-174.52,98.34-29.38,15.84-58.82,31.55-87.63,48.33-14.39,8.41-28.62,17.11-42.31,26.59-6.84,4.74-13.52,9.72-20.03,14.91-6.46,5.25-12.71,10.75-18.63,16.61h0c-.2,.2-.51,.2-.71,0-.19-.19-.19-.51,0-.7,5.84-5.99,12.03-11.63,18.44-17.01,6.46-5.32,13.12-10.39,19.92-15.24,13.63-9.7,27.79-18.6,42.11-27.21,14.32-8.62,28.88-16.8,43.46-24.93,14.59-8.11,29.24-16.12,43.87-24.14l43.86-24.12c14.61-8.05,29.2-16.14,43.73-24.34,29.05-16.39,57.91-33.14,86.49-50.34,7.13-4.33,14.29-8.6,21.38-12.99l10.66-6.55c3.55-2.18,7.05-4.43,10.58-6.65,3.51-2.24,7.06-4.41,10.54-6.7l10.39-6.93,5.2-3.46,5.11-3.58,10.22-7.18c13.45-9.8,26.78-19.8,39.58-30.45,6.5-5.2,12.72-10.75,19.05-16.15,6.17-5.59,12.4-11.11,18.41-16.87,24.28-22.78,46.8-47.48,66.99-73.98,2.57-3.28,4.96-6.69,7.46-10.02,2.47-3.35,4.82-6.79,7.24-10.19,4.67-6.9,9.3-13.83,13.61-20.96,4.34-7.11,8.49-14.34,12.35-21.73,1.91-3.7,3.82-7.41,5.58-11.19,1.78-3.77,3.49-7.58,4.97-11.47,.01-.03,.05-.05,.08-.04,.03,.01,.05,.05,.04,.08Z"/></g><path class="cls-9" d="M506,954.3c-43.15-83.66-41.98-184.05-20.84-275.78,21.14-91.73,60.69-178,92.15-266.72,27.89-78.66,49.66-161.78,45.52-244.64-.31-6.21,8.14-8.33,10.78-2.7,51.92,110.93,101.45,224.85,113,346.41,12.56,132.21-28.54,277.51-136,355.54-19.71,14.31-41.7,26.56-56.25,46.08-18.15,24.34-22.01,57.02-17.12,86.98,4.89,29.97,17.66,57.99,30.29,85.6l-61.52-130.78Z"/><g><path class="cls-2" d="M1266.91,1339.99c-42.62,0-76.58-12.44-100.93-36.99-15.26-15.38-25.77-34.5-31.26-56.85-32.03-4.46-55.91-16.52-71.04-35.86-15.13,19.34-39.01,31.4-71.04,35.86-5.49,22.35-15.99,41.47-31.26,56.86-24.35,24.54-58.31,36.99-100.93,36.99-4.19,0-8.51-.12-12.83-.36-45.18-2.49-90.28-11.64-127-25.75-42.8-16.44-72.34-38.95-85.44-65.1-2.17-4.32-3.92-8.78-5.2-13.25-2.86-9.93-9.07-18.71-17.48-24.72l-.21-.15c-34.09-24.43-58.63-64.5-72.9-119.09-23.29-89.09-20.76-171.3,6.76-219.92,6.61-11.68,9.27-24.79,7.71-37.92-2.76-23.09-3.18-46.09-1.25-68.34,2.83-32.63,10.67-63.3,23.3-91.15,12.6-27.79,30.05-52.93,51.85-74.7,12.13-12.12,18.7-29.32,18.02-47.18-.39-10.22,.07-20.53,1.37-30.63,5.3-41.2,27.61-100.4,103.65-149.11,8.15-24.48,31.18-69.07,95-103.95,48.31-26.4,94.34-32.65,129.6-17.59,14.04,6,26.03,15.38,34.78,27.19,10.92,2.26,20.91,6.8,29.71,13.5,5.59,4.26,10.66,9.36,15.07,15.16,2.1,2.77,5.29,4.35,8.74,4.35,3.46,0,6.64-1.59,8.74-4.35,4.41-5.8,9.48-10.91,15.07-15.16,8.8-6.7,18.79-11.23,29.71-13.5,8.75-11.81,20.74-21.19,34.78-27.19,35.26-15.06,81.29-8.82,129.6,17.59,63.82,34.88,86.85,79.47,95,103.95,76.04,48.7,98.35,107.9,103.65,149.11,2.01,15.61,2.01,31.5,0,47.23-.92,7.2,1.84,14.41,7.38,19.31,25.43,22.45,45.75,48.92,60.41,78.67,14.67,29.8,23.68,62.93,26.76,98.47,1.91,22.08,1.51,44.9-1.19,67.81-1.58,13.41,1.15,26.87,7.91,38.93,27.26,48.67,29.68,130.7,6.49,219.44-14.27,54.59-38.81,94.67-72.93,119.11l-.22,.15c-8.38,5.99-14.59,14.76-17.45,24.69-1.29,4.47-3.04,8.93-5.2,13.25-13.1,26.15-42.64,48.66-85.44,65.1-36.72,14.11-81.83,23.25-127,25.75-4.32,.24-8.64,.36-12.83,.36Zm-203.23-141.96c1.52,0,2.93,.76,3.76,2.03,.83,1.25,1.53,2.3,2.3,3.33,14.01,18.82,37.29,30.34,69.2,34.24,1.89,.23,3.43,1.63,3.85,3.49,4.88,22,14.83,40.69,29.58,55.55,22.6,22.78,54.41,34.33,94.54,34.33,4.03,0,8.18-.12,12.33-.35,82.86-4.58,178.35-32.91,204.9-85.89,1.92-3.83,3.47-7.77,4.6-11.71,3.42-11.87,10.84-22.37,20.9-29.55l.11-.08c32.43-23.23,55.8-61.61,69.53-114.12,22.62-86.54,20.52-166.08-5.63-212.77-7.69-13.73-10.8-29.08-9-44.38,2.63-22.31,3.02-44.5,1.16-65.98-5.95-68.63-35.05-127.82-84.15-171.17-7.78-6.87-11.65-17.03-10.35-27.2,1.91-14.96,1.92-30.08,0-44.93-5.09-39.54-26.72-96.53-100.91-143.52-.89-.57-1.56-1.43-1.88-2.44-7.28-22.83-28.8-66.21-91.25-100.35-45.84-25.05-89.08-31.17-121.75-17.21-13.09,5.59-24.17,14.44-32.03,25.59-.68,.96-1.71,1.62-2.87,1.83-10.22,1.87-19.53,5.96-27.67,12.16-4.95,3.76-9.44,8.29-13.35,13.44-3.82,5.03-9.61,7.91-15.91,7.91-6.3,0-12.1-2.88-15.91-7.91-3.91-5.16-8.41-9.68-13.35-13.44-8.15-6.2-17.46-10.29-27.68-12.16-1.16-.21-2.19-.87-2.87-1.83-7.87-11.15-18.94-20-32.03-25.59-32.67-13.95-75.91-7.84-121.75,17.21-62.45,34.13-83.98,77.52-91.25,100.35-.32,1.01-.99,1.87-1.88,2.44-74.19,46.99-95.83,103.99-100.92,143.52-1.23,9.61-1.67,19.41-1.3,29.14,.77,20.36-6.75,40.01-20.65,53.89-42.61,42.57-67.01,96.49-72.54,160.26-1.88,21.64-1.46,44.02,1.22,66.5,1.8,15.04-1.25,30.06-8.81,43.42-26.39,46.63-28.59,126.33-5.88,213.21,13.73,52.5,37.1,90.88,69.47,114.07l.16,.12c10.07,7.19,17.49,17.68,20.91,29.56,1.13,3.94,2.68,7.88,4.6,11.71,26.54,52.98,122.03,81.32,204.89,85.89,4.16,.23,8.31,.35,12.33,.35,40.13,0,71.94-11.55,94.54-34.33,14.75-14.86,24.7-33.55,29.58-55.55,.41-1.86,1.95-3.26,3.85-3.49,31.91-3.89,55.19-15.41,69.2-34.23,.77-1.03,1.47-2.08,2.3-3.33,.83-1.27,2.25-2.03,3.76-2.03Z"/><path class="cls-21" d="M1041.9,397.24v752.74s19.35,62.32-82.13,61.32c0,0,6.18,98-110.12,91.57-116.3-6.42-212.07-57.04-178.92-106.9,0,0-66.71-2.67-95.74-113.72-29.03-111.05-11.17-195.35,22.98-213.51,0,0-54.33-175.94,93.29-273.67,0,0-50.85-116.84,91.47-198.82,0,0,5.95-54.44,80.7-95.29,70.24-38.39,115.32-18.86,124.01,13.38,0,0,54.46-15.07,54.46,82.89Z"/><path class="cls-20" d="M1085.46,397.24v752.74s-19.35,62.32,82.13,61.32c0,0-6.18,98,110.12,91.57,116.3-6.42,212.07-57.04,178.92-106.9,0,0,66.71-2.67,95.74-113.72,29.03-111.05,11.17-195.35-22.98-213.51,0,0,54.33-175.94-93.29-273.67,0,0,50.85-116.84-91.47-198.82,0,0-5.95-54.44-80.7-95.29-70.24-38.39-115.32-18.86-124.01,13.38,0,0-54.46-15.07-54.46,82.89Z"/><g><path class="cls-2" d="M1320.51,967.22c-19.76,0-45.46-10.98-77.13-46.11-34.77-38.58-65.95-55.73-92.67-50.98-31.28,5.56-45.53,40.23-45.67,40.58-.41,1.02-1.57,1.52-2.6,1.11-1.02-.41-1.52-1.57-1.11-2.6,.6-1.51,15.18-37.05,48.66-43.02,28.17-5.02,60.6,12.55,96.37,52.24,47.19,52.35,80,49.37,99.21,37.65,28.54-17.41,40.96-61.72,35.76-78.34-5.92-1.75-34.08-11.5-45.65-41.39-12.59-32.51-.9-76.29,34.76-130.11,.6-.9,1.8-1.17,2.72-.6,.17,.11,17.29,10.79,34.47,27.74,15.96,15.75,35.25,40.32,36.53,67.89,1.16,24.75-12.1,47.77-39.39,68.44-.43,.33-.98,.46-1.51,.38-.54-.08-1.01-.38-1.33-.82-.33-.48-33.42-48.15-22.71-98.14,.23-1.08,1.29-1.77,2.38-1.54,1.08,.23,1.77,1.29,1.54,2.38-9.21,43.01,15.23,84.39,20.92,93.26,25.04-19.48,37.19-40.93,36.12-63.77-2.15-46.01-57.22-84.57-67.48-91.36-34.05,51.91-45.25,93.9-33.28,124.8,11.96,30.87,43.64,39.17,43.96,39.25,.63,.16,1.15,.62,1.38,1.23,3.39,8.95,1.6,25.26-4.56,41.54-4.18,11.04-13.96,31.24-32.53,42.57-7.26,4.43-16.31,7.73-27.13,7.73Z"/><path class="cls-2" d="M1314,1253.8c-.24,0-.49-.04-.73-.14-.91-.36-1.43-1.32-1.23-2.28,.04-.22,3.76-25.98-68.35-78.32-22.24-16.14-33.69-34.31-34.03-54-.48-27.63,20.85-50.03,29.97-58.33-8.64-.44-26.68-2.17-45.07-8.9-33.45-12.23-51.55-35.25-52.33-66.57-.61-24.13,5.67-42.25,18.66-53.87,19.23-17.2,45.92-13.77,47.04-13.61,1.09,.15,1.86,1.16,1.71,2.25-.15,1.09-1.15,1.86-2.25,1.71-.26-.03-26.03-3.32-43.86,12.66-12.06,10.8-17.88,27.88-17.31,50.77,.75,29.93,17.44,51.08,49.61,62.88,24.31,8.91,48.76,8.85,49.01,8.84h.01c.85,0,1.61,.54,1.89,1.34,.28,.81,.02,1.71-.66,2.23-.33,.26-33.02,26.19-32.44,58.56,.33,18.36,11.22,35.46,32.38,50.81,53.81,39.05,66.52,63.93,69.31,75.27,9.22-17.92,35.04-74.87,18.79-123.39-8.6-25.69-27.74-45.41-56.93-58.69,10.6,19.9,46.95,91.68,40.62,128.95-.19,1.09-1.22,1.83-2.31,1.64-1.09-.19-1.82-1.22-1.64-2.31,7.01-41.24-42.44-130.55-42.94-131.44-.41-.74-.31-1.67,.25-2.3,.56-.64,1.47-.85,2.26-.52,33.3,13.71,54.99,35.05,64.48,63.42,10.49,31.35,3.87,65.7-3.52,88.99-7.99,25.14-18.59,43.2-18.7,43.38-.37,.62-1.03,.98-1.72,.98Z"/><path class="cls-2" d="M1480.04,1159.48c-.27,0-.55-.06-.82-.17-.87-.39-1.34-1.33-1.13-2.26,.05-.23,4.56-24.29-37.01-53.24-15.35-10.68-23.25-21.97-23.49-33.55-.2-9.5,4.83-16.8,8.55-20.87-22.24-.66-40.43-12.4-52.84-34.2-9.97-17.52-12.66-35.08-12.77-35.82-.16-1.09,.59-2.11,1.68-2.27,1.08-.16,2.11,.59,2.27,1.68,.03,.17,2.72,17.65,12.35,34.53,12.74,22.32,31.01,33.09,54.28,32.04,.88-.02,1.67,.49,1.97,1.32,.3,.82,.03,1.74-.67,2.27-.11,.08-11.1,8.63-10.82,21.28,.23,10.21,7.55,20.41,21.77,30.31,30.69,21.37,37.48,40.32,38.7,50.2,8.33-13.52,27.21-48.87,16.33-76.19-6.06-15.21-20.53-25.85-43.05-31.7,10.27,9.19,28.12,29.59,26.7,59.43-.05,1.1-1,1.93-2.09,1.9-1.1-.05-1.96-.99-1.9-2.09,1.86-39.22-31.51-61.2-31.85-61.41-.81-.52-1.13-1.54-.77-2.43,.36-.89,1.29-1.4,2.23-1.22,28.81,5.53,47.13,17.66,54.45,36.05,14.48,36.37-19.01,83.59-20.44,85.59-.39,.54-1,.83-1.62,.83Z"/><path class="cls-2" d="M1201.78,810.95c-35.65,0-73.67-27.56-75.53-28.93-.73-.53-1.01-1.49-.68-2.33,1.11-2.89,27.67-70.81,72.46-77.75,40.46-6.26,52.48,28.79,54.71,36.99,21.42-1.27,41.68-14.36,54.46-35.28,9.45-15.46,12.38-32.13,7.48-42.47-6.4-13.51-14.84-21.78-25.82-25.3-13.37-4.28-30.52-1.77-52.43,7.68-26.09,11.25-51.07,10.84-68.53-1.14-12.61-8.66-27.31-27.47-25.72-67.94,1.46-37,21.16-57.13,37.42-67.49,17.56-11.18,34.52-13.61,35.24-13.7,1.09-.15,2.1,.62,2.25,1.71,.15,1.09-.61,2.1-1.71,2.25-.17,.02-16.93,2.44-33.75,13.19-22.41,14.33-34.34,35.93-35.45,64.19-1.21,30.59,7.09,52.89,23.98,64.48,16.3,11.19,39.88,11.47,64.68,.76,42.01-18.12,68.53-11.9,83.44,19.58,5.55,11.71,2.6,29.44-7.68,46.27-13.81,22.6-36,36.53-59.36,37.27-.02,0-.04,0-.06,0-.95,0-1.77-.67-1.96-1.61-.34-1.72-8.91-41.96-50.59-35.5-39.05,6.05-64.64,63.88-68.75,73.79,8.18,5.66,54.23,35.9,88.46,24.8,14.84-4.81,25.66-16.88,32.19-35.88-7.69-2.43-39.26-10.57-78.21,4.82-1.03,.4-2.19-.1-2.6-1.12-.41-1.03,.1-2.19,1.13-2.6,46.22-18.26,81.46-4.79,82.93-4.21,.98,.39,1.49,1.47,1.17,2.47-6.87,21.38-18.77,34.95-35.39,40.33-5.74,1.86-11.73,2.66-17.79,2.66Z"/><path class="cls-2" d="M1282.28,595.1c-.82,0-1.59-.51-1.88-1.33-.32-.89-7.61-22.04,3.49-38.15,7.5-10.88,21.47-16.63,41.52-17.09,18.87-.43,30.65-9.38,32.31-24.54,2.67-24.34-22.8-65.2-77.55-79.05-3.17,2.15-15.62,10.26-31.12,15.81-23.74,8.51-43.04,6.67-55.83-5.32-30.02-28.14-41.2-104.89-41.66-108.14-.08-.54,.07-1.09,.41-1.52,.34-.43,.83-.7,1.38-.76,3.93-.39,96.7-9.14,131.47,30.37,11.99,13.63,15.56,31.43,10.6,52.91-.17,.74-.74,1.32-1.48,1.49-.73,.18-1.51-.08-2-.66-.61-.72-61.04-71.79-94.74-58.35-1.02,.41-2.19-.09-2.6-1.12-.41-1.03,.09-2.19,1.12-2.6,32.51-12.96,84.2,42.37,96.62,56.41,3.38-18.4-.15-33.68-10.52-45.46-30.62-34.8-111.83-30.29-125.96-29.21,2.03,12.66,13.8,79.03,40.11,103.69,28.33,26.56,82.12-10.98,82.66-11.37,.47-.34,1.07-.45,1.63-.31,24.98,6.15,47.13,18.95,62.36,36.04,13.55,15.2,20.68,32.98,19.08,47.55-1.91,17.38-15.1,27.62-36.2,28.1-18.7,.43-31.59,5.6-38.32,15.36-9.96,14.44-3.09,34.34-3.02,34.54,.37,1.04-.18,2.18-1.22,2.55-.22,.08-.45,.12-.67,.12Z"/><path class="cls-2" d="M1405.41,663.68c-.26,0-.52-.05-.78-.16-1.02-.43-1.5-1.6-1.07-2.62,9.35-22.16,9.95-39.08,1.8-50.29-13.12-18.06-44.96-15.55-45.28-15.52-1.13,.09-2.07-.72-2.16-1.82-.09-1.1,.72-2.07,1.82-2.16,1.4-.12,34.42-2.7,48.86,17.16,9.03,12.42,8.57,30.66-1.35,54.19-.32,.76-1.06,1.22-1.84,1.22Z"/></g><g><path class="cls-2" d="M795.6,967.22c-10.83,0-19.87-3.3-27.14-7.73-18.57-11.33-28.35-31.53-32.53-42.57-6.16-16.28-7.95-32.58-4.56-41.54,.23-.61,.75-1.07,1.38-1.23,.32-.08,32.06-8.45,43.98-39.3,11.94-30.9,.74-72.87-33.29-124.75-10.26,6.8-65.34,45.38-67.48,91.37-1.06,22.84,11.09,44.28,36.12,63.76,5.69-8.88,30.12-50.29,20.92-93.26-.23-1.08,.46-2.14,1.54-2.38,1.08-.23,2.14,.46,2.38,1.54,10.71,49.99-22.37,97.66-22.71,98.14-.31,.44-.79,.74-1.33,.82-.54,.08-1.08-.05-1.51-.38-27.3-20.67-40.55-43.7-39.39-68.44,1.29-27.57,20.58-52.14,36.53-67.89,17.17-16.95,34.29-27.64,34.47-27.74,.92-.57,2.12-.3,2.72,.6,35.66,53.82,47.35,97.6,34.76,130.11-11.58,29.89-39.73,39.64-45.65,41.39-5.2,16.62,7.21,60.92,35.76,78.34,19.21,11.72,52.02,14.71,99.21-37.65,35.77-39.69,68.19-57.26,96.37-52.24,33.48,5.97,48.05,41.51,48.66,43.02,.41,1.03-.09,2.19-1.11,2.6-1.03,.41-2.19-.09-2.6-1.11-.14-.35-14.39-35.01-45.67-40.58-26.72-4.74-57.89,12.4-92.67,50.98-31.66,35.13-57.37,46.11-77.13,46.11Z"/><path class="cls-2" d="M802.11,1253.8c-.69,0-1.35-.36-1.72-.98-.11-.18-10.71-18.24-18.7-43.38-7.4-23.29-14.01-57.63-3.52-88.99,9.49-28.37,31.19-49.7,64.48-63.42,.79-.33,1.69-.11,2.26,.52,.56,.64,.67,1.56,.25,2.3-.5,.9-49.95,90.21-42.94,131.44,.19,1.09-.55,2.12-1.64,2.31-1.1,.19-2.12-.55-2.31-1.64-6.34-37.27,30.01-109.05,40.62-128.95-29.19,13.27-48.33,33-56.92,58.69-16.24,48.52,9.57,105.47,18.79,123.39,2.8-11.33,15.5-36.22,69.31-75.27,21.16-15.36,32.05-32.45,32.38-50.81,.58-32.37-32.11-58.3-32.44-58.56-.67-.53-.94-1.43-.66-2.23,.28-.8,1.04-1.34,1.89-1.34,0,0,.01,0,.07,0,1.34,0,25.22-.14,48.96-8.84,32.17-11.79,48.86-32.95,49.61-62.88,.57-22.9-5.26-39.99-17.33-50.79-17.87-15.98-43.57-12.67-43.83-12.63-1.09,.15-2.1-.61-2.25-1.71-.15-1.09,.62-2.1,1.71-2.25,1.12-.16,27.81-3.59,47.04,13.61,12.99,11.62,19.27,29.74,18.66,53.87-.78,31.32-18.88,54.34-52.33,66.57-18.4,6.73-36.43,8.46-45.07,8.9,9.12,8.3,30.46,30.7,29.97,58.33-.34,19.69-11.79,37.86-34.03,54-72.84,52.86-68.41,78.07-68.35,78.32,.21,.96-.31,1.92-1.23,2.28-.24,.09-.48,.14-.73,.14Z"/><path class="cls-2" d="M636.06,1159.48c-.63,0-1.23-.29-1.62-.83-1.43-1.99-34.92-49.22-20.44-85.59,7.32-18.39,25.64-30.52,54.45-36.05,.94-.18,1.88,.33,2.23,1.22,.36,.89,.03,1.91-.77,2.43-.34,.22-33.71,22.26-31.85,61.41,.05,1.1-.8,2.04-1.9,2.09-1.09,.03-2.04-.8-2.09-1.9-1.41-29.84,16.43-50.24,26.71-59.43-22.53,5.85-37,16.49-43.06,31.71-10.89,27.35,8,62.68,16.33,76.19,1.21-9.88,8-28.83,38.7-50.2,14.22-9.9,21.55-20.1,21.77-30.31,.28-12.64-10.71-21.19-10.82-21.28-.69-.53-.96-1.45-.67-2.27,.3-.82,1.1-1.34,1.97-1.32,23.3,1.04,41.59-9.76,54.33-32.14,9.61-16.88,12.27-34.26,12.29-34.43,.16-1.09,1.19-1.84,2.27-1.68,1.09,.16,1.85,1.18,1.68,2.27-.11,.74-2.8,18.3-12.77,35.82-12.41,21.8-30.6,33.54-52.84,34.2,3.72,4.08,8.74,11.37,8.55,20.87-.24,11.58-8.14,22.86-23.49,33.55-41.57,28.94-37.06,53.01-37.01,53.25,.2,.92-.28,1.87-1.15,2.25-.26,.12-.54,.17-.81,.17Z"/><path class="cls-2" d="M914.33,810.95c-6.06,0-12.06-.8-17.79-2.66-16.62-5.38-28.52-18.95-35.39-40.33-.32-1,.19-2.08,1.17-2.47,1.48-.58,36.72-14.05,82.93,4.21,1.03,.41,1.53,1.57,1.13,2.6-.41,1.03-1.56,1.53-2.6,1.12-38.95-15.39-70.52-7.25-78.21-4.82,6.52,19,17.35,31.07,32.18,35.88,34.23,11.1,80.28-19.13,88.46-24.8-4.12-9.91-29.72-67.75-68.75-73.79-17.53-2.72-31.35,2.4-41.09,15.21-7.33,9.65-9.48,20.18-9.5,20.29-.19,.94-1.01,1.61-1.96,1.61-.02,0-.04,0-.06,0-23.36-.74-45.55-14.67-59.36-37.27-10.29-16.84-13.23-34.57-7.68-46.27,14.92-31.48,41.43-37.7,83.45-19.58,24.81,10.7,48.38,10.42,64.68-.76,16.9-11.6,25.19-33.89,23.98-64.48-1.12-28.27-13.04-49.86-35.45-64.19-16.83-10.76-33.59-13.17-33.75-13.19-1.09-.15-1.86-1.16-1.71-2.25,.15-1.09,1.16-1.86,2.25-1.71,.71,.1,17.68,2.52,35.24,13.7,16.27,10.36,35.97,30.48,37.43,67.49,1.6,40.47-13.1,59.28-25.72,67.94-17.46,11.98-42.44,12.4-68.53,1.14-21.91-9.45-39.06-11.97-52.43-7.68-10.97,3.51-19.42,11.79-25.82,25.3-4.9,10.34-1.96,27.01,7.48,42.47,12.78,20.92,33.04,34.01,54.46,35.28,2.24-8.2,14.25-43.26,54.71-36.99,44.78,6.94,71.35,74.86,72.46,77.75,.32,.84,.04,1.79-.68,2.33-1.86,1.37-39.88,28.93-75.53,28.93Z"/><path class="cls-2" d="M833.83,595.1c-.22,0-.45-.04-.67-.12-1.04-.37-1.59-1.51-1.22-2.55,.07-.2,6.92-20.16-3.03-34.56-6.74-9.75-19.63-14.91-38.31-15.34-21.1-.49-34.29-10.73-36.2-28.1-1.6-14.57,5.54-32.35,19.08-47.55,15.23-17.09,37.37-29.88,62.36-36.04,.56-.14,1.16-.03,1.63,.31,.54,.38,54.35,37.91,82.66,11.37,26.32-24.67,38.08-91.04,40.11-103.69-14.14-1.07-95.36-5.58-125.97,29.21-10.36,11.78-13.89,27.06-10.52,45.46,12.42-14.05,64.1-69.37,96.62-56.41,1.03,.41,1.53,1.57,1.12,2.6-.41,1.03-1.57,1.53-2.6,1.12-33.7-13.44-94.14,57.63-94.74,58.35-.49,.58-1.26,.83-2,.66-.74-.18-1.31-.76-1.48-1.49-4.96-21.48-1.39-39.29,10.6-52.91,34.77-39.51,127.54-30.76,131.47-30.37,.54,.05,1.04,.33,1.38,.76,.34,.43,.48,.98,.41,1.52-.46,3.25-11.64,80-41.66,108.14-12.79,11.99-32.1,13.83-55.83,5.32-15.5-5.55-27.95-13.66-31.12-15.81-54.75,13.85-80.22,54.71-77.55,79.05,1.66,15.16,13.44,24.11,32.31,24.54,20.05,.46,34.02,6.21,41.52,17.09,11.11,16.11,3.81,37.25,3.49,38.15-.29,.82-1.06,1.33-1.88,1.33Z"/><path class="cls-2" d="M710.69,663.68c-.78,0-1.52-.46-1.84-1.22-9.93-23.54-10.38-41.77-1.36-54.19,14.44-19.86,47.46-17.28,48.86-17.16,1.1,.09,1.91,1.06,1.82,2.16-.09,1.1-1.06,1.91-2.16,1.82-.32-.03-32.19-2.5-45.29,15.54-8.14,11.21-7.53,28.13,1.81,50.28,.43,1.02-.05,2.19-1.07,2.62-.25,.11-.52,.16-.78,.16Z"/></g></g><g><path class="cls-3" d="M669.29,816.99l2.56-1.6c.7-.44,1.63-.23,2.07,.48,.44,.7,.23,1.63-.48,2.07h0s-.01,.01-.01,.01l-2.53,1.58h-.01c-.7,.45-1.63,.23-2.07-.47-.44-.7-.23-1.63,.48-2.06Z"/><path class="cls-3" d="M677.88,811.76l2.61-1.5c.72-.42,1.65-.17,2.07,.56,.42,.72,.17,1.65-.56,2.07h0s-.01,0-.01,0l-2.59,1.48h-.01c-.72,.42-1.65,.17-2.06-.55-.41-.72-.17-1.64,.56-2.06Z"/><path class="cls-3" d="M686.66,806.86l2.67-1.41c.74-.39,1.66-.11,2.06,.64,.39,.74,.11,1.66-.64,2.06h0s-.01,0-.01,0l-2.64,1.39h-.01c-.74,.4-1.66,.11-2.05-.63-.39-.74-.11-1.66,.64-2.05Z"/><path class="cls-3" d="M695.61,802.28l2.72-1.31c.76-.37,1.68-.05,2.05,.71,.37,.76,.05,1.68-.71,2.05h0s-.01,0-.01,0l-2.69,1.29h-.01c-.76,.37-1.68,.05-2.04-.71-.37-.76-.05-1.67,.71-2.04Z"/><path class="cls-3" d="M704.72,798.02l2.76-1.22c.78-.34,1.69,0,2.03,.79s0,1.69-.79,2.03h0s-.01,0-.01,0l-2.73,1.2h-.01c-.78,.35-1.69,0-2.03-.79-.34-.78,.01-1.69,.79-2.03Z"/><path class="cls-3" d="M713.96,794.08l2.8-1.12c.8-.32,1.7,.07,2.02,.86,.32,.8-.07,1.7-.86,2.02h0s-.01,0-.01,0l-2.77,1.11h-.01c-.79,.32-1.7-.06-2.01-.86-.32-.79,.07-1.69,.86-2.01Z"/><path class="cls-3" d="M723.33,790.45l2.83-1.03c.81-.3,1.71,.12,2,.93,.29,.81-.12,1.71-.93,2h0s-.01,0-.01,0l-2.81,1.02h-.01c-.81,.3-1.7-.12-2-.93-.29-.81,.12-1.7,.93-1.99Z"/><path class="cls-3" d="M732.81,787.11l2.86-.94c.82-.27,1.71,.18,1.98,1,.27,.82-.18,1.71-1,1.98h0s-.01,0-.01,0l-2.84,.93h-.01c-.82,.27-1.71-.18-1.98-1-.27-.82,.18-1.71,1-1.98Z"/><path class="cls-3" d="M742.39,784.07l2.89-.86c.84-.25,1.72,.23,1.97,1.07,.25,.84-.23,1.72-1.07,1.97h0s-.01,0-.01,0l-2.86,.84h-.01c-.84,.25-1.71-.23-1.96-1.07-.25-.84,.23-1.71,1.07-1.96Z"/><path class="cls-3" d="M752.04,781.32l2.91-.77c.85-.23,1.72,.28,1.95,1.13,.23,.85-.28,1.72-1.13,1.95h0s-.01,0-.01,0l-2.89,.76h-.01c-.85,.23-1.72-.28-1.94-1.13-.22-.85,.28-1.72,1.13-1.94Z"/><path class="cls-3" d="M761.78,778.84l2.93-.69c.86-.2,1.72,.33,1.93,1.19,.2,.86-.33,1.72-1.19,1.93h0s-.01,0-.01,0l-2.91,.68h-.01c-.86,.2-1.72-.33-1.92-1.19-.2-.86,.33-1.72,1.19-1.92Z"/><path class="cls-3" d="M771.57,776.63l2.95-.61c.87-.18,1.72,.38,1.9,1.25,.18,.87-.38,1.72-1.25,1.9h0s-.01,0-.01,0l-2.93,.6h-.01c-.87,.18-1.72-.38-1.9-1.25-.18-.87,.38-1.72,1.25-1.9Z"/><path class="cls-3" d="M781.42,774.67l2.96-.54c.88-.16,1.72,.42,1.88,1.3,.16,.88-.42,1.72-1.3,1.88h0s-.01,0-.01,0l-2.94,.53h-.01c-.88,.16-1.72-.42-1.88-1.3-.16-.88,.42-1.72,1.3-1.88Z"/><path class="cls-3" d="M791.31,772.96l2.98-.47c.89-.14,1.72,.47,1.86,1.36,.14,.89-.47,1.72-1.36,1.86h0s-.01,0-.01,0l-2.95,.46h-.01c-.89,.14-1.72-.47-1.86-1.36s.47-1.72,1.36-1.86Z"/><path class="cls-3" d="M801.24,771.48l2.98-.4c.9-.12,1.72,.51,1.84,1.41s-.51,1.72-1.41,1.84h0s-.01,0-.01,0l-2.96,.39h-.01c-.9,.12-1.72-.51-1.84-1.41-.12-.9,.51-1.72,1.41-1.84Z"/><path class="cls-3" d="M811.2,770.23l2.99-.33c.91-.1,1.72,.55,1.82,1.46,.1,.91-.55,1.72-1.46,1.82h0s-.01,0-.01,0l-2.97,.32h-.01c-.9,.1-1.72-.55-1.82-1.46-.1-.9,.55-1.72,1.45-1.82Z"/><path class="cls-3" d="M821.18,769.2l3-.27c.91-.08,1.72,.59,1.8,1.5,.08,.91-.59,1.72-1.5,1.8h0s-.01,0-.01,0l-2.98,.26h-.01c-.91,.08-1.72-.59-1.8-1.5-.08-.91,.59-1.72,1.5-1.8Z"/><path class="cls-3" d="M831.18,768.37l3.01-.21c.92-.06,1.72,.63,1.78,1.55,.06,.92-.63,1.72-1.55,1.78h0s0,0,0,0l-2.99,.2h-.01c-.92,.06-1.71-.63-1.78-1.55-.06-.92,.63-1.71,1.55-1.78Z"/><path class="cls-3" d="M841.19,767.74l3.01-.15c.93-.05,1.72,.67,1.76,1.59,.05,.93-.67,1.72-1.59,1.76h0s0,0,0,0l-2.99,.15h0c-.92,.05-1.71-.67-1.76-1.59-.05-.92,.66-1.71,1.59-1.76Z"/><path class="cls-3" d="M851.21,767.29l3.01-.1c.93-.03,1.71,.7,1.74,1.63,.03,.93-.7,1.71-1.63,1.74h-.01s-2.99,.09-2.99,.09h0c-.93,.03-1.71-.7-1.74-1.63-.03-.93,.7-1.71,1.63-1.74Z"/><path class="cls-3" d="M861.24,767.03l3.01-.05c.94-.01,1.71,.73,1.72,1.67,.01,.94-.73,1.71-1.67,1.72h-.01s-2.99,.04-2.99,.04h0c-.94,.01-1.71-.74-1.72-1.67-.01-.94,.73-1.71,1.67-1.72Z"/><path class="cls-3" d="M871.27,766.93h3.01c.94,0,1.71,.77,1.71,1.71,0,.94-.77,1.71-1.71,1.71h-3s0,0,0,0c-.94,0-1.7-.77-1.7-1.71,0-.94,.77-1.7,1.71-1.7Z"/><path class="cls-3" d="M881.29,767l3.01,.05c.95,.02,1.7,.8,1.69,1.75-.02,.95-.8,1.7-1.75,1.69h-.01s-2.99-.06-2.99-.06h0c-.95-.02-1.7-.8-1.68-1.75,.02-.95,.8-1.7,1.74-1.68Z"/><path class="cls-3" d="M891.32,767.23l3.01,.1c.95,.03,1.7,.83,1.67,1.78s-.83,1.7-1.78,1.67h-.01s-3-.1-3-.1h0c-.95-.03-1.7-.83-1.67-1.78,.03-.95,.83-1.7,1.78-1.67Z"/><path class="cls-3" d="M901.34,767.6l3.01,.14c.96,.04,1.7,.86,1.66,1.82-.04,.96-.86,1.7-1.82,1.66h0s0,0,0,0l-2.99-.14h0c-.96-.05-1.7-.86-1.65-1.82,.05-.96,.86-1.7,1.81-1.65Z"/><path class="cls-3" d="M911.35,768.11l3,.18c.96,.06,1.7,.88,1.64,1.85-.06,.96-.88,1.7-1.85,1.64h0s0,0,0,0l-2.99-.18h0c-.96-.06-1.69-.89-1.64-1.85,.06-.96,.88-1.69,1.84-1.64Z"/><path class="cls-3" d="M921.35,768.74l3,.21c.97,.07,1.7,.91,1.63,1.88-.07,.97-.91,1.7-1.88,1.63h0s0,0,0,0l-2.99-.22h0c-.97-.07-1.69-.91-1.62-1.88,.07-.97,.91-1.69,1.87-1.62Z"/><path class="cls-3" d="M931.34,769.47l2.99,.24c.97,.08,1.7,.93,1.62,1.9-.08,.97-.93,1.7-1.9,1.62h0s0,0,0,0l-2.98-.25h0c-.97-.08-1.69-.93-1.61-1.9,.08-.97,.93-1.69,1.9-1.61Z"/><path class="cls-3" d="M941.32,770.31l2.99,.27c.98,.09,1.7,.95,1.61,1.93-.09,.98-.95,1.7-1.93,1.61h0s-2.98-.27-2.98-.27c-.98-.09-1.7-.95-1.61-1.92,.09-.98,.95-1.7,1.92-1.61Z"/><path class="cls-3" d="M951.29,771.23l2.99,.29c.98,.1,1.7,.97,1.61,1.95-.1,.98-.97,1.7-1.95,1.61h0s-2.98-.3-2.98-.3c-.98-.09-1.7-.97-1.6-1.95,.1-.98,.97-1.7,1.95-1.6Z"/><path class="cls-3" d="M961.25,772.22l2.99,.31c.99,.1,1.7,.99,1.6,1.97-.1,.99-.99,1.7-1.97,1.6h0s-2.98-.32-2.98-.32c-.99-.1-1.7-.98-1.6-1.97,.1-.99,.98-1.7,1.97-1.6Z"/><path class="cls-3" d="M971.2,773.28l2.99,.33c.99,.11,1.71,1,1.6,1.99-.11,.99-1,1.71-1.99,1.6h0s-2.98-.34-2.98-.34c-.99-.11-1.7-1-1.59-1.99,.11-.99,1-1.7,1.99-1.59Z"/><path class="cls-3" d="M981.15,774.39l2.98,.34c1,.11,1.71,1.02,1.6,2.01-.11,1-1.02,1.71-2.01,1.6h0s-2.98-.35-2.98-.35c-.99-.12-1.71-1.01-1.59-2.01,.12-.99,1.01-1.71,2.01-1.59Z"/><path class="cls-3" d="M991.09,775.55l2.98,.35c1,.12,1.72,1.03,1.6,2.03-.12,1-1.03,1.72-2.03,1.6h0s-2.98-.36-2.98-.36c-1-.12-1.71-1.03-1.59-2.03,.12-1,1.03-1.71,2.03-1.59Z"/><path class="cls-3" d="M1001.03,776.75l2.98,.36c1.01,.12,1.72,1.04,1.6,2.04-.12,1.01-1.04,1.72-2.04,1.6h0s-2.98-.37-2.98-.37c-1-.12-1.72-1.04-1.6-2.04,.12-1,1.04-1.72,2.04-1.6Z"/><path class="cls-3" d="M1010.97,777.96l2.98,.37c1.01,.12,1.73,1.05,1.61,2.06-.12,1.01-1.05,1.73-2.06,1.61h0s-2.98-.37-2.98-.37c-1.01-.13-1.73-1.05-1.6-2.06s1.04-1.73,2.05-1.6Z"/><path class="cls-3" d="M1020.9,779.19l2.98,.37c1.02,.13,1.74,1.05,1.61,2.07-.13,1.02-1.05,1.74-2.07,1.61h0s-2.98-.38-2.98-.38c-1.01-.13-1.73-1.05-1.61-2.07,.13-1.02,1.05-1.73,2.07-1.61Z"/><path class="cls-3" d="M1030.82,780.42l2.98,.37c1.02,.13,1.75,1.06,1.62,2.08-.13,1.02-1.06,1.75-2.08,1.62h0s-2.98-.37-2.98-.37c-1.02-.13-1.74-1.06-1.62-2.08,.13-1.02,1.06-1.74,2.08-1.62Z"/><path class="cls-3" d="M1040.75,781.65l2.98,.36c1.03,.12,1.76,1.06,1.63,2.09-.12,1.03-1.06,1.76-2.09,1.63h0s-2.98-.37-2.98-.37c-1.03-.13-1.75-1.06-1.63-2.09,.13-1.03,1.06-1.75,2.09-1.63Z"/><path class="cls-3" d="M1050.67,782.85l2.98,.36c1.03,.12,1.77,1.06,1.65,2.09-.12,1.03-1.06,1.77-2.09,1.65h0s-2.98-.36-2.98-.36c-1.03-.13-1.77-1.06-1.64-2.1,.13-1.03,1.06-1.77,2.09-1.64Z"/><path class="cls-3" d="M1060.6,784.03l2.98,.35c1.04,.12,1.79,1.06,1.67,2.1-.12,1.04-1.06,1.79-2.1,1.67h0s-2.98-.35-2.98-.35c-1.04-.12-1.78-1.06-1.66-2.1,.12-1.04,1.06-1.78,2.1-1.66Z"/><path class="cls-3" d="M1070.53,785.17l2.98,.33c1.05,.11,1.8,1.06,1.68,2.1-.11,1.05-1.06,1.8-2.1,1.69h0s-2.99-.34-2.99-.34c-1.04-.12-1.79-1.06-1.67-2.1,.12-1.04,1.06-1.79,2.1-1.67Z"/><path class="cls-3" d="M1080.47,786.25l2.98,.32c1.05,.11,1.82,1.05,1.71,2.1-.11,1.05-1.05,1.82-2.1,1.71h0s-2.99-.32-2.99-.32c-1.05-.11-1.81-1.06-1.7-2.1s1.06-1.81,2.1-1.7Z"/><path class="cls-3" d="M1090.41,787.28l2.98,.29c1.06,.1,1.83,1.04,1.73,2.1-.1,1.06-1.04,1.83-2.1,1.73h0s-2.99-.3-2.99-.3c-1.06-.11-1.82-1.05-1.72-2.1,.11-1.06,1.05-1.82,2.1-1.72Z"/><path class="cls-3" d="M1100.35,788.24l2.98,.27c1.06,.09,1.85,1.03,1.76,2.1-.09,1.06-1.03,1.85-2.1,1.76h0s-2.99-.28-2.99-.28c-1.06-.1-1.84-1.04-1.74-2.1,.1-1.06,1.04-1.84,2.1-1.74Z"/><path class="cls-3" d="M1110.29,789.12l2.98,.25h0c1.07,.09,1.87,1.03,1.78,2.1-.09,1.07-1.03,1.87-2.1,1.78h0s-2.99-.25-2.99-.25c-1.07-.09-1.86-1.03-1.77-2.1,.09-1.07,1.03-1.86,2.1-1.77h0Z"/><path class="cls-3" d="M1120.24,789.9l2.99,.22h0c1.08,.08,1.88,1.01,1.81,2.09-.08,1.08-1.01,1.88-2.09,1.81h0s-3-.22-3-.22c-1.07-.08-1.88-1.02-1.8-2.09,.08-1.07,1.02-1.88,2.09-1.8h0Z"/><path class="cls-3" d="M1130.19,790.58l2.99,.18h0c1.08,.07,1.91,1,1.84,2.08-.07,1.08-1,1.91-2.08,1.84h0s-3-.19-3-.19c-1.08-.07-1.9-1-1.83-2.08,.07-1.08,1-1.9,2.08-1.83h0Z"/><path class="cls-3" d="M1140.15,791.15l2.99,.15h0c1.09,.05,1.93,.98,1.87,2.07-.05,1.09-.98,1.93-2.07,1.87h0s-3-.15-3-.15c-1.09-.06-1.92-.98-1.87-2.07,.06-1.09,.98-1.92,2.07-1.87h0Z"/><path class="cls-3" d="M1150.12,791.6l2.99,.11h0c1.09,.04,1.95,.96,1.91,2.05-.04,1.09-.96,1.95-2.05,1.91h0s-3.01-.12-3.01-.12c-1.09-.04-1.94-.96-1.9-2.05,.04-1.09,.96-1.94,2.05-1.9h0Z"/><path class="cls-3" d="M1160.08,791.91l2.99,.06h0c1.1,.02,1.97,.93,1.95,2.03-.02,1.1-.93,1.97-2.03,1.95h0l-3.01-.07c-1.1-.03-1.97-.94-1.94-2.03,.03-1.1,.94-1.97,2.03-1.94h0Z"/><path class="cls-3" d="M1170.05,792.06h2.99s0,.01,0,.01c1.11,0,2,.91,1.99,2.01,0,1.11-.91,2-2.01,1.99h0l-3.01-.02c-1.1,0-1.99-.91-1.99-2.01,0-1.1,.91-1.99,2.01-1.99h0Z"/><path class="cls-3" d="M1180.02,792.06l2.99-.03h.01c1.11-.01,2.02,.88,2.04,1.99,.01,1.11-.88,2.02-1.99,2.04h0l-3.01,.03c-1.11,.01-2.02-.88-2.03-1.99-.01-1.11,.88-2.02,1.99-2.03h0Z"/><path class="cls-3" d="M1189.98,791.88l2.99-.09h.01c1.12-.03,2.05,.85,2.08,1.96,.03,1.12-.85,2.05-1.96,2.08h0l-3.01,.08c-1.11,.03-2.04-.85-2.07-1.96-.03-1.11,.85-2.04,1.96-2.07h0Z"/><path class="cls-3" d="M1199.94,791.53l2.99-.14h.01c1.12-.05,2.07,.81,2.13,1.93,.05,1.12-.81,2.07-1.93,2.13h0s-3.01,.14-3.01,.14c-1.12,.05-2.07-.82-2.12-1.93-.05-1.12,.82-2.07,1.93-2.12h0Z"/><path class="cls-3" d="M1209.88,790.99l2.98-.2h.01c1.12-.08,2.1,.78,2.17,1.9,.07,1.12-.78,2.1-1.9,2.17h0s-3.01,.19-3.01,.19c-1.12,.07-2.09-.78-2.17-1.9s.78-2.09,1.9-2.16h0Z"/><path class="cls-3" d="M1219.82,790.26l2.98-.26h.01c1.13-.1,2.12,.74,2.22,1.87,.1,1.13-.74,2.12-1.87,2.22h0s-3,.25-3,.25c-1.13,.1-2.12-.74-2.21-1.87-.1-1.13,.74-2.12,1.87-2.21h0Z"/><path class="cls-3" d="M1229.73,789.33l2.97-.32h.01c1.13-.12,2.15,.7,2.27,1.83s-.7,2.15-1.83,2.27h0s-3,.32-3,.32c-1.13,.12-2.14-.7-2.26-1.83-.12-1.13,.7-2.14,1.83-2.26h0Z"/><path class="cls-3" d="M1239.62,788.19l2.96-.38h.01c1.13-.15,2.17,.65,2.32,1.79,.15,1.13-.65,2.17-1.79,2.32h0s-2.99,.38-2.99,.38c-1.13,.14-2.17-.66-2.31-1.79-.14-1.13,.66-2.17,1.79-2.31h0Z"/><path class="cls-3" d="M1249.48,786.84l2.95-.45h.01c1.14-.18,2.2,.6,2.37,1.74,.17,1.14-.61,2.2-1.74,2.37h0s-2.98,.45-2.98,.45c-1.13,.17-2.19-.61-2.36-1.74-.17-1.13,.61-2.19,1.74-2.36h.01Z"/><path class="cls-3" d="M1259.31,785.26l2.94-.52h.02c1.14-.2,2.22,.55,2.42,1.69,.2,1.14-.56,2.22-1.69,2.42h0s-2.97,.52-2.97,.52c-1.14,.2-2.22-.56-2.42-1.7-.2-1.14,.56-2.22,1.7-2.42h.01Z"/><path class="cls-3" d="M1269.09,783.44l2.92-.59h.02c1.14-.23,2.24,.5,2.48,1.64,.23,1.14-.5,2.24-1.64,2.48h0s-2.96,.59-2.96,.59c-1.14,.23-2.24-.51-2.47-1.64-.23-1.14,.51-2.24,1.64-2.47h.01Z"/><path class="cls-3" d="M1278.82,781.37l2.91-.67h.02c1.14-.26,2.27,.44,2.53,1.58s-.45,2.27-1.58,2.53h0s-2.94,.67-2.94,.67c-1.13,.26-2.26-.45-2.52-1.59-.26-1.13,.45-2.26,1.59-2.52h.01Z"/><path class="cls-3" d="M1288.48,779.05l2.89-.75h.02c1.13-.3,2.29,.38,2.58,1.52,.29,1.13-.39,2.29-1.52,2.58h0s-2.92,.75-2.92,.75c-1.13,.29-2.29-.39-2.58-1.52-.29-1.13,.39-2.29,1.52-2.58h.01Z"/><path class="cls-3" d="M1298.08,776.47l2.86-.83h.02c1.13-.33,2.31,.32,2.64,1.45,.33,1.13-.32,2.31-1.45,2.64h0s-2.9,.83-2.9,.83c-1.13,.32-2.31-.33-2.63-1.46-.32-1.13,.33-2.31,1.46-2.63h.01Z"/><path class="cls-3" d="M1307.6,773.61l2.84-.91h.02c1.12-.37,2.33,.25,2.69,1.38,.36,1.12-.26,2.33-1.38,2.69h0s-2.88,.92-2.88,.92c-1.12,.36-2.33-.26-2.68-1.38-.36-1.12,.26-2.33,1.38-2.68h.01Z"/><path class="cls-3" d="M1317.03,770.46l2.81-1h.02c1.12-.4,2.35,.18,2.74,1.3,.4,1.12-.19,2.35-1.3,2.74h0s-2.85,1.01-2.85,1.01c-1.12,.4-2.34-.19-2.74-1.31-.4-1.12,.19-2.34,1.31-2.74h.02Z"/><path class="cls-3" d="M1326.35,767.03l2.77-1.09h.02c1.11-.44,2.36,.1,2.8,1.21,.44,1.11-.11,2.36-1.22,2.8h0s-2.81,1.1-2.81,1.1c-1.11,.43-2.36-.12-2.79-1.22-.43-1.11,.12-2.36,1.22-2.79h.02Z"/><path class="cls-3" d="M1335.54,763.3l2.73-1.18h.02c1.1-.48,2.38,.02,2.85,1.12,.47,1.1-.03,2.38-1.13,2.85h0s-2.78,1.19-2.78,1.19c-1.1,.47-2.37-.04-2.84-1.14-.47-1.1,.04-2.37,1.14-2.84h.02Z"/><path class="cls-3" d="M1344.61,759.26l2.69-1.27h.02c1.09-.52,2.39-.06,2.9,1.03,.51,1.09,.05,2.39-1.04,2.9h0s-2.74,1.29-2.74,1.29c-1.09,.51-2.38,.04-2.89-1.04-.51-1.09-.04-2.38,1.04-2.89h.02Z"/><path class="cls-3" d="M1353.53,754.91l2.64-1.37h.02c1.07-.57,2.39-.15,2.95,.93,.55,1.07,.13,2.39-.94,2.95h0s-2.69,1.39-2.69,1.39c-1.07,.55-2.39,.13-2.94-.94-.55-1.07-.13-2.39,.94-2.94h.02Z"/><path class="cls-3" d="M1362.28,750.24l2.59-1.46h.02c1.06-.61,2.4-.23,2.99,.82,.6,1.06,.22,2.4-.83,2.99h0s-2.64,1.48-2.64,1.48c-1.06,.59-2.39,.22-2.99-.84s-.22-2.39,.84-2.99h.02Z"/><path class="cls-3" d="M1370.85,745.26l2.53-1.56h.02c1.04-.65,2.4-.33,3.04,.71,.64,1.04,.31,2.4-.72,3.04h0s-2.58,1.58-2.58,1.58c-1.04,.64-2.4,.31-3.03-.73-.64-1.04-.31-2.4,.73-3.03h.02Z"/><path class="cls-3" d="M1379.23,739.95l2.47-1.65h.02c1.02-.7,2.4-.42,3.08,.6,.68,1.02,.41,2.39-.61,3.08h0s-2.52,1.68-2.52,1.68c-1.02,.68-2.39,.4-3.07-.62-.68-1.02-.4-2.39,.62-3.07h.02Z"/><path class="cls-3" d="M1387.39,734.33l2.4-1.75,.02-.02c.99-.72,2.39-.51,3.11,.49,.72,.99,.51,2.39-.49,3.11h0s-2.45,1.78-2.45,1.78c-.99,.72-2.38,.5-3.11-.49-.72-.99-.5-2.38,.49-3.11h.02Z"/><path class="cls-3" d="M1395.31,728.37l2.33-1.85,.02-.02c.97-.77,2.37-.61,3.14,.36,.77,.97,.61,2.37-.36,3.14h0s-2.37,1.88-2.37,1.88c-.97,.77-2.37,.6-3.14-.36-.77-.97-.6-2.37,.36-3.14h.02Z"/><path class="cls-3" d="M1402.97,722.09l2.25-1.94,.02-.02c.94-.81,2.36-.71,3.17,.23s.71,2.36-.23,3.17h0s-2.29,1.98-2.29,1.98c-.94,.81-2.36,.7-3.16-.23-.81-.94-.7-2.36,.23-3.16l.02-.02Z"/><path class="cls-3" d="M1410.36,715.5l2.17-2.03,.02-.02c.91-.85,2.34-.81,3.19,.1,.85,.91,.81,2.34-.1,3.19h0s-2.21,2.07-2.21,2.07c-.91,.85-2.33,.8-3.19-.11-.85-.91-.8-2.33,.11-3.18l.02-.02Z"/><path class="cls-3" d="M1417.49,708.62l2.08-2.12,.02-.02c.88-.89,2.31-.91,3.2-.03,.89,.88,.91,2.31,.03,3.2h0s-2.12,2.16-2.12,2.16c-.88,.89-2.31,.9-3.2,.02-.89-.88-.9-2.31-.02-3.2l.02-.02Z"/><path class="cls-3" d="M1424.33,701.46l2-2.2,.02-.02c.84-.93,2.28-1,3.21-.16s1,2.28,.16,3.21h0s-2.04,2.24-2.04,2.24c-.85,.93-2.28,.99-3.21,.15-.93-.85-.99-2.28-.15-3.21l.02-.02Z"/><path class="cls-3" d="M1430.89,694.03l1.91-2.28,.02-.02c.81-.97,2.25-1.09,3.22-.28,.97,.81,1.09,2.25,.28,3.22h0s-1.95,2.32-1.95,2.32c-.81,.96-2.25,1.09-3.22,.28s-1.09-2.25-.28-3.22v-.02Z"/><path class="cls-3" d="M1437.15,686.36l1.82-2.35,.02-.02c.78-1,2.22-1.19,3.22-.41,1,.78,1.19,2.22,.41,3.22h0s-1.86,2.39-1.86,2.39c-.78,1-2.22,1.18-3.22,.4-1-.78-1.18-2.22-.4-3.22v-.02Z"/><path class="cls-3" d="M1443.11,678.44l1.73-2.42,.02-.02c.74-1.04,2.18-1.27,3.22-.53,1.04,.74,1.27,2.18,.53,3.22h0s-1.76,2.46-1.76,2.46c-.74,1.03-2.18,1.27-3.21,.53-1.03-.74-1.27-2.18-.53-3.21v-.02Z"/><path class="cls-3" d="M1448.77,670.3l1.64-2.48v-.02c.72-1.07,2.15-1.36,3.22-.66,1.07,.7,1.36,2.14,.66,3.21h0s-1.67,2.53-1.67,2.53c-.7,1.06-2.14,1.36-3.2,.65-1.06-.7-1.36-2.14-.65-3.2v-.02Z"/><path class="cls-3" d="M1454.12,661.95l1.54-2.54v-.02c.68-1.1,2.11-1.45,3.21-.78,1.1,.67,1.45,2.1,.78,3.19h0s-1.57,2.59-1.57,2.59c-.67,1.1-2.1,1.44-3.19,.78-1.1-.67-1.44-2.1-.78-3.19v-.02Z"/><path class="cls-3" d="M1459.15,653.41l1.45-2.6v-.02c.64-1.13,2.06-1.53,3.19-.91,1.13,.63,1.53,2.05,.91,3.18h0s-1.48,2.65-1.48,2.65c-.63,1.12-2.05,1.53-3.17,.9-1.12-.63-1.53-2.05-.9-3.17v-.02Z"/><path class="cls-3" d="M1463.85,644.68l1.35-2.65v-.02c.6-1.15,2.01-1.62,3.16-1.03,1.15,.59,1.61,2,1.03,3.15h0s-1.38,2.7-1.38,2.7c-.59,1.15-2,1.61-3.15,1.02s-1.61-2-1.02-3.15v-.02Z"/><path class="cls-3" d="M1468.22,635.78l1.25-2.7v-.02c.56-1.18,1.95-1.7,3.14-1.15,1.18,.55,1.7,1.94,1.15,3.12h0s-1.28,2.75-1.28,2.75c-.55,1.18-1.94,1.69-3.12,1.14-1.18-.55-1.69-1.94-1.14-3.12v-.02Z"/><path class="cls-3" d="M1472.26,626.73l1.15-2.75v-.02c.51-1.2,1.9-1.77,3.1-1.27,1.2,.5,1.77,1.89,1.27,3.09h0s-1.17,2.8-1.17,2.8c-.5,1.2-1.89,1.77-3.09,1.26-1.2-.5-1.77-1.89-1.26-3.09v-.02Z"/><path class="cls-3" d="M1475.96,617.53l1.04-2.79v-.02c.47-1.23,1.84-1.85,3.06-1.39,1.23,.46,1.85,1.83,1.39,3.05h0s-1.07,2.84-1.07,2.84c-.46,1.23-1.83,1.85-3.05,1.38-1.23-.46-1.85-1.83-1.38-3.05v-.02Z"/><path class="cls-3" d="M1479.31,608.2l.94-2.82v-.03c.42-1.25,1.77-1.93,3.02-1.51,1.25,.41,1.93,1.76,1.51,3.01h0s-.96,2.88-.96,2.88c-.42,1.25-1.76,1.92-3.01,1.5-1.25-.42-1.92-1.76-1.5-3.01v-.02Z"/><path class="cls-3" d="M1482.31,598.75l.83-2.86v-.03c.38-1.27,1.7-2,2.97-1.63,1.27,.37,2,1.7,1.63,2.97h0s-.85,2.91-.85,2.91c-.37,1.27-1.7,1.99-2.97,1.62-1.27-.37-1.99-1.7-1.62-2.97v-.02Z"/><path class="cls-3" d="M1484.94,589.19l.72-2.89v-.03c.33-1.29,1.63-2.07,2.92-1.75,1.29,.32,2.07,1.63,1.75,2.91h0s-.74,2.94-.74,2.94c-.32,1.29-1.63,2.07-2.91,1.74-1.29-.32-2.07-1.63-1.74-2.91v-.02Z"/><path class="cls-3" d="M1487.21,579.54l.61-2.91v-.03c.28-1.3,1.56-2.14,2.86-1.87,1.3,.27,2.14,1.55,1.87,2.86h0s-.63,2.97-.63,2.97c-.27,1.3-1.55,2.13-2.86,1.86-1.3-.27-2.14-1.55-1.86-2.86v-.02Z"/><path class="cls-3" d="M1489.11,569.82l.5-2.93v-.03c.23-1.32,1.48-2.21,2.8-1.99,1.32,.22,2.21,1.47,1.98,2.79h0s-.51,2.99-.51,2.99c-.23,1.32-1.48,2.2-2.79,1.98-1.32-.23-2.2-1.48-1.98-2.79v-.02Z"/><path class="cls-3" d="M1490.63,560.03l.38-2.95v-.03c.18-1.33,1.4-2.27,2.73-2.1,1.33,.17,2.27,1.39,2.1,2.72h0s-.39,3.01-.39,3.01c-.17,1.33-1.39,2.27-2.72,2.09-1.33-.17-2.27-1.39-2.09-2.72v-.02Z"/><path class="cls-3" d="M1491.76,550.2l.26-2.96v-.03c.12-1.34,1.31-2.34,2.65-2.22,1.34,.12,2.34,1.31,2.22,2.65h0s-.27,3.02-.27,3.02c-.12,1.34-1.31,2.33-2.65,2.21-1.34-.12-2.33-1.31-2.21-2.65v-.02Z"/><path class="cls-3" d="M1492.5,540.32l.14-2.96v-.03c.07-1.35,1.22-2.4,2.57-2.33,1.35,.07,2.4,1.22,2.33,2.57h0s-.15,3.03-.15,3.03c-.07,1.35-1.22,2.39-2.57,2.32s-2.39-1.22-2.32-2.57v-.02Z"/><path class="cls-3" d="M1492.84,530.43l.02-2.97v-.03c.01-1.36,1.12-2.45,2.48-2.44,1.36,.01,2.45,1.12,2.44,2.48h0s-.03,3.03-.03,3.03c-.01,1.36-1.13,2.45-2.48,2.43s-2.45-1.13-2.43-2.48v-.03Z"/><path class="cls-3" d="M1492.78,520.54l-.1-2.97v-.03c-.05-1.36,1.02-2.51,2.39-2.55,1.36-.05,2.51,1.02,2.55,2.39h0s.09,3.03,.09,3.03c.04,1.36-1.03,2.5-2.39,2.54-1.36,.04-2.5-1.03-2.54-2.39v-.03Z"/><path class="cls-3" d="M1492.31,510.66l-.22-2.96v-.03c-.1-1.37,.92-2.56,2.29-2.66,1.37-.1,2.56,.92,2.66,2.29h0s.22,3.03,.22,3.03c.1,1.37-.93,2.55-2.29,2.65-1.37,.1-2.55-.93-2.65-2.29v-.03Z"/></g><g><path class="cls-3" d="M700.05,815.29l2.92-.76c.8-.21,1.62,.27,1.83,1.08,.21,.8-.27,1.62-1.08,1.83h0s-.02,0-.02,0l-2.89,.74h-.02c-.8,.21-1.62-.27-1.83-1.07-.21-.8,.27-1.62,1.08-1.83Z"/><path class="cls-3" d="M709.82,812.89l2.94-.65c.82-.18,1.62,.33,1.8,1.15,.18,.82-.33,1.62-1.15,1.8h0s-.02,0-.02,0l-2.91,.64h-.02c-.81,.18-1.62-.33-1.8-1.15-.18-.81,.33-1.62,1.15-1.8Z"/><path class="cls-3" d="M719.66,810.85l2.97-.55c.83-.15,1.62,.39,1.77,1.22,.15,.83-.39,1.62-1.22,1.77h0s-.02,0-.02,0l-2.94,.54h-.02c-.82,.15-1.62-.39-1.77-1.22-.15-.82,.39-1.61,1.22-1.77Z"/><path class="cls-3" d="M729.56,809.14l2.98-.45c.84-.12,1.61,.45,1.74,1.29,.12,.84-.45,1.61-1.29,1.74h0s-.02,0-.02,0l-2.95,.44h-.02c-.83,.13-1.61-.45-1.73-1.29-.12-.83,.45-1.61,1.28-1.73Z"/><path class="cls-3" d="M739.52,807.77l2.99-.35c.84-.1,1.61,.51,1.71,1.35s-.51,1.61-1.35,1.71h0s-.01,0-.01,0l-2.97,.34h-.01c-.84,.1-1.6-.51-1.7-1.35-.1-.84,.51-1.6,1.35-1.7Z"/><path class="cls-3" d="M749.51,806.73l3-.25c.85-.07,1.6,.56,1.67,1.41,.07,.85-.56,1.6-1.41,1.67h0s-.01,0-.01,0l-2.98,.24h-.01c-.85,.07-1.6-.56-1.67-1.41-.07-.85,.56-1.6,1.41-1.67Z"/><path class="cls-3" d="M759.53,806l3.01-.16c.86-.05,1.59,.61,1.64,1.47,.05,.86-.61,1.59-1.47,1.64h0s-.01,0-.01,0l-2.98,.15h-.01c-.86,.04-1.59-.61-1.63-1.47-.04-.86,.61-1.59,1.47-1.63Z"/><path class="cls-3" d="M769.57,805.57l3.01-.07c.86-.02,1.58,.66,1.6,1.53,.02,.86-.66,1.58-1.53,1.6h-.02s-2.99,.07-2.99,.07h-.01c-.86,.02-1.58-.66-1.6-1.53-.02-.86,.66-1.58,1.52-1.6Z"/><path class="cls-3" d="M779.61,805.43h3.01c.87,.02,1.57,.72,1.57,1.59,0,.87-.71,1.57-1.58,1.57h-.02l-2.99-.02h-.01c-.87,0-1.57-.71-1.56-1.58,0-.87,.71-1.57,1.58-1.56Z"/><path class="cls-3" d="M789.65,805.56l3.01,.09c.87,.03,1.56,.76,1.53,1.63-.03,.87-.76,1.56-1.63,1.53h-.02s-2.99-.1-2.99-.1h-.01c-.87-.03-1.56-.76-1.53-1.63s.76-1.56,1.63-1.53Z"/><path class="cls-3" d="M799.68,805.96l3.01,.17c.88,.05,1.55,.8,1.5,1.68-.05,.88-.8,1.55-1.68,1.5h-.01s-2.98-.17-2.98-.17h-.01c-.88-.05-1.55-.8-1.49-1.68,.05-.88,.8-1.55,1.68-1.5Z"/><path class="cls-3" d="M809.7,806.61l3,.24c.88,.07,1.54,.84,1.47,1.72-.07,.88-.84,1.54-1.72,1.47h0s-.01,0-.01,0l-2.98-.24h-.01c-.88-.07-1.53-.85-1.46-1.73,.07-.88,.84-1.53,1.72-1.46Z"/><path class="cls-3" d="M819.7,807.49l2.99,.31c.88,.09,1.53,.88,1.44,1.77-.09,.88-.88,1.53-1.77,1.44h0s-.01,0-.01,0l-2.97-.31h-.01c-.88-.09-1.52-.89-1.43-1.77,.09-.88,.88-1.52,1.76-1.43Z"/><path class="cls-3" d="M829.67,808.6l2.99,.37c.89,.11,1.52,.92,1.4,1.81-.11,.89-.92,1.52-1.81,1.41h0s-.01,0-.01,0l-2.97-.38h-.01c-.89-.11-1.51-.92-1.4-1.81s.92-1.51,1.8-1.4Z"/><path class="cls-3" d="M839.62,809.93l2.98,.44c.89,.13,1.51,.96,1.38,1.85-.13,.89-.96,1.51-1.85,1.38h0s0,0,0,0l-2.96-.44h0c-.89-.13-1.5-.96-1.37-1.85,.13-.89,.96-1.5,1.84-1.37Z"/><path class="cls-3" d="M849.53,811.45l2.97,.49c.89,.15,1.49,.99,1.35,1.88-.15,.89-.99,1.49-1.88,1.35h0s0,0,0,0l-2.95-.5h0c-.89-.15-1.49-.99-1.34-1.88,.15-.89,.99-1.49,1.88-1.34Z"/><path class="cls-3" d="M859.42,813.16l2.96,.55c.89,.17,1.48,1.02,1.32,1.92-.17,.89-1.02,1.48-1.92,1.32h0s0,0,0,0l-2.94-.55h0c-.89-.17-1.48-1.03-1.31-1.92,.17-.89,1.02-1.48,1.91-1.31Z"/><path class="cls-3" d="M869.27,815.05l2.95,.6c.9,.18,1.47,1.06,1.29,1.95-.18,.9-1.06,1.47-1.95,1.29h0s0,0,0,0l-2.93-.6h0c-.89-.18-1.47-1.06-1.29-1.95,.18-.89,1.05-1.47,1.95-1.29Z"/><path class="cls-3" d="M879.08,817.1l2.94,.65c.9,.2,1.46,1.09,1.27,1.98-.2,.9-1.09,1.46-1.98,1.27h0s0,0,0,0l-2.92-.65h0c-.9-.2-1.46-1.09-1.26-1.98,.2-.9,1.08-1.46,1.98-1.26Z"/><path class="cls-3" d="M888.86,819.31l2.93,.69c.9,.21,1.46,1.11,1.24,2.01s-1.11,1.46-2.01,1.24h0s0,0,0,0l-2.91-.69h0c-.9-.22-1.45-1.12-1.24-2.01,.21-.9,1.11-1.45,2.01-1.24Z"/><path class="cls-3" d="M898.61,821.66l2.92,.73c.9,.23,1.45,1.14,1.22,2.04-.23,.9-1.14,1.45-2.04,1.22h0s0,0,0,0l-2.9-.74h0c-.9-.23-1.44-1.14-1.22-2.04,.23-.9,1.14-1.44,2.04-1.22Z"/><path class="cls-3" d="M908.32,824.15l2.91,.77c.9,.24,1.44,1.17,1.2,2.07-.24,.9-1.17,1.44-2.07,1.2h0s0,0,0,0l-2.89-.77h0c-.9-.24-1.44-1.17-1.19-2.07,.24-.9,1.16-1.44,2.06-1.19Z"/><path class="cls-3" d="M917.99,826.77l2.9,.81c.9,.25,1.43,1.19,1.18,2.09-.25,.9-1.19,1.43-2.09,1.18h0s0,0,0,0l-2.88-.81h0c-.9-.26-1.43-1.19-1.17-2.09,.25-.9,1.19-1.43,2.09-1.18Z"/><path class="cls-3" d="M927.63,829.5l2.89,.84c.91,.26,1.43,1.21,1.16,2.12-.26,.91-1.21,1.43-2.12,1.16h0s0,0,0,0l-2.87-.84h0c-.9-.27-1.42-1.21-1.16-2.12,.27-.9,1.21-1.42,2.11-1.16Z"/><path class="cls-3" d="M937.24,832.34l2.88,.87c.91,.27,1.42,1.23,1.15,2.14-.27,.91-1.23,1.42-2.14,1.15h0s-2.87-.87-2.87-.87c-.91-.27-1.42-1.23-1.15-2.14,.27-.91,1.23-1.42,2.14-1.15Z"/><path class="cls-3" d="M946.82,835.26l2.87,.89c.91,.28,1.42,1.25,1.14,2.16-.28,.91-1.25,1.42-2.16,1.14h0s-2.86-.9-2.86-.9c-.91-.28-1.42-1.25-1.14-2.16,.28-.91,1.25-1.42,2.16-1.14Z"/><path class="cls-3" d="M956.38,838.26l2.86,.91c.91,.29,1.42,1.27,1.13,2.18-.29,.91-1.27,1.42-2.18,1.13h0s-2.85-.92-2.85-.92c-.91-.29-1.42-1.26-1.13-2.18,.29-.91,1.27-1.42,2.18-1.12Z"/><path class="cls-3" d="M965.91,841.32l2.86,.93c.92,.3,1.42,1.28,1.12,2.2-.3,.92-1.28,1.42-2.2,1.12h0s-2.85-.93-2.85-.93c-.91-.3-1.41-1.28-1.12-2.2,.3-.91,1.28-1.41,2.2-1.12Z"/><path class="cls-3" d="M975.43,844.43l2.85,.94c.92,.3,1.42,1.3,1.11,2.22-.3,.92-1.3,1.42-2.22,1.11h0s-2.85-.95-2.85-.95c-.92-.3-1.42-1.29-1.11-2.21,.3-.92,1.29-1.42,2.21-1.11Z"/><path class="cls-3" d="M984.92,847.59l2.85,.95c.92,.31,1.42,1.31,1.11,2.23-.31,.92-1.31,1.42-2.23,1.11h0s-2.84-.96-2.84-.96c-.92-.31-1.42-1.31-1.11-2.23,.31-.92,1.31-1.42,2.23-1.11Z"/><path class="cls-3" d="M994.41,850.78l2.85,.96c.93,.31,1.42,1.32,1.11,2.25-.31,.93-1.32,1.42-2.24,1.11h0s-2.84-.97-2.84-.97c-.93-.31-1.42-1.32-1.11-2.24,.31-.92,1.32-1.42,2.24-1.11Z"/><path class="cls-3" d="M1003.89,853.99l2.84,.97c.93,.32,1.43,1.33,1.11,2.26-.32,.93-1.33,1.43-2.26,1.11h0s-2.84-.97-2.84-.97c-.93-.32-1.43-1.33-1.11-2.26,.32-.93,1.32-1.43,2.25-1.11Z"/><path class="cls-3" d="M1013.36,857.21l2.84,.97c.94,.32,1.44,1.33,1.12,2.27-.32,.94-1.33,1.44-2.27,1.12h0s-2.84-.97-2.84-.97c-.93-.32-1.43-1.33-1.11-2.27,.32-.93,1.33-1.43,2.27-1.11Z"/><path class="cls-3" d="M1022.83,860.42l2.84,.96c.94,.32,1.45,1.34,1.13,2.28-.32,.94-1.34,1.45-2.28,1.13h0s-2.84-.97-2.84-.97c-.94-.32-1.44-1.34-1.12-2.28,.32-.94,1.34-1.44,2.28-1.12Z"/><path class="cls-3" d="M1032.31,863.62l2.85,.96c.95,.32,1.46,1.34,1.14,2.29-.32,.95-1.34,1.46-2.29,1.14h0s-2.85-.97-2.85-.97c-.94-.32-1.45-1.34-1.13-2.29,.32-.94,1.34-1.45,2.29-1.13Z"/><path class="cls-3" d="M1041.79,866.8l2.85,.95c.95,.32,1.47,1.34,1.15,2.3-.32,.95-1.34,1.47-2.3,1.15h0s-2.85-.96-2.85-.96c-.95-.32-1.46-1.35-1.14-2.3,.32-.95,1.34-1.46,2.29-1.14Z"/><path class="cls-3" d="M1051.27,869.95l2.85,.94c.96,.31,1.48,1.34,1.17,2.3-.31,.96-1.34,1.48-2.3,1.17h0s-2.85-.94-2.85-.94c-.96-.32-1.47-1.35-1.16-2.3,.32-.96,1.35-1.47,2.3-1.16Z"/><path class="cls-3" d="M1060.77,873.05l2.85,.92c.96,.31,1.5,1.34,1.19,2.31-.31,.96-1.34,1.5-2.31,1.19h0s-2.86-.93-2.86-.93c-.96-.31-1.49-1.34-1.18-2.31,.31-.96,1.34-1.49,2.31-1.18Z"/><path class="cls-3" d="M1070.29,876.09l2.86,.9c.97,.3,1.51,1.34,1.21,2.31-.3,.97-1.34,1.51-2.31,1.21h0s-2.86-.91-2.86-.91c-.97-.31-1.51-1.34-1.2-2.31,.31-.97,1.34-1.51,2.31-1.2Z"/><path class="cls-3" d="M1079.83,879.07l2.86,.88c.98,.3,1.53,1.33,1.23,2.31-.3,.98-1.33,1.53-2.31,1.23h0s-2.87-.89-2.87-.89c-.98-.3-1.52-1.34-1.22-2.31,.3-.98,1.34-1.52,2.31-1.22Z"/><path class="cls-3" d="M1089.39,881.96l2.87,.85h0c.99,.29,1.55,1.33,1.25,2.31-.29,.99-1.33,1.55-2.31,1.25h0s-2.88-.86-2.88-.86c-.98-.29-1.54-1.33-1.25-2.31s1.33-1.54,2.31-1.25h0Z"/><path class="cls-3" d="M1098.96,884.77l2.88,.82h0c.99,.29,1.57,1.32,1.28,2.31-.28,.99-1.32,1.57-2.31,1.28h0s-2.89-.83-2.89-.83c-.99-.28-1.56-1.32-1.28-2.31,.28-.99,1.32-1.56,2.31-1.28h0Z"/><path class="cls-3" d="M1108.57,887.47l2.89,.79h0c1,.28,1.59,1.31,1.32,2.31-.27,1-1.31,1.59-2.31,1.32h0s-2.9-.8-2.9-.8c-1-.28-1.59-1.31-1.31-2.31,.28-1,1.31-1.59,2.31-1.31h0Z"/><path class="cls-3" d="M1118.2,890.06l2.9,.75h0c1.01,.26,1.61,1.3,1.35,2.3-.26,1.01-1.29,1.61-2.3,1.35h0s-2.91-.76-2.91-.76c-1.01-.26-1.61-1.29-1.35-2.3s1.29-1.61,2.3-1.35h0Z"/><path class="cls-3" d="M1127.86,892.52l2.9,.71h0c1.02,.25,1.64,1.28,1.39,2.3-.25,1.02-1.28,1.64-2.29,1.39h0s-2.92-.72-2.92-.72c-1.02-.25-1.63-1.28-1.38-2.29,.25-1.02,1.28-1.63,2.29-1.38h0Z"/><path class="cls-3" d="M1137.56,894.85l2.91,.67h0c1.03,.24,1.67,1.26,1.43,2.29-.24,1.03-1.26,1.67-2.28,1.43h0s-2.93-.68-2.93-.68c-1.02-.24-1.66-1.26-1.42-2.28,.24-1.02,1.26-1.66,2.28-1.42h0Z"/><path class="cls-3" d="M1147.29,897.03l2.92,.62h.01c1.03,.22,1.69,1.24,1.47,2.27-.22,1.03-1.24,1.69-2.27,1.47h0s-2.94-.63-2.94-.63c-1.03-.22-1.69-1.24-1.47-2.27,.22-1.03,1.24-1.69,2.27-1.47h0Z"/><path class="cls-3" d="M1157.05,899.04l2.93,.57h.01c1.04,.2,1.72,1.21,1.52,2.26-.2,1.04-1.21,1.72-2.25,1.52h0s-2.95-.58-2.95-.58c-1.04-.2-1.72-1.21-1.52-2.25,.2-1.04,1.21-1.72,2.25-1.52h0Z"/><path class="cls-3" d="M1166.84,900.87l2.94,.51h.01c1.05,.18,1.76,1.19,1.57,2.24-.18,1.05-1.18,1.76-2.23,1.57h0s-2.97-.52-2.97-.52c-1.05-.18-1.75-1.18-1.57-2.23,.18-1.05,1.18-1.75,2.23-1.57h0Z"/><path class="cls-3" d="M1176.67,902.51l2.95,.45h.01c1.06,.16,1.79,1.16,1.62,2.22-.16,1.06-1.15,1.79-2.21,1.62h0s-2.98-.46-2.98-.46c-1.06-.16-1.78-1.16-1.62-2.21,.16-1.06,1.16-1.78,2.21-1.62h0Z"/><path class="cls-3" d="M1186.52,903.96l2.96,.39h.01c1.07,.14,1.82,1.12,1.68,2.19-.14,1.07-1.12,1.82-2.19,1.68h0s-2.99-.4-2.99-.4c-1.07-.14-1.81-1.12-1.67-2.19,.14-1.07,1.12-1.81,2.19-1.67h0Z"/><path class="cls-3" d="M1196.4,905.19l2.97,.33h.01c1.08,.12,1.85,1.09,1.73,2.16-.12,1.08-1.09,1.85-2.16,1.73h0s-2.99-.34-2.99-.34c-1.07-.12-1.85-1.09-1.72-2.16,.12-1.07,1.09-1.85,2.16-1.73h0Z"/><path class="cls-3" d="M1206.31,906.21l2.98,.26h.01c1.08,.1,1.88,1.05,1.79,2.14-.1,1.08-1.05,1.88-2.13,1.79h0s-3-.27-3-.27c-1.08-.1-1.88-1.05-1.78-2.13,.1-1.08,1.05-1.88,2.13-1.78h0Z"/><path class="cls-3" d="M1216.23,907.01l2.98,.19h.01c1.09,.07,1.92,1.01,1.84,2.1-.07,1.09-1.01,1.92-2.1,1.84h0s-3.01-.2-3.01-.2c-1.09-.07-1.91-1.01-1.84-2.1,.07-1.09,1.01-1.91,2.1-1.84h.01Z"/><path class="cls-3" d="M1226.16,907.57l2.98,.12h.01c1.1,.04,1.95,.97,1.9,2.07-.04,1.1-.97,1.95-2.06,1.9h0s-3.01-.13-3.01-.13c-1.09-.05-1.94-.97-1.9-2.07,.05-1.09,.97-1.94,2.07-1.9h.01Z"/><path class="cls-3" d="M1236.11,907.88l2.98,.04h.02c1.1,.02,1.98,.92,1.96,2.02-.02,1.1-.92,1.98-2.02,1.96h0l-3.02-.05c-1.1-.02-1.98-.93-1.96-2.03,.02-1.1,.93-1.98,2.03-1.96h.01Z"/><path class="cls-3" d="M1246.06,907.94l2.98-.03h.02c1.11-.01,2.01,.87,2.03,1.98s-.87,2.01-1.98,2.03h0l-3.02,.03c-1.11,.01-2.01-.88-2.02-1.98-.01-1.11,.88-2.01,1.98-2.02h.01Z"/><path class="cls-3" d="M1256,907.73l2.98-.12h.02c1.11-.04,2.05,.82,2.09,1.93,.04,1.11-.82,2.05-1.93,2.09h0s-3.02,.11-3.02,.11c-1.11,.04-2.04-.82-2.08-1.93-.04-1.11,.82-2.04,1.93-2.08h.01Z"/><path class="cls-3" d="M1265.93,907.24l2.98-.2h.02c1.11-.08,2.08,.76,2.16,1.88,.08,1.11-.76,2.08-1.88,2.16h0s-3.01,.2-3.01,.2c-1.11,.07-2.07-.77-2.15-1.88-.07-1.11,.77-2.07,1.88-2.15h.01Z"/><path class="cls-3" d="M1275.84,906.45l2.97-.29h.02c1.12-.11,2.11,.7,2.22,1.82,.11,1.12-.7,2.11-1.82,2.22h0s-3,.29-3,.29c-1.11,.11-2.11-.71-2.22-1.82-.11-1.11,.71-2.11,1.82-2.22h.02Z"/><path class="cls-3" d="M1285.71,905.36l2.95-.39h.02c1.12-.15,2.14,.64,2.29,1.75,.15,1.12-.64,2.14-1.76,2.29h0s-2.99,.39-2.99,.39c-1.12,.14-2.14-.64-2.28-1.76-.14-1.12,.64-2.14,1.76-2.28h.02Z"/><path class="cls-3" d="M1295.54,903.96l2.94-.49h.02c1.12-.19,2.17,.57,2.35,1.68,.18,1.12-.57,2.17-1.69,2.35h0s-2.98,.49-2.98,.49c-1.12,.18-2.17-.57-2.35-1.69-.18-1.12,.57-2.17,1.69-2.35h.02Z"/><path class="cls-3" d="M1305.32,902.22l2.92-.59h.02c1.11-.23,2.2,.49,2.42,1.61,.22,1.11-.5,2.2-1.61,2.42h0s-2.96,.59-2.96,.59c-1.11,.22-2.19-.5-2.42-1.61-.22-1.11,.5-2.19,1.61-2.42h.02Z"/><path class="cls-3" d="M1315.02,900.15l2.9-.69h.02c1.11-.27,2.22,.42,2.49,1.53,.26,1.11-.42,2.22-1.53,2.49h0s-2.94,.7-2.94,.7c-1.11,.26-2.22-.42-2.48-1.53-.26-1.11,.42-2.22,1.53-2.48h.02Z"/><path class="cls-3" d="M1324.64,897.73l2.87-.8h.02c1.1-.31,2.25,.33,2.56,1.44,.31,1.1-.34,2.25-1.44,2.56h0s-2.91,.8-2.91,.8c-1.1,.3-2.24-.34-2.55-1.45-.3-1.1,.34-2.24,1.45-2.55h.02Z"/><path class="cls-3" d="M1334.17,894.95l2.83-.91h.02c1.1-.36,2.27,.25,2.62,1.34,.35,1.1-.25,2.27-1.35,2.62h0s-2.88,.92-2.88,.92c-1.1,.35-2.27-.26-2.61-1.35-.35-1.1,.26-2.27,1.35-2.61h.02Z"/><path class="cls-3" d="M1343.57,891.8l2.8-1.02h.02c1.09-.4,2.29,.16,2.68,1.24,.4,1.09-.17,2.29-1.25,2.68h0s-2.84,1.03-2.84,1.03c-1.09,.39-2.28-.17-2.68-1.25-.39-1.09,.17-2.28,1.25-2.68h.02Z"/><path class="cls-3" d="M1352.84,888.28l2.75-1.13h.02c1.07-.45,2.3,.06,2.74,1.14,.44,1.07-.07,2.3-1.15,2.74h0s-2.8,1.15-2.8,1.15c-1.07,.44-2.3-.08-2.74-1.15s.08-2.3,1.15-2.74h.02Z"/><path class="cls-3" d="M1361.95,884.38l2.7-1.24h.02c1.06-.5,2.31-.03,2.8,1.02s.02,2.31-1.04,2.8h0s-2.75,1.26-2.75,1.26c-1.06,.48-2.31,.02-2.79-1.04-.48-1.06-.02-2.31,1.04-2.79h.02Z"/><path class="cls-3" d="M1370.9,880.11l2.65-1.35h.02c1.04-.55,2.32-.13,2.85,.91,.53,1.04,.12,2.32-.92,2.85h0s-2.7,1.38-2.7,1.38c-1.04,.53-2.32,.12-2.85-.93-.53-1.04-.12-2.32,.93-2.85h.02Z"/><path class="cls-3" d="M1379.65,875.47l2.59-1.46h.02c1.02-.59,2.32-.23,2.9,.79,.58,1.02,.22,2.32-.81,2.9h0s-2.64,1.49-2.64,1.49c-1.02,.58-2.32,.21-2.9-.81-.58-1.02-.21-2.32,.81-2.9h.02Z"/><path class="cls-3" d="M1388.21,870.47l2.53-1.57h.02c1-.64,2.32-.33,2.94,.68,.62,1,.31,2.32-.69,2.94h0s-2.57,1.59-2.57,1.59c-1,.62-2.32,.31-2.94-.7-.62-1-.31-2.32,.7-2.94h.02Z"/><path class="cls-3" d="M1396.57,865.13l2.47-1.66h.02c.98-.68,2.32-.42,2.98,.56,.66,.98,.4,2.32-.58,2.98h0s-2.51,1.69-2.51,1.69c-.98,.66-2.32,.4-2.98-.58-.66-.98-.4-2.32,.58-2.98h.02Z"/><path class="cls-3" d="M1404.71,859.48l2.4-1.76h.02c.96-.72,2.31-.51,3.01,.45,.7,.96,.49,2.31-.47,3.01h0s-2.44,1.78-2.44,1.78c-.96,.7-2.31,.49-3.01-.47-.7-.96-.49-2.31,.47-3.01h.02Z"/><path class="cls-3" d="M1412.64,853.52l2.33-1.84h.02c.94-.76,2.3-.6,3.04,.34,.74,.94,.58,2.3-.36,3.04h0s-2.37,1.87-2.37,1.87c-.94,.74-2.3,.58-3.04-.36-.74-.94-.58-2.3,.36-3.04h.02Z"/><path class="cls-3" d="M1420.34,847.27l2.27-1.93h.02c.91-.79,2.29-.68,3.06,.23,.78,.91,.67,2.29-.25,3.06h0s-2.31,1.96-2.31,1.96c-.92,.77-2.29,.66-3.06-.25-.77-.92-.66-2.29,.25-3.06h.01Z"/><path class="cls-3" d="M1427.82,840.75l2.2-2h.02c.89-.83,2.27-.76,3.08,.13,.81,.89,.75,2.27-.14,3.08h0s-2.24,2.03-2.24,2.03c-.89,.81-2.27,.74-3.08-.15-.81-.89-.74-2.27,.15-3.08h.01Z"/><path class="cls-3" d="M1435.08,833.98l2.14-2.08h.02c.87-.86,2.26-.84,3.1,.03,.84,.87,.82,2.26-.04,3.1h0s-2.17,2.1-2.17,2.1c-.87,.84-2.25,.82-3.1-.05-.84-.87-.82-2.25,.05-3.1h.01Z"/><path class="cls-3" d="M1442.12,826.98l2.07-2.14h.01c.84-.89,2.24-.91,3.11-.07,.87,.84,.9,2.24,.05,3.11h0s-2.1,2.17-2.1,2.17c-.84,.87-2.24,.89-3.11,.05-.87-.84-.89-2.24-.05-3.11h.01Z"/><path class="cls-3" d="M1448.95,819.77l2-2.2h.01c.82-.92,2.22-.98,3.12-.16,.9,.82,.97,2.22,.15,3.12h0s-2.03,2.23-2.03,2.23c-.82,.9-2.22,.96-3.12,.14-.9-.82-.96-2.22-.14-3.12h.01Z"/><path class="cls-3" d="M1455.55,812.35l1.94-2.26h.01c.8-.94,2.2-1.05,3.13-.25s1.04,2.2,.24,3.13h0s-1.97,2.29-1.97,2.29c-.8,.93-2.2,1.03-3.13,.23-.93-.8-1.03-2.2-.23-3.13h0Z"/><path class="cls-3" d="M1461.96,804.75l1.88-2.31h.01c.78-.97,2.18-1.11,3.13-.34,.95,.78,1.1,2.18,.32,3.13h0s-1.91,2.34-1.91,2.34c-.78,.95-2.18,1.09-3.13,.32-.95-.78-1.1-2.18-.32-3.13h0Z"/><path class="cls-3" d="M1468.15,796.97l1.82-2.36h.01c.75-.99,2.16-1.17,3.14-.42,.98,.75,1.16,2.16,.41,3.14h0s-1.84,2.39-1.84,2.39c-.75,.98-2.16,1.16-3.13,.4-.98-.75-1.16-2.16-.4-3.13h0Z"/><path class="cls-3" d="M1474.15,789.04l1.76-2.41h0c.73-1.01,2.14-1.23,3.14-.5,1,.73,1.22,2.14,.49,3.14h0s-1.79,2.43-1.79,2.43c-.73,1-2.14,1.21-3.14,.48-1-.73-1.21-2.14-.48-3.14h0Z"/><path class="cls-3" d="M1479.96,780.97l1.71-2.45h0c.71-1.03,2.12-1.29,3.14-.57,1.02,.71,1.27,2.12,.56,3.14h0s-1.73,2.47-1.73,2.47c-.71,1.02-2.12,1.27-3.14,.56-1.02-.71-1.27-2.12-.56-3.14h0Z"/><path class="cls-3" d="M1485.58,772.76l1.65-2.49h0c.69-1.05,2.1-1.34,3.14-.65s1.33,2.1,.63,3.14h0s-1.67,2.51-1.67,2.51c-.69,1.04-2.1,1.32-3.14,.63-1.04-.69-1.32-2.1-.63-3.14h0Z"/><path class="cls-3" d="M1491.02,764.43l1.6-2.52h0c.67-1.07,2.08-1.39,3.14-.71,1.06,.67,1.37,2.08,.7,3.14h0s-1.62,2.55-1.62,2.55c-.67,1.06-2.08,1.37-3.13,.7-1.06-.67-1.37-2.08-.7-3.13h0Z"/><path class="cls-3" d="M1496.29,755.98l1.55-2.55h0c.65-1.09,2.06-1.43,3.13-.78,1.08,.65,1.42,2.06,.77,3.13h0s-1.57,2.58-1.57,2.58c-.65,1.08-2.06,1.42-3.13,.76-1.07-.65-1.42-2.06-.76-3.13h0Z"/><path class="cls-3" d="M1501.39,747.43l1.5-2.58h0c.64-1.1,2.04-1.48,3.13-.84,1.09,.64,1.47,2.04,.83,3.13h0s-1.52,2.61-1.52,2.61c-.64,1.09-2.04,1.46-3.13,.82-1.09-.64-1.46-2.04-.82-3.13h0Z"/><path class="cls-3" d="M1506.34,738.79l1.45-2.61h0c.62-1.12,2.02-1.52,3.13-.9,1.11,.62,1.51,2.02,.89,3.13h0s-1.47,2.63-1.47,2.63c-.62,1.11-2.02,1.5-3.12,.88s-1.5-2.02-.88-3.13h0Z"/><path class="cls-3" d="M1511.13,730.06l1.41-2.64h0c.6-1.13,2-1.56,3.12-.96,1.12,.6,1.55,2,.95,3.12h0s-1.42,2.66-1.42,2.66c-.6,1.12-2,1.54-3.12,.94-1.12-.6-1.54-2-.94-3.12h0Z"/><path class="cls-3" d="M1515.77,721.24l1.37-2.66h0c.58-1.15,1.98-1.6,3.12-1.01,1.14,.58,1.59,1.98,1,3.12h0s-1.38,2.68-1.38,2.68c-.59,1.14-1.98,1.58-3.12,1-1.14-.59-1.58-1.98-1-3.12h0Z"/><path class="cls-3" d="M1520.28,712.36l1.32-2.68h0c.57-1.16,1.96-1.63,3.12-1.06,1.15,.57,1.62,1.96,1.05,3.12h0s-1.34,2.7-1.34,2.7c-.57,1.15-1.96,1.62-3.11,1.05-1.15-.57-1.62-1.97-1.05-3.11h0Z"/><path class="cls-3" d="M1524.65,703.4l1.29-2.7h0c.55-1.17,1.95-1.67,3.11-1.11s1.66,1.95,1.1,3.11h0s-1.3,2.72-1.3,2.72c-.56,1.16-1.95,1.65-3.11,1.1-1.16-.56-1.65-1.95-1.1-3.11h0Z"/><path class="cls-3" d="M1528.89,694.38l1.25-2.72h0c.54-1.19,1.93-1.7,3.11-1.16,1.18,.54,1.69,1.93,1.15,3.11h0s-1.26,2.74-1.26,2.74c-.54,1.17-1.93,1.69-3.11,1.14-1.17-.54-1.69-1.93-1.15-3.11h0Z"/><path class="cls-3" d="M1533.01,685.3l1.1-2.47h0c.53-1.2,1.92-1.73,3.1-1.2,1.19,.53,1.72,1.92,1.2,3.1h0s-1.11,2.49-1.11,2.49c-.53,1.19-1.92,1.72-3.1,1.19-1.19-.53-1.72-1.92-1.19-3.1h0Z"/></g><g><path class="cls-6" d="M442.64,571.58c13.99-104.35,68.3-197.31,131.81-282.66,14.56-19.57-4.64-46.31-27.87-38.87-81.78,26.19-160.5,61.93-233.99,106.34-54.45,32.9-110.2,76.79-121.62,139.37-11.9,65.23,29.23,129.13,79.17,172.75,49.94,43.62,110.09,74.96,156.92,121.91,60.81,60.98,94.08,142.82,122.83,224.61,1.7,4.85,8.91,3.38,8.58-1.75h0c-.04-.57-.18-1.12-.43-1.64-67.12-138.61-135.86-287.46-115.39-440.07Z"/><path class="cls-10" d="M411.02,745.05c-.24,0-.48-.08-.67-.26-98.61-88.96-142.19-172.64-129.54-248.69,9.21-55.32,47.24-95.89,77.52-120.18,32.77-26.28,63.8-39.7,64.11-39.83,.51-.22,1.1,.02,1.31,.53,.22,.51-.02,1.1-.53,1.31-.31,.13-31.12,13.46-63.69,39.59-30,24.07-67.66,64.24-76.76,118.92-12.53,75.34,30.84,158.4,128.91,246.87,.41,.37,.44,1,.07,1.41-.2,.22-.47,.33-.74,.33Z"/></g><g><path class="cls-10" d="M457.01,867.02c-28.72-43.33-67.59-81.55-115.94-100.66-30.22-11.95-62.93-16.04-94.05-25.4-27.36-8.23-54.8-21.78-71.94-44.14-1.81-2.37-5.62-.72-5.1,2.22,7.97,45.42,47.18,81.68,89.34,102.48,45.8,22.59,96.95,32.47,143.18,54.18,46.02,21.61,89.41,60.14,95.24,110.57,.05,.44,.21,.87,.45,1.24l10.97,16.42c1.92,2.88,6.36,.52,5.05-2.68-16.21-39.54-33.64-78.66-57.21-114.22Z"/><path class="cls-6" d="M212.11,740.92c2.09,2.11,4.45,3.97,6.85,5.73,1.2,.89,2.45,1.7,3.67,2.56,1.25,.82,2.52,1.59,3.78,2.39,1.25,.81,2.58,1.5,3.87,2.26l1.94,1.11,1.98,1.04,3.97,2.07,4.05,1.92c10.81,5.07,22.06,9.17,33.46,12.7,2.86,.84,5.69,1.79,8.58,2.55l8.65,2.32c5.79,1.48,11.61,2.73,17.43,4.15,5.83,1.41,11.68,2.74,17.41,4.51l4.32,1.25,2.16,.63c.72,.22,1.42,.48,2.13,.71l8.52,2.89c.71,.25,1.42,.47,2.13,.73l2.09,.82,4.18,1.66,4.18,1.67c1.4,.53,2.74,1.22,4.12,1.82l8.18,3.76,7.99,4.16c10.53,5.76,20.67,12.26,30.09,19.73,9.35,7.54,18,15.94,25.77,25.08,7.73,9.17,14.57,19.08,20.46,29.5,.05,.08,.02,.19-.07,.23-.08,.05-.19,.02-.23-.06-6.1-10.28-13.12-20-21-28.95-7.83-8.99-16.52-17.22-25.88-24.59-9.44-7.28-19.47-13.76-29.96-19.41l-7.94-4.1-8.14-3.7c-1.37-.59-2.69-1.27-4.09-1.79l-4.16-1.64-4.16-1.64-2.08-.83c-.7-.26-1.41-.49-2.11-.74l-8.46-2.91c-.71-.24-1.41-.5-2.12-.72l-2.15-.63-4.29-1.26c-2.87-.81-5.7-1.76-8.61-2.42l-8.69-2.15c-5.79-1.48-11.65-2.8-17.43-4.36l-8.65-2.43c-2.89-.8-5.72-1.78-8.58-2.67-11.39-3.7-22.62-7.97-33.4-13.2l-4.03-1.98-3.96-2.13-1.98-1.07-1.93-1.14c-1.28-.78-2.6-1.49-3.85-2.32-1.25-.82-2.52-1.62-3.76-2.46-1.22-.88-2.46-1.71-3.65-2.62-2.39-1.81-4.72-3.7-6.81-5.87-.05-.05-.05-.13,0-.17,.05-.05,.12-.05,.17,0h0Z"/></g><g><path class="cls-10" d="M405.54,901c-68.33-31.09-148.15-21.96-220.65-2.47-53.99,14.51-106.85,34.45-161.14,46.99-23.83,5.5-31.87,35.43-14.15,52.28,29.7,28.23,61.37,54.22,96.99,74.26,53,29.82,116.23,45.56,175.42,31.61,38.29-9.02,72.92-29.79,110.92-39.95,54.81-14.66,115.51-5.68,163.73,24.21,8.19,5.07,15.98,10.75,23.36,16.94-11.39-20.18-22.57-40.51-34.39-60.35-34.76-58.35-78.29-115.37-140.1-143.5Z"/><path class="cls-6" d="M65.97,984.73c9.86,1.46,19.8,2.52,29.74,3.43,4.98,.39,9.94,.85,14.93,1.11l7.47,.47,7.47,.34c19.93,.91,39.89,.78,59.8-.16l14.92-.87,14.88-1.39,3.72-.35,3.7-.48,7.4-.98,7.4-.98c2.46-.37,4.9-.84,7.36-1.26l7.35-1.29,3.68-.64c.61-.11,1.23-.21,1.84-.33l1.82-.41,14.57-3.2c4.86-1.04,9.72-2.34,14.59-3.46l7.31-1.72,7.33-1.66c19.55-4.33,39.29-8.18,59.34-9.99,20-1.86,40.44-1.44,60.17,3,19.73,4.37,38.45,12.95,54.84,24.59,8.22,5.79,15.97,12.23,23.27,19.11,7.27,6.91,14.09,14.27,20.62,21.86,.18,.21,.16,.52-.05,.71-.21,.18-.51,.16-.7-.04h0c-6.71-7.39-13.7-14.52-21.03-21.27-7.38-6.69-15.18-12.91-23.41-18.47-8.24-5.54-16.91-10.43-25.98-14.4-9.07-3.97-18.54-7-28.22-9.04-9.68-2.05-19.55-3.13-29.45-3.43-9.9-.29-19.83,.14-29.72,1.07-19.79,1.87-39.37,5.76-58.82,10.15l-7.29,1.68-7.28,1.75c-4.87,1.14-9.66,2.45-14.57,3.52l-14.71,3.29-1.84,.4c-.62,.12-1.24,.21-1.85,.32l-3.71,.63-7.43,1.26c-2.48,.41-4.95,.87-7.43,1.23l-7.47,.94-7.47,.94-3.73,.46-3.75,.33-14.99,1.31-15.02,.79c-20.04,.79-40.11,.43-60.11-.79l-7.5-.47-7.48-.66c-4.99-.4-9.97-1-14.94-1.54-9.95-1.18-19.86-2.53-29.71-4.41-.27-.05-.45-.31-.4-.58,.05-.26,.3-.44,.56-.4h.01Z"/></g><g><polygon class="cls-1" points="390.9 1165.36 522.32 1197.67 658.36 1205.42 828.8 1165.36 609.85 1276.11 390.9 1165.36"/><path class="cls-4" d="M498.08,954.02c11.09-7.62,23.35-13.37,36.35-16.91,4.88-1.33,31.25,6.33,47.54,5.96,22.37-.51,45.14-10.69,63.58-6.1,18.32,4.56,33.31,10.53,41.96,16.68,25.91,18.43,41.12,52.79,50.39,86.82-17.55,18.02-39.64,26.03-39.64,26.03l-22.9,149.88c-53.97,27.07-108.31,23.59-162.96-3.78l-23.71-148.34s-35.46-16.51-38.06-22.52c-2.6-6.01,16.16-66.21,47.44-87.72Z"/><g><path class="cls-7" d="M447.73,1276.11c24.68-4.88,81.33-.11,81.33-.11l2.15,6.32,3.05,31.17s-54.26,8.08-80.88,7.24c-2.72-.09-5.19-.57-7.44-1.35-.79-.75-1.57-1.53-2.3-2.38-10.99-12.68-7.27-30.71,4.1-40.9Z"/><path class="cls-16" d="M545.4,1274.75l-9.61,.11c-5.17,.06-10.09,2.43-13.67,6.56-3.58,4.14-5.5,9.69-5.34,15.42,.13,4.57,1.89,8.89,4.9,12.01,3.01,3.12,7.02,4.78,11.13,4.61l14.72-.59-2.13-38.12Z"/></g><path class="cls-14" d="M875.28,1181.7c-11.13-25.62-38.36-29.78-61.54-17.8-.4,.53-147.19,75.76-276.63,108.73,3.71,11.88,5.61,24.52,6.03,36.95,.07,2.77,.03,5.5-.13,8.19,99.26-5.1,207-38.2,299.57-67.3,28.71-9.26,45.05-40.37,32.71-68.77Z"/><g><g><path class="cls-5" d="M736.52,1279.09c-24.55-5.64-81.29-2.61-81.29-2.61l-2.31,6.25-3.82,31.07s54.04,9.74,80.67,9.72c2.72,0,5.2-.41,7.47-1.12,.81-.73,1.61-1.48,2.36-2.3,11.3-12.34,8.04-30.47-3.08-41.01Z"/><path class="cls-15" d="M638.92,1274.74l9.61,.41c5.16,.22,10.03,2.74,13.5,6.98,3.47,4.24,5.26,9.86,4.95,15.58-.24,4.56-2.11,8.83-5.2,11.85-3.09,3.03-7.13,4.56-11.24,4.27l-14.7-1.05,3.08-38.04Z"/></g><path class="cls-19" d="M639.63,1311.52c-.39-14.32,2.4-27.65,8.35-40,.17-.57,.37-1.11,.55-1.67-7.39-2.29-16.94-5.39-29.49-9.65-91.92-31.46-162.04-63.22-228.97-99.78-26-14.2-55.56-4.68-63.88,26.08-7.43,27.46,8.89,50.91,33.65,59.15,74.08,24.65,205.54,63.99,279.93,68.98-.06-1.04-.12-2.08-.15-3.12Z"/></g><path class="cls-17" d="M534.43,937.11s9.89,42.84,57.88,41.95c48.88-.89,53.24-42.09,53.24-42.09l-31.93-6.83-2.67-35.58-48.03,3.56-.89,33.8-27.6,5.19Z"/><path class="cls-18" d="M370.59,1142.54s-9.47,1.06-14.9-1.28c-5.43-2.34-26.8-4.33-31.32-10.71,0,0-5.22,8.24,2.35,11.31,7.57,3.08,19.14,8.48,10.9,15.72-8.24,7.24-11.91,1.19-11.41-7.27,.5-8.46-1.74-7.89-5.84-9.01,0,0-9.25,13.89,2.29,22.17,0,0-31.64-5.58-29.74,7.05l29.68,.12s-30.55,6.6-23.51,18.21l26.58-9.01s-16.34,5.72-12.86,13.72c0,0,50.68-26.15,60.01-28.22,9.34-2.07-2.24-22.82-2.24-22.82Z"/><path class="cls-12" d="M455.28,1040.34s-36.76,81.26-84.69,102.2l2.24,22.82s71.12-2.6,121.9-101.9c0,0-13.6-31.28-39.45-23.12Z"/><path class="cls-13" d="M818.54,1142.54s9.47,1.06,14.9-1.28c5.43-2.34,26.8-4.33,31.32-10.71,0,0,5.22,8.24-2.35,11.31-7.57,3.08-19.14,8.48-10.9,15.72,8.24,7.24,11.91,1.19,11.41-7.27-.5-8.46,1.74-7.89,5.84-9.01,0,0,9.25,13.89-2.29,22.17,0,0,31.64-5.58,29.74,7.05l-29.68,.12s30.55,6.6,23.51,18.21l-26.58-9.01s16.34,5.72,12.86,13.72c0,0-50.68-26.15-60.01-28.22-9.34-2.07,2.24-22.82,2.24-22.82Z"/><path class="cls-24" d="M733.85,1040.34s36.76,81.26,84.69,102.2l-2.24,22.82s-71.12-2.6-121.9-101.9c0,0,13.6-31.28,39.45-23.12Z"/><g><path class="cls-25" d="M553.71,819.75s-21.1,86.61,32.54,100.24c37.84,9.61,51.42-62.91,42.26-80.89-14.17-27.81-20.58-23.46-20.58-23.46l-54.22,4.11Z"/><path class="cls-23" d="M626.99,864.56s2.58-16.93,10.83-14.05c8.25,2.88,1.31,24.45-9.91,26.23l-.92-12.19Z"/><path class="cls-22" d="M553.67,875.88l-1.35-11.5s-3.37-15.81-10.68-13.59c-7.3,2.22-3.44,27.87,12.03,25.1Z"/><path class="cls-8" d="M548.5,854.56c.8,2.06,3.86,1.58,3.97-.63,.66-13.2,3.44-33.19,14.6-24.38,14.71,11.61,31.49,7.8,41.05,1.84,5.16-3.22,11.99-1.34,14.42,4.23,1.88,4.3,3.17,11.62,3.86,18.64,.26,2.63,3.83,3.23,4.93,.82l1.74-3.82c.04-.09,.06-.18,.06-.27v-5.13c0-.33,.24-.6,.56-.65,1.78-.29,7.02-1.71,3.66-8.36-.16-.31-.05-.7,.24-.88,1.31-.81,4.22-3.54,1.09-10.7-.12-.28-.05-.61,.2-.79,2.42-1.67,13.97-10.61,6.92-24.66-6.8-13.57-16.37-8.64-18.8-7.09-.32,.2-.71,.11-.9-.22-1.2-2.11-5.67-8.69-13.17-5.16-2.57,1.21-6.63,.66-8.96-.97-3.01-2.11-7.26-3.6-11.72-.42-3.54,2.53-8.4,2.6-11.78-.14-4.69-3.82-12.21-6.45-22.68,.22-16.87,10.74-13.86,25.08-12.82,28.56,.12,.39-.15,.78-.55,.83-1.81,.19-6.05,1.3-6.24,7.39-.23,7.43,6.45,19.11,7.01,20.08,.03,.05,.05,.09,.06,.14l3.23,11.46s.01,.04,.02,.06h0Z"/></g></g><path class="cls-10" d="M1050.63,289.56s2.22-175.95-177.33-165.12c0,0-9.55,148.33,177.33,165.12Z"/><path class="cls-10" d="M1065.63,279.8S1002.06,87.25,1322.91,0c0,0,12.43,269.17-257.29,279.8Z"/><path class="cls-9" d="M924.7,169.1s98.06,36.08,118.68,110.7c0,0-60.99-86.51-118.68-110.7Z"/><path class="cls-9" d="M1080.45,262.73s55.89-163.45,156.17-189.52c0,0-93.87,67.18-156.17,189.52Z"/><path class="cls-3" d="M474.32,854.11c-.82,0-1.49-.66-1.5-1.48-.01-.83,.65-1.51,1.48-1.52,.99-.01,1.98-.04,2.96-.08,.84-.04,1.52,.61,1.56,1.44,.03,.83-.61,1.53-1.44,1.56-1.01,.04-2.02,.06-3.04,.08h-.02Zm-7-.13s-.05,0-.07,0c-1.01-.05-2.02-.11-3.03-.19-.83-.06-1.45-.78-1.38-1.61,.06-.83,.78-1.45,1.61-1.38,.98,.07,1.97,.13,2.96,.18,.83,.04,1.47,.74,1.42,1.57-.04,.8-.7,1.43-1.5,1.43Zm16.98-.43c-.76,0-1.41-.58-1.49-1.35-.08-.82,.52-1.56,1.34-1.64,.98-.1,1.96-.21,2.94-.34,.81-.1,1.57,.48,1.68,1.3,.1,.82-.48,1.57-1.3,1.68-1.01,.13-2.01,.24-3.02,.34-.05,0-.1,0-.15,0Zm-26.93-.48c-.07,0-.13,0-.2-.01-1-.14-2.01-.28-3.01-.45-.82-.13-1.37-.9-1.24-1.72,.13-.82,.91-1.38,1.72-1.24,.97,.16,1.95,.3,2.93,.43,.82,.11,1.4,.87,1.29,1.69-.1,.75-.75,1.3-1.48,1.3Zm36.82-.97c-.7,0-1.33-.5-1.47-1.22-.16-.81,.38-1.6,1.19-1.76,.97-.19,1.93-.39,2.9-.6,.81-.17,1.61,.33,1.79,1.14,.18,.81-.33,1.61-1.14,1.79-.99,.22-1.98,.42-2.98,.62-.1,.02-.19,.03-.29,.03Zm-46.66-.8c-.11,0-.22-.01-.33-.04-.99-.22-1.97-.46-2.96-.7-.8-.2-1.29-1.02-1.09-1.82,.2-.8,1.02-1.29,1.82-1.09,.96,.24,1.92,.47,2.88,.69,.81,.18,1.32,.98,1.14,1.79-.16,.7-.78,1.17-1.46,1.17Zm56.38-1.54c-.65,0-1.25-.43-1.44-1.08-.23-.8,.23-1.63,1.02-1.86,.95-.28,1.89-.56,2.83-.87,.79-.25,1.63,.18,1.89,.97,.25,.79-.18,1.63-.97,1.89-.97,.31-1.94,.61-2.91,.89-.14,.04-.28,.06-.42,.06Zm-66.03-1.07c-.15,0-.3-.02-.45-.07-.96-.31-1.93-.63-2.88-.96-.78-.27-1.2-1.13-.93-1.91,.27-.78,1.13-1.2,1.91-.93,.93,.32,1.87,.63,2.81,.93,.79,.25,1.23,1.09,.98,1.88-.2,.64-.79,1.05-1.43,1.05Zm75.49-2.18c-.6,0-1.16-.36-1.39-.94-.31-.77,.07-1.64,.84-1.95,.92-.36,1.83-.74,2.73-1.13,.76-.33,1.64,.02,1.97,.78,.33,.76-.02,1.64-.78,1.97-.93,.4-1.87,.79-2.81,1.17-.18,.07-.37,.11-.56,.11Zm-84.88-1.26c-.19,0-.39-.04-.58-.12-.94-.39-1.87-.79-2.79-1.21-.76-.34-1.09-1.23-.75-1.98,.34-.75,1.22-1.09,1.98-.75,.9,.41,1.81,.8,2.72,1.18,.76,.32,1.12,1.2,.81,1.96-.24,.58-.8,.92-1.38,.92Zm-9.04-4.27c-.24,0-.48-.06-.7-.17-.9-.47-1.79-.96-2.67-1.46-.72-.41-.98-1.32-.57-2.04,.41-.72,1.32-.97,2.04-.57,.86,.48,1.73,.96,2.6,1.42,.73,.39,1.01,1.3,.62,2.03-.27,.51-.79,.8-1.33,.8Zm-8.61-5.08c-.28,0-.57-.08-.82-.25-.85-.56-1.69-1.12-2.52-1.7-.68-.47-.85-1.41-.38-2.09,.47-.68,1.41-.85,2.09-.38,.81,.56,1.63,1.12,2.45,1.66,.69,.45,.89,1.38,.43,2.08-.29,.44-.77,.68-1.26,.68Zm-8.09-5.87c-.33,0-.66-.11-.94-.33-.34-.27-.67-.54-1.01-.82-.45-.37-.9-.74-1.34-1.12-.63-.54-.71-1.48-.17-2.11,.54-.63,1.48-.71,2.11-.17,.43,.37,.86,.73,1.3,1.09,.33,.27,.65,.53,.98,.8,.65,.52,.75,1.46,.23,2.11-.3,.37-.73,.56-1.17,.56Zm-7.48-6.63c-.38,0-.76-.14-1.05-.43-.73-.71-1.44-1.43-2.15-2.16-.58-.6-.56-1.54,.04-2.12,.59-.57,1.54-.56,2.12,.04,.69,.71,1.38,1.41,2.09,2.09,.59,.58,.6,1.53,.03,2.12-.29,.3-.68,.45-1.07,.45Zm-6.81-7.31c-.43,0-.85-.18-1.15-.53-.66-.77-1.3-1.56-1.93-2.35-.52-.65-.41-1.59,.23-2.11,.65-.52,1.59-.41,2.11,.23,.62,.77,1.24,1.53,1.88,2.28,.54,.63,.46,1.58-.17,2.11-.28,.24-.63,.36-.97,.36Zm-6.11-7.91c-.47,0-.94-.22-1.23-.64-.58-.83-1.15-1.67-1.71-2.51-.46-.69-.27-1.62,.42-2.08,.69-.46,1.62-.27,2.08,.42,.55,.82,1.1,1.64,1.67,2.45,.48,.68,.31,1.61-.37,2.09-.26,.18-.56,.27-.86,.27Zm-5.38-8.43c-.52,0-1.02-.27-1.3-.75-.51-.88-1-1.76-1.48-2.65-.4-.73-.12-1.64,.6-2.03,.72-.39,1.64-.13,2.03,.6,.47,.87,.95,1.73,1.45,2.58,.41,.72,.17,1.63-.55,2.05-.24,.14-.49,.2-.75,.2Zm-4.61-8.87c-.56,0-1.11-.32-1.36-.87-.43-.92-.84-1.84-1.25-2.77-.33-.76,.02-1.64,.78-1.97,.76-.33,1.64,.02,1.97,.78,.39,.9,.8,1.8,1.22,2.7,.35,.75,.03,1.64-.73,1.99-.21,.1-.42,.14-.63,.14Zm-3.83-9.23c-.61,0-1.19-.38-1.41-.99-.35-.95-.68-1.91-1.01-2.87-.26-.79,.16-1.64,.94-1.9,.79-.26,1.64,.16,1.9,.94,.32,.94,.64,1.87,.98,2.8,.28,.78-.12,1.64-.9,1.92-.17,.06-.34,.09-.51,.09Zm-3.02-9.53c-.66,0-1.27-.44-1.45-1.11-.26-.98-.52-1.96-.76-2.94-.2-.8,.3-1.62,1.1-1.81,.8-.19,1.62,.3,1.81,1.1,.23,.96,.48,1.92,.74,2.87,.22,.8-.26,1.62-1.06,1.84-.13,.04-.26,.05-.39,.05Zm-2.19-9.75c-.71,0-1.34-.51-1.47-1.24-.18-1-.35-2-.5-3-.12-.82,.44-1.58,1.26-1.71,.81-.13,1.58,.44,1.71,1.26,.15,.98,.31,1.95,.48,2.92,.15,.81-.4,1.59-1.21,1.74-.09,.02-.18,.02-.27,.02Zm-1.33-9.91c-.77,0-1.42-.59-1.49-1.37-.09-1.01-.17-2.02-.23-3.03-.05-.83,.58-1.54,1.4-1.59,.84-.05,1.54,.58,1.59,1.4,.06,.99,.14,1.97,.22,2.95,.07,.83-.54,1.55-1.36,1.63-.05,0-.09,0-.13,0Zm-.44-9.99h0c-.83,0-1.5-.67-1.5-1.5,0-1.01,.02-2.03,.04-3.04,.02-.83,.74-1.52,1.54-1.46,.83,.02,1.48,.71,1.46,1.54-.03,.99-.04,1.97-.04,2.96,0,.83-.67,1.5-1.5,1.5Zm.47-9.99s-.09,0-.14,0c-.83-.08-1.43-.81-1.35-1.63,.09-1.01,.2-2.02,.33-3.02,.1-.82,.86-1.39,1.67-1.31,.82,.1,1.41,.85,1.31,1.67-.12,.98-.23,1.96-.32,2.94-.07,.78-.73,1.36-1.49,1.36Zm1.41-9.89c-.09,0-.19,0-.29-.03-.81-.16-1.35-.94-1.19-1.76,.16-.85,.34-1.7,.52-2.54l.1-.44c.18-.81,.98-1.32,1.79-1.14,.81,.18,1.32,.98,1.14,1.79l-.09,.42c-.18,.82-.35,1.65-.51,2.47-.14,.72-.77,1.22-1.47,1.22Zm2.33-9.72c-.14,0-.28-.02-.42-.06-.8-.23-1.26-1.06-1.03-1.86,.28-.98,.57-1.95,.88-2.92,.25-.79,1.09-1.23,1.88-.98,.79,.25,1.23,1.09,.98,1.88-.3,.94-.58,1.89-.86,2.84-.19,.66-.79,1.09-1.44,1.09Zm3.17-9.49c-.18,0-.36-.03-.54-.1-.77-.3-1.16-1.16-.87-1.94,.36-.95,.74-1.89,1.12-2.83,.31-.76,1.19-1.13,1.96-.82,.77,.32,1.13,1.19,.82,1.96-.38,.91-.74,1.83-1.09,2.76-.23,.6-.8,.96-1.4,.96Zm3.95-9.19c-.22,0-.44-.05-.65-.15-.75-.36-1.06-1.25-.71-2,.44-.91,.88-1.82,1.34-2.72,.37-.74,1.27-1.04,2.02-.66,.74,.37,1.04,1.28,.66,2.02-.45,.88-.88,1.77-1.31,2.66-.26,.54-.79,.85-1.35,.85Zm4.64-8.85c-.25,0-.51-.06-.74-.2-.72-.41-.97-1.33-.56-2.05,.5-.88,1.01-1.75,1.53-2.61,.43-.71,1.35-.94,2.06-.51,.71,.43,.94,1.35,.51,2.06-.51,.85-1.01,1.7-1.5,2.55-.28,.48-.78,.75-1.3,.75Zm5.26-8.49c-.29,0-.58-.08-.83-.25-.69-.46-.88-1.39-.42-2.08,.56-.84,1.12-1.67,1.7-2.5,.47-.68,1.41-.85,2.09-.38,.68,.47,.85,1.41,.38,2.09-.56,.81-1.12,1.63-1.67,2.45-.29,.43-.76,.67-1.25,.67Zm5.79-8.13c-.32,0-.63-.1-.91-.3-.66-.5-.79-1.44-.29-2.1,.61-.8,1.22-1.6,1.84-2.39,.51-.65,1.46-.76,2.11-.25,.65,.51,.76,1.46,.25,2.11-.61,.78-1.22,1.56-1.81,2.35-.3,.39-.74,.59-1.2,.59Zm6.25-7.79c-.34,0-.69-.12-.97-.36-.63-.54-.71-1.48-.17-2.11,.65-.76,1.31-1.53,1.97-2.28,.54-.62,1.49-.69,2.12-.14,.62,.55,.69,1.49,.14,2.12-.65,.75-1.3,1.5-1.94,2.25-.3,.35-.72,.53-1.14,.53Zm6.65-7.45c-.37,0-.73-.13-1.02-.4-.6-.57-.64-1.51-.07-2.12,.68-.73,1.38-1.46,2.07-2.19,.58-.6,1.52-.62,2.12-.04,.6,.57,.62,1.52,.04,2.12-.69,.71-1.37,1.43-2.04,2.16-.3,.32-.7,.48-1.1,.48Zm6.98-7.15c-.39,0-.78-.15-1.07-.45-.58-.59-.57-1.54,.02-2.12,.72-.7,1.44-1.4,2.16-2.1,.6-.57,1.55-.55,2.12,.04,.57,.6,.55,1.55-.04,2.12-.72,.69-1.43,1.38-2.14,2.08-.29,.29-.67,.43-1.05,.43Zm7.26-6.87c-.41,0-.81-.17-1.11-.49-.56-.61-.51-1.56,.1-2.12,.74-.68,1.49-1.35,2.24-2.02,.62-.55,1.57-.5,2.12,.12,.55,.62,.5,1.57-.12,2.12-.74,.66-1.48,1.33-2.21,2-.29,.26-.65,.39-1.01,.39Zm7.5-6.62c-.42,0-.84-.18-1.14-.53-.54-.63-.46-1.58,.17-2.12,.76-.65,1.53-1.3,2.3-1.95,.63-.53,1.58-.45,2.11,.18,.53,.63,.45,1.58-.18,2.11-.76,.64-1.52,1.29-2.28,1.93-.28,.24-.63,.36-.97,.36Zm7.69-6.39c-.44,0-.87-.19-1.17-.56-.52-.64-.42-1.59,.22-2.11,.78-.63,1.56-1.26,2.35-1.89,.65-.52,1.59-.41,2.11,.24,.52,.65,.41,1.59-.24,2.11-.78,.62-1.56,1.25-2.33,1.87-.28,.22-.61,.33-.94,.33Zm7.86-6.2c-.45,0-.89-.2-1.19-.58-.51-.66-.38-1.6,.27-2.1,.8-.62,1.6-1.23,2.4-1.83,.66-.5,1.6-.37,2.1,.29,.5,.66,.37,1.6-.29,2.1-.79,.6-1.59,1.21-2.38,1.82-.27,.21-.59,.31-.92,.31Zm7.99-6.03c-.46,0-.91-.21-1.21-.61-.49-.67-.35-1.6,.31-2.1,.81-.6,1.62-1.2,2.43-1.79,.67-.49,1.61-.34,2.1,.33,.49,.67,.34,1.61-.32,2.1-.81,.59-1.61,1.18-2.42,1.78-.27,.2-.58,.3-.89,.3Zm8.1-5.9c-.47,0-.93-.22-1.22-.63-.48-.67-.33-1.61,.35-2.09,.78-.56,1.55-1.11,2.33-1.66l.1-.07c.67-.49,1.61-.34,2.1,.33,.49,.67,.34,1.61-.33,2.1l-.14,.1c-.77,.55-1.54,1.1-2.32,1.65-.26,.19-.57,.28-.87,.28Zm8.15-5.79c-.47,0-.93-.22-1.23-.63-.48-.68-.32-1.61,.36-2.09l2.45-1.73c.68-.48,1.61-.32,2.09,.36,.48,.68,.32,1.61-.36,2.09l-2.45,1.73c-.26,.19-.56,.27-.86,.27Zm8.17-5.76c-.47,0-.93-.22-1.23-.63-.48-.68-.32-1.61,.36-2.09l2.45-1.73c.68-.48,1.61-.32,2.09,.36,.48,.68,.32,1.61-.36,2.09l-2.45,1.73c-.26,.19-.56,.28-.86,.28Zm8.15-5.78c-.47,0-.93-.22-1.22-.63-.48-.67-.33-1.61,.35-2.09l2.44-1.74c.67-.48,1.61-.33,2.09,.35,.48,.67,.33,1.61-.35,2.09l-2.44,1.75c-.26,.19-.57,.28-.87,.28Zm8.11-5.84c-.46,0-.92-.21-1.21-.62-.49-.67-.34-1.61,.33-2.1,.81-.59,1.61-1.18,2.42-1.77,.67-.49,1.61-.35,2.1,.32,.49,.67,.35,1.61-.32,2.1-.81,.59-1.62,1.18-2.43,1.77-.27,.19-.58,.29-.88,.29Zm8.05-5.94c-.46,0-.91-.21-1.2-.6-.5-.66-.36-1.6,.3-2.1,.8-.6,1.6-1.2,2.39-1.8,.66-.5,1.6-.37,2.1,.29,.5,.66,.37,1.6-.29,2.1-.8,.61-1.6,1.21-2.4,1.81-.27,.2-.59,.3-.9,.3Zm7.95-6.08c-.45,0-.89-.2-1.18-.58-.51-.65-.4-1.6,.26-2.11,.79-.62,1.57-1.23,2.35-1.85,.65-.51,1.59-.4,2.11,.24,.51,.65,.41,1.59-.24,2.11-.79,.62-1.58,1.24-2.37,1.86-.27,.21-.6,.32-.92,.32Zm7.81-6.26c-.43,0-.86-.19-1.16-.55-.53-.64-.43-1.58,.21-2.11,.77-.63,1.54-1.27,2.3-1.91,.64-.53,1.58-.45,2.11,.19,.53,.64,.45,1.58-.19,2.11-.77,.65-1.54,1.29-2.32,1.93-.28,.23-.62,.34-.95,.34Zm7.63-6.47c-.42,0-.83-.17-1.13-.51-.54-.62-.48-1.57,.14-2.12,.75-.66,1.5-1.32,2.24-1.98,.62-.55,1.57-.5,2.12,.12,.55,.62,.5,1.57-.12,2.12-.75,.67-1.5,1.34-2.26,2-.29,.25-.64,.37-.99,.37Zm7.41-6.72c-.4,0-.8-.16-1.09-.47-.57-.6-.54-1.55,.07-2.12,.73-.68,1.45-1.37,2.16-2.06,.6-.57,1.55-.56,2.12,.04,.58,.6,.56,1.55-.04,2.12-.73,.7-1.45,1.39-2.19,2.08-.29,.27-.66,.41-1.03,.41Zm7.15-7.01c-.38,0-.76-.14-1.05-.43-.59-.58-.6-1.53-.03-2.12,.7-.71,1.39-1.43,2.07-2.15,.57-.6,1.52-.63,2.12-.05,.6,.57,.62,1.52,.05,2.12-.69,.73-1.39,1.46-2.1,2.18-.29,.3-.68,.45-1.07,.45Zm6.82-7.32c-.35,0-.71-.12-.99-.38-.62-.55-.68-1.5-.13-2.12,.66-.74,1.31-1.49,1.96-2.24,.54-.63,1.49-.7,2.12-.16,.63,.54,.7,1.49,.16,2.12-.66,.76-1.32,1.52-1.99,2.28-.3,.33-.71,.5-1.12,.5Zm6.43-7.66c-.33,0-.66-.11-.93-.33-.65-.52-.76-1.46-.24-2.11,.62-.78,1.23-1.56,1.83-2.34,.5-.66,1.45-.78,2.1-.28,.66,.5,.78,1.44,.28,2.1-.61,.8-1.23,1.6-1.86,2.39-.3,.37-.73,.57-1.18,.57Zm5.98-8.01c-.3,0-.6-.09-.86-.27-.68-.48-.84-1.41-.37-2.09,.57-.81,1.13-1.63,1.68-2.45,.46-.69,1.4-.87,2.08-.41,.69,.46,.87,1.39,.41,2.08-.56,.84-1.13,1.67-1.71,2.49-.29,.42-.76,.64-1.23,.64Zm5.46-8.36c-.26,0-.53-.07-.78-.22-.71-.43-.93-1.35-.5-2.06,.51-.84,1.01-1.69,1.51-2.55,.41-.72,1.34-.96,2.05-.55,.72,.42,.96,1.33,.55,2.05-.5,.87-1.02,1.74-1.54,2.6-.28,.47-.78,.72-1.28,.72Zm4.87-8.71c-.23,0-.46-.05-.68-.17-.74-.38-1.03-1.28-.65-2.02,.45-.88,.89-1.76,1.33-2.65,.36-.74,1.26-1.05,2.01-.69,.74,.36,1.05,1.26,.69,2.01-.44,.91-.9,1.81-1.36,2.71-.27,.52-.79,.81-1.34,.81Zm4.23-9.06c-.19,0-.39-.04-.58-.12-.76-.32-1.12-1.2-.81-1.96,.38-.91,.75-1.83,1.11-2.75,.3-.77,1.17-1.15,1.94-.85,.77,.3,1.15,1.17,.85,1.94-.37,.94-.75,1.88-1.14,2.81-.24,.58-.8,.92-1.38,.92Zm3.48-9.37c-.15,0-.31-.02-.47-.07-.79-.26-1.22-1.1-.96-1.89,.31-.94,.6-1.88,.89-2.83,.24-.79,1.08-1.24,1.87-1,.79,.24,1.24,1.08,1,1.87-.29,.97-.59,1.93-.91,2.9-.21,.63-.79,1.03-1.43,1.03Zm2.73-9.62c-.12,0-.24-.01-.35-.04-.8-.2-1.3-1.01-1.1-1.81,.23-.96,.46-1.92,.67-2.89,.18-.81,.98-1.32,1.79-1.14,.81,.18,1.32,.98,1.14,1.79-.22,.99-.44,1.97-.68,2.96-.17,.69-.78,1.15-1.46,1.15Zm1.99-9.8c-.08,0-.16,0-.24-.02-.82-.13-1.37-.9-1.24-1.72,.16-.98,.31-1.95,.45-2.93,.12-.82,.88-1.39,1.69-1.28,.82,.12,1.39,.87,1.28,1.69-.14,1-.29,2-.46,3-.12,.74-.76,1.26-1.48,1.26Zm-279.95-1.89c-.76,0-1.41-.58-1.49-1.35-.06-.6-.11-1.2-.16-1.8-.07-.83,.55-1.55,1.37-1.62,.8-.07,1.55,.54,1.62,1.37,.05,.58,.1,1.17,.16,1.75,.08,.82-.52,1.56-1.35,1.64-.05,0-.1,0-.15,0Zm281.19-8.03s-.09,0-.13,0c-.83-.07-1.44-.8-1.36-1.63,.09-.99,.16-1.97,.23-2.96,.06-.83,.78-1.46,1.6-1.4,.83,.06,1.45,.77,1.4,1.6-.07,1.01-.15,2.02-.24,3.02-.07,.78-.72,1.37-1.49,1.37Zm-281.75-.74c-.81,0-1.47-.64-1.5-1.45-.03-1.01-.05-2.02-.06-3.03,0-.83,.66-1.51,1.49-1.51,.83,.04,1.51,.66,1.51,1.49,0,.99,.03,1.98,.06,2.97,.03,.83-.63,1.52-1.45,1.54-.01,0-.03,0-.05,0Zm282.27-9.25h-.02c-.83-.01-1.49-.7-1.48-1.52,.01-.77,.02-1.54,.02-2.31v-.65c0-.83,.66-1.5,1.49-1.51h0c.83,0,1.5,.67,1.5,1.49v.67c0,.79,0,1.58-.02,2.36-.01,.82-.68,1.48-1.5,1.48Zm-282.22-.75s-.04,0-.06,0c-.83-.03-1.47-.73-1.44-1.56,.04-1.01,.09-2.02,.16-3.03,.05-.83,.74-1.45,1.59-1.4,.83,.05,1.46,.76,1.4,1.59-.06,.99-.11,1.97-.15,2.96-.03,.81-.7,1.44-1.5,1.44Zm282.03-9.25c-.79,0-1.45-.62-1.5-1.42-.05-.99-.12-1.98-.19-2.96-.06-.83,.56-1.55,1.38-1.61,.82-.05,1.55,.56,1.61,1.38,.08,1.01,.14,2.02,.19,3.02,.04,.83-.59,1.53-1.42,1.58-.03,0-.06,0-.08,0Zm-281.27-.72c-.06,0-.11,0-.17,0-.82-.09-1.42-.83-1.33-1.66,.11-1,.23-2.01,.37-3.01,.11-.82,.87-1.4,1.69-1.29,.82,.11,1.4,.86,1.29,1.68-.13,.98-.25,1.96-.36,2.95-.09,.77-.74,1.33-1.49,1.33Zm280.38-9.24c-.75,0-1.39-.56-1.49-1.32-.12-.98-.25-1.96-.4-2.94-.12-.82,.45-1.58,1.27-1.7,.81-.12,1.58,.45,1.7,1.27,.15,1,.28,2,.4,3.01,.1,.82-.48,1.57-1.3,1.67-.06,0-.12,.01-.19,.01Zm-278.93-.65c-.09,0-.18,0-.27-.02-.81-.15-1.36-.93-1.21-1.74,.18-.99,.37-1.99,.57-2.98,.16-.81,.96-1.34,1.77-1.17,.81,.16,1.34,.96,1.17,1.77-.2,.97-.38,1.94-.56,2.92-.13,.72-.76,1.23-1.47,1.23Zm277.36-9.22c-.7,0-1.33-.5-1.47-1.21-.19-.97-.39-1.94-.6-2.91-.17-.81,.34-1.61,1.15-1.78,.81-.18,1.61,.34,1.78,1.15,.21,.99,.42,1.98,.61,2.97,.16,.81-.37,1.6-1.19,1.76-.1,.02-.19,.03-.29,.03Zm-275.25-.55c-.12,0-.24-.01-.37-.05-.8-.2-1.29-1.02-1.09-1.82,.25-.98,.5-1.96,.77-2.93,.22-.8,1.04-1.27,1.84-1.05,.8,.22,1.27,1.04,1.05,1.84-.26,.96-.51,1.91-.75,2.87-.17,.68-.78,1.13-1.45,1.13Zm273-9.19c-.66,0-1.27-.44-1.45-1.11-.25-.96-.52-1.91-.79-2.86-.23-.8,.23-1.63,1.02-1.86,.79-.23,1.63,.23,1.86,1.02,.28,.97,.55,1.95,.81,2.92,.21,.8-.26,1.62-1.06,1.84-.13,.03-.26,.05-.39,.05Zm-270.24-.42c-.15,0-.31-.02-.46-.07-.79-.25-1.22-1.1-.97-1.89,.31-.96,.63-1.92,.96-2.88,.27-.78,1.13-1.2,1.91-.93,.78,.27,1.2,1.12,.93,1.91-.32,.94-.64,1.87-.94,2.82-.21,.63-.79,1.04-1.43,1.04Zm267.33-9.15c-.62,0-1.21-.39-1.42-1.01-.32-.94-.65-1.87-.99-2.8-.28-.78,.12-1.64,.9-1.92,.77-.28,1.64,.12,1.92,.9,.35,.95,.68,1.9,1.01,2.86,.27,.78-.15,1.64-.93,1.91-.16,.06-.33,.08-.49,.08Zm-263.94-.26c-.18,0-.37-.03-.55-.11-.77-.3-1.15-1.18-.84-1.95,.37-.94,.75-1.88,1.15-2.81,.32-.76,1.2-1.12,1.96-.8,.76,.32,1.12,1.2,.8,1.96-.38,.91-.76,1.83-1.12,2.75-.23,.59-.8,.95-1.39,.95Zm260.38-9.08c-.58,0-1.14-.34-1.38-.92-.38-.91-.78-1.82-1.18-2.72-.34-.76,0-1.64,.76-1.98,.75-.34,1.64,0,1.98,.76,.41,.92,.82,1.85,1.21,2.78,.32,.76-.04,1.64-.8,1.96-.19,.08-.39,.12-.58,.12Zm-256.39-.09c-.22,0-.43-.05-.64-.15-.75-.36-1.07-1.25-.71-2,.43-.91,.88-1.82,1.33-2.72,.37-.74,1.27-1.04,2.01-.67,.74,.37,1.04,1.27,.67,2.01-.44,.89-.88,1.78-1.3,2.67-.26,.54-.79,.86-1.36,.86Zm4.58-8.89c-.25,0-.5-.06-.73-.19-.72-.4-.99-1.32-.58-2.04,.49-.88,.99-1.76,1.5-2.63,.42-.72,1.34-.96,2.05-.54,.72,.42,.96,1.33,.54,2.05-.5,.86-.99,1.72-1.47,2.58-.27,.49-.79,.77-1.31,.77Zm247.6-.09c-.55,0-1.07-.3-1.34-.82-.45-.88-.91-1.76-1.37-2.63-.39-.73-.12-1.64,.62-2.03,.73-.39,1.64-.12,2.03,.62,.48,.89,.94,1.79,1.4,2.69,.38,.74,.08,1.64-.66,2.02-.22,.11-.45,.16-.68,.16Zm-242.46-8.48c-.28,0-.56-.08-.81-.24-.7-.45-.9-1.38-.45-2.07,.55-.85,1.1-1.69,1.67-2.53,.46-.69,1.4-.87,2.08-.41,.69,.46,.87,1.4,.41,2.08-.55,.82-1.1,1.65-1.63,2.48-.29,.44-.77,.69-1.26,.69Zm237.62-.26c-.51,0-1-.26-1.29-.73-.51-.85-1.03-1.69-1.56-2.52-.44-.7-.23-1.63,.46-2.07,.7-.44,1.63-.23,2.07,.47,.54,.85,1.07,1.71,1.59,2.58,.43,.71,.2,1.63-.51,2.06-.24,.15-.51,.22-.77,.22Zm-231.92-7.96c-.31,0-.62-.1-.89-.3-.66-.49-.8-1.43-.31-2.1,.6-.81,1.21-1.62,1.83-2.42,.51-.66,1.45-.78,2.1-.27,.66,.51,.78,1.45,.27,2.1-.6,.78-1.2,1.57-1.79,2.37-.3,.4-.75,.61-1.21,.61Zm226.45-.41c-.47,0-.93-.22-1.22-.63-.57-.81-1.15-1.61-1.74-2.4-.49-.66-.36-1.6,.31-2.1,.66-.5,1.6-.36,2.1,.31,.6,.81,1.2,1.63,1.78,2.45,.48,.68,.32,1.61-.36,2.09-.26,.19-.57,.28-.87,.28Zm-220.23-7.42c-.34,0-.69-.12-.97-.36-.63-.54-.71-1.48-.17-2.11,.65-.77,1.32-1.53,1.99-2.29,.55-.62,1.5-.68,2.12-.13,.62,.55,.68,1.5,.13,2.12-.66,.74-1.3,1.49-1.94,2.24-.3,.35-.72,.53-1.14,.53Zm214.14-.51c-.43,0-.86-.18-1.16-.54-.63-.76-1.27-1.51-1.92-2.26-.54-.62-.48-1.57,.15-2.12,.62-.54,1.57-.48,2.12,.14,.66,.76,1.32,1.53,1.97,2.31,.53,.64,.44,1.58-.2,2.11-.28,.23-.62,.35-.96,.35Zm-207.41-6.88c-.38,0-.75-.14-1.05-.43-.59-.58-.61-1.53-.03-2.12,.71-.72,1.42-1.44,2.14-2.15,.59-.58,1.54-.57,2.12,.02,.58,.59,.57,1.54-.02,2.12-.71,.69-1.4,1.4-2.09,2.1-.29,.3-.68,.45-1.07,.45Zm200.73-.55c-.39,0-.78-.15-1.08-.45-.69-.71-1.38-1.41-2.09-2.1-.59-.58-.6-1.53-.02-2.12,.58-.59,1.53-.6,2.12-.02,.72,.71,1.44,1.43,2.14,2.15,.58,.59,.56,1.54-.03,2.12-.29,.28-.67,.42-1.05,.42Zm-193.51-6.36c-.41,0-.82-.17-1.12-.5-.55-.62-.5-1.57,.12-2.12,.75-.67,1.51-1.34,2.28-2,.63-.54,1.58-.46,2.11,.17,.54,.63,.46,1.58-.17,2.11-.75,.64-1.5,1.29-2.23,1.95-.29,.26-.64,.38-1,.38Zm186.26-.52c-.35,0-.7-.12-.99-.37-.74-.65-1.5-1.29-2.25-1.93-.64-.53-.72-1.48-.19-2.11,.53-.64,1.48-.72,2.11-.19,.78,.65,1.55,1.31,2.31,1.97,.62,.55,.69,1.49,.14,2.12-.3,.34-.71,.51-1.13,.51Zm-178.57-5.87c-.45,0-.89-.2-1.19-.58-.51-.66-.39-1.6,.27-2.1,.8-.62,1.61-1.23,2.42-1.83,.67-.49,1.6-.35,2.1,.32,.49,.67,.35,1.61-.32,2.1-.8,.59-1.59,1.18-2.37,1.79-.27,.21-.6,.31-.92,.31Zm170.8-.42c-.31,0-.63-.1-.9-.3-.79-.59-1.59-1.17-2.4-1.75-.67-.48-.83-1.42-.35-2.09,.48-.68,1.42-.83,2.09-.35,.82,.59,1.64,1.18,2.45,1.79,.66,.5,.8,1.44,.3,2.1-.29,.39-.75,.6-1.2,.6Zm-162.67-5.4c-.49,0-.96-.24-1.25-.67-.46-.69-.27-1.62,.42-2.08,.84-.56,1.69-1.11,2.55-1.65,.7-.44,1.63-.23,2.07,.47,.44,.7,.23,1.63-.47,2.07-.84,.53-1.67,1.06-2.49,1.61-.26,.17-.54,.25-.83,.25Zm154.44-.28c-.27,0-.55-.08-.8-.23-.83-.53-1.67-1.05-2.52-1.56-.71-.43-.94-1.35-.51-2.06,.43-.71,1.35-.94,2.06-.51,.87,.52,1.73,1.06,2.58,1.6,.7,.44,.91,1.37,.46,2.07-.29,.45-.77,.7-1.27,.7Zm-145.9-4.93c-.53,0-1.04-.28-1.31-.77-.41-.72-.15-1.64,.58-2.04,.88-.49,1.77-.98,2.67-1.45,.73-.38,1.64-.11,2.03,.62,.39,.73,.11,1.64-.62,2.03-.87,.46-1.74,.94-2.61,1.42-.23,.13-.48,.19-.73,.19Zm137.27-.12c-.24,0-.48-.06-.71-.18-.87-.47-1.75-.93-2.63-1.37-.74-.38-1.03-1.28-.66-2.02,.38-.74,1.28-1.03,2.02-.66,.9,.46,1.8,.93,2.69,1.4,.73,.39,1,1.3,.61,2.03-.27,.5-.79,.79-1.32,.79Zm-8.98-4.41c-.21,0-.41-.04-.61-.13-.9-.4-1.81-.8-2.72-1.18-.76-.32-1.12-1.2-.8-1.96,.32-.76,1.2-1.12,1.96-.8,.93,.39,1.86,.8,2.78,1.21,.76,.34,1.1,1.23,.76,1.98-.25,.56-.8,.89-1.37,.89Zm-119.39-.02c-.57,0-1.11-.32-1.36-.87-.35-.75-.02-1.64,.73-1.99,.92-.43,1.84-.84,2.77-1.24,.76-.33,1.64,.02,1.97,.78,.33,.76-.02,1.64-.78,1.97-.91,.39-1.81,.8-2.71,1.21-.2,.09-.42,.14-.63,.14Zm110.12-3.73c-.17,0-.35-.03-.52-.09-.93-.34-1.86-.67-2.8-.99-.78-.27-1.2-1.12-.93-1.9,.27-.78,1.12-1.2,1.9-.93,.96,.33,1.91,.66,2.86,1.01,.78,.28,1.18,1.15,.89,1.92-.22,.61-.8,.99-1.41,.99Zm-100.9-.12c-.61,0-1.18-.37-1.41-.98-.29-.78,.1-1.64,.88-1.93,.95-.35,1.9-.7,2.85-1.03,.78-.27,1.64,.14,1.91,.92,.27,.78-.14,1.64-.92,1.91-.93,.33-1.86,.66-2.79,1.01-.17,.06-.35,.1-.53,.1Zm91.4-2.99c-.14,0-.28-.02-.42-.06-.95-.27-1.9-.54-2.86-.8-.8-.21-1.28-1.04-1.06-1.84,.21-.8,1.04-1.27,1.84-1.06,.98,.26,1.95,.53,2.92,.81,.8,.23,1.25,1.06,1.02,1.86-.19,.66-.79,1.08-1.44,1.08Zm-81.91-.16c-.65,0-1.25-.43-1.44-1.08-.23-.8,.22-1.63,1.02-1.86,.97-.28,1.94-.56,2.92-.82,.8-.21,1.62,.26,1.84,1.06,.22,.8-.26,1.62-1.06,1.84-.96,.26-1.91,.52-2.86,.8-.14,.04-.28,.06-.42,.06Zm72.22-2.29c-.11,0-.21-.01-.32-.03-.97-.21-1.94-.41-2.91-.6-.81-.16-1.34-.95-1.18-1.76,.16-.81,.95-1.35,1.76-1.18,.99,.19,1.98,.4,2.97,.61,.81,.18,1.32,.98,1.15,1.78-.15,.7-.77,1.18-1.46,1.18Zm-62.53-.17c-.69,0-1.31-.48-1.46-1.18-.17-.81,.34-1.61,1.15-1.78,.99-.21,1.98-.42,2.97-.61,.81-.16,1.6,.37,1.76,1.19,.16,.81-.37,1.6-1.19,1.76-.97,.19-1.94,.39-2.91,.6-.11,.02-.21,.03-.32,.03Zm52.7-1.63c-.07,0-.15,0-.22-.02-.98-.15-1.96-.28-2.94-.41-.82-.11-1.4-.86-1.3-1.68,.11-.82,.86-1.4,1.68-1.3,1,.13,2,.27,3,.41,.82,.12,1.39,.88,1.26,1.7-.11,.75-.75,1.28-1.48,1.28Zm-42.86-.14c-.73,0-1.38-.54-1.48-1.29-.12-.82,.45-1.58,1.27-1.7,1-.14,2-.28,3-.4,.83-.1,1.57,.48,1.67,1.31,.1,.82-.48,1.57-1.31,1.67-.98,.12-1.96,.25-2.94,.39-.07,.01-.14,.02-.21,.02Zm32.92-1s-.08,0-.12,0c-.99-.08-1.97-.15-2.96-.21-.83-.05-1.46-.76-1.41-1.59,.05-.83,.75-1.45,1.59-1.41,1.01,.06,2.01,.13,3.02,.21,.83,.07,1.44,.79,1.37,1.62-.06,.78-.72,1.38-1.49,1.38Zm-22.98-.08c-.78,0-1.44-.6-1.49-1.39-.06-.83,.56-1.55,1.39-1.61,1.01-.07,2.01-.14,3.02-.19,.86-.03,1.53,.59,1.58,1.42,.04,.83-.59,1.53-1.42,1.58-.99,.05-1.98,.12-2.96,.19-.04,0-.08,0-.11,0Zm12.99-.39h-.02c-.67,0-1.35,0-2.02-.01h-.95s0,0,0,0c-.82,0-1.5-.67-1.5-1.49,0-.83,.66-1.5,1.49-1.51h.96c.69,0,1.38,0,2.06,.01,.83,.01,1.49,.69,1.48,1.52-.01,.82-.68,1.48-1.5,1.48Z"/></svg>