<?xml version="1.0" encoding="UTF-8"?><svg xmlns="http://www.w3.org/2000/svg" xmlns:xlink="http://www.w3.org/1999/xlink" viewBox="0 0 582.66 383.21"><defs><style>.cls-1{fill:#bdf3ff;}.cls-1,.cls-2{opacity:.1;}.cls-2{fill:#ace2f9;}.cls-3{stroke-width:1.47px;}.cls-3,.cls-4{stroke-linejoin:round;}.cls-3,.cls-4,.cls-5,.cls-6,.cls-7{fill:none;}.cls-3,.cls-4,.cls-7{stroke:#fff;stroke-linecap:round;}.cls-8{fill:url(#linear-gradient);}.cls-9{fill:url(#Unbenannter_Verlauf_2-13);}.cls-10{fill:url(#Unbenannter_Verlauf_2-14);}.cls-11{fill:url(#Unbenannter_Verlauf_2-12);}.cls-12{fill:url(#Unbenannter_Verlauf_2-11);}.cls-13{fill:url(#Unbenannter_Verlauf_2-15);}.cls-14{fill:url(#Unbenannter_Verlauf_2-10);}.cls-15{fill:url(#Unbenannter_Verlauf_2-16);}.cls-15,.cls-16,.cls-17,.cls-18{opacity:.5;}.cls-19{fill:#efcdaf;}.cls-20{fill:#f0f9ff;}.cls-21{fill:#e6e7e8;}.cls-22{fill:#e8a77d;}.cls-23{fill:#fff;}.cls-24,.cls-18,.cls-25{fill:#f1f2f2;}.cls-26{fill:#edf7ff;}.cls-27{fill:#939598;}.cls-28{fill:#8b5e3c;}.cls-29{fill:#a97c50;}.cls-30{fill:#bcbec0;}.cls-31{fill:#a9e2a1;}.cls-32,.cls-33{fill:#a7a9ac;}.cls-34{fill:#d8d8d8;}.cls-35,.cls-36{fill:#d1d3d4;}.cls-37{fill:#c49a6c;}.cls-38{fill:#231f20;}.cls-39{fill:#414042;}.cls-40{fill:#6d6e71;}.cls-41{fill:#808285;}.cls-42{fill:#58595b;}.cls-43{fill:#754c29;}.cls-44{fill:#79c67f;}.cls-45{fill:url(#linear-gradient-30);opacity:.35;}.cls-45,.cls-36{mix-blend-mode:color-burn;}.cls-46{opacity:.15;}.cls-46,.cls-47{fill:url(#linear-gradient-15);}.cls-46,.cls-47,.cls-48{mix-blend-mode:screen;}.cls-47,.cls-49,.cls-50,.cls-51,.cls-25{opacity:.3;}.cls-4{stroke-width:1.58px;}.cls-5{stroke:#e6e7e8;stroke-width:.51px;}.cls-5,.cls-6,.cls-7,.cls-33{stroke-miterlimit:10;}.cls-52{fill:url(#linear-gradient-8);}.cls-53{fill:url(#linear-gradient-9);}.cls-54{fill:url(#linear-gradient-3);}.cls-55{fill:url(#linear-gradient-4);}.cls-56{fill:url(#linear-gradient-2);}.cls-57{fill:url(#linear-gradient-6);}.cls-58{fill:url(#linear-gradient-7);}.cls-59{fill:url(#linear-gradient-5);}.cls-49{fill:url(#linear-gradient-29);}.cls-60{fill:url(#linear-gradient-28);}.cls-60,.cls-61{opacity:.2;}.cls-6{stroke:#bcbec0;}.cls-48{opacity:.67;}.cls-62{fill:url(#Unbenannter_Verlauf_2-7);}.cls-63{fill:url(#Unbenannter_Verlauf_2-9);}.cls-64{fill:url(#Unbenannter_Verlauf_2-5);}.cls-65{fill:url(#Unbenannter_Verlauf_2-4);}.cls-16{fill:url(#linear-gradient-23);}.cls-7{stroke-width:1.06px;}.cls-17{fill:url(#Unbenannter_Verlauf_2-6);}.cls-66{fill:url(#Unbenannter_Verlauf_2);}.cls-67{fill:url(#linear-gradient-14);}.cls-68{fill:url(#linear-gradient-18);}.cls-69{fill:url(#linear-gradient-22);}.cls-70{fill:url(#linear-gradient-20);}.cls-71{fill:url(#linear-gradient-21);}.cls-72{fill:url(#linear-gradient-19);}.cls-73{fill:url(#linear-gradient-16);}.cls-74{fill:url(#linear-gradient-17);}.cls-75{fill:url(#linear-gradient-13);}.cls-76{fill:url(#linear-gradient-12);}.cls-77{fill:url(#linear-gradient-10);}.cls-78{fill:url(#linear-gradient-11);}.cls-79{fill:url(#linear-gradient-27);}.cls-80{fill:url(#linear-gradient-24);}.cls-81{fill:url(#linear-gradient-26);}.cls-82{fill:url(#linear-gradient-35);}.cls-83{fill:url(#linear-gradient-34);}.cls-84{fill:url(#linear-gradient-36);}.cls-85{fill:url(#linear-gradient-25);}.cls-86{fill:url(#linear-gradient-33);}.cls-87{fill:url(#linear-gradient-32);}.cls-88{fill:url(#linear-gradient-31);}.cls-89{isolation:isolate;}.cls-33{stroke:#a7a9ac;stroke-width:1.07px;}.cls-50{fill:url(#Unbenannter_Verlauf_2-8);}.cls-51{fill:url(#Unbenannter_Verlauf_2-2);}.cls-61{fill:url(#Unbenannter_Verlauf_2-3);}</style><linearGradient id="Unbenannter_Verlauf_2" x1="281.98" y1="172" x2="281.98" y2="370.01" gradientUnits="userSpaceOnUse"><stop offset="0" stop-color="#b9852b"/><stop offset=".04" stop-color="#c28d25"/><stop offset=".12" stop-color="#daa417"/><stop offset=".17" stop-color="#f1b90a"/><stop offset=".44" stop-color="#fcf18a"/><stop offset=".73" stop-color="#f1b90a"/><stop offset=".89" stop-color="#ecca64"/><stop offset="1" stop-color="#b9852b"/></linearGradient><linearGradient id="linear-gradient" x1="412.14" y1="61.9" x2="468.11" y2="117.87" gradientUnits="userSpaceOnUse"><stop offset="0" stop-color="#f9dd68"/><stop offset="1" stop-color="#f9a942"/></linearGradient><linearGradient id="linear-gradient-2" x1="137.1" y1="127.76" x2="165.64" y2="156.3" xlink:href="#linear-gradient"/><linearGradient id="linear-gradient-3" x1="136.86" y1="127.99" x2="165.41" y2="156.53" xlink:href="#linear-gradient"/><linearGradient id="linear-gradient-4" x1="-168.15" y1="219.03" x2="-157.94" y2="219.03" gradientTransform="translate(419.05) rotate(-180) scale(1 -1) skewX(17.58)" gradientUnits="userSpaceOnUse"><stop offset="0" stop-color="#fff"/><stop offset="1" stop-color="#e2f5ff"/></linearGradient><linearGradient id="linear-gradient-5" x1="-168.44" y1="220.86" x2="-158.23" y2="220.86" xlink:href="#linear-gradient-4"/><linearGradient id="linear-gradient-6" x1="-168.73" y1="222.7" x2="-158.52" y2="222.7" xlink:href="#linear-gradient-4"/><linearGradient id="linear-gradient-7" x1="-169.02" y1="224.54" x2="-163.91" y2="224.54" xlink:href="#linear-gradient-4"/><linearGradient id="linear-gradient-8" x1="-116.29" y1="250.57" x2="-106.09" y2="250.57" xlink:href="#linear-gradient-4"/><linearGradient id="linear-gradient-9" x1="-116.58" y1="252.41" x2="-106.38" y2="252.41" xlink:href="#linear-gradient-4"/><linearGradient id="linear-gradient-10" x1="-116.87" y1="254.24" x2="-106.67" y2="254.24" xlink:href="#linear-gradient-4"/><linearGradient id="linear-gradient-11" x1="-117.17" y1="256.08" x2="-112.06" y2="256.08" xlink:href="#linear-gradient-4"/><linearGradient id="linear-gradient-12" x1="-107.34" y1="208.93" x2="-97.14" y2="208.93" xlink:href="#linear-gradient-4"/><linearGradient id="linear-gradient-13" x1="-107.64" y1="210.77" x2="-97.43" y2="210.77" xlink:href="#linear-gradient-4"/><linearGradient id="linear-gradient-14" x1="-107.93" y1="212.61" x2="-102.82" y2="212.61" xlink:href="#linear-gradient-4"/><linearGradient id="linear-gradient-15" x1="283.32" y1="267.39" x2="283.32" y2="105.84" gradientUnits="userSpaceOnUse"><stop offset="0" stop-color="#8affff"/><stop offset="1" stop-color="#79d3fd" stop-opacity="0"/></linearGradient><linearGradient id="linear-gradient-16" x1="302.39" y1="182.79" x2="276.79" y2="230.53" xlink:href="#linear-gradient"/><linearGradient id="linear-gradient-17" x1="236.17" y1="186.67" x2="324.51" y2="186.67" xlink:href="#linear-gradient"/><linearGradient id="linear-gradient-18" x1="241.27" y1="186.67" x2="319.41" y2="186.67" xlink:href="#linear-gradient"/><linearGradient id="linear-gradient-19" x1="256.69" y1="182.07" x2="300.87" y2="205.27" xlink:href="#linear-gradient"/><linearGradient id="linear-gradient-20" x1="260.68" y1="174.47" x2="304.86" y2="197.67" xlink:href="#linear-gradient"/><linearGradient id="linear-gradient-21" x1="264.56" y1="167.08" x2="308.74" y2="190.28" xlink:href="#linear-gradient"/><linearGradient id="linear-gradient-22" x1="243.58" y1="130.81" x2="252.12" y2="130.81" xlink:href="#linear-gradient"/><linearGradient id="linear-gradient-23" x1="248.76" y1="244.99" x2="259.7" y2="244.99" xlink:href="#linear-gradient"/><linearGradient id="linear-gradient-24" x1="317.38" y1="231.7" x2="321.45" y2="231.7" xlink:href="#linear-gradient"/><linearGradient id="linear-gradient-25" x1="285.24" y1="259.27" x2="288.55" y2="259.27" xlink:href="#linear-gradient"/><linearGradient id="linear-gradient-26" x1="225.74" y1="173.79" x2="229.05" y2="173.79" xlink:href="#linear-gradient"/><linearGradient id="linear-gradient-27" x1="305.52" y1="132.46" x2="308.83" y2="132.46" xlink:href="#linear-gradient"/><linearGradient id="linear-gradient-28" x1="307.18" y1="247.95" x2="312.18" y2="247.95" xlink:href="#linear-gradient"/><linearGradient id="linear-gradient-29" x1="332.91" y1="165.92" x2="337.92" y2="165.92" xlink:href="#linear-gradient"/><linearGradient id="linear-gradient-30" x1="416.69" y1="290.22" x2="416.69" y2="321.02" gradientUnits="userSpaceOnUse"><stop offset="0" stop-color="#00006c"/><stop offset="1" stop-color="#3049b9"/></linearGradient><linearGradient id="Unbenannter_Verlauf_2-2" x1="341.34" y1="298.02" x2="379.47" y2="298.02" xlink:href="#Unbenannter_Verlauf_2"/><linearGradient id="Unbenannter_Verlauf_2-3" x1="89.8" y1="147.88" x2="115.44" y2="147.88" xlink:href="#Unbenannter_Verlauf_2"/><linearGradient id="linear-gradient-31" x1="178.22" y1="255.69" x2="189.59" y2="267.06" xlink:href="#linear-gradient"/><linearGradient id="linear-gradient-32" x1="222.59" y1="54.61" x2="224.16" y2="56.18" xlink:href="#linear-gradient"/><linearGradient id="linear-gradient-33" x1="227.65" y1="54.61" x2="229.23" y2="56.18" xlink:href="#linear-gradient"/><linearGradient id="linear-gradient-34" x1="232.72" y1="54.61" x2="234.29" y2="56.18" xlink:href="#linear-gradient"/><linearGradient id="linear-gradient-35" x1="170.83" y1="47.01" x2="231.28" y2="107.46" xlink:href="#linear-gradient"/><linearGradient id="Unbenannter_Verlauf_2-4" x1="39.57" y1="239.07" x2="57.95" y2="239.07" xlink:href="#Unbenannter_Verlauf_2"/><linearGradient id="Unbenannter_Verlauf_2-5" x1="549.78" y1="233.47" x2="563.61" y2="233.47" xlink:href="#Unbenannter_Verlauf_2"/><linearGradient id="Unbenannter_Verlauf_2-6" x1="84.84" y1="219.65" x2="89.93" y2="219.65" xlink:href="#Unbenannter_Verlauf_2"/><linearGradient id="Unbenannter_Verlauf_2-7" x1="81.88" y1="279.62" x2="84.99" y2="279.62" xlink:href="#Unbenannter_Verlauf_2"/><linearGradient id="Unbenannter_Verlauf_2-8" x1="174.02" y1="339.81" x2="177.13" y2="339.81" xlink:href="#Unbenannter_Verlauf_2"/><linearGradient id="Unbenannter_Verlauf_2-9" x1="477.41" y1="130.72" x2="482.49" y2="130.72" xlink:href="#Unbenannter_Verlauf_2"/><linearGradient id="Unbenannter_Verlauf_2-10" x1="448.32" y1="325.05" x2="453.4" y2="325.05" xlink:href="#Unbenannter_Verlauf_2"/><linearGradient id="Unbenannter_Verlauf_2-11" x1="286.97" y1="71.53" x2="294.31" y2="71.53" xlink:href="#Unbenannter_Verlauf_2"/><linearGradient id="Unbenannter_Verlauf_2-12" x1="456.7" y1="173.57" x2="458.32" y2="173.57" xlink:href="#Unbenannter_Verlauf_2"/><linearGradient id="Unbenannter_Verlauf_2-13" x1="453.84" y1="173.57" x2="461.18" y2="173.57" xlink:href="#Unbenannter_Verlauf_2"/><linearGradient id="Unbenannter_Verlauf_2-14" x1="179.55" y1="230.61" x2="186.89" y2="230.61" xlink:href="#Unbenannter_Verlauf_2"/><linearGradient id="Unbenannter_Verlauf_2-15" x1="490.44" y1="110.73" x2="497.78" y2="110.73" xlink:href="#Unbenannter_Verlauf_2"/><linearGradient id="Unbenannter_Verlauf_2-16" x1="375.8" y1="241.05" x2="383.14" y2="241.05" xlink:href="#Unbenannter_Verlauf_2"/><linearGradient id="linear-gradient-36" x1="520.85" y1="296.08" x2="555.54" y2="330.77" xlink:href="#linear-gradient"/></defs><g class="cls-89"><g id="OBJECTS"><g class="cls-48"><path class="cls-66" d="M29.41,382.71c-9.17-39.04,1.1-65.79,30.67-85.88,21.52-14.62,65.92-26.66,81.3-47.65,6.62-9.03,10.28-19.83,14.92-30.02,19.94-43.84,63.97-79.16,112.09-77.35,32.46,1.22,62.37,18.58,86.71,40.11,17.51,15.49,33.69,33.82,55.63,41.89,22.01,8.09,68.04,14.37,86.31,29.08,57.87,46.59,39.64,107.77,31.54,129.66"/></g><path class="cls-44" d="M363.53,367.16s21.03-30.83,31.65-15.17c10,14.74-27.16,22.38-27.16,22.38"/><path class="cls-44" d="M231.91,346.77s-27.26-25.48-10.17-33.59c16.09-7.64,17.98,30.25,17.98,30.25"/><path class="cls-31" d="M421.01,382.33H141.3c.17-.64,1.21-1.72,3.99-3.5,5.95-3.84,24.75-.39,24.75-.39,0,0-4.38-1.75-4.35-4.02,.02-2.26,1.73-4.25,3.79-5.19,2.07-.93,4.41-1,6.67-.87,4.6,.26,9.16,1.29,13.43,3.01-1.82-1.13-2.37-3.86-1.14-5.58,1.24-1.73,4.01-2.1,5.65-.75-2.9-3.91-9.67-23.6,4.05-31.24,17.2-9.57,32.57,.67,35.35,6.42,1.41-5.65,7.9-9.96,12.18-10.99,20.39-4.91,35.29,12.61,35.49,12.91,.2-.3,.4-.6,.62-.9,2.14-2.84,6.44-7.96,9.67-9.47,9.1-4.25,15.44-4.97,25.19-2.55,4.27,1.06,10.76,5.34,12.18,10.99,2.78-5.76,18.39-18.68,35.12-8.31,15.2,9.42,7.18,29.22,4.28,33.13,1.64-1.36,4.41-.99,5.65,.75,1.23,1.72,.68,4.46-1.14,5.58,4.27-1.72,8.83-2.75,13.43-3.01,2.26-.13,4.61-.06,6.67,.87,2.06,.94,3.77,2.93,3.79,5.19,.02,2.27-4.35,4.02-4.35,4.02,0,0,18.79-3.45,24.75,.39,2.78,1.78,3.81,2.86,3.99,3.5Z"/><rect class="cls-8" x="410.87" y="67.4" width="60.54" height="47" rx="4.33" ry="4.33"/><path class="cls-24" d="M433.65,81.18l15.19,8.77c.73,.42,.73,1.47,0,1.89l-15.19,8.77c-.73,.42-1.63-.1-1.63-.94v-17.54c0-.84,.91-1.36,1.63-.94Z"/><path class="cls-38" d="M470.08,121.15h-57.87c-.74,0-1.33-.6-1.33-1.33h0c0-.74,.6-1.33,1.33-1.33h57.87c.74,0,1.33,.6,1.33,1.33h0c0,.74-.6,1.33-1.33,1.33Z"/><path class="cls-35" d="M471.42,119.82c0,.74-.6,1.33-1.33,1.33h-38.92v-2.67h38.92c.74,0,1.33,.6,1.33,1.33Z"/><path class="cls-38" d="M434.73,119.82c0,1.97-1.6,3.57-3.57,3.57s-3.57-1.6-3.57-3.57,1.6-3.57,3.57-3.57,3.57,1.6,3.57,3.57Z"/><path class="cls-35" d="M433.18,119.82c0,1.12-.91,2.02-2.02,2.02s-2.02-.91-2.02-2.02,.91-2.02,2.02-2.02,2.02,.91,2.02,2.02Z"/><path class="cls-56" d="M152.06,162.43c-10.87,0-19.71-8.84-19.71-19.71s8.84-19.71,19.71-19.71,19.71,8.84,19.71,19.71-8.84,19.71-19.71,19.71Zm0-36.81c-9.43,0-17.1,7.67-17.1,17.1s7.67,17.1,17.1,17.1,17.1-7.67,17.1-17.1-7.67-17.1-17.1-17.1Z"/><path class="cls-54" d="M160.74,147.38c0-1.31-.33-2.36-.96-3.15-.66-.81-1.48-1.42-2.45-1.83-.94-.39-2.09-.75-3.42-1.07v-6.36c.98,.12,1.96,.37,2.91,.74,.9,.35,1.88-.06,2.24-.94,.18-.43,.17-.94,0-1.36-.17-.4-.48-.7-.87-.86-1.23-.49-2.67-.8-4.27-.95v-1.94c0-1.02-.83-1.85-1.85-1.85s-1.85,.83-1.85,1.85v2.02c-2.17,.3-3.86,1.02-5.02,2.16-1.21,1.2-1.8,2.59-1.8,4.27,0,1.32,.32,2.39,.95,3.17,.66,.81,1.49,1.43,2.47,1.85,.93,.4,2.09,.77,3.4,1.1v6.28c-1.11-.12-2.2-.38-3.24-.77-.37-.14-.74-.29-1.08-.45-.21-.1-.42-.15-.65-.15-.19,0-.38,.03-.56,.1-.44,.16-.81,.5-1,.93-.39,.86,0,1.88,.85,2.28,.48,.22,1.01,.43,1.57,.61,1.3,.43,2.68,.69,4.11,.79v1.94c0,1.02,.83,1.85,1.85,1.85s1.85-.83,1.85-1.85v-2.04c2.18-.31,3.87-1.03,5.04-2.16,1.21-1.18,1.8-2.55,1.8-4.2Zm-12.3-7.88c-.5-.43-.76-.98-.76-1.65s.23-1.26,.69-1.75c.41-.45,1.04-.78,1.84-.99v5.28c-.76-.24-1.35-.54-1.77-.89Zm7.29,9.96c-.42,.42-1.04,.73-1.83,.91v-5.2c.77,.27,1.35,.58,1.78,.95,.49,.43,.75,.98,.75,1.64s-.23,1.22-.7,1.69Z"/><rect class="cls-32" x="463.29" y="243.42" width="34.85" height="139.29" transform="translate(961.43 626.13) rotate(180)"/><rect class="cls-30" x="461.33" y="243.42" width="32.18" height="139.29" transform="translate(954.85 626.13) rotate(180)"/><path class="cls-30" d="M427.12,277.72l4.94-.59,13.19-83.17c.13-.79,.81-1.38,1.61-1.38h91.23l.9-2.85,3.62,2.3s.08,.05,.11,.07h.01s0,0,0,0c.44,.35,.7,.92,.6,1.53l-13.57,85.58c-.13,.79-.81,1.38-1.61,1.38h-96.08c-.42,0-.8-.17-1.09-.43h0s-3.85-2.46-3.85-2.46Z"/><path class="cls-21" d="M428.2,278.12h96.08c.8,0,1.49-.58,1.61-1.38l13.57-85.58c.16-.99-.61-1.89-1.61-1.89h-96.08c-.8,0-1.49,.58-1.61,1.38l-13.57,85.58c-.16,.99,.61,1.89,1.61,1.89Z"/><path class="cls-39" d="M432.69,274.06h88.19c.51,0,.94-.37,1.02-.87l12.47-78.65c.1-.63-.39-1.2-1.02-1.2h-88.19c-.51,0-.94,.37-1.02,.87l-12.47,78.65c-.1,.63,.39,1.2,1.02,1.2Z"/><path class="cls-27" d="M463.23,236.99h29.31c.64,0,1.19-.47,1.29-1.11l4.12-25.96c.13-.8-.49-1.52-1.29-1.52h-29.31c-.64,0-1.19,.47-1.29,1.11l-4.12,25.96c-.13,.8,.49,1.52,1.29,1.52Z"/><path class="cls-26" d="M468.81,233.47h-2.02c-.3,0-.5-.24-.45-.54l2.42-15.25c.05-.3,.33-.54,.62-.54h2.02c.3,0,.5,.24,.45,.54l-2.42,15.25c-.05,.3-.33,.54-.62,.54Z"/><path class="cls-26" d="M474.03,233.47h-2.02c-.3,0-.5-.24-.45-.54l1.92-12.09c.05-.3,.33-.54,.62-.54h2.02c.3,0,.5,.24,.45,.54l-1.92,12.09c-.05,.3-.32,.54-.62,.54Z"/><path class="cls-26" d="M479.26,233.47h-2.02c-.3,0-.5-.24-.45-.54l2.28-14.35c.05-.3,.33-.54,.62-.54h2.02c.3,0,.5,.24,.45,.54l-2.28,14.35c-.05,.3-.33,.54-.62,.54Z"/><path class="cls-26" d="M484.48,233.47h-2.02c-.3,0-.5-.24-.45-.54l3.41-21.44c.05-.3,.33-.54,.62-.54h2.02c.3,0,.5,.24,.45,.54l-3.41,21.44c-.05,.3-.33,.54-.62,.54Z"/><path class="cls-26" d="M489.71,233.47h-2.02c-.3,0-.5-.24-.45-.54l2.7-16.99c.05-.3,.33-.54,.62-.54h2.02c.3,0,.5,.24,.45,.54l-2.7,16.99c-.05,.3-.33,.54-.62,.54Z"/><path class="cls-18" d="M500.43,255.31h16.09c.35,0,.66-.26,.71-.61l2.26-14.25c.07-.44-.27-.83-.71-.83h-16.09c-.35,0-.66,.26-.71,.61l-2.26,14.25c-.07,.44,.27,.83,.71,.83Z"/><path class="cls-25" d="M467.55,266.17h35.72c.48,0,.89-.35,.97-.83l3.08-19.39c.09-.59-.36-1.13-.97-1.13h-35.72c-.48,0-.89,.35-.97,.83l-3.08,19.39c-.09,.59,.37,1.13,.97,1.13Z"/><path class="cls-21" d="M471.75,253.15l-1.3,8.19h31.42l1.61-10.13s-1.96-1.04-4.6,.41c-2.07,1.14-5.07,4.42-7.15,4.19s-3.36-5.53-6.18-5.49c-2.82,.04-5.12,5.84-7.38,5.9s-4.94-3.13-6.42-3.06Z"/><path class="cls-18" d="M504.95,215.47h17.36c.23,0,.43-.17,.47-.4l1.49-9.42c.05-.29-.18-.55-.47-.55h-17.36c-.23,0-.43,.17-.47,.4l-1.49,9.42c-.05,.29,.18,.55,.47,.55Z"/><path class="cls-55" d="M508.02,219.52h9.21c.27,0,.52-.22,.57-.49h0c.04-.27-.14-.49-.41-.49h-9.21c-.27,0-.52,.22-.57,.49h0c-.04,.27,.14,.49,.41,.49Z"/><path class="cls-59" d="M507.73,221.35h9.21c.27,0,.52-.22,.57-.49h0c.04-.27-.14-.49-.41-.49h-9.21c-.27,0-.52,.22-.57,.49h0c-.04,.27,.14,.49,.41,.49Z"/><path class="cls-57" d="M507.44,223.19h9.21c.27,0,.52-.22,.57-.49h0c.04-.27-.14-.49-.41-.49h-9.21c-.27,0-.52,.22-.57,.49h0c-.04,.27,.14,.49,.41,.49Z"/><path class="cls-58" d="M512.25,225.03h4.12c.27,0,.52-.22,.57-.49h0c.04-.27-.14-.49-.41-.49h-4.12c-.27,0-.52,.22-.57,.49h0c-.04,.27,.14,.49,.41,.49Z"/><path class="cls-52" d="M446.17,251.06h9.21c.27,0,.52-.22,.57-.49h0c.04-.27-.14-.49-.41-.49h-9.21c-.27,0-.52,.22-.57,.49h0c-.04,.27,.14,.49,.41,.49Z"/><path class="cls-53" d="M445.88,252.9h9.21c.27,0,.52-.22,.57-.49h0c.04-.27-.14-.49-.41-.49h-9.21c-.27,0-.52,.22-.57,.49h0c-.04,.27,.14,.49,.41,.49Z"/><path class="cls-77" d="M445.59,254.73h9.21c.27,0,.52-.22,.57-.49h0c.04-.27-.14-.49-.41-.49h-9.21c-.27,0-.52,.22-.57,.49h0c-.04,.27,.14,.49,.41,.49Z"/><path class="cls-78" d="M450.4,256.57h4.12c.27,0,.52-.22,.57-.49h0c.04-.27-.14-.49-.41-.49h-4.12c-.27,0-.52,.22-.57,.49h0c-.04,.27,.14,.49,.41,.49Z"/><path class="cls-76" d="M450.42,209.42h9.21c.27,0,.52-.22,.57-.49h0c.04-.27-.14-.49-.41-.49h-9.21c-.27,0-.52,.22-.57,.49h0c-.04,.27,.14,.49,.41,.49Z"/><path class="cls-75" d="M450.12,211.26h9.21c.27,0,.52-.22,.57-.49h0c.04-.27-.14-.49-.41-.49h-9.21c-.27,0-.52,.22-.57,.49h0c-.04,.27,.14,.49,.41,.49Z"/><path class="cls-67" d="M454.93,213.1h4.12c.27,0,.52-.22,.57-.49h0c.04-.27-.14-.49-.41-.49h-4.12c-.27,0-.52,.22-.57,.49h0c-.04,.27,.14,.49,.41,.49Z"/><polygon class="cls-47" points="319.28 267.39 247.37 267.39 193.3 102.45 373.34 102.45 319.28 267.39"/><polygon class="cls-46" points="329.69 267.39 236.95 267.39 159.93 102.45 406.71 102.45 329.69 267.39"/><rect class="cls-32" x="233.73" y="267.39" width="99.18" height="115.32"/><rect class="cls-35" x="253.73" y="267.39" width="59.18" height="115.32"/><rect class="cls-42" x="229.05" y="267.39" width="108.54" height="14.38" rx=".71" ry=".71"/><rect class="cls-36" x="233.73" y="281.78" width="99.18" height="5.31"/><line class="cls-33" x1="270.76" y1="281.78" x2="270.76" y2="382.76"/><line class="cls-33" x1="283.32" y1="281.78" x2="283.32" y2="382.76"/><line class="cls-33" x1="295.88" y1="281.78" x2="295.88" y2="382.76"/><path class="cls-73" d="M329.19,176.32c-.47-1.83-1.08-3.61-1.8-5.31-.57-1.35-1.22-2.65-1.94-3.91-.64-1.12-1.35-2.2-2.1-3.25-.71-.97-1.46-1.9-2.26-2.8-.31-.34-.62-.68-.94-1.01l-5.95-6.16c.32,.33,.63,.67,.94,1.01,.8,.89,1.55,1.83,2.26,2.8,.76,1.04,1.46,2.12,2.1,3.25,.72,1.26,1.37,2.56,1.94,3.91,.72,1.7,1.33,3.48,1.8,5.31,1.49,5.77,1.71,12.14,.41,18.77-.33,1.66-.74,3.3-1.23,4.9-.61,1.97-1.34,3.9-2.18,5.76-.66,1.47-1.39,2.9-2.19,4.3-.72,1.26-1.49,2.49-2.3,3.68-.77,1.13-1.59,2.23-2.44,3.29-.83,1.04-1.71,2.05-2.61,3.02-.91,.98-1.85,1.92-2.83,2.82-1.01,.93-2.05,1.83-3.12,2.68-1.15,.91-2.33,1.78-3.55,2.6-1.35,.91-2.75,1.76-4.17,2.54-1.75,.96-3.55,1.81-5.39,2.56-6.3,2.55-13.07,3.81-19.9,3.45-10.29-.54-19.02-4.66-25.26-11.12l5.95,6.16c6.24,6.45,14.98,10.58,25.26,11.12,6.83,.36,13.6-.9,19.9-3.45,1.84-.74,3.64-1.6,5.39-2.56,1.43-.78,2.82-1.63,4.17-2.54,1.21-.82,2.4-1.68,3.55-2.6,1.07-.85,2.11-1.75,3.12-2.68,.98-.91,1.92-1.85,2.83-2.82,.91-.97,1.78-1.98,2.61-3.02,.85-1.06,1.67-2.16,2.44-3.29,.82-1.19,1.59-2.42,2.3-3.68,.79-1.4,1.52-2.83,2.19-4.3,.84-1.87,1.57-3.79,2.18-5.76,.49-1.6,.91-3.24,1.23-4.9,1.3-6.63,1.08-13-.41-18.77Z"/><path class="cls-74" d="M288.95,142.78c23.92,1.25,39.46,21.92,34.7,46.16-4.75,24.23-27.99,42.87-51.91,41.61-23.93-1.25-39.46-21.92-34.71-46.15,4.75-24.24,28-42.87,51.92-41.62Z"/><path class="cls-68" d="M287.96,147.84c21.16,1.11,34.9,19.39,30.7,40.84-4.2,21.44-24.77,37.92-45.92,36.81-21.17-1.11-34.91-19.39-30.71-40.83,4.21-21.45,24.77-37.93,45.93-36.82Z"/><polygon class="cls-23" points="255.96 194.21 257.82 196.14 252.5 195.86 250.64 193.93 255.96 194.21"/><polygon class="cls-23" points="257.99 183.85 259.85 185.77 257.82 196.14 255.96 194.21 257.99 183.85"/><polygon class="cls-23" points="258.92 174.72 260.78 176.64 267.22 187.45 265.36 185.53 258.92 174.72"/><polygon class="cls-23" points="268.9 194.89 270.76 196.81 266.29 196.58 264.43 194.66 268.9 194.89"/><polygon class="cls-23" points="272.72 175.44 274.58 177.36 270.76 196.81 268.9 194.89 272.72 175.44"/><polygon class="cls-72" points="272.72 175.44 268.9 194.89 264.43 194.66 257.99 183.85 255.96 194.21 250.64 193.93 254.46 174.48 258.92 174.72 265.36 185.53 267.39 175.16 272.72 175.44"/><polygon class="cls-23" points="291.61 176.43 290.78 180.68 281.15 180.17 280.31 184.46 282.17 186.38 283.01 182.1 292.64 182.6 293.47 178.35 291.61 176.43"/><polygon class="cls-23" points="287.95 189.15 279.48 188.71 278.17 195.38 272.74 195.09 274.6 197.02 280.03 197.3 281.34 190.63 289.81 191.07 290.64 186.83 288.78 184.9 287.95 189.15"/><polygon class="cls-70" points="291.61 176.43 290.78 180.68 281.15 180.17 280.31 184.46 288.78 184.9 287.95 189.15 279.48 188.71 278.17 195.38 272.74 195.09 276.56 175.64 291.61 176.43"/><polygon class="cls-23" points="297.53 181.15 291.63 180.84 293.49 182.76 299.39 183.07 297.53 181.15"/><polygon class="cls-23" points="309.68 177.38 308.82 181.74 302.95 181.43 300 196.52 294.57 196.24 296.43 198.16 301.86 198.44 304.81 183.36 310.68 183.67 311.54 179.3 309.68 177.38"/><polygon class="cls-71" points="309.68 177.38 308.82 181.74 302.95 181.43 300 196.52 294.57 196.24 297.53 181.15 291.63 180.84 292.49 176.48 309.68 177.38"/><circle class="cls-69" cx="247.85" cy="130.81" r="4.27"/><path class="cls-16" d="M259.7,244.99c0,3.02-2.45,5.47-5.47,5.47s-5.47-2.45-5.47-5.47,2.45-5.47,5.47-5.47,5.47,2.45,5.47,5.47Z"/><path class="cls-80" d="M321.45,231.7c0,1.12-.91,2.04-2.04,2.04s-2.04-.91-2.04-2.04,.91-2.04,2.04-2.04,2.04,.91,2.04,2.04Z"/><path class="cls-85" d="M288.55,259.27c0,.91-.74,1.65-1.65,1.65s-1.65-.74-1.65-1.65,.74-1.65,1.65-1.65,1.65,.74,1.65,1.65Z"/><path class="cls-81" d="M229.05,173.79c0,.91-.74,1.65-1.65,1.65s-1.65-.74-1.65-1.65,.74-1.65,1.65-1.65,1.65,.74,1.65,1.65Z"/><path class="cls-79" d="M308.83,132.46c0,.91-.74,1.65-1.65,1.65s-1.65-.74-1.65-1.65,.74-1.65,1.65-1.65,1.65,.74,1.65,1.65Z"/><circle class="cls-60" cx="309.68" cy="247.95" r="2.5"/><path class="cls-49" d="M337.92,165.92c0,1.38-1.12,2.5-2.5,2.5s-2.5-1.12-2.5-2.5,1.12-2.5,2.5-2.5,2.5,1.12,2.5,2.5Z"/><path class="cls-19" d="M452.7,209.79c-.11-.1-.27-.1-.42-.08,0-.06-.01-.12-.06-.16-.16-.16-.69-.03-1.26,.12,.04-.11,.04-.21-.03-.27-.25-.22-.75,0-.75,0l-3.28,1.45-.12,.15c-.14,.09-.27,.17-.37,.27-.44,.39-.9,.91-1.29,1.4-.86,1.06-1.98,1.88-3.24,2.39l-13.15,5.32,10.53,.71s4.43-2.83,5.73-3.1c1.3-.27,3-.18,3.68-.9,.68-.72,2.51-2.47,2.44-3.21-.05-.55-.53-.42-.69-.35-.53,.23-1.52,1.2-1.84,1.4-.28,.17-1.32,.37-1.67-.09l1.79-1.86s1.29-1.06,2.53-1.69,1.72-1.25,1.47-1.47Z"/><path class="cls-19" d="M427.14,367.01l.34,7.59s4.31,1.86,7.73,0l.92-9.18"/><path class="cls-38" d="M427.48,374.6s-1.23,1.23-1.5,3.08c-.27,1.85,.09,4.24,.09,4.65,0,.2,4.99,.1,10.07,.13,5.3,.03,10.71,.2,11.13,0,.82-.38-12.05-7.87-12.05-7.87,0,0-3.58,.89-7.73,0Z"/><path class="cls-19" d="M387.89,363.89l-2.19,7.27s3.07,3.13,6.92,2.51l3.71-8.92"/><path class="cls-38" d="M383.26,373.58c.87-1.65,2.44-2.41,2.44-2.41,.99,.88,7.11,2.59,7.11,2.59,0,0-.01,.26,1.13,1.42,.88,.89,1.91,1.97,3.02,2.94,.58,.17,6.66,3.99,5.84,4.36-.82,.37-6.29,.26-8.24,.18-.46-.02-6.8-2.58-8.92-3.36-2.12-.78-4.05-1.74-3.91-2.13,.14-.39,.67-1.94,1.54-3.59Z"/><path class="cls-38" d="M425.39,263.82s-3.2,28.81-4.88,43.4c-.55,4.76-.94,7.99-1,8.24-.99,3.79-2.5,8.43-4.24,13.4-6.55,18.68-16.38,41.5-16.38,41.5,0,0-7.65-1.25-12.09-4.38l11.19-51.94s-.61-41.75-.92-48.68l28.31-1.53Z"/><path class="cls-45" d="M420.51,307.22c-.55,4.76-.94,7.99-1,8.24-.99,3.79-2.5,8.43-4.24,13.4-.33-5.26-2.4-39.99-2.4-39.99l7.64,18.36Z"/><path class="cls-19" d="M441.43,180.88c-.8,4.36-3.09,13.47-5.45,16.86-.33,.47-.91,.7-1.47,.57-2.58-.59-11.15-3.27-12.69-13.32-1.82-11.87,6.84-14.18,10.89-13.19,4.05,.99,10.08,1.76,8.73,9.08Z"/><path class="cls-38" d="M437.45,261.25l1.72,49.94-2.28,60.63s-7.72,1.33-13.32,.43c0,0-5.1-46.81-5.38-53.46-.36-8.53-10.46-52.34-10.23-57.92"/><path class="cls-19" d="M432.59,195.28s-1.08,3.88-1.75,9c0,0-7.37-.25-11.63-2.57,0,0,3.21-7.85,3.67-15.7"/><path class="cls-43" d="M446.29,175.82c-.3-.73-.89-1.36-1.63-1.63-.56-.2-1.18-.19-1.71-.45-1.4-.69-1.45-2.74-2.63-3.76-.39-.34-.89-.54-1.39-.7-1.26-.39-2.61-.51-3.92-.35-.6,.07-1.2,.2-1.79,.09-.33-.06-.64-.2-.95-.32-1.25-.47-2.65-.63-3.93-.22-.51,.17-.99,.44-1.41,.8-4.16,1.46-2.89,4.25-2.89,4.25-2.89,.65-4.73,2.17-4.83,7.47-.09,5.3,.74,11.99,1.44,12.94,.69,.93,6.7,2.6,9.59,1.21,.95-.46,3.79-8.89,4.11-9.81,.08-.22,.14-.45,.31-.6,.27-.24,.67-.18,1.03-.17,.87,.04,1.7-.24,2.45-.68,.94,.08,1.9-.03,2.79-.36,.65-.24,1.27-.6,1.73-1.12,.24-.28,.44-.6,.56-.95,1.52-.49,2.81-1.74,3.19-3.31,.19-.77,.17-1.6-.12-2.33Z"/><path class="cls-34" d="M396.39,267.95c1.38,.77,30.74,2.47,41.37-.5,0,0-.08-6.73,0-10.05,.04-1.43,1.84-35.51,1.31-44.51,0,0-2.71-7.61-8.35-9.24-6.63-1.9-13.56-2.84-13.56-2.84-2.93,.53-8.71,6.3-10.71,11.6-6.1,16.19-11.19,54.9-10.06,55.53Z"/><path class="cls-19" d="M477.43,218.11c-.13,.02-.54,.11-1.08,.24,.3-.39,.21-.81-.05-.73-.37,.12-2.33,.68-2.83,.93-.5,.25-2.16,1.33-2.16,1.33h0c-.22,.09-.39,.18-.5,.25-.89,.62-1.73,2.53-2.84,3.47-1.11,.93-2.75,1.83-2.75,1.83l-18.32,4.97-4.13-8.53-12.91,2.84s7.4,13.8,11.05,16.49c1.32,.98,21.67-9.81,26.42-12.35h0c.82-.44,3.98-1.09,4.83-2.29,.85-1.2,1.07-2.03,1.07-2.03l1.5-1.82s1.69-1.14,1.82-1.65c.1-.39-.21-.5-.21-.5l.57-.42c.67-.62,.25-1,.25-1,.65-.33,.83-1.12,.28-1.05Z"/><path class="cls-34" d="M425.26,212.61c-.34,3.8,5.25,17.39,5.25,17.39,0,0,7.87-1.47,13.47-6.6,0,0-4.83-12.42-7.15-14.78-2.82-2.87-11.04-1.96-11.57,4Z"/><path class="cls-27" d="M398.69,158.99h-22.43c-1.35,0-2.44,1.09-2.44,2.44v15.77c0,1.35,1.09,2.44,2.44,2.44h14.87l3.28,3.6c.38,.42,1.07,.15,1.07-.42v-3.18h3.21c1.35,0,2.44-1.09,2.44-2.44v-15.77c0-1.35-1.09-2.44-2.44-2.44Z"/><path class="cls-20" d="M393.93,169.31c0,.86,.69,1.55,1.55,1.55s1.55-.69,1.55-1.55-.69-1.55-1.55-1.55-1.55,.69-1.55,1.55Z"/><path class="cls-20" d="M385.92,169.31c0,.86,.69,1.55,1.55,1.55s1.55-.69,1.55-1.55-.69-1.55-1.55-1.55-1.55,.69-1.55,1.55Z"/><path class="cls-20" d="M377.92,169.31c0,.86,.69,1.55,1.55,1.55s1.55-.69,1.55-1.55-.69-1.55-1.55-1.55-1.55,.69-1.55,1.55Z"/><path class="cls-19" d="M147.8,373.98l-6.17,.77-2.58-14.28,8.18-.42s.4,13.38,.56,13.94Z"/><path class="cls-19" d="M102.38,362.54s-3.86,10.64-3.91,11.24l-6.95-2.17,2.66-11,8.2,1.93Z"/><path class="cls-42" d="M147.27,315.51c-1.43-12.12-4.27-45.48-5.46-56.77l-21.36-4.95c-10.35,21.97,.41,27.42,2.9,32.27,.57,1.11,1.55,11.86,5.26,28.33,2.32,24.08,6.12,53.21,6.12,53.21,0,0,10.43,.39,13.96-1.48l-1.41-50.61Z"/><path class="cls-42" d="M107.53,258.06s-5.2,9.06-4.47,17.09c.65,6.9,2.01,27.24,2.97,38.32-5.32,16.83-13.14,49.81-13.14,49.81,0,0,2.53,1.45,8.65,3.19,1.19,.34,5.33,.93,6.07,.7,0,0,13.94-42.59,16.28-51.3,5.54-20.6,9.72-58.11,9.72-58.11l-26.08,.3Z"/><path class="cls-40" d="M162.41,376.02s1.39,.54,.68,2c-1.02,2.09-9.1,4.26-13.01,4.68h-9.5l14.29-5.22s3.16-1.42,4.51-1.6c1.36-.18,3.03,.13,3.03,.13Z"/><path class="cls-41" d="M141.53,374.18s4.1,.2,6.24-.56c0,0,5.27,1.8,8.2,1.8s5.68-.02,6.43,.6c-1.99-.32-4,.27-6.37,1.67-8.89,5.25-15.47,5.02-15.47,5.02,0,0-.87-5.82,.96-8.52Z"/><path class="cls-27" d="M108.55,382.71c.46-3.54-3.92-5.18-6.63-5.67-1.78-.93-3.24-4-3.24-4-3.82,.02-7-2.12-7-2.12,0,0-1.1,.84-2.08,2.87-.98,2.03-1.25,4.43-1.25,4.43,0,0,2.98,1.95,4.89,3.06,1.91,1.11,5.87,1.43,5.87,1.43h9.43Z"/><path class="cls-37" d="M136.75,177.18s2.78,4.56-.48,9.27c0,0-1.57,2.48-2.6,6.83-1.03,4.35,.33,12.78,.33,12.78,0,0-5.55,.76-7.99-.38-2.45-1.14-.49-15.06-.49-15.06,0,0,1.69-7.77,1.96-8.54,.27-.76,5.16-6.58,5.16-6.58l4.11,1.69Z"/><path class="cls-19" d="M128.16,202.12c-.06-.47,.07-8.39,.07-8.39l-.71-1.19-3.23-5.45s-5.19-3.2-5.71,0c-.37,2.32-.11,14.77-.11,14.77l-5.69,1.99c2.01,5.22,9.1,5.72,9.1,5.72,10.07,.94,14.34-5.49,14.34-5.49,0,0-7.95-1.52-8.06-1.96Z"/><path class="cls-22" d="M121.3,191.66s1.67,5.25,6.87,6.8v-1.91l-6.87-4.89Z"/><path class="cls-19" d="M173.66,211.53c-.08-.5-.22-.94-.46-1.03-.14-.05-.31-.08-.48-.09,.42-.53,.89-1.11,1.06-1.32,.33-.4,1.71-1.87,1.78-2.48,.08-.61-.61-.49-.79-.38-.56,.35-1.46,1.26-2.19,2.08-.46,.51-1.34,1.47-1.95,2.15,.25-.6,.93-1.57,1.01-2.04,.08-.51-.31-.65-.31-.65-.91,.59-2.57,2.61-2.91,3.48-.34,.87-.49,2.64-.49,2.64-.3,1.04-1.13,1.87-1.54,2.22l-8.46,6.93,4.17,4.06,7.51-8.12c1.1-1.05,1.38-.89,1.99-1.32,.89-.63,1.03-.93,1.17-1.13,.19-.28,.33-.59,.44-.91,.1,.28,.34,.37,.5,.15,.23-.31,.77-1.79,.79-2.17,.01-.38,.11-1.67-.14-1.93-.15-.16-.47-.16-.7-.13Z"/><path class="cls-19" d="M136.63,175.74s.04,20.51-5.62,21.28c-2.59,.35-7.98-2.56-10.75-6.74,0,0-4.14-5.88-3.53-12.28,.61-6.4,17.3-11.13,19.9-2.26Z"/><path class="cls-37" d="M136.78,185.64s1.21-4.07-.24-6.3c0,0-1.01-1.21-3.64-.37-1.92,.61-5.7,2.07-9.33-.7,0,0,.41,4.69-2.97,6.88,0,0-1.11,2.46-1.19,4.7-.08,2.06-.42,7.24-.94,12l-6.91,2.37s.26-2.3,.46-10.37c.19-7.73-2.28-16.98,4.63-19.72,0,0,2.13-7.24,11.89-5.7,9.76,1.54,14.06,9.41,8.24,17.22Z"/><path class="cls-19" d="M122.51,184.39s-1.16-3.26-3.29-1.63c-1.56,1.19-1.21,6.83,1.6,7.07"/><path class="cls-21" d="M160.61,220.78s-5.52,4.18-10.12,7.4c-1.81-3.83-2.6-5.38-6.79-15.08-3.58-8.3-6.33-8.8-6.33-8.8l-3.2,20.2s9.13,15.71,13.86,16.54c2.68,.47,11.87-8.17,17.14-13.86,0,0-1.43-3.59-3.73-5.94-.17-.17-.83-.45-.83-.45Z"/><path class="cls-21" d="M106.27,242.54c.32,4.33-2.77,23.73-3.09,26.12-.15,1.09,.34,1.4,.34,1.4,0,0,23.17,6.83,39.13,.03,0,0,.62-.23,.45-1.69-.29-2.66-2.61-34.05-2.61-34.05,0,0,2.48-5.17,3.13-8.42,.65-3.23-3.02-8.84-3.45-11.32-.44-2.48-2.79-10.32-2.79-10.32,0,0-1.75-.5-6.99-1.69,0,0-3.44,9-14.61,0-1.12,.21-5.82,1.1-7.4,1.44-.16,.05-.29,.08-.39,.1-1.02,.26-2.98,1.48-4.28,3.33-1.12,3.75-1.85,10.41-.1,17.83,1.31,5.6,2.27,11.79,2.66,17.24Z"/><rect class="cls-29" x="110.07" y="225.72" width="25.55" height="36.4" rx="1.09" ry="1.09" transform="translate(150.6 515.61) rotate(-159.1)"/><rect class="cls-28" x="109.16" y="225.72" width="25.55" height="36.4" rx="1.54" ry="1.54" transform="translate(203.13 504.25) rotate(-170.76)"/><path class="cls-19" d="M136.25,244.89c.44,0,.91-.29,.7-.56-.21-.26-3.02-1.5-3.69-1.29-.67,.21-1.71,.82-2.42,1-.7,.18-2.19,0-2.19,0l-9.37-2.03-2.99,5.42,13.27,.79s1.34,.56,2.25,.96c.04,.02,.08,.02,.11,.03,.5,.19,1.31,.47,1.84,.48,.81,.02,1.16-.49,1.17-.83,0,0,0,0,0,0,.44-.1,.62-.37,.63-.63,0-.15-.03-.28-.08-.38,.4-.11,.56-.37,.57-.62,0-.16-.04-.31-.09-.41,.43-.11,.61-.37,.62-.63,.01-.34-.19-.59-.19-.59-.2-.33-2-.83-2.5-.97,0,0,.01,0,.01,0,.72,.16,1.89,.27,2.33,.27Z"/><path class="cls-21" d="M119.84,242.03l-11.92-2.79c1.56-6.07,3.6-15.28,4.88-20.99,1.57-7.07-.34-13.4-4.41-14.19-.16,.05-.29,.08-.39,.1-.41,.11-3.06,.93-4.39,3.1-1.94,3.18-2.66,8.07-2.66,8.07,0,0-5.76,29.67-1.69,31.61,3.52,1.68,17.99,3.63,17.99,3.63,0,0,1.43-1.8,2.57-6.38,.36-1.46,.02-2.16,.02-2.16Z"/><rect class="cls-32" x="8.77" y="176.31" width="59.33" height="39.93" rx="5.16" ry="5.16"/><rect class="cls-27" x="14.04" y="182.98" width="26.59" height="26.59" rx="2.06" ry="2.06"/><rect class="cls-26" x="15.88" y="191.59" width="2.96" height="15.58" rx=".51" ry=".51"/><rect class="cls-26" x="20.87" y="194.61" width="2.96" height="12.56" rx=".51" ry=".51"/><rect class="cls-26" x="25.86" y="192.45" width="2.96" height="14.72" rx=".51" ry=".51"/><rect class="cls-26" x="30.85" y="185.68" width="2.96" height="21.49" rx=".51" ry=".51"/><rect class="cls-26" x="35.83" y="189.93" width="2.96" height="17.24" rx=".51" ry=".51"/><line class="cls-7" x1="47.61" y1="185.82" x2="61.66" y2="185.82"/><line class="cls-7" x1="47.61" y1="188.9" x2="59.94" y2="188.9"/><line class="cls-7" x1="47.61" y1="191.98" x2="59.94" y2="191.98"/><line class="cls-7" x1="47.61" y1="195.06" x2="61.66" y2="195.06"/><line class="cls-7" x1="47.61" y1="198.14" x2="57.22" y2="198.14"/><line class="cls-7" x1="47.61" y1="201.23" x2="61.66" y2="201.23"/><line class="cls-7" x1="47.61" y1="204.31" x2="61.66" y2="204.31"/><line class="cls-7" x1="47.61" y1="207.39" x2="57.46" y2="207.39"/><path class="cls-51" d="M376.81,294.84c-.03-.15-.07-.32-.11-.47-.13-.64-.31-1.25-.52-1.86-.47-1.38-1.12-2.66-1.93-3.85l1.88-1.87-4.5-4.5-.09,.09-1.78,1.79c-1.84-1.24-3.93-2.12-6.18-2.56v-2.65h-6.36v2.65c-2.26,.44-4.35,1.32-6.18,2.56l-1.87-1.88-4.5,4.5,1.88,1.87c-1.24,1.84-2.12,3.93-2.56,6.18h-2.65v6.36h2.66c.43,2.26,1.31,4.35,2.55,6.18l-1.88,1.87,4.5,4.5,1.87-1.88c1.84,1.24,3.93,2.12,6.18,2.55v2.66h6.36v-2.66c2.26-.43,4.35-1.31,6.18-2.55l1.78,1.79,.09,.09,2.71-2.71,1.79-1.79-1.79-1.78-.09-.09s.05-.09,.09-.13c1.2-1.8,2.05-3.85,2.46-6.05h2.66v-6.36h-2.66Zm-16.4,13.79c-5.86,0-10.62-4.75-10.62-10.62s4.75-10.62,10.62-10.62,10.62,4.75,10.62,10.62-4.75,10.62-10.62,10.62Z"/><path class="cls-2" d="M520.96,160.31c-.02-.09-.04-.18-.06-.26-.07-.36-.17-.7-.29-1.04-.26-.77-.62-1.48-1.07-2.14l1.05-1.04-2.51-2.51-.05,.05-.99,1c-1.02-.69-2.19-1.18-3.44-1.43v-1.48h-3.54v1.48c-1.26,.25-2.42,.74-3.44,1.43l-1.04-1.05-2.51,2.51,1.05,1.04c-.69,1.02-1.18,2.19-1.43,3.44h-1.48v3.54h1.48c.24,1.26,.73,2.42,1.42,3.44l-1.05,1.04,2.51,2.51,1.04-1.05c1.02,.69,2.19,1.18,3.44,1.42v1.48h3.54v-1.48c1.26-.24,2.42-.73,3.44-1.42l.99,1,.05,.05,1.51-1.51,1-1-1-.99-.05-.05s.03-.05,.05-.07c.67-1,1.14-2.14,1.37-3.37h1.48v-3.54h-1.48Zm-9.13,7.68c-3.26,0-5.91-2.65-5.91-5.91s2.65-5.91,5.91-5.91,5.91,2.65,5.91,5.91-2.65,5.91-5.91,5.91Z"/><path class="cls-61" d="M113.65,145.74c-.02-.1-.04-.21-.07-.32-.09-.43-.21-.84-.35-1.25-.32-.92-.75-1.79-1.29-2.59l1.26-1.26-3.02-3.02-.06,.06-1.2,1.21c-1.24-.84-2.64-1.43-4.16-1.72v-1.78h-4.27v1.78c-1.52,.3-2.92,.89-4.16,1.72l-1.26-1.26-3.02,3.02,1.26,1.26c-.84,1.23-1.43,2.64-1.72,4.16h-1.78v4.27h1.79c.29,1.52,.88,2.92,1.72,4.16l-1.26,1.26,3.02,3.02,1.26-1.26c1.24,.84,2.64,1.43,4.16,1.72v1.79h4.27v-1.79c1.52-.29,2.92-.88,4.16-1.72l1.2,1.21,.06,.06,1.82-1.82,1.21-1.21-1.21-1.2-.06-.06s.04-.06,.06-.09c.81-1.21,1.38-2.59,1.66-4.07h1.79v-4.27h-1.79Zm-11.03,9.27c-3.94,0-7.14-3.19-7.14-7.14s3.19-7.14,7.14-7.14,7.14,3.19,7.14,7.14-3.19,7.14-7.14,7.14Z"/><rect class="cls-32" x="165.97" y="249.56" width="48.36" height="45.14" rx="5.35" ry="5.35"/><rect class="cls-26" x="169.35" y="252.71" width="41.61" height="38.83" rx="3.51" ry="3.51"/><path class="cls-30" d="M198.94,291.55h-26.08c-1.48,0-2.75-.93-3.25-2.24l11.41-17c1.19-1.76,3.8-1.76,4.98,0l3.64,5.41,9.3,13.84Z"/><path class="cls-30" d="M210.96,272.53v15.51c0,1.93-1.58,3.51-3.51,3.51h-27.11l9.29-13.84,10.18-15.14c1.07-1.59,3.39-1.59,4.46,0l6.69,9.95Z"/><path class="cls-88" d="M187.66,260.69c0,2.45-1.99,4.44-4.44,4.44s-4.45-1.99-4.45-4.44,1.99-4.44,4.45-4.44,4.44,1.99,4.44,4.44Z"/><path class="cls-32" d="M210.24,74.51c0,5.77-4.11,10.45-9.18,10.45s-9.18-4.68-9.18-10.45,4.11-10.45,9.18-10.45,9.18,4.68,9.18,10.45Z"/><path class="cls-32" d="M203.94,87.35h0c-1.91-.23-3.85-.23-5.77,0h0c-8.14,.97-14.88,6.79-17.04,14.71h39.84c-2.15-7.91-8.89-13.73-17.04-14.71Z"/><path class="cls-87" d="M224.48,55.4c0,.61-.5,1.11-1.11,1.11s-1.11-.5-1.11-1.11,.5-1.11,1.11-1.11,1.11,.5,1.11,1.11Z"/><path class="cls-86" d="M229.55,55.4c0,.61-.5,1.11-1.11,1.11s-1.11-.5-1.11-1.11,.5-1.11,1.11-1.11,1.11,.5,1.11,1.11Z"/><path class="cls-83" d="M234.62,55.4c0,.61-.5,1.11-1.11,1.11s-1.11-.5-1.11-1.11,.5-1.11,1.11-1.11,1.11,.5,1.11,1.11Z"/><path class="cls-82" d="M235.27,52.03h-68.42c-1.37,0-2.49,1.12-2.49,2.49v45.44c0,1.37,1.12,2.49,2.49,2.49h68.42c1.37,0,2.49-1.12,2.49-2.49V54.52c0-1.37-1.12-2.49-2.49-2.49Zm-68.42,.79h68.42c.94,0,1.7,.76,1.7,1.7v3.2h-71.83v-3.2c0-.94,.76-1.7,1.7-1.7Zm68.42,48.84h-68.42c-.94,0-1.7-.76-1.7-1.7V58.5h71.83v41.45c0,.94-.76,1.7-1.7,1.7Z"/><path class="cls-65" d="M57.95,239.03c.02,5.07-4.07,9.21-9.15,9.23-5.07,.02-9.21-4.07-9.23-9.15-.02-5.07,4.07-9.21,9.14-9.23,5.07-.02,9.21,4.07,9.23,9.15Z"/><polyline class="cls-4" points="44.72 239.52 48.35 243.01 53.15 236.47"/><path class="cls-64" d="M563.61,233.55c-.05,3.82-3.18,6.87-7,6.82-3.82-.05-6.87-3.18-6.82-7,.05-3.82,3.18-6.87,7-6.82,3.82,.05,6.87,3.18,6.82,7Z"/><polyline class="cls-3" points="553.65 233.75 556.34 236.43 560.03 231.57"/><path class="cls-17" d="M89.93,219.65c0,1.4-1.14,2.54-2.54,2.54s-2.54-1.14-2.54-2.54,1.14-2.54,2.54-2.54,2.54,1.14,2.54,2.54Z"/><path class="cls-62" d="M84.99,279.62c0,.86-.7,1.55-1.55,1.55s-1.55-.7-1.55-1.55,.7-1.55,1.55-1.55,1.55,.7,1.55,1.55Z"/><path class="cls-50" d="M177.13,339.81c0,.86-.7,1.55-1.55,1.55s-1.55-.7-1.55-1.55,.7-1.55,1.55-1.55,1.55,.7,1.55,1.55Z"/><path class="cls-1" d="M51.99,319.01c0,1.79-1.45,3.24-3.23,3.24s-3.24-1.45-3.24-3.24,1.45-3.24,3.24-3.24,3.23,1.45,3.23,3.24Z"/><path class="cls-1" d="M582.66,349c0,1.79-1.45,3.24-3.23,3.24s-3.24-1.45-3.24-3.24,1.45-3.24,3.24-3.24,3.23,1.45,3.23,3.24Z"/><path class="cls-1" d="M316.35,3.24c0,1.79-1.45,3.24-3.23,3.24s-3.24-1.45-3.24-3.24,1.45-3.24,3.24-3.24,3.23,1.45,3.23,3.24Z"/><path class="cls-1" d="M126.81,101.35c0,2.38-1.93,4.3-4.3,4.3s-4.3-1.93-4.3-4.3,1.93-4.3,4.3-4.3,4.3,1.93,4.3,4.3Z"/><path class="cls-1" d="M510.22,71.54c0,2.38-1.93,4.3-4.3,4.3s-4.3-1.93-4.3-4.3,1.93-4.3,4.3-4.3,4.3,1.93,4.3,4.3Z"/><path class="cls-63" d="M482.49,130.72c0,1.4-1.14,2.54-2.54,2.54s-2.54-1.14-2.54-2.54,1.14-2.54,2.54-2.54,2.54,1.14,2.54,2.54Z"/><path class="cls-14" d="M453.4,325.05c0,1.4-1.14,2.54-2.54,2.54s-2.54-1.14-2.54-2.54,1.14-2.54,2.54-2.54,2.54,1.14,2.54,2.54Z"/><path class="cls-12" d="M293.5,70.72h-2.05v-2.05c0-.45-.36-.81-.81-.81s-.81,.36-.81,.81v2.05h-2.05c-.45,0-.81,.36-.81,.81s.36,.81,.81,.81h2.05v2.05c0,.45,.36,.81,.81,.81s.81-.36,.81-.81v-2.05h2.05c.45,0,.81-.36,.81-.81s-.36-.81-.81-.81Z"/><path class="cls-11" d="M457.51,177.24c-.45,0-.81-.36-.81-.81v-5.72c0-.45,.36-.81,.81-.81s.81,.36,.81,.81v5.72c0,.45-.36,.81-.81,.81Z"/><path class="cls-9" d="M460.37,174.38h-5.72c-.45,0-.81-.36-.81-.81s.36-.81,.81-.81h5.72c.45,0,.81,.36,.81,.81s-.36,.81-.81,.81Z"/><path class="cls-10" d="M186.08,229.8h-2.05v-2.05c0-.45-.36-.81-.81-.81s-.81,.36-.81,.81v2.05h-2.05c-.45,0-.81,.36-.81,.81s.36,.81,.81,.81h2.05v2.05c0,.45,.36,.81,.81,.81s.81-.36,.81-.81v-2.05h2.05c.45,0,.81-.36,.81-.81s-.36-.81-.81-.81Z"/><path class="cls-13" d="M496.97,109.91h-2.05v-2.05c0-.45-.36-.81-.81-.81s-.81,.36-.81,.81v2.05h-2.05c-.45,0-.81,.36-.81,.81s.36,.81,.81,.81h2.05v2.05c0,.45,.36,.81,.81,.81s.81-.36,.81-.81v-2.05h2.05c.45,0,.81-.36,.81-.81s-.36-.81-.81-.81Z"/><path class="cls-15" d="M382.33,240.24h-2.05v-2.05c0-.45-.36-.81-.81-.81s-.81,.36-.81,.81v2.05h-2.05c-.45,0-.81,.36-.81,.81s.36,.81,.81,.81h2.05v2.05c0,.45,.36,.81,.81,.81s.81-.36,.81-.81v-2.05h2.05c.45,0,.81-.36,.81-.81s-.36-.81-.81-.81Z"/><rect class="cls-40" x="511.83" y="294.7" width="54" height="41.91" rx="3.86" ry="3.86"/><rect class="cls-84" x="520.06" y="299.49" width="37.52" height="29.13" rx="2.68" ry="2.68"/><path class="cls-38" d="M556.76,332.81h-35.87c-.46,0-.83-.37-.83-.83h0c0-.46,.37-.83,.83-.83h35.87c.46,0,.83,.37,.83,.83h0c0,.46-.37,.83-.83,.83Z"/><path class="cls-35" d="M557.59,331.98c0,.46-.37,.83-.83,.83h-24.12v-1.65h24.12c.46,0,.83,.37,.83,.83Z"/><circle class="cls-38" cx="532.64" cy="331.98" r="2.21"/><path class="cls-35" d="M533.89,331.98c0,.69-.56,1.25-1.25,1.25s-1.25-.56-1.25-1.25,.56-1.25,1.25-1.25,1.25,.56,1.25,1.25Z"/><path class="cls-40" d="M535.47,308.49c-.19,.04-.33,.2-.33,.4v8.69c-.62-.27-1.45-.24-2.24,.14-1.21,.6-1.82,1.82-1.37,2.73,.45,.91,1.8,1.16,3.01,.56,1.07-.53,1.67-1.55,1.48-2.41h.04v-8.05l7.7-1.44v6.69c-.62-.27-1.45-.24-2.24,.14-1.21,.6-1.82,1.82-1.37,2.73,.45,.91,1.8,1.16,3.01,.56,1.07-.53,1.67-1.55,1.48-2.41h.04v-9.56c0-.25-.23-.44-.48-.4l-8.72,1.63Z"/><rect class="cls-32" x="313.12" y="78.57" width="56.41" height="43.08" rx="4" ry="4"/><rect class="cls-5" x="316.27" y="80.98" width="50.09" height="38.26" rx="2.44" ry="2.44"/><path class="cls-42" d="M327.97,92.03s.19-1.33,.65-1.58c.47-.25,3.72-1.18,4.67-1.16,.96,.02,1.49,1.73,1.49,1.73l-6.82,1Z"/><path class="cls-42" d="M353.94,92.03s-.19-1.33-.65-1.58-3.72-1.18-4.67-1.16c-.96,.02-1.49,1.73-1.49,1.73l6.82,1Z"/><path class="cls-21" d="M356,93.39c-2.15-3.23-12.96-3.48-15.04-3.5-2.08,.02-12.89,.27-15.04,3.5-1.52,2.28-5.17,15.53-4.87,16.56,.29,1.03,4.71,1.77,6.48,0,.71-.71,1.56-1.95,2.32-3.2,1.3-2.1,3.78-3.17,6.19-2.6,1.69,.4,3.56,.75,4.93,.75s3.24-.35,4.93-.75c2.41-.57,4.89,.5,6.19,2.6,.76,1.25,1.61,2.49,2.32,3.2,1.77,1.77,6.19,1.03,6.48,0,.3-1.03-3.35-14.28-4.87-16.56Z"/><path class="cls-42" d="M337.95,101.35c0,1.17-.95,2.11-2.11,2.11s-2.11-.95-2.11-2.11,.95-2.11,2.11-2.11,2.11,.95,2.11,2.11Z"/><path class="cls-42" d="M348.18,101.35c0,1.17-.95,2.11-2.11,2.11s-2.11-.95-2.11-2.11,.95-2.11,2.11-2.11,2.11,.95,2.11,2.11Z"/><path class="cls-38" d="M331.45,96.51h-.72v-.72c0-.73-.59-1.32-1.32-1.32s-1.32,.59-1.32,1.32v.72h-.72c-.73,0-1.32,.59-1.32,1.32s.59,1.32,1.32,1.32h.72v.72c0,.73,.59,1.32,1.32,1.32s1.32-.59,1.32-1.32v-.72h.72c.73,0,1.32-.59,1.32-1.32s-.59-1.32-1.32-1.32Z"/><path class="cls-38" d="M353.23,95.79c0,.73-.59,1.31-1.31,1.31s-1.31-.59-1.31-1.31,.59-1.31,1.31-1.31,1.31,.59,1.31,1.31Z"/><path class="cls-38" d="M353.23,99.87c0,.73-.59,1.31-1.31,1.31s-1.31-.59-1.31-1.31,.59-1.31,1.31-1.31,1.31,.59,1.31,1.31Z"/><path class="cls-38" d="M353.96,99.14c-.73,0-1.31-.59-1.31-1.31s.59-1.31,1.31-1.31,1.31,.59,1.31,1.31-.59,1.31-1.31,1.31Z"/><path class="cls-38" d="M349.88,99.14c-.73,0-1.31-.59-1.31-1.31s.59-1.31,1.31-1.31,1.31,.59,1.31,1.31-.59,1.31-1.31,1.31Z"/><line class="cls-6" y1="382.71" x2="569.48" y2="382.71"/></g></g></svg>