<?xml version="1.0" encoding="UTF-8"?><svg id="OBJECTS" xmlns="http://www.w3.org/2000/svg" xmlns:xlink="http://www.w3.org/1999/xlink" viewBox="0 0 9740.35 3284.05"><defs><style>.cls-1{clip-path:url(#clippath);}.cls-2{fill:url(#Unbenannter_Verlauf_2-22);}.cls-3{fill:url(#Unbenannter_Verlauf_2-20);}.cls-4{fill:url(#Unbenannter_Verlauf_2-21);}.cls-5{fill:url(#Unbenannter_Verlauf_2-13);}.cls-6{fill:url(#Unbenannter_Verlauf_2-14);}.cls-7{fill:url(#Unbenannter_Verlauf_2-18);}.cls-8{fill:url(#Unbenannter_Verlauf_2-12);}.cls-9{fill:url(#Unbenannter_Verlauf_2-17);}.cls-10{fill:url(#Unbenannter_Verlauf_2-11);}.cls-11{fill:url(#Unbenannter_Verlauf_2-16);}.cls-12{fill:url(#Unbenannter_Verlauf_2-15);}.cls-13{fill:url(#Unbenannter_Verlauf_2-10);}.cls-14{fill:url(#Unbenannter_Verlauf_2-19);}.cls-15{fill:#f0e0c4;}.cls-16{fill:#eec12d;}.cls-17{fill:#fff;}.cls-18{fill:#ffa8c7;}.cls-19{fill:#fbfaf1;}.cls-20{fill:#e2e1da;}.cls-21{fill:#8c8c8c;}.cls-22,.cls-23{fill:#c7c9c9;}.cls-24{fill:#182341;}.cls-25{fill:#5b3b27;}.cls-26{clip-path:url(#clippath-1);}.cls-23,.cls-27,.cls-28,.cls-29,.cls-30,.cls-31{stroke-width:.5px;}.cls-23,.cls-32,.cls-28,.cls-29,.cls-30,.cls-31{stroke-miterlimit:10;}.cls-23,.cls-30{stroke:#fff;}.cls-33{fill:url(#Unbenannter_Verlauf_2);opacity:.5;}.cls-27{stroke:#1a263d;stroke-linecap:round;stroke-linejoin:round;}.cls-27,.cls-32,.cls-28,.cls-29,.cls-30,.cls-31{fill:none;}.cls-34{fill:url(#Unbenannter_Verlauf_2-7);}.cls-35{fill:url(#Unbenannter_Verlauf_2-9);}.cls-36{fill:url(#Unbenannter_Verlauf_2-6);}.cls-37{fill:url(#Unbenannter_Verlauf_2-8);}.cls-38{fill:url(#Unbenannter_Verlauf_2-3);}.cls-39{fill:url(#Unbenannter_Verlauf_2-5);}.cls-40{fill:url(#Unbenannter_Verlauf_2-2);}.cls-41{fill:url(#Unbenannter_Verlauf_2-4);}.cls-32{stroke-width:7px;}.cls-32,.cls-31{stroke:#f0e0c4;}.cls-28{stroke:#182341;}.cls-29{stroke:#000;}</style><linearGradient id="Unbenannter_Verlauf_2" x1="550.24" y1="1979.98" x2="9393.98" y2="1979.98" gradientUnits="userSpaceOnUse"><stop offset="0" stop-color="#b9852b"/><stop offset=".04" stop-color="#c28d25"/><stop offset=".12" stop-color="#daa417"/><stop offset=".17" stop-color="#f1b90a"/><stop offset=".44" stop-color="#fcf18a"/><stop offset=".73" stop-color="#f1b90a"/><stop offset=".89" stop-color="#ecca64"/><stop offset="1" stop-color="#b9852b"/></linearGradient><linearGradient id="Unbenannter_Verlauf_2-2" x1="614.59" y1="3168.77" x2="1650.95" y2="3168.77" xlink:href="#Unbenannter_Verlauf_2"/><linearGradient id="Unbenannter_Verlauf_2-3" x1="614.59" y1="3082.29" x2="1650.95" y2="3082.29" xlink:href="#Unbenannter_Verlauf_2"/><linearGradient id="Unbenannter_Verlauf_2-4" x1="723.28" y1="2998.14" x2="1759.64" y2="2998.14" xlink:href="#Unbenannter_Verlauf_2"/><linearGradient id="Unbenannter_Verlauf_2-5" x1="677.7" y1="2899.97" x2="1714.06" y2="2899.97" xlink:href="#Unbenannter_Verlauf_2"/><linearGradient id="Unbenannter_Verlauf_2-6" x1="600.57" y1="2822.84" x2="1636.93" y2="2822.84" xlink:href="#Unbenannter_Verlauf_2"/><linearGradient id="Unbenannter_Verlauf_2-7" x1="600.57" y1="2737.52" x2="1636.93" y2="2737.52" xlink:href="#Unbenannter_Verlauf_2"/><linearGradient id="Unbenannter_Verlauf_2-8" x1="607.66" y1="2637.83" x2="1644.01" y2="2637.83" xlink:href="#Unbenannter_Verlauf_2"/><linearGradient id="Unbenannter_Verlauf_2-9" x1="607.66" y1="2551.34" x2="1644.01" y2="2551.34" xlink:href="#Unbenannter_Verlauf_2"/><linearGradient id="Unbenannter_Verlauf_2-10" x1="716.35" y1="2467.19" x2="1752.7" y2="2467.19" xlink:href="#Unbenannter_Verlauf_2"/><linearGradient id="Unbenannter_Verlauf_2-11" x1="670.77" y1="2369.02" x2="1707.12" y2="2369.02" xlink:href="#Unbenannter_Verlauf_2"/><linearGradient id="Unbenannter_Verlauf_2-12" x1="593.63" y1="2291.89" x2="1629.99" y2="2291.89" xlink:href="#Unbenannter_Verlauf_2"/><linearGradient id="Unbenannter_Verlauf_2-13" x1="593.63" y1="2206.57" x2="1629.99" y2="2206.57" xlink:href="#Unbenannter_Verlauf_2"/><linearGradient id="Unbenannter_Verlauf_2-14" x1="109.86" y1="2874.57" x2="626.19" y2="2874.57" xlink:href="#Unbenannter_Verlauf_2"/><linearGradient id="Unbenannter_Verlauf_2-15" x1="6286.88" y1="3097.29" x2="7323.24" y2="3097.29" xlink:href="#Unbenannter_Verlauf_2"/><linearGradient id="Unbenannter_Verlauf_2-16" x1="6349.99" y1="2828.49" x2="7386.35" y2="2828.49" xlink:href="#Unbenannter_Verlauf_2"/><linearGradient id="Unbenannter_Verlauf_2-17" x1="6272.86" y1="2751.36" x2="7309.21" y2="2751.36" xlink:href="#Unbenannter_Verlauf_2"/><linearGradient id="Unbenannter_Verlauf_2-18" x1="6272.86" y1="2666.04" x2="7309.21" y2="2666.04" xlink:href="#Unbenannter_Verlauf_2"/><clipPath id="clippath"><path class="cls-21" d="M8755.83,3196.15v81.9h-1573.22v-81.9h424.72c-104.13-59.67-186.35-141.56-246.64-245.69-60.33-104.1-90.48-219.66-90.48-346.65,0-195.53,67.29-359.02,201.9-490.44,134.57-131.42,300.27-197.13,497.11-197.13s362.5,65.71,497.11,197.13c134.57,131.42,201.88,294.91,201.88,490.44,0,126.99-30.48,242.55-91.41,346.65-60.95,104.13-142.85,186.02-245.7,245.69h424.74Zm-390.44-591.38c0-118.72-38.1-219.99-114.29-303.8-76.17-83.8-169.83-125.71-280.93-125.71s-204.74,41.91-280.93,125.71c-76.17,83.8-114.27,185.08-114.27,303.8s38.1,219.68,114.27,302.82c76.19,83.18,169.81,124.76,280.93,124.76s204.76-41.58,280.93-124.76c76.19-83.14,114.29-184.08,114.29-302.82Z"/></clipPath><clipPath id="clippath-1"><path class="cls-22" d="M8700.55,3196.15v81.9h-1573.22v-81.9h424.72c-104.13-59.67-186.35-141.56-246.64-245.69-60.33-104.1-90.48-219.66-90.48-346.65,0-195.53,67.29-359.02,201.9-490.44,134.57-131.42,300.27-197.13,497.11-197.13s362.5,65.71,497.11,197.13c134.57,131.42,201.88,294.91,201.88,490.44,0,126.99-30.48,242.55-91.41,346.65-60.95,104.13-142.85,186.02-245.7,245.69h424.74Zm-390.44-591.38c0-118.72-38.1-219.99-114.29-303.8-76.17-83.8-169.83-125.71-280.93-125.71s-204.74,41.91-280.93,125.71c-76.17,83.8-114.27,185.08-114.27,303.8s38.1,219.68,114.27,302.82c76.19,83.18,169.81,124.76,280.93,124.76s204.76-41.58,280.93-124.76c76.19-83.14,114.29-184.08,114.29-302.82Z"/></clipPath><linearGradient id="Unbenannter_Verlauf_2-19" x1="5084.91" y1="1361.27" x2="5975.59" y2="1361.27" xlink:href="#Unbenannter_Verlauf_2"/><linearGradient id="Unbenannter_Verlauf_2-20" x1="3973.43" y1="1040.47" x2="4478.19" y2="1040.47" xlink:href="#Unbenannter_Verlauf_2"/><linearGradient id="Unbenannter_Verlauf_2-21" x1="4927.53" y1="316.6" x2="5721.99" y2="316.6" xlink:href="#Unbenannter_Verlauf_2"/><linearGradient id="Unbenannter_Verlauf_2-22" x1="8568.19" y1="2769.71" x2="9074.26" y2="2769.71" xlink:href="#Unbenannter_Verlauf_2"/></defs><path class="cls-33" d="M865.15,3098.2c342.9-112.81,622.29-189.91,782.1-478.23,159.8-288.32,528.85-454.95,935.41-558.1,406.56-103.16,475.18-277.93,540.88-522.86,65.7-244.93,370.5-428.5,694.35-463.7,323.85-35.2,527.31-399.4,1154.23-399.4s830.39,364.2,1154.23,399.4c323.85,35.2,628.65,218.77,694.35,463.7,65.7,244.94,134.32,419.71,540.88,522.86,406.56,103.15,775.61,269.79,935.41,558.1,159.81,288.32,439.2,365.42,782.1,478.23,342.9,112.81,314.32,185.85,314.32,185.85H550.82s-28.58-73.04,314.32-185.85Z"/><g><g><rect class="cls-32" x="2571.29" y="638.02" width="50.06" height="154.72" transform="translate(2345.42 -1965.98) rotate(69.25)"/><rect class="cls-32" x="9218.26" y="2543.82" width="50.06" height="154.72" transform="translate(16972.24 -3086.03) rotate(127.73)"/><rect class="cls-32" x="7092.27" y="1292.36" width="50.06" height="154.72" transform="translate(12555.77 -3421.42) rotate(127.73)"/><rect class="cls-32" x="234.42" y="1347.82" width="50.06" height="154.72" transform="translate(798.86 80.75) rotate(32.18)"/><rect class="cls-32" x="2142.37" y="449.19" width="50.06" height="154.72" transform="translate(4244.1 1340.33) rotate(-172.26)"/><rect class="cls-32" x="6935.94" y="354.83" width="50.06" height="154.72" transform="translate(707.56 -2655.96) rotate(22.73)"/><rect class="cls-32" x="5678.22" y="65.18" width="50.06" height="154.72" transform="translate(9657.51 -3969.77) rotate(132.45)"/></g><g><circle class="cls-32" cx="334.39" cy="2229.83" r="102.24" transform="translate(-1904.8 2494.48) rotate(-88.21)"/><path class="cls-32" d="M1037.13,1404.88c0,56.47-45.77,102.24-102.24,102.24s-102.24-45.77-102.24-102.24,45.78-102.24,102.24-102.24,102.24,45.77,102.24,102.24Z"/><path class="cls-32" d="M2515.64,1030.35c0,56.47-45.77,102.24-102.24,102.24s-102.24-45.77-102.24-102.24,45.77-102.24,102.24-102.24,102.24,45.77,102.24,102.24Z"/><path class="cls-32" d="M4071.83,503.09c0,56.47-45.77,102.24-102.24,102.24s-102.24-45.77-102.24-102.24,45.77-102.24,102.24-102.24,102.24,45.77,102.24,102.24Z"/><circle class="cls-32" cx="6207.73" cy="361.53" r="102.24" transform="translate(5142.08 6487.79) rotate(-83.47)"/><circle class="cls-32" cx="8937.5" cy="1879.62" r="102.24" transform="translate(5682.57 10412.93) rotate(-81)"/></g></g><path class="cls-15" d="M615.04,3168.71v70.31c0,5.36,12.63,10.57,35.71,15.38,153.1,25,313.87,24.33,469.65,26.51,165.96-2.03,337.18,.17,500.27-27.88,19.36-4.4,29.8-9.07,29.8-14.01v-70.31H615.04Z"/><g><g><path class="cls-19" d="M1617.23,3168.71v85.14c1.24-.28,2.34-.55,3.43-.82v-84.32h-3.43Z"/><path class="cls-19" d="M1575.21,3168.71v92.01c1.24,0,2.33-.28,3.43-.41v-91.6h-3.43Z"/><path class="cls-19" d="M1533.05,3168.71v96.81c1.24,0,2.34-.14,3.43-.27v-96.54h-3.43Z"/><path class="cls-19" d="M1491.03,3168.71v100.52c1.1,0,2.34-.14,3.43-.28v-100.25h-3.43Z"/><path class="cls-19" d="M1448.87,3158.28v113.98c1.1-.14,2.33-.14,3.43-.14v-113.84h-3.43Z"/><path class="cls-19" d="M1406.85,3158.28v116.31c1.1,0,2.34-.14,3.43-.14v-116.18h-3.43Z"/><path class="cls-19" d="M1364.83,3158.28v118.23c1.24-.14,2.34-.14,3.43-.14v-118.1h-3.43Z"/><path class="cls-19" d="M1322.67,3158.28v119.75c1.1,0,2.33-.14,3.43-.14v-119.61h-3.43Z"/><path class="cls-19" d="M1280.65,3158.28v120.84c1.1,0,2.34,0,3.43-.14v-120.71h-3.43Z"/><path class="cls-19" d="M1238.63,3158.28v121.8c1.1,0,2.34-.14,3.43-.14v-121.67h-3.43Z"/><path class="cls-19" d="M1196.47,3158.28v122.22c1.1,.14,2.33,.14,3.43,0v-122.22h-3.43Z"/></g><g><path class="cls-19" d="M1159.12,3158.28v122.49c1.1,.14,2.33,.14,3.43,0v-122.49h-3.43Z"/><path class="cls-19" d="M1117.1,3158.28v122.49c1.1,.14,2.2,.14,3.3,.14v-122.63h-3.3Z"/><rect class="cls-19" x="1074.94" y="3158.28" width="3.43" height="122.36"/><path class="cls-19" d="M1032.92,3158.28v121.8c1.1,0,2.2,.14,3.43,.14v-121.94h-3.43Z"/><path class="cls-19" d="M990.76,3158.28v120.98c1.1,.14,2.33,.14,3.43,.14v-121.12h-3.43Z"/><path class="cls-19" d="M948.74,3158.28v119.88c1.1,.14,2.33,.14,3.43,.14v-120.02h-3.43Z"/><path class="cls-19" d="M906.72,3158.28v118.51c1.1,0,2.33,0,3.43,.14v-118.65h-3.43Z"/><path class="cls-19" d="M864.56,3158.28v116.59c1.1,.14,2.2,.14,3.43,.14v-116.72h-3.43Z"/><path class="cls-19" d="M822.54,3158.28v114.39c1.1,0,2.2,0,3.43,.14v-114.53h-3.43Z"/><path class="cls-19" d="M780.38,3158.28v111.51c1.1,0,2.2,.14,3.43,.27v-111.78h-3.43Z"/><path class="cls-19" d="M738.36,3158.28v107.93c1.1,.14,2.33,.28,3.43,.28v-108.21h-3.43Z"/><path class="cls-19" d="M699.77,3158.28v103.82c1.1,.14,2.2,.28,3.43,.41v-104.23h-3.43Z"/><path class="cls-19" d="M650.75,3158.28v96.12c1.1,.14,2.34,.41,3.43,.69v-96.81h-3.43Z"/></g></g><path class="cls-40" d="M615.03,3168.78c-25.31,62.68,1060.87,62.68,1035.48-.01,25.31-62.67-1060.87-62.67-1035.48,.01Z"/><path class="cls-31" d="M664.34,3169.94c-23.48,47.71,960.41,47.71,936.86-.01,23.48-47.69-960.41-47.7-936.86,.01Z"/><path class="cls-15" d="M615.04,3082.23v70.31c0,5.36,12.63,10.58,35.71,15.38,153.1,24.99,313.87,24.33,469.65,26.5,165.96-2.03,337.18,.17,500.27-27.87,19.36-4.4,29.8-9.07,29.8-14.01v-70.31H615.04Z"/><g><g><path class="cls-19" d="M1617.23,3082.23v85.14c1.24-.28,2.34-.55,3.43-.83v-84.32h-3.43Z"/><path class="cls-19" d="M1575.21,3082.23v92.01c1.24,0,2.33-.28,3.43-.41v-91.59h-3.43Z"/><path class="cls-19" d="M1533.05,3082.23v96.81c1.24,0,2.34-.14,3.43-.27v-96.54h-3.43Z"/><path class="cls-19" d="M1491.03,3082.23v100.52c1.1,0,2.34-.14,3.43-.28v-100.25h-3.43Z"/><path class="cls-19" d="M1448.87,3071.79v113.98c1.1-.14,2.33-.14,3.43-.14v-113.84h-3.43Z"/><path class="cls-19" d="M1406.85,3071.79v116.31c1.1,0,2.34-.14,3.43-.14v-116.18h-3.43Z"/><path class="cls-19" d="M1364.83,3071.79v118.24c1.24-.14,2.34-.14,3.43-.14v-118.1h-3.43Z"/><path class="cls-19" d="M1322.67,3071.79v119.75c1.1,0,2.33-.14,3.43-.14v-119.61h-3.43Z"/><path class="cls-19" d="M1280.65,3071.79v120.85c1.1,0,2.34,0,3.43-.14v-120.71h-3.43Z"/><path class="cls-19" d="M1238.63,3071.79v121.81c1.1,0,2.34-.14,3.43-.14v-121.67h-3.43Z"/><path class="cls-19" d="M1196.47,3071.79v122.22c1.1,.14,2.33,.14,3.43,0v-122.22h-3.43Z"/></g><g><path class="cls-19" d="M1159.12,3071.79v122.49c1.1,.14,2.33,.14,3.43,0v-122.49h-3.43Z"/><path class="cls-19" d="M1117.1,3071.79v122.49c1.1,.14,2.2,.14,3.3,.14v-122.63h-3.3Z"/><rect class="cls-19" x="1074.94" y="3071.79" width="3.43" height="122.36"/><path class="cls-19" d="M1032.92,3071.79v121.81c1.1,0,2.2,.14,3.43,.14v-121.94h-3.43Z"/><path class="cls-19" d="M990.76,3071.79v120.98c1.1,.14,2.33,.14,3.43,.14v-121.12h-3.43Z"/><path class="cls-19" d="M948.74,3071.79v119.88c1.1,.14,2.33,.14,3.43,.14v-120.02h-3.43Z"/><path class="cls-19" d="M906.72,3071.79v118.51c1.1,0,2.33,0,3.43,.14v-118.65h-3.43Z"/><path class="cls-19" d="M864.56,3071.79v116.59c1.1,.14,2.2,.14,3.43,.14v-116.72h-3.43Z"/><path class="cls-19" d="M822.54,3071.79v114.39c1.1,0,2.2,0,3.43,.14v-114.53h-3.43Z"/><path class="cls-19" d="M780.38,3071.79v111.51c1.1,0,2.2,.14,3.43,.27v-111.78h-3.43Z"/><path class="cls-19" d="M738.36,3071.79v107.94c1.1,.14,2.33,.28,3.43,.28v-108.21h-3.43Z"/><path class="cls-19" d="M699.77,3071.79v103.82c1.1,.14,2.2,.27,3.43,.41v-104.23h-3.43Z"/><path class="cls-19" d="M650.75,3071.79v96.13c1.1,.14,2.34,.41,3.43,.69v-96.81h-3.43Z"/></g></g><path class="cls-38" d="M615.03,3082.29c-25.31,62.68,1060.87,62.68,1035.48-.01,25.31-62.67-1060.86-62.67-1035.48,.01Z"/><path class="cls-31" d="M664.34,3083.46c-23.48,47.71,960.41,47.71,936.86-.01,23.48-47.7-960.41-47.7-936.86,.01Z"/><path class="cls-15" d="M723.73,2998.08v70.31c0,5.36,12.63,10.58,35.7,15.38,153.1,24.99,313.88,24.33,469.65,26.51,165.96-2.03,337.18,.17,500.27-27.88,19.36-4.4,29.8-9.07,29.8-14.01v-70.31H723.73Z"/><g><g><path class="cls-19" d="M1725.92,2998.08v85.14c1.24-.28,2.33-.55,3.43-.82v-84.32h-3.43Z"/><path class="cls-19" d="M1683.9,2998.08v92.01c1.24,0,2.33-.27,3.43-.41v-91.59h-3.43Z"/><path class="cls-19" d="M1641.74,2998.08v96.81c1.24,0,2.34-.14,3.43-.27v-96.54h-3.43Z"/><path class="cls-19" d="M1599.72,2998.08v100.52c1.1,0,2.34-.14,3.43-.28v-100.25h-3.43Z"/><path class="cls-19" d="M1557.56,2987.64v113.98c1.1-.14,2.34-.14,3.43-.14v-113.84h-3.43Z"/><path class="cls-19" d="M1515.54,2987.64v116.31c1.1,0,2.34-.14,3.43-.14v-116.18h-3.43Z"/><path class="cls-19" d="M1473.52,2987.64v118.24c1.24-.14,2.34-.14,3.43-.14v-118.1h-3.43Z"/><path class="cls-19" d="M1431.36,2987.64v119.75c1.1,0,2.34-.14,3.43-.14v-119.61h-3.43Z"/><path class="cls-19" d="M1389.34,2987.64v120.84c1.1,0,2.34,0,3.43-.14v-120.71h-3.43Z"/><path class="cls-19" d="M1347.32,2987.64v121.81c1.1,0,2.34-.14,3.43-.14v-121.67h-3.43Z"/><path class="cls-19" d="M1305.16,2987.64v122.22c1.1,.14,2.33,.14,3.43,0v-122.22h-3.43Z"/></g><g><path class="cls-19" d="M1267.81,2987.64v122.49c1.1,.14,2.33,.14,3.43,0v-122.49h-3.43Z"/><path class="cls-19" d="M1225.79,2987.64v122.49c1.1,.14,2.2,.14,3.3,.14v-122.63h-3.3Z"/><rect class="cls-19" x="1183.63" y="2987.64" width="3.43" height="122.36"/><path class="cls-19" d="M1141.61,2987.64v121.81c1.1,0,2.2,.14,3.43,.14v-121.94h-3.43Z"/><path class="cls-19" d="M1099.45,2987.64v120.98c1.1,.14,2.33,.14,3.43,.14v-121.12h-3.43Z"/><path class="cls-19" d="M1057.43,2987.64v119.88c1.1,.14,2.33,.14,3.43,.14v-120.02h-3.43Z"/><path class="cls-19" d="M1015.41,2987.64v118.51c1.1,0,2.33,0,3.43,.14v-118.65h-3.43Z"/><path class="cls-19" d="M973.25,2987.64v116.59c1.1,.14,2.2,.14,3.43,.14v-116.73h-3.43Z"/><path class="cls-19" d="M931.23,2987.64v114.39c1.1,0,2.2,0,3.43,.14v-114.53h-3.43Z"/><path class="cls-19" d="M889.07,2987.64v111.51c1.1,0,2.2,.14,3.43,.27v-111.78h-3.43Z"/><path class="cls-19" d="M847.05,2987.64v107.94c1.1,.14,2.33,.27,3.43,.27v-108.21h-3.43Z"/><path class="cls-19" d="M808.46,2987.64v103.82c1.1,.14,2.2,.27,3.43,.41v-104.23h-3.43Z"/><path class="cls-19" d="M759.44,2987.64v96.13c1.1,.14,2.34,.41,3.43,.69v-96.81h-3.43Z"/></g></g><path class="cls-41" d="M723.72,2998.14c-25.31,62.68,1060.86,62.68,1035.48-.01,25.3-62.67-1060.87-62.67-1035.48,.01Z"/><path class="cls-31" d="M773.03,2999.31c-23.48,47.71,960.41,47.71,936.86-.01,23.47-47.7-960.41-47.7-936.86,.01Z"/><path class="cls-15" d="M678.15,2899.91v70.31c0,5.36,12.63,10.57,35.7,15.38,153.1,24.99,313.88,24.33,469.65,26.51,165.96-2.03,337.18,.17,500.27-27.88,19.36-4.4,29.8-9.07,29.8-14.01v-70.31H678.15Z"/><g><g><path class="cls-19" d="M1680.34,2899.91v85.14c1.24-.28,2.33-.55,3.43-.82v-84.32h-3.43Z"/><path class="cls-19" d="M1638.32,2899.91v92.01c1.24,0,2.33-.28,3.43-.41v-91.6h-3.43Z"/><path class="cls-19" d="M1596.16,2899.91v96.81c1.24,0,2.34-.14,3.43-.27v-96.54h-3.43Z"/><path class="cls-19" d="M1554.14,2899.91v100.52c1.1,0,2.33-.14,3.43-.27v-100.25h-3.43Z"/><path class="cls-19" d="M1511.98,2889.47v113.98c1.1-.14,2.34-.14,3.43-.14v-113.84h-3.43Z"/><path class="cls-19" d="M1469.96,2889.47v116.31c1.1,0,2.34-.14,3.43-.14v-116.18h-3.43Z"/><path class="cls-19" d="M1427.94,2889.47v118.24c1.24-.14,2.33-.14,3.43-.14v-118.1h-3.43Z"/><path class="cls-19" d="M1385.78,2889.47v119.75c1.1,0,2.34-.14,3.43-.14v-119.61h-3.43Z"/><path class="cls-19" d="M1343.76,2889.47v120.85c1.1,0,2.34,0,3.43-.14v-120.71h-3.43Z"/><path class="cls-19" d="M1301.74,2889.47v121.81c1.1,0,2.33-.14,3.43-.14v-121.67h-3.43Z"/><path class="cls-19" d="M1259.58,2889.47v122.22c1.1,.14,2.34,.14,3.43,0v-122.22h-3.43Z"/></g><g><path class="cls-19" d="M1222.23,2889.47v122.49c1.1,.14,2.33,.14,3.43,0v-122.49h-3.43Z"/><path class="cls-19" d="M1180.21,2889.47v122.49c1.1,.14,2.2,.14,3.3,.14v-122.63h-3.3Z"/><rect class="cls-19" x="1138.05" y="2889.47" width="3.43" height="122.36"/><path class="cls-19" d="M1096.03,2889.47v121.81c1.1,0,2.2,.14,3.43,.14v-121.95h-3.43Z"/><path class="cls-19" d="M1053.87,2889.47v120.98c1.1,.14,2.33,.14,3.43,.14v-121.12h-3.43Z"/><path class="cls-19" d="M1011.85,2889.47v119.88c1.1,.14,2.33,.14,3.43,.14v-120.02h-3.43Z"/><path class="cls-19" d="M969.83,2889.47v118.51c1.1,0,2.33,0,3.43,.14v-118.65h-3.43Z"/><path class="cls-19" d="M927.67,2889.47v116.59c1.1,.14,2.2,.14,3.43,.14v-116.73h-3.43Z"/><path class="cls-19" d="M885.65,2889.47v114.39c1.1,0,2.2,0,3.43,.14v-114.53h-3.43Z"/><path class="cls-19" d="M843.49,2889.47v111.51c1.1,0,2.2,.14,3.43,.28v-111.78h-3.43Z"/><path class="cls-19" d="M801.47,2889.47v107.94c1.1,.14,2.34,.28,3.43,.28v-108.21h-3.43Z"/><path class="cls-19" d="M762.88,2889.47v103.82c1.1,.14,2.2,.27,3.43,.41v-104.23h-3.43Z"/><path class="cls-19" d="M713.86,2889.47v96.13c1.1,.14,2.34,.41,3.43,.69v-96.81h-3.43Z"/></g></g><path class="cls-39" d="M678.14,2899.97c-25.31,62.68,1060.86,62.68,1035.48-.01,25.31-62.67-1060.86-62.67-1035.48,.01Z"/><path class="cls-31" d="M727.45,2901.14c-23.48,47.71,960.41,47.71,936.86-.01,23.48-47.7-960.41-47.7-936.86,.01Z"/><path class="cls-15" d="M601.02,2822.77v70.31c0,5.36,12.63,10.57,35.7,15.38,153.1,24.99,313.88,24.33,469.65,26.51,165.96-2.03,337.18,.16,500.27-27.88,19.36-4.4,29.8-9.07,29.8-14.01v-70.31H601.02Z"/><g><g><path class="cls-19" d="M1603.21,2822.77v85.14c1.24-.27,2.34-.55,3.43-.82v-84.32h-3.43Z"/><path class="cls-19" d="M1561.19,2822.77v92.01c1.24,0,2.33-.28,3.43-.41v-91.59h-3.43Z"/><path class="cls-19" d="M1519.03,2822.77v96.81c1.24,0,2.34-.14,3.43-.27v-96.54h-3.43Z"/><path class="cls-19" d="M1477.01,2822.77v100.52c1.1,0,2.33-.14,3.43-.27v-100.24h-3.43Z"/><path class="cls-19" d="M1434.85,2812.34v113.98c1.1-.14,2.33-.14,3.43-.14v-113.84h-3.43Z"/><path class="cls-19" d="M1392.83,2812.34v116.31c1.1,0,2.34-.14,3.43-.14v-116.18h-3.43Z"/><path class="cls-19" d="M1350.8,2812.34v118.23c1.24-.14,2.34-.14,3.43-.14v-118.1h-3.43Z"/><path class="cls-19" d="M1308.65,2812.34v119.75c1.1,0,2.33-.14,3.43-.14v-119.61h-3.43Z"/><path class="cls-19" d="M1266.63,2812.34v120.84c1.1,0,2.33,0,3.43-.14v-120.71h-3.43Z"/><path class="cls-19" d="M1224.61,2812.34v121.81c1.1,0,2.34-.14,3.43-.14v-121.67h-3.43Z"/><path class="cls-19" d="M1182.45,2812.34v122.22c1.1,.14,2.33,.14,3.43,0v-122.22h-3.43Z"/></g><g><path class="cls-19" d="M1145.09,2812.34v122.49c1.1,.14,2.33,.14,3.43,0v-122.49h-3.43Z"/><path class="cls-19" d="M1103.07,2812.34v122.49c1.1,.14,2.2,.14,3.3,.14v-122.63h-3.3Z"/><rect class="cls-19" x="1060.92" y="2812.34" width="3.43" height="122.36"/><path class="cls-19" d="M1018.9,2812.34v121.81c1.1,0,2.2,.14,3.43,.14v-121.94h-3.43Z"/><path class="cls-19" d="M976.74,2812.34v120.98c1.1,.14,2.33,.14,3.43,.14v-121.12h-3.43Z"/><path class="cls-19" d="M934.71,2812.34v119.88c1.1,.14,2.33,.14,3.44,.14v-120.02h-3.44Z"/><path class="cls-19" d="M892.7,2812.34v118.51c1.1,0,2.33,0,3.43,.14v-118.65h-3.43Z"/><path class="cls-19" d="M850.54,2812.34v116.59c1.1,.14,2.2,.14,3.43,.14v-116.73h-3.43Z"/><path class="cls-19" d="M808.51,2812.34v114.39c1.1,0,2.2,0,3.43,.14v-114.53h-3.43Z"/><path class="cls-19" d="M766.36,2812.34v111.51c1.1,0,2.2,.14,3.43,.27v-111.78h-3.43Z"/><path class="cls-19" d="M724.34,2812.34v107.94c1.1,.14,2.33,.27,3.43,.27v-108.21h-3.43Z"/><path class="cls-19" d="M685.75,2812.34v103.82c1.1,.14,2.2,.27,3.43,.41v-104.23h-3.43Z"/><path class="cls-19" d="M636.72,2812.34v96.13c1.1,.14,2.34,.41,3.43,.69v-96.81h-3.43Z"/></g></g><path class="cls-36" d="M601.01,2822.84c-25.31,62.68,1060.87,62.68,1035.48-.01,25.31-62.67-1060.87-62.67-1035.48,.01Z"/><path class="cls-31" d="M650.32,2824.01c-23.48,47.71,960.41,47.71,936.86-.01,23.48-47.7-960.41-47.7-936.86,.01Z"/><path class="cls-15" d="M601.02,2737.46v70.31c0,5.36,12.63,10.58,35.7,15.38,153.1,24.99,313.88,24.33,469.65,26.51,165.96-2.03,337.18,.17,500.27-27.88,19.36-4.4,29.8-9.07,29.8-14.01v-70.31H601.02Z"/><g><g><path class="cls-19" d="M1603.21,2737.46v85.14c1.24-.27,2.34-.55,3.43-.82v-84.32h-3.43Z"/><path class="cls-19" d="M1561.19,2737.46v92.01c1.24,0,2.33-.27,3.43-.41v-91.59h-3.43Z"/><path class="cls-19" d="M1519.03,2737.46v96.81c1.24,0,2.34-.14,3.43-.27v-96.54h-3.43Z"/><path class="cls-19" d="M1477.01,2737.46v100.52c1.1,0,2.33-.14,3.43-.28v-100.25h-3.43Z"/><path class="cls-19" d="M1434.85,2727.02v113.98c1.1-.14,2.33-.14,3.43-.14v-113.84h-3.43Z"/><path class="cls-19" d="M1392.83,2727.02v116.31c1.1,0,2.34-.14,3.43-.14v-116.18h-3.43Z"/><path class="cls-19" d="M1350.8,2727.02v118.24c1.24-.14,2.34-.14,3.43-.14v-118.1h-3.43Z"/><path class="cls-19" d="M1308.65,2727.02v119.75c1.1,0,2.33-.14,3.43-.14v-119.61h-3.43Z"/><path class="cls-19" d="M1266.63,2727.02v120.85c1.1,0,2.33,0,3.43-.14v-120.71h-3.43Z"/><path class="cls-19" d="M1224.61,2727.02v121.81c1.1,0,2.34-.14,3.43-.14v-121.67h-3.43Z"/><path class="cls-19" d="M1182.45,2727.02v122.22c1.1,.14,2.33,.14,3.43,0v-122.22h-3.43Z"/></g><g><path class="cls-19" d="M1145.09,2727.02v122.49c1.1,.14,2.33,.14,3.43,0v-122.49h-3.43Z"/><path class="cls-19" d="M1103.07,2727.02v122.49c1.1,.14,2.2,.14,3.3,.14v-122.63h-3.3Z"/><rect class="cls-19" x="1060.92" y="2727.02" width="3.43" height="122.36"/><path class="cls-19" d="M1018.9,2727.02v121.81c1.1,0,2.2,.14,3.43,.14v-121.94h-3.43Z"/><path class="cls-19" d="M976.74,2727.02v120.98c1.1,.14,2.33,.14,3.43,.14v-121.12h-3.43Z"/><path class="cls-19" d="M934.71,2727.02v119.88c1.1,.14,2.33,.14,3.44,.14v-120.02h-3.44Z"/><path class="cls-19" d="M892.7,2727.02v118.51c1.1,0,2.33,0,3.43,.14v-118.65h-3.43Z"/><path class="cls-19" d="M850.54,2727.02v116.59c1.1,.14,2.2,.14,3.43,.14v-116.73h-3.43Z"/><path class="cls-19" d="M808.51,2727.02v114.39c1.1,0,2.2,0,3.43,.14v-114.53h-3.43Z"/><path class="cls-19" d="M766.36,2727.02v111.51c1.1,0,2.2,.14,3.43,.27v-111.78h-3.43Z"/><path class="cls-19" d="M724.34,2727.02v107.94c1.1,.14,2.33,.28,3.43,.28v-108.21h-3.43Z"/><path class="cls-19" d="M685.75,2727.02v103.82c1.1,.14,2.2,.27,3.43,.41v-104.23h-3.43Z"/><path class="cls-19" d="M636.72,2727.02v96.13c1.1,.14,2.34,.41,3.43,.69v-96.81h-3.43Z"/></g></g><path class="cls-34" d="M601.01,2737.52c-25.31,62.68,1060.87,62.68,1035.48-.02,25.31-62.67-1060.87-62.67-1035.48,.02Z"/><path class="cls-31" d="M650.32,2738.69c-23.48,47.71,960.41,47.71,936.86-.01,23.48-47.7-960.41-47.7-936.86,.01Z"/><path class="cls-15" d="M608.1,2637.76v70.31c0,5.36,12.63,10.57,35.7,15.38,153.1,24.99,313.88,24.33,469.65,26.51,165.96-2.03,337.18,.17,500.27-27.88,19.36-4.4,29.8-9.07,29.8-14.01v-70.31H608.1Z"/><g><g><path class="cls-19" d="M1610.29,2637.76v85.14c1.24-.28,2.34-.55,3.44-.82v-84.32h-3.44Z"/><path class="cls-19" d="M1568.27,2637.76v92.01c1.24,0,2.33-.27,3.43-.41v-91.6h-3.43Z"/><path class="cls-19" d="M1526.11,2637.76v96.81c1.24,0,2.34-.14,3.43-.27v-96.54h-3.43Z"/><path class="cls-19" d="M1484.09,2637.76v100.52c1.1,0,2.34-.14,3.43-.27v-100.25h-3.43Z"/><path class="cls-19" d="M1441.93,2627.33v113.98c1.1-.14,2.33-.14,3.43-.14v-113.84h-3.43Z"/><path class="cls-19" d="M1399.91,2627.33v116.31c1.1,0,2.34-.14,3.43-.14v-116.18h-3.43Z"/><path class="cls-19" d="M1357.89,2627.33v118.23c1.24-.14,2.34-.14,3.43-.14v-118.1h-3.43Z"/><path class="cls-19" d="M1315.74,2627.33v119.74c1.1,0,2.33-.14,3.43-.14v-119.61h-3.43Z"/><path class="cls-19" d="M1273.71,2627.33v120.84c1.1,0,2.34,0,3.43-.14v-120.71h-3.43Z"/><path class="cls-19" d="M1231.69,2627.33v121.8c1.1,0,2.34-.14,3.43-.14v-121.67h-3.43Z"/><path class="cls-19" d="M1189.53,2627.33v122.22c1.1,.14,2.33,.14,3.43,0v-122.22h-3.43Z"/></g><g><path class="cls-19" d="M1152.18,2627.33v122.49c1.1,.14,2.33,.14,3.43,0v-122.49h-3.43Z"/><path class="cls-19" d="M1110.16,2627.33v122.49c1.1,.14,2.2,.14,3.3,.14v-122.63h-3.3Z"/><rect class="cls-19" x="1068" y="2627.33" width="3.43" height="122.35"/><path class="cls-19" d="M1025.98,2627.33v121.8c1.1,0,2.2,.14,3.43,.14v-121.94h-3.43Z"/><path class="cls-19" d="M983.82,2627.33v120.98c1.1,.14,2.33,.14,3.43,.14v-121.12h-3.43Z"/><path class="cls-19" d="M941.8,2627.33v119.88c1.1,.14,2.33,.14,3.43,.14v-120.02h-3.43Z"/><path class="cls-19" d="M899.78,2627.33v118.51c1.1,0,2.33,0,3.43,.14v-118.65h-3.43Z"/><path class="cls-19" d="M857.62,2627.33v116.59c1.1,.14,2.2,.14,3.43,.14v-116.72h-3.43Z"/><path class="cls-19" d="M815.6,2627.33v114.39c1.1,0,2.2,0,3.43,.14v-114.53h-3.43Z"/><path class="cls-19" d="M773.44,2627.33v111.51c1.1,0,2.2,.14,3.43,.27v-111.78h-3.43Z"/><path class="cls-19" d="M731.42,2627.33v107.93c1.1,.14,2.33,.27,3.43,.27v-108.21h-3.43Z"/><path class="cls-19" d="M692.83,2627.33v103.82c1.1,.14,2.2,.27,3.43,.41v-104.23h-3.43Z"/><path class="cls-19" d="M643.81,2627.33v96.12c1.1,.14,2.34,.41,3.43,.69v-96.81h-3.43Z"/></g></g><path class="cls-37" d="M608.09,2637.83c-25.31,62.68,1060.87,62.68,1035.48-.02,25.31-62.67-1060.86-62.67-1035.48,.02Z"/><path class="cls-31" d="M657.4,2639c-23.48,47.71,960.41,47.71,936.86-.01,23.48-47.7-960.41-47.7-936.86,.01Z"/><path class="cls-15" d="M608.1,2551.28v70.31c0,5.36,12.63,10.58,35.7,15.38,153.1,24.99,313.88,24.33,469.65,26.5,165.96-2.03,337.18,.17,500.27-27.88,19.36-4.4,29.8-9.07,29.8-14.01v-70.31H608.1Z"/><g><g><path class="cls-19" d="M1610.29,2551.28v85.14c1.24-.28,2.34-.55,3.44-.83v-84.31h-3.44Z"/><path class="cls-19" d="M1568.27,2551.28v92.01c1.24,0,2.33-.28,3.43-.41v-91.59h-3.43Z"/><path class="cls-19" d="M1526.11,2551.28v96.81c1.24,0,2.34-.14,3.43-.27v-96.54h-3.43Z"/><path class="cls-19" d="M1484.09,2551.28v100.52c1.1,0,2.34-.14,3.43-.28v-100.25h-3.43Z"/><path class="cls-19" d="M1441.93,2540.84v113.98c1.1-.14,2.33-.14,3.43-.14v-113.84h-3.43Z"/><path class="cls-19" d="M1399.91,2540.84v116.31c1.1,0,2.34-.14,3.43-.14v-116.18h-3.43Z"/><path class="cls-19" d="M1357.89,2540.84v118.24c1.24-.14,2.34-.14,3.43-.14v-118.1h-3.43Z"/><path class="cls-19" d="M1315.74,2540.84v119.75c1.1,0,2.33-.14,3.43-.14v-119.61h-3.43Z"/><path class="cls-19" d="M1273.71,2540.84v120.85c1.1,0,2.34,0,3.43-.14v-120.71h-3.43Z"/><path class="cls-19" d="M1231.69,2540.84v121.81c1.1,0,2.34-.14,3.43-.14v-121.67h-3.43Z"/><path class="cls-19" d="M1189.53,2540.84v122.22c1.1,.14,2.33,.14,3.43,0v-122.22h-3.43Z"/></g><g><path class="cls-19" d="M1152.18,2540.84v122.49c1.1,.14,2.33,.14,3.43,0v-122.49h-3.43Z"/><path class="cls-19" d="M1110.16,2540.84v122.49c1.1,.14,2.2,.14,3.3,.14v-122.63h-3.3Z"/><rect class="cls-19" x="1068" y="2540.84" width="3.43" height="122.36"/><path class="cls-19" d="M1025.98,2540.84v121.81c1.1,0,2.2,.14,3.43,.14v-121.94h-3.43Z"/><path class="cls-19" d="M983.82,2540.84v120.98c1.1,.14,2.33,.14,3.43,.14v-121.12h-3.43Z"/><path class="cls-19" d="M941.8,2540.84v119.88c1.1,.14,2.33,.14,3.43,.14v-120.02h-3.43Z"/><path class="cls-19" d="M899.78,2540.84v118.51c1.1,0,2.33,0,3.43,.14v-118.65h-3.43Z"/><path class="cls-19" d="M857.62,2540.84v116.59c1.1,.14,2.2,.14,3.43,.14v-116.72h-3.43Z"/><path class="cls-19" d="M815.6,2540.84v114.39c1.1,0,2.2,0,3.43,.14v-114.53h-3.43Z"/><path class="cls-19" d="M773.44,2540.84v111.51c1.1,0,2.2,.14,3.43,.27v-111.78h-3.43Z"/><path class="cls-19" d="M731.42,2540.84v107.94c1.1,.14,2.33,.27,3.43,.27v-108.21h-3.43Z"/><path class="cls-19" d="M692.83,2540.84v103.82c1.1,.14,2.2,.27,3.43,.41v-104.23h-3.43Z"/><path class="cls-19" d="M643.81,2540.84v96.13c1.1,.14,2.34,.41,3.43,.69v-96.81h-3.43Z"/></g></g><path class="cls-35" d="M608.09,2551.34c-25.31,62.68,1060.87,62.68,1035.48-.01,25.31-62.67-1060.86-62.67-1035.48,.01Z"/><path class="cls-31" d="M657.4,2552.51c-23.48,47.71,960.41,47.71,936.86-.01,23.48-47.7-960.41-47.7-936.86,.01Z"/><path class="cls-15" d="M716.8,2467.13v70.31c0,5.36,12.63,10.57,35.7,15.38,153.1,24.99,313.88,24.33,469.65,26.51,165.96-2.03,337.18,.17,500.27-27.88,19.36-4.4,29.8-9.07,29.8-14.01v-70.31H716.8Z"/><g><g><path class="cls-19" d="M1718.98,2467.13v85.14c1.24-.28,2.33-.55,3.43-.83v-84.32h-3.43Z"/><path class="cls-19" d="M1676.96,2467.13v92.01c1.24,0,2.33-.27,3.43-.41v-91.59h-3.43Z"/><path class="cls-19" d="M1634.8,2467.13v96.81c1.24,0,2.34-.14,3.43-.27v-96.54h-3.43Z"/><path class="cls-19" d="M1592.78,2467.13v100.52c1.1,0,2.33-.14,3.43-.27v-100.25h-3.43Z"/><path class="cls-19" d="M1550.63,2456.7v113.98c1.1-.14,2.33-.14,3.43-.14v-113.84h-3.43Z"/><path class="cls-19" d="M1508.6,2456.7v116.31c1.1,0,2.34-.14,3.43-.14v-116.18h-3.43Z"/><path class="cls-19" d="M1466.58,2456.7v118.24c1.24-.14,2.34-.14,3.43-.14v-118.1h-3.43Z"/><path class="cls-19" d="M1424.42,2456.7v119.75c1.1,0,2.34-.14,3.43-.14v-119.61h-3.43Z"/><path class="cls-19" d="M1382.4,2456.7v120.85c1.1,0,2.33,0,3.43-.14v-120.71h-3.43Z"/><path class="cls-19" d="M1340.38,2456.7v121.8c1.1,0,2.34-.14,3.43-.14v-121.67h-3.43Z"/><path class="cls-19" d="M1298.22,2456.7v122.22c1.1,.14,2.33,.14,3.43,0v-122.22h-3.43Z"/></g><g><path class="cls-19" d="M1260.87,2456.7v122.49c1.1,.14,2.33,.14,3.43,0v-122.49h-3.43Z"/><path class="cls-19" d="M1218.85,2456.7v122.49c1.1,.14,2.2,.14,3.3,.14v-122.63h-3.3Z"/><rect class="cls-19" x="1176.69" y="2456.7" width="3.43" height="122.36"/><path class="cls-19" d="M1134.67,2456.7v121.8c1.1,0,2.2,.14,3.43,.14v-121.94h-3.43Z"/><path class="cls-19" d="M1092.51,2456.7v120.98c1.1,.14,2.33,.14,3.43,.14v-121.12h-3.43Z"/><path class="cls-19" d="M1050.49,2456.7v119.88c1.1,.14,2.33,.14,3.43,.14v-120.02h-3.43Z"/><path class="cls-19" d="M1008.47,2456.7v118.51c1.1,0,2.33,0,3.43,.14v-118.65h-3.43Z"/><path class="cls-19" d="M966.31,2456.7v116.59c1.1,.14,2.2,.14,3.43,.14v-116.72h-3.43Z"/><path class="cls-19" d="M924.29,2456.7v114.39c1.1,0,2.2,0,3.43,.14v-114.53h-3.43Z"/><path class="cls-19" d="M882.13,2456.7v111.51c1.1,0,2.2,.14,3.43,.27v-111.78h-3.43Z"/><path class="cls-19" d="M840.11,2456.7v107.94c1.1,.14,2.33,.28,3.43,.28v-108.21h-3.43Z"/><path class="cls-19" d="M801.52,2456.7v103.82c1.1,.14,2.2,.27,3.43,.41v-104.23h-3.43Z"/><path class="cls-19" d="M752.5,2456.7v96.13c1.1,.14,2.34,.41,3.43,.69v-96.81h-3.43Z"/></g></g><path class="cls-13" d="M716.78,2467.2c-25.31,62.68,1060.87,62.69,1035.48-.01,25.31-62.67-1060.87-62.67-1035.48,.01Z"/><path class="cls-31" d="M766.09,2468.37c-23.48,47.71,960.41,47.71,936.86-.01,23.48-47.7-960.41-47.7-936.86,.01Z"/><path class="cls-15" d="M671.22,2368.96v70.31c0,5.36,12.63,10.58,35.7,15.38,153.1,24.99,313.88,24.33,469.65,26.51,165.96-2.03,337.18,.17,500.27-27.88,19.36-4.4,29.8-9.07,29.8-14.01v-70.31H671.22Z"/><g><g><path class="cls-19" d="M1673.4,2368.96v85.14c1.24-.27,2.33-.55,3.43-.82v-84.32h-3.43Z"/><path class="cls-19" d="M1631.38,2368.96v92.01c1.24,0,2.33-.28,3.43-.41v-91.59h-3.43Z"/><path class="cls-19" d="M1589.22,2368.96v96.81c1.24,0,2.33-.14,3.43-.27v-96.54h-3.43Z"/><path class="cls-19" d="M1547.2,2368.96v100.52c1.1,0,2.33-.14,3.43-.28v-100.25h-3.43Z"/><path class="cls-19" d="M1505.04,2358.52v113.98c1.1-.14,2.34-.14,3.43-.14v-113.84h-3.43Z"/><path class="cls-19" d="M1463.02,2358.52v116.31c1.1,0,2.34-.14,3.43-.14v-116.18h-3.43Z"/><path class="cls-19" d="M1421,2358.52v118.24c1.24-.14,2.33-.14,3.43-.14v-118.1h-3.43Z"/><path class="cls-19" d="M1378.85,2358.52v119.75c1.1,0,2.33-.14,3.43-.14v-119.61h-3.43Z"/><path class="cls-19" d="M1336.82,2358.52v120.85c1.1,0,2.34,0,3.43-.14v-120.71h-3.43Z"/><path class="cls-19" d="M1294.8,2358.52v121.81c1.1,0,2.33-.14,3.43-.14v-121.67h-3.43Z"/><path class="cls-19" d="M1252.64,2358.52v122.22c1.1,.14,2.34,.14,3.43,0v-122.22h-3.43Z"/></g><g><path class="cls-19" d="M1215.29,2358.52v122.49c1.1,.14,2.33,.14,3.43,0v-122.49h-3.43Z"/><path class="cls-19" d="M1173.27,2358.52v122.49c1.1,.14,2.2,.14,3.3,.14v-122.63h-3.3Z"/><rect class="cls-19" x="1131.11" y="2358.52" width="3.43" height="122.36"/><path class="cls-19" d="M1089.09,2358.52v121.81c1.1,0,2.2,.14,3.43,.14v-121.94h-3.43Z"/><path class="cls-19" d="M1046.93,2358.52v120.98c1.1,.14,2.33,.14,3.43,.14v-121.12h-3.43Z"/><path class="cls-19" d="M1004.91,2358.52v119.88c1.1,.14,2.33,.14,3.43,.14v-120.02h-3.43Z"/><path class="cls-19" d="M962.89,2358.52v118.51c1.1,0,2.33,0,3.43,.14v-118.65h-3.43Z"/><path class="cls-19" d="M920.73,2358.52v116.59c1.1,.14,2.2,.14,3.43,.14v-116.73h-3.43Z"/><path class="cls-19" d="M878.71,2358.52v114.39c1.1,0,2.2,0,3.43,.14v-114.53h-3.43Z"/><path class="cls-19" d="M836.55,2358.52v111.51c1.1,0,2.2,.14,3.43,.27v-111.78h-3.43Z"/><path class="cls-19" d="M794.53,2358.52v107.94c1.1,.14,2.34,.28,3.43,.28v-108.21h-3.43Z"/><path class="cls-19" d="M755.94,2358.52v103.82c1.1,.14,2.2,.27,3.43,.41v-104.23h-3.43Z"/><path class="cls-19" d="M706.92,2358.52v96.13c1.1,.14,2.34,.41,3.43,.69v-96.81h-3.43Z"/></g></g><path class="cls-10" d="M671.2,2369.03c-25.31,62.68,1060.86,62.68,1035.48-.01,25.31-62.67-1060.86-62.67-1035.48,.01Z"/><path class="cls-31" d="M720.51,2370.19c-23.48,47.71,960.41,47.71,936.86-.01,23.48-47.7-960.41-47.7-936.86,.01Z"/><path class="cls-15" d="M594.08,2291.83v70.31c0,5.35,12.63,10.57,35.7,15.38,153.1,24.99,313.88,24.33,469.65,26.51,165.96-2.03,337.18,.17,500.27-27.87,19.36-4.4,29.8-9.07,29.8-14.01v-70.31H594.08Z"/><g><g><path class="cls-19" d="M1596.27,2291.83v85.14c1.24-.27,2.34-.55,3.43-.82v-84.32h-3.43Z"/><path class="cls-19" d="M1554.25,2291.83v92.01c1.24,0,2.33-.28,3.43-.41v-91.59h-3.43Z"/><path class="cls-19" d="M1512.09,2291.83v96.81c1.24,0,2.34-.14,3.43-.27v-96.54h-3.43Z"/><path class="cls-19" d="M1470.07,2291.83v100.52c1.1,0,2.33-.14,3.43-.28v-100.24h-3.43Z"/><path class="cls-19" d="M1427.91,2281.39v113.98c1.1-.14,2.33-.14,3.43-.14v-113.84h-3.43Z"/><path class="cls-19" d="M1385.89,2281.39v116.31c1.1,0,2.34-.14,3.43-.14v-116.18h-3.43Z"/><path class="cls-19" d="M1343.87,2281.39v118.23c1.24-.14,2.34-.14,3.43-.14v-118.1h-3.43Z"/><path class="cls-19" d="M1301.71,2281.39v119.75c1.1,0,2.33-.14,3.43-.14v-119.61h-3.43Z"/><path class="cls-19" d="M1259.69,2281.39v120.84c1.1,0,2.34,0,3.43-.14v-120.71h-3.43Z"/><path class="cls-19" d="M1217.67,2281.39v121.81c1.1,0,2.34-.14,3.43-.14v-121.67h-3.43Z"/><path class="cls-19" d="M1175.51,2281.39v122.22c1.1,.14,2.33,.14,3.43,0v-122.22h-3.43Z"/></g><g><path class="cls-19" d="M1138.16,2281.39v122.49c1.1,.14,2.33,.14,3.43,0v-122.49h-3.43Z"/><path class="cls-19" d="M1096.14,2281.39v122.49c1.1,.14,2.2,.14,3.29,.14v-122.63h-3.29Z"/><rect class="cls-19" x="1053.98" y="2281.39" width="3.43" height="122.35"/><path class="cls-19" d="M1011.96,2281.39v121.81c1.1,0,2.2,.14,3.43,.14v-121.94h-3.43Z"/><path class="cls-19" d="M969.8,2281.39v120.98c1.1,.14,2.33,.14,3.44,.14v-121.12h-3.44Z"/><path class="cls-19" d="M927.78,2281.39v119.88c1.1,.14,2.33,.14,3.43,.14v-120.02h-3.43Z"/><path class="cls-19" d="M885.76,2281.39v118.51c1.1,0,2.33,0,3.43,.14v-118.65h-3.43Z"/><path class="cls-19" d="M843.6,2281.39v116.59c1.1,.14,2.2,.14,3.43,.14v-116.72h-3.43Z"/><path class="cls-19" d="M801.58,2281.39v114.39c1.1,0,2.2,0,3.43,.14v-114.53h-3.43Z"/><path class="cls-19" d="M759.42,2281.39v111.51c1.1,0,2.2,.14,3.43,.28v-111.78h-3.43Z"/><path class="cls-19" d="M717.4,2281.39v107.94c1.1,.14,2.33,.27,3.43,.27v-108.21h-3.43Z"/><path class="cls-19" d="M678.81,2281.39v103.82c1.1,.14,2.2,.27,3.43,.41v-104.23h-3.43Z"/><path class="cls-19" d="M629.78,2281.39v96.13c1.1,.14,2.34,.41,3.43,.69v-96.81h-3.43Z"/></g></g><path class="cls-8" d="M594.07,2291.89c-25.31,62.69,1060.87,62.69,1035.48-.01,25.31-62.67-1060.87-62.67-1035.48,.01Z"/><path class="cls-31" d="M643.38,2293.06c-23.47,47.71,960.41,47.71,936.86-.01,23.48-47.7-960.41-47.7-936.86,.01Z"/><path class="cls-15" d="M594.08,2206.51v70.31c0,5.36,12.63,10.58,35.7,15.38,153.1,24.99,313.88,24.33,469.65,26.5,165.96-2.03,337.18,.17,500.27-27.87,19.36-4.4,29.8-9.07,29.8-14.01v-70.31H594.08Z"/><g><g><path class="cls-19" d="M1596.27,2206.51v85.14c1.24-.28,2.34-.55,3.43-.83v-84.32h-3.43Z"/><path class="cls-19" d="M1554.25,2206.51v92.01c1.24,0,2.33-.27,3.43-.41v-91.59h-3.43Z"/><path class="cls-19" d="M1512.09,2206.51v96.81c1.24,0,2.34-.14,3.43-.27v-96.54h-3.43Z"/><path class="cls-19" d="M1470.07,2206.51v100.52c1.1,0,2.33-.14,3.43-.28v-100.25h-3.43Z"/><path class="cls-19" d="M1427.91,2196.07v113.98c1.1-.14,2.33-.14,3.43-.14v-113.84h-3.43Z"/><path class="cls-19" d="M1385.89,2196.07v116.31c1.1,0,2.34-.14,3.43-.14v-116.18h-3.43Z"/><path class="cls-19" d="M1343.87,2196.07v118.24c1.24-.14,2.34-.14,3.43-.14v-118.1h-3.43Z"/><path class="cls-19" d="M1301.71,2196.07v119.75c1.1,0,2.33-.14,3.43-.14v-119.61h-3.43Z"/><path class="cls-19" d="M1259.69,2196.07v120.84c1.1,0,2.34,0,3.43-.14v-120.71h-3.43Z"/><path class="cls-19" d="M1217.67,2196.07v121.81c1.1,0,2.34-.14,3.43-.14v-121.67h-3.43Z"/><path class="cls-19" d="M1175.51,2196.07v122.22c1.1,.14,2.33,.14,3.43,0v-122.22h-3.43Z"/></g><g><path class="cls-19" d="M1138.16,2196.07v122.49c1.1,.14,2.33,.14,3.43,0v-122.49h-3.43Z"/><path class="cls-19" d="M1096.14,2196.07v122.49c1.1,.14,2.2,.14,3.29,.14v-122.63h-3.29Z"/><rect class="cls-19" x="1053.98" y="2196.07" width="3.43" height="122.36"/><path class="cls-19" d="M1011.96,2196.07v121.81c1.1,0,2.2,.14,3.43,.14v-121.94h-3.43Z"/><path class="cls-19" d="M969.8,2196.07v120.98c1.1,.14,2.33,.14,3.44,.14v-121.12h-3.44Z"/><path class="cls-19" d="M927.78,2196.07v119.88c1.1,.14,2.33,.14,3.43,.14v-120.02h-3.43Z"/><path class="cls-19" d="M885.76,2196.07v118.51c1.1,0,2.33,0,3.43,.14v-118.65h-3.43Z"/><path class="cls-19" d="M843.6,2196.07v116.59c1.1,.14,2.2,.14,3.43,.14v-116.72h-3.43Z"/><path class="cls-19" d="M801.58,2196.07v114.39c1.1,0,2.2,0,3.43,.14v-114.53h-3.43Z"/><path class="cls-19" d="M759.42,2196.07v111.51c1.1,0,2.2,.14,3.43,.27v-111.78h-3.43Z"/><path class="cls-19" d="M717.4,2196.07v107.94c1.1,.14,2.33,.27,3.43,.27v-108.21h-3.43Z"/><path class="cls-19" d="M678.81,2196.07v103.82c1.1,.14,2.2,.27,3.43,.41v-104.23h-3.43Z"/><path class="cls-19" d="M629.78,2196.07v96.13c1.1,.14,2.34,.41,3.43,.69v-96.81h-3.43Z"/></g></g><path class="cls-5" d="M594.07,2206.57c-25.31,62.68,1060.87,62.68,1035.48-.01,25.31-62.67-1060.87-62.67-1035.48,.01Z"/><path class="cls-31" d="M643.38,2207.74c-23.47,47.71,960.41,47.71,936.86-.01,23.48-47.7-960.41-47.7-936.86,.01Z"/><g><path class="cls-15" d="M199.05,3249.64c6.68,6.08,16.45,9.23,23.87,14.37l1.69-1.81c209.51,34.96,661.07-674.9,339.47-745.61l-29.44,46.73c-155.97,66.14-380.83,431.01-367.11,598.69l-30.85,50.23,62.37,37.4Z"/><g><path class="cls-19" d="M570.4,2549.81l103.75,64.11c-.39-2.14-.91-4.37-1.44-6.6l-99.75-61.64-2.56,4.14Z"/><path class="cls-19" d="M547.24,2587.29l129.65,80.12c.16-1.81,.19-3.69,.21-5.58l-127.31-78.67-2.56,4.13Z"/><path class="cls-19" d="M518.97,2633.03l149.9,92.63c.3-1.72,.6-3.44,1.04-5.07l-148.39-91.69-2.55,4.13Z"/><path class="cls-19" d="M490.71,2678.77l163.82,101.23c.58-1.55,1.01-3.18,1.59-4.73l-162.85-100.64-2.55,4.14Z"/><path class="cls-19" d="M462.44,2724.51l173.74,107.36c.71-1.46,1.29-3.01,1.86-4.56l-173.05-106.94-2.55,4.13Z"/><path class="cls-19" d="M434.17,2770.26l180.49,111.53c.71-1.46,1.43-2.93,2.14-4.39l-180.08-111.28-2.55,4.14Z"/><path class="cls-19" d="M405.91,2816l184.62,114.09c.85-1.38,1.57-2.84,2.28-4.3l-184.35-113.92-2.55,4.13Z"/><rect class="cls-19" x="469.59" y="2807.67" width="5.02" height="218.97" transform="translate(-2257.65 1785.26) rotate(-58.29)"/><path class="cls-19" d="M349.37,2907.48l185.73,114.77c.99-1.29,1.84-2.67,2.78-4.18l-185.86-114.86-2.64,4.27Z"/><path class="cls-19" d="M321.1,2953.23l182.83,112.98c.99-1.3,1.98-2.59,3.05-4.02l-183.25-113.24-2.64,4.27Z"/><path class="cls-19" d="M292.84,2998.97l177.32,109.58c1.21-1.35,2.34-2.56,3.33-3.85l-178.01-110-2.64,4.27Z"/><path class="cls-19" d="M264.57,3044.71l169.06,104.47c1.12-1.21,2.25-2.41,3.6-3.68l-170.02-105.06-2.64,4.27Z"/><path class="cls-19" d="M236.3,3090.46l157.07,97.06c1.41-1.04,2.67-2.16,4.02-3.42l-158.45-97.91-2.64,4.27Z"/><path class="cls-19" d="M208.12,3136.06l140.4,86.76c1.4-1.04,2.94-1.99,4.35-3.03l-142.19-87.86-2.55,4.13Z"/><path class="cls-19" d="M179.85,3181.8l114.91,71.01c1.81-.78,3.63-1.56,5.31-2.43l-117.66-72.71-2.56,4.13Z"/></g><path class="cls-6" d="M151.65,3224.73c171.54,113.57,611.09-597.81,432.74-700.33-171.52-113.56-611.07,597.82-432.74,700.33Z"/><path class="cls-31" d="M168.31,3197.77c152.79,100.89,558.69-559.8,403.31-650.07-155.21-95.64-560.39,552.3-403.31,650.07Z"/></g><path class="cls-15" d="M6287.33,3097.23v70.31c0,5.36,12.63,10.57,35.71,15.38,153.1,24.99,313.88,24.33,469.65,26.51,165.96-2.03,337.18,.17,500.27-27.88,19.36-4.4,29.8-9.07,29.8-14.01v-70.31h-1035.42Z"/><g><g><path class="cls-19" d="M7289.52,3097.23v85.14c1.24-.27,2.34-.55,3.43-.82v-84.32h-3.43Z"/><path class="cls-19" d="M7247.5,3097.23v92.01c1.23,0,2.33-.28,3.43-.41v-91.6h-3.43Z"/><path class="cls-19" d="M7205.34,3097.23v96.81c1.24,0,2.34-.14,3.43-.27v-96.54h-3.43Z"/><path class="cls-19" d="M7163.32,3097.23v100.52c1.1,0,2.34-.14,3.43-.28v-100.25h-3.43Z"/><path class="cls-19" d="M7121.16,3086.8v113.98c1.1-.14,2.33-.14,3.43-.14v-113.84h-3.43Z"/><path class="cls-19" d="M7079.14,3086.8v116.31c1.1,0,2.34-.14,3.43-.14v-116.18h-3.43Z"/><path class="cls-19" d="M7037.12,3086.8v118.23c1.24-.14,2.34-.14,3.43-.14v-118.1h-3.43Z"/><path class="cls-19" d="M6994.96,3086.8v119.75c1.1,0,2.33-.14,3.43-.14v-119.61h-3.43Z"/><path class="cls-19" d="M6952.94,3086.8v120.84c1.1,0,2.34,0,3.43-.14v-120.71h-3.43Z"/><path class="cls-19" d="M6910.92,3086.8v121.8c1.1,0,2.34-.14,3.43-.14v-121.67h-3.43Z"/><path class="cls-19" d="M6868.76,3086.8v122.22c1.1,.14,2.33,.14,3.43,0v-122.22h-3.43Z"/></g><g><path class="cls-19" d="M6831.41,3086.8v122.49c1.1,.14,2.33,.14,3.43,0v-122.49h-3.43Z"/><path class="cls-19" d="M6789.39,3086.8v122.49c1.1,.14,2.2,.14,3.3,.14v-122.63h-3.3Z"/><rect class="cls-19" x="6747.23" y="3086.8" width="3.43" height="122.36"/><path class="cls-19" d="M6705.21,3086.8v121.8c1.1,0,2.2,.14,3.43,.14v-121.94h-3.43Z"/><path class="cls-19" d="M6663.05,3086.8v120.98c1.1,.14,2.33,.14,3.43,.14v-121.12h-3.43Z"/><path class="cls-19" d="M6621.03,3086.8v119.88c1.1,.14,2.33,.14,3.43,.14v-120.02h-3.43Z"/><path class="cls-19" d="M6579.01,3086.8v118.51c1.1,0,2.33,0,3.43,.14v-118.65h-3.43Z"/><path class="cls-19" d="M6536.85,3086.8v116.59c1.1,.14,2.2,.14,3.43,.14v-116.72h-3.43Z"/><path class="cls-19" d="M6494.83,3086.8v114.39c1.1,0,2.2,0,3.43,.14v-114.53h-3.43Z"/><path class="cls-19" d="M6452.67,3086.8v111.51c1.1,0,2.2,.14,3.43,.27v-111.78h-3.43Z"/><path class="cls-19" d="M6410.65,3086.8v107.94c1.1,.14,2.33,.28,3.43,.28v-108.21h-3.43Z"/><path class="cls-19" d="M6372.06,3086.8v103.82c1.1,.14,2.2,.27,3.43,.41v-104.23h-3.43Z"/><path class="cls-19" d="M6323.04,3086.8v96.13c1.1,.14,2.34,.41,3.43,.69v-96.81h-3.43Z"/></g></g><path class="cls-12" d="M6287.32,3097.3c-25.31,62.68,1060.87,62.68,1035.48-.01,25.31-62.67-1060.87-62.67-1035.48,.01Z"/><path class="cls-31" d="M6336.63,3098.46c-23.48,47.71,960.41,47.71,936.86-.01,23.48-47.69-960.41-47.69-936.86,.01Z"/><path class="cls-15" d="M6287.33,3010.75v70.31c0,5.36,12.63,10.58,35.71,15.38,153.1,24.99,313.88,24.33,469.65,26.51,165.96-2.03,337.18,.17,500.27-27.88,19.36-4.4,29.8-9.07,29.8-14.01v-70.31h-1035.42Z"/><g><g><path class="cls-19" d="M7289.52,3010.75v85.14c1.24-.27,2.34-.55,3.43-.82v-84.32h-3.43Z"/><path class="cls-19" d="M7247.5,3010.75v92.01c1.23,0,2.33-.27,3.43-.41v-91.59h-3.43Z"/><path class="cls-19" d="M7205.34,3010.75v96.81c1.24,0,2.34-.14,3.43-.27v-96.54h-3.43Z"/><path class="cls-19" d="M7163.32,3010.75v100.52c1.1,0,2.34-.14,3.43-.28v-100.25h-3.43Z"/><path class="cls-19" d="M7121.16,3000.31v113.98c1.1-.14,2.33-.14,3.43-.14v-113.84h-3.43Z"/><path class="cls-19" d="M7079.14,3000.31v116.31c1.1,0,2.34-.14,3.43-.14v-116.18h-3.43Z"/><path class="cls-19" d="M7037.12,3000.31v118.24c1.24-.14,2.34-.14,3.43-.14v-118.1h-3.43Z"/><path class="cls-19" d="M6994.96,3000.31v119.75c1.1,0,2.33-.14,3.43-.14v-119.61h-3.43Z"/><path class="cls-19" d="M6952.94,3000.31v120.85c1.1,0,2.34,0,3.43-.14v-120.71h-3.43Z"/><path class="cls-19" d="M6910.92,3000.31v121.81c1.1,0,2.34-.14,3.43-.14v-121.67h-3.43Z"/><path class="cls-19" d="M6868.76,3000.31v122.22c1.1,.14,2.33,.14,3.43,0v-122.22h-3.43Z"/></g><g><path class="cls-19" d="M6831.41,3000.31v122.49c1.1,.14,2.33,.14,3.43,0v-122.49h-3.43Z"/><path class="cls-19" d="M6789.39,3000.31v122.49c1.1,.14,2.2,.14,3.3,.14v-122.63h-3.3Z"/><rect class="cls-19" x="6747.23" y="3000.31" width="3.43" height="122.36"/><path class="cls-19" d="M6705.21,3000.31v121.81c1.1,0,2.2,.14,3.43,.14v-121.94h-3.43Z"/><path class="cls-19" d="M6663.05,3000.31v120.98c1.1,.14,2.33,.14,3.43,.14v-121.12h-3.43Z"/><path class="cls-19" d="M6621.03,3000.31v119.88c1.1,.14,2.33,.14,3.43,.14v-120.02h-3.43Z"/><path class="cls-19" d="M6579.01,3000.31v118.51c1.1,0,2.33,0,3.43,.14v-118.65h-3.43Z"/><path class="cls-19" d="M6536.85,3000.31v116.59c1.1,.14,2.2,.14,3.43,.14v-116.73h-3.43Z"/><path class="cls-19" d="M6494.83,3000.31v114.39c1.1,0,2.2,0,3.43,.14v-114.53h-3.43Z"/><path class="cls-19" d="M6452.67,3000.31v111.51c1.1,0,2.2,.14,3.43,.28v-111.78h-3.43Z"/><path class="cls-19" d="M6410.65,3000.31v107.94c1.1,.14,2.33,.28,3.43,.28v-108.21h-3.43Z"/><path class="cls-19" d="M6372.06,3000.31v103.82c1.1,.14,2.2,.28,3.43,.41v-104.23h-3.43Z"/><path class="cls-19" d="M6323.04,3000.31v96.13c1.1,.14,2.34,.41,3.43,.69v-96.82h-3.43Z"/></g></g><path class="cls-16" d="M6287.32,3010.81c-25.31,62.68,1060.87,62.68,1035.48-.01,25.31-62.67-1060.87-62.67-1035.48,.01Z"/><path class="cls-31" d="M6336.63,3011.98c-23.48,47.71,960.41,47.71,936.86-.01,23.48-47.7-960.41-47.7-936.86,.01Z"/><path class="cls-15" d="M6396.02,2926.6v70.31c0,5.36,12.63,10.58,35.7,15.38,153.1,24.99,313.88,24.33,469.65,26.5,165.96-2.03,337.18,.17,500.27-27.87,19.36-4.4,29.8-9.07,29.8-14.01v-70.31h-1035.42Z"/><g><g><path class="cls-19" d="M7398.21,2926.6v85.14c1.24-.28,2.33-.55,3.43-.82v-84.32h-3.43Z"/><path class="cls-19" d="M7356.19,2926.6v92.01c1.24,0,2.33-.27,3.43-.41v-91.59h-3.43Z"/><path class="cls-19" d="M7314.03,2926.6v96.81c1.24,0,2.34-.14,3.43-.27v-96.54h-3.43Z"/><path class="cls-19" d="M7272.01,2926.6v100.52c1.1,0,2.34-.14,3.43-.28v-100.25h-3.43Z"/><path class="cls-19" d="M7229.85,2916.16v113.98c1.1-.14,2.34-.14,3.43-.14v-113.84h-3.43Z"/><path class="cls-19" d="M7187.83,2916.16v116.31c1.1,0,2.34-.14,3.44-.14v-116.18h-3.44Z"/><path class="cls-19" d="M7145.81,2916.16v118.24c1.24-.14,2.33-.14,3.43-.14v-118.1h-3.43Z"/><path class="cls-19" d="M7103.65,2916.16v119.75c1.1,0,2.34-.14,3.43-.14v-119.61h-3.43Z"/><path class="cls-19" d="M7061.63,2916.16v120.85c1.1,0,2.34,0,3.43-.14v-120.71h-3.43Z"/><path class="cls-19" d="M7019.61,2916.16v121.81c1.1,0,2.34-.14,3.44-.14v-121.67h-3.44Z"/><path class="cls-19" d="M6977.45,2916.16v122.22c1.1,.14,2.33,.14,3.43,0v-122.22h-3.43Z"/></g><g><path class="cls-19" d="M6940.1,2916.16v122.49c1.1,.14,2.33,.14,3.43,0v-122.49h-3.43Z"/><path class="cls-19" d="M6898.08,2916.16v122.49c1.1,.14,2.2,.14,3.29,.14v-122.63h-3.29Z"/><rect class="cls-19" x="6855.92" y="2916.16" width="3.43" height="122.36"/><path class="cls-19" d="M6813.9,2916.16v121.81c1.1,0,2.2,.14,3.43,.14v-121.94h-3.43Z"/><path class="cls-19" d="M6771.74,2916.16v120.98c1.1,.14,2.33,.14,3.43,.14v-121.12h-3.43Z"/><path class="cls-19" d="M6729.72,2916.16v119.88c1.1,.14,2.33,.14,3.43,.14v-120.02h-3.43Z"/><path class="cls-19" d="M6687.7,2916.16v118.51c1.1,0,2.33,0,3.43,.14v-118.65h-3.43Z"/><path class="cls-19" d="M6645.54,2916.16v116.59c1.1,.14,2.2,.14,3.43,.14v-116.73h-3.43Z"/><path class="cls-19" d="M6603.52,2916.16v114.39c1.1,0,2.2,0,3.43,.14v-114.53h-3.43Z"/><path class="cls-19" d="M6561.36,2916.16v111.51c1.1,0,2.2,.14,3.43,.27v-111.78h-3.43Z"/><path class="cls-19" d="M6519.34,2916.16v107.94c1.1,.14,2.33,.28,3.43,.28v-108.21h-3.43Z"/><path class="cls-19" d="M6480.75,2916.16v103.82c1.1,.14,2.2,.27,3.43,.41v-104.23h-3.43Z"/><path class="cls-19" d="M6431.73,2916.16v96.13c1.1,.14,2.34,.41,3.43,.69v-96.81h-3.43Z"/></g></g><path class="cls-16" d="M6396.01,2926.66c-25.31,62.68,1060.87,62.68,1035.48-.01,25.31-62.67-1060.87-62.67-1035.48,.01Z"/><path class="cls-31" d="M6445.32,2927.83c-23.48,47.71,960.41,47.71,936.86-.01,23.47-47.7-960.41-47.7-936.86,.01Z"/><g><path class="cls-15" d="M6350.44,2828.43v70.31c0,5.36,12.63,10.58,35.7,15.38,153.1,24.99,313.88,24.33,469.65,26.51,165.96-2.03,337.18,.17,500.27-27.87,19.36-4.4,29.8-9.07,29.8-14.01v-70.31h-1035.42Z"/><g><g><path class="cls-19" d="M7352.63,2828.43v85.14c1.24-.27,2.33-.55,3.43-.82v-84.32h-3.43Z"/><path class="cls-19" d="M7310.61,2828.43v92.01c1.23,0,2.33-.27,3.43-.41v-91.6h-3.43Z"/><path class="cls-19" d="M7268.45,2828.43v96.81c1.24,0,2.34-.14,3.43-.27v-96.54h-3.43Z"/><path class="cls-19" d="M7226.43,2828.43v100.52c1.1,0,2.33-.14,3.43-.28v-100.25h-3.43Z"/><path class="cls-19" d="M7184.27,2817.99v113.98c1.1-.14,2.34-.14,3.44-.14v-113.84h-3.44Z"/><path class="cls-19" d="M7142.25,2817.99v116.31c1.1,0,2.34-.14,3.43-.14v-116.18h-3.43Z"/><path class="cls-19" d="M7100.23,2817.99v118.24c1.24-.14,2.33-.14,3.43-.14v-118.1h-3.43Z"/><path class="cls-19" d="M7058.07,2817.99v119.75c1.1,0,2.34-.14,3.43-.14v-119.61h-3.43Z"/><path class="cls-19" d="M7016.05,2817.99v120.85c1.1,0,2.34,0,3.44-.14v-120.71h-3.44Z"/><path class="cls-19" d="M6974.03,2817.99v121.81c1.1,0,2.33-.14,3.43-.14v-121.67h-3.43Z"/><path class="cls-19" d="M6931.87,2817.99v122.22c1.1,.14,2.34,.14,3.43,0v-122.22h-3.43Z"/></g><g><path class="cls-19" d="M6894.52,2817.99v122.49c1.1,.14,2.33,.14,3.43,0v-122.49h-3.43Z"/><path class="cls-19" d="M6852.5,2817.99v122.49c1.1,.14,2.2,.14,3.3,.14v-122.63h-3.3Z"/><rect class="cls-19" x="6810.34" y="2817.99" width="3.43" height="122.36"/><path class="cls-19" d="M6768.32,2817.99v121.81c1.1,0,2.2,.14,3.43,.14v-121.95h-3.43Z"/><path class="cls-19" d="M6726.16,2817.99v120.98c1.1,.14,2.33,.14,3.43,.14v-121.12h-3.43Z"/><path class="cls-19" d="M6684.14,2817.99v119.88c1.1,.14,2.33,.14,3.43,.14v-120.02h-3.43Z"/><path class="cls-19" d="M6642.12,2817.99v118.51c1.1,0,2.33,0,3.43,.14v-118.65h-3.43Z"/><path class="cls-19" d="M6599.96,2817.99v116.59c1.1,.14,2.2,.14,3.43,.14v-116.73h-3.43Z"/><path class="cls-19" d="M6557.94,2817.99v114.39c1.1,0,2.2,0,3.43,.14v-114.53h-3.43Z"/><path class="cls-19" d="M6515.78,2817.99v111.51c1.1,0,2.2,.14,3.43,.27v-111.78h-3.43Z"/><path class="cls-19" d="M6473.76,2817.99v107.94c1.1,.14,2.34,.28,3.43,.28v-108.21h-3.43Z"/><path class="cls-19" d="M6435.17,2817.99v103.82c1.1,.14,2.2,.27,3.43,.41v-104.23h-3.43Z"/><path class="cls-19" d="M6386.15,2817.99v96.13c1.1,.14,2.34,.41,3.43,.69v-96.82h-3.43Z"/></g></g><path class="cls-11" d="M6350.43,2828.49c-25.31,62.68,1060.87,62.68,1035.48-.01,25.31-62.67-1060.86-62.67-1035.48,.01Z"/><path class="cls-31" d="M6399.74,2829.66c-23.48,47.71,960.41,47.71,936.86-.01,23.48-47.69-960.41-47.69-936.86,.01Z"/></g><g><path class="cls-15" d="M6273.31,2751.29v70.31c0,5.36,12.63,10.57,35.7,15.38,153.1,24.99,313.88,24.33,469.65,26.51,165.96-2.03,337.18,.17,500.27-27.88,19.36-4.4,29.8-9.07,29.8-14.01v-70.31h-1035.42Z"/><g><g><path class="cls-19" d="M7275.5,2751.29v85.14c1.24-.27,2.34-.55,3.43-.82v-84.32h-3.43Z"/><path class="cls-19" d="M7233.48,2751.29v92.01c1.24,0,2.33-.28,3.43-.41v-91.59h-3.43Z"/><path class="cls-19" d="M7191.32,2751.29v96.81c1.24,0,2.34-.14,3.43-.27v-96.54h-3.43Z"/><path class="cls-19" d="M7149.3,2751.29v100.52c1.1,0,2.34-.14,3.43-.28v-100.24h-3.43Z"/><path class="cls-19" d="M7107.14,2740.86v113.98c1.1-.14,2.33-.14,3.43-.14v-113.84h-3.43Z"/><path class="cls-19" d="M7065.12,2740.86v116.31c1.1,0,2.34-.14,3.43-.14v-116.18h-3.43Z"/><path class="cls-19" d="M7023.09,2740.86v118.23c1.24-.14,2.34-.14,3.43-.14v-118.1h-3.43Z"/><path class="cls-19" d="M6980.94,2740.86v119.75c1.1,0,2.33-.14,3.43-.14v-119.61h-3.43Z"/><path class="cls-19" d="M6938.92,2740.86v120.84c1.1,0,2.34,0,3.43-.14v-120.71h-3.43Z"/><path class="cls-19" d="M6896.89,2740.86v121.81c1.1,0,2.34-.14,3.43-.14v-121.67h-3.43Z"/><path class="cls-19" d="M6854.74,2740.86v122.22c1.1,.14,2.33,.14,3.43,0v-122.22h-3.43Z"/></g><g><path class="cls-19" d="M6817.38,2740.86v122.49c1.1,.14,2.33,.14,3.43,0v-122.49h-3.43Z"/><path class="cls-19" d="M6775.36,2740.86v122.49c1.1,.14,2.2,.14,3.3,.14v-122.63h-3.3Z"/><rect class="cls-19" x="6733.2" y="2740.86" width="3.43" height="122.36"/><path class="cls-19" d="M6691.18,2740.86v121.81c1.1,0,2.2,.14,3.43,.14v-121.95h-3.43Z"/><path class="cls-19" d="M6649.03,2740.86v120.98c1.1,.14,2.33,.14,3.43,.14v-121.12h-3.43Z"/><path class="cls-19" d="M6607,2740.86v119.88c1.1,.14,2.33,.14,3.43,.14v-120.02h-3.43Z"/><path class="cls-19" d="M6564.98,2740.86v118.51c1.1,0,2.33,0,3.43,.14v-118.65h-3.43Z"/><path class="cls-19" d="M6522.82,2740.86v116.59c1.1,.14,2.2,.14,3.44,.14v-116.73h-3.44Z"/><path class="cls-19" d="M6480.8,2740.86v114.39c1.1,0,2.2,0,3.43,.14v-114.53h-3.43Z"/><path class="cls-19" d="M6438.65,2740.86v111.51c1.1,0,2.2,.14,3.43,.28v-111.78h-3.43Z"/><path class="cls-19" d="M6396.63,2740.86v107.94c1.1,.14,2.33,.27,3.43,.27v-108.21h-3.43Z"/><path class="cls-19" d="M6358.04,2740.86v103.82c1.1,.14,2.2,.28,3.43,.41v-104.23h-3.43Z"/><path class="cls-19" d="M6309.01,2740.86v96.13c1.1,.14,2.34,.41,3.43,.69v-96.81h-3.43Z"/></g></g><path class="cls-9" d="M6273.3,2751.36c-25.31,62.69,1060.87,62.69,1035.48-.01,25.31-62.67-1060.86-62.67-1035.48,.01Z"/><path class="cls-31" d="M6322.61,2752.53c-23.48,47.71,960.41,47.71,936.86-.01,23.48-47.7-960.41-47.7-936.86,.01Z"/></g><g><path class="cls-15" d="M6273.31,2665.98v70.31c0,5.36,12.63,10.58,35.7,15.38,153.1,24.99,313.88,24.33,469.65,26.51,165.96-2.03,337.18,.17,500.27-27.87,19.36-4.4,29.8-9.07,29.8-14.01v-70.31h-1035.42Z"/><g><g><path class="cls-19" d="M7275.5,2665.98v85.14c1.24-.27,2.34-.55,3.43-.82v-84.32h-3.43Z"/><path class="cls-19" d="M7233.48,2665.98v92.01c1.24,0,2.33-.27,3.43-.41v-91.59h-3.43Z"/><path class="cls-19" d="M7191.32,2665.98v96.81c1.24,0,2.34-.14,3.43-.27v-96.54h-3.43Z"/><path class="cls-19" d="M7149.3,2665.98v100.52c1.1,0,2.34-.14,3.43-.27v-100.25h-3.43Z"/><path class="cls-19" d="M7107.14,2655.54v113.98c1.1-.14,2.33-.14,3.43-.14v-113.84h-3.43Z"/><path class="cls-19" d="M7065.12,2655.54v116.31c1.1,0,2.34-.14,3.43-.14v-116.18h-3.43Z"/><path class="cls-19" d="M7023.09,2655.54v118.24c1.24-.14,2.34-.14,3.43-.14v-118.1h-3.43Z"/><path class="cls-19" d="M6980.94,2655.54v119.75c1.1,0,2.33-.14,3.43-.14v-119.61h-3.43Z"/><path class="cls-19" d="M6938.92,2655.54v120.84c1.1,0,2.34,0,3.43-.14v-120.71h-3.43Z"/><path class="cls-19" d="M6896.89,2655.54v121.81c1.1,0,2.34-.14,3.43-.14v-121.67h-3.43Z"/><path class="cls-19" d="M6854.74,2655.54v122.22c1.1,.14,2.33,.14,3.43,0v-122.22h-3.43Z"/></g><g><path class="cls-19" d="M6817.38,2655.54v122.49c1.1,.14,2.33,.14,3.43,0v-122.49h-3.43Z"/><path class="cls-19" d="M6775.36,2655.54v122.49c1.1,.14,2.2,.14,3.3,.14v-122.63h-3.3Z"/><rect class="cls-19" x="6733.2" y="2655.54" width="3.43" height="122.36"/><path class="cls-19" d="M6691.18,2655.54v121.81c1.1,0,2.2,.14,3.43,.14v-121.95h-3.43Z"/><path class="cls-19" d="M6649.03,2655.54v120.98c1.1,.14,2.33,.14,3.43,.14v-121.12h-3.43Z"/><path class="cls-19" d="M6607,2655.54v119.88c1.1,.14,2.33,.14,3.43,.14v-120.02h-3.43Z"/><path class="cls-19" d="M6564.98,2655.54v118.51c1.1,0,2.33,0,3.43,.14v-118.65h-3.43Z"/><path class="cls-19" d="M6522.82,2655.54v116.59c1.1,.14,2.2,.14,3.44,.14v-116.73h-3.44Z"/><path class="cls-19" d="M6480.8,2655.54v114.39c1.1,0,2.2,0,3.43,.14v-114.53h-3.43Z"/><path class="cls-19" d="M6438.65,2655.54v111.51c1.1,0,2.2,.14,3.43,.27v-111.78h-3.43Z"/><path class="cls-19" d="M6396.63,2655.54v107.94c1.1,.14,2.33,.28,3.43,.28v-108.21h-3.43Z"/><path class="cls-19" d="M6358.04,2655.54v103.82c1.1,.14,2.2,.27,3.43,.41v-104.23h-3.43Z"/><path class="cls-19" d="M6309.01,2655.54v96.13c1.1,.14,2.34,.41,3.43,.69v-96.82h-3.43Z"/></g></g><path class="cls-7" d="M6273.3,2666.04c-25.31,62.68,1060.87,62.68,1035.48-.01,25.31-62.67-1060.86-62.67-1035.48,.01Z"/><path class="cls-31" d="M6322.61,2667.21c-23.48,47.71,960.41,47.71,936.86-.01,23.48-47.7-960.41-47.7-936.86,.01Z"/></g><g><g><rect class="cls-21" x="1039.57" y="1846.85" width="167.15" height="160.29" transform="translate(2246.28 3854) rotate(180)"/><rect class="cls-21" x="842.22" y="1946.72" width="167.15" height="160.29" transform="translate(1851.58 4053.73) rotate(180)"/><rect class="cls-21" x="1206.78" y="1526.28" width="167.15" height="160.29" transform="translate(2580.7 3212.84) rotate(180)"/><rect class="cls-21" x="7099.04" y="1836.1" width="167.15" height="160.29" transform="translate(14365.23 3832.49) rotate(180)"/><rect class="cls-21" x="6931.91" y="1675.15" width="167.15" height="160.29" transform="translate(14030.97 3510.58) rotate(180)"/><path class="cls-21" d="M4771.43,3196.15v81.9h-1177.05v-81.9h439.96v-443.78l-460.92-805.65h321.88l287.6,495.2,287.6-495.2h321.88l-460.91,805.65v443.78h439.96Z"/><polygon class="cls-21" points="7165.5 2203.85 7165.5 2103.33 7003.47 2103.33 7003.47 1946.72 6114.15 1946.72 6114.15 2203.85 6491.27 2203.85 6491.27 3196.15 6060.82 3196.15 6060.82 3278.05 7218.83 3278.05 7218.83 3196.15 6788.38 3196.15 6788.38 2203.85 7165.5 2203.85"/><path class="cls-21" d="M1977.36,3196.15c69.82-40.62,132.67-93.33,188.56-158.09l-190.46-196.17c-92.69,115.56-212.06,173.32-358.06,173.32-106.66,0-197.45-37.44-272.36-112.37-74.93-74.91-112.37-174.28-112.37-298.07s39.67-222.19,119.04-295.22c79.33-73,174.9-109.51,286.64-109.51,139.66,0,256.48,58.41,350.45,175.23l184.74-209.51c-147.3-166.33-330.14-249.51-548.53-249.51-87.48,0-168.88,13.32-244.29,39.76v86.97h164.44v160.29h-167.15v-157.58h-159.03v157.58h-167.15v-.11c-83.75,114.57-125.81,248.71-125.81,402.56,0,129.51,28.87,245.4,86.66,347.59,57.77,102.22,137.42,183.18,239.02,242.84h-409.49v81.9h1401.8v-81.9h-266.65Z"/><path class="cls-21" d="M5232.35,3196.15v-289.5h177.13c196.78,0,343.11-38.09,438.99-114.28s143.82-196.47,143.82-360.93-46.67-286.32-139.99-365.69c-93.34-79.33-242.24-119.04-446.66-119.04h-95.32v255.22h91.51c97.77,0,169.81,16.2,216.19,48.57,46.32,32.38,69.51,86.98,69.51,163.79s-17.79,135.22-53.31,175.23c-35.58,39.99-102.87,59.99-201.91,59.99h-199.97v-344.5h-297.14v891.12h-184.74v81.9h1310.38v-81.9h-828.5Z"/><g><polygon class="cls-21" points="2407.8 3196.15 2223.04 3196.15 2223.04 3278.05 2704.91 3278.05 2704.91 2954.9 2407.8 2954.9 2407.8 3196.15"/><path class="cls-21" d="M3512.48,3196.15l-278.08-394.26c168.86-62.19,253.32-199.98,253.32-413.29,0-154.9-44.13-267.27-132.37-337.12-88.27-69.82-235.87-104.76-442.82-104.76h-504.72v613.39h297.11v-358.17h222.84c95.23,0,161.89,13.34,199.99,40,38.09,26.66,57.13,75.88,57.13,147.6s-18.42,124.13-55.23,157.14c-36.85,33.03-106.04,49.52-207.6,49.52h-203.96v257.12h192.53l295.22,424.72h485.67v-81.9h-179.03Z"/></g><g><path class="cls-21" d="M8755.83,3196.15v81.9h-1573.22v-81.9h424.72c-104.13-59.67-186.35-141.56-246.64-245.69-60.33-104.1-90.48-219.66-90.48-346.65,0-195.53,67.29-359.02,201.9-490.44,134.57-131.42,300.27-197.13,497.11-197.13s362.5,65.71,497.11,197.13c134.57,131.42,201.88,294.91,201.88,490.44,0,126.99-30.48,242.55-91.41,346.65-60.95,104.13-142.85,186.02-245.7,245.69h424.74Zm-390.44-591.38c0-118.72-38.1-219.99-114.29-303.8-76.17-83.8-169.83-125.71-280.93-125.71s-204.74,41.91-280.93,125.71c-76.17,83.8-114.27,185.08-114.27,303.8s38.1,219.68,114.27,302.82c76.19,83.18,169.81,124.76,280.93,124.76s204.76-41.58,280.93-124.76c76.19-83.14,114.29-184.08,114.29-302.82Z"/><g class="cls-1"><path class="cls-21" d="M8755.83,3196.15v81.9h-1573.22v-81.9h424.72c-104.13-59.67-186.35-141.56-246.64-245.69-60.33-104.1-90.48-219.66-90.48-346.65,0-195.53,67.29-359.02,201.9-490.44,134.57-131.42,300.27-197.13,497.11-197.13s362.5,65.71,497.11,197.13c134.57,131.42,201.88,294.91,201.88,490.44,0,126.99-30.48,242.55-91.41,346.65-60.95,104.13-142.85,186.02-245.7,245.69h424.74Zm-390.44-591.38c0-118.72-38.1-219.99-114.29-303.8-76.17-83.8-169.83-125.71-280.93-125.71s-204.74,41.91-280.93,125.71c-76.17,83.8-114.27,185.08-114.27,303.8s38.1,219.68,114.27,302.82c76.19,83.18,169.81,124.76,280.93,124.76s204.76-41.58,280.93-124.76c76.19-83.14,114.29-184.08,114.29-302.82Z"/><g><polyline class="cls-21" points="7263.07 2692.59 7389.77 2610.64 7389.77 2345.79"/><path class="cls-21" d="M7537.43,2755.28c32.56,0,32.62-50.6,0-50.6s-32.61,50.6,0,50.6h0Z"/><path class="cls-21" d="M7388.99,2367.33c32.56,0,32.61-50.6,0-50.6s-32.61,50.6,0,50.6h0Z"/><path class="cls-21" d="M7444.65,2821.07c32.56,0,32.61-50.6,0-50.6s-32.61,50.6,0,50.6h0Z"/></g></g></g></g><g><rect class="cls-22" x="984.28" y="1846.85" width="167.15" height="160.29" transform="translate(2135.72 3854) rotate(180)"/><rect class="cls-22" x="786.94" y="1946.72" width="167.15" height="160.29" transform="translate(1741.02 4053.73) rotate(180)"/><rect class="cls-22" x="1151.5" y="1526.28" width="167.15" height="160.29" transform="translate(2470.14 3212.84) rotate(180)"/><rect class="cls-22" x="7043.76" y="1836.1" width="167.15" height="160.29" transform="translate(14254.67 3832.49) rotate(180)"/><rect class="cls-22" x="6876.63" y="1675.15" width="167.15" height="160.29" transform="translate(13920.4 3510.58) rotate(180)"/><path class="cls-22" d="M4716.14,3196.15v81.9h-1177.05v-81.9h439.96v-443.78l-460.92-805.65h321.88l287.6,495.2,287.6-495.2h321.88l-460.91,805.65v443.78h439.96Z"/><polygon class="cls-22" points="7110.22 2203.85 7110.22 2103.33 6948.18 2103.33 6948.18 1946.72 6058.86 1946.72 6058.86 2203.85 6435.99 2203.85 6435.99 3196.15 6005.54 3196.15 6005.54 3278.05 7163.55 3278.05 7163.55 3196.15 6733.1 3196.15 6733.1 2203.85 7110.22 2203.85"/><path class="cls-22" d="M1922.08,3196.15c69.82-40.62,132.67-93.33,188.56-158.09l-190.46-196.17c-92.69,115.56-212.06,173.32-358.06,173.32-106.66,0-197.45-37.44-272.36-112.37-74.93-74.91-112.37-174.28-112.37-298.07s39.67-222.19,119.04-295.22c79.33-73,174.9-109.51,286.64-109.51,139.66,0,256.48,58.41,350.45,175.23l184.74-209.51c-147.3-166.33-330.14-249.51-548.53-249.51-87.48,0-168.88,13.32-244.29,39.76v86.97h164.44v160.29h-167.15v-157.58h-159.03v157.58h-167.15v-.11c-83.75,114.57-125.81,248.71-125.81,402.56,0,129.51,28.87,245.4,86.66,347.59,57.77,102.22,137.42,183.18,239.02,242.84h-409.49v81.9h1401.8v-81.9h-266.65Z"/><path class="cls-22" d="M5177.06,3196.15v-289.5h177.13c196.78,0,343.11-38.09,438.99-114.28,95.88-76.19,143.82-196.47,143.82-360.93s-46.67-286.32-139.99-365.69c-93.34-79.33-242.24-119.04-446.66-119.04h-95.32v255.22h91.51c97.77,0,169.81,16.2,216.19,48.57,46.32,32.38,69.51,86.98,69.51,163.79s-17.79,135.22-53.31,175.23c-35.58,39.99-102.87,59.99-201.91,59.99h-199.97v-344.5h-297.14v891.12h-184.74v81.9h1310.38v-81.9h-828.5Z"/><g><polygon class="cls-22" points="2352.51 3196.15 2167.76 3196.15 2167.76 3278.05 2649.63 3278.05 2649.63 2954.9 2352.51 2954.9 2352.51 3196.15"/><path class="cls-22" d="M3457.2,3196.15l-278.08-394.26c168.86-62.19,253.32-199.98,253.32-413.29,0-154.9-44.13-267.27-132.37-337.12-88.27-69.82-235.87-104.76-442.82-104.76h-504.72v613.39h297.11v-358.17h222.84c95.23,0,161.89,13.34,199.99,40,38.09,26.66,57.13,75.88,57.13,147.6s-18.42,124.13-55.23,157.14c-36.85,33.03-106.04,49.52-207.6,49.52h-203.96v257.12h192.53l295.22,424.72h485.67v-81.9h-179.03Z"/></g><g><path class="cls-22" d="M8700.55,3196.15v81.9h-1573.22v-81.9h424.72c-104.13-59.67-186.35-141.56-246.64-245.69-60.33-104.1-90.48-219.66-90.48-346.65,0-195.53,67.29-359.02,201.9-490.44,134.57-131.42,300.27-197.13,497.11-197.13s362.5,65.71,497.11,197.13c134.57,131.42,201.88,294.91,201.88,490.44,0,126.99-30.48,242.55-91.41,346.65-60.95,104.13-142.85,186.02-245.7,245.69h424.74Zm-390.44-591.38c0-118.72-38.1-219.99-114.29-303.8-76.17-83.8-169.83-125.71-280.93-125.71s-204.74,41.91-280.93,125.71c-76.17,83.8-114.27,185.08-114.27,303.8s38.1,219.68,114.27,302.82c76.19,83.18,169.81,124.76,280.93,124.76s204.76-41.58,280.93-124.76c76.19-83.14,114.29-184.08,114.29-302.82Z"/><g class="cls-26"><path class="cls-22" d="M8700.55,3196.15v81.9h-1573.22v-81.9h424.72c-104.13-59.67-186.35-141.56-246.64-245.69-60.33-104.1-90.48-219.66-90.48-346.65,0-195.53,67.29-359.02,201.9-490.44,134.57-131.42,300.27-197.13,497.11-197.13s362.5,65.71,497.11,197.13c134.57,131.42,201.88,294.91,201.88,490.44,0,126.99-30.48,242.55-91.41,346.65-60.95,104.13-142.85,186.02-245.7,245.69h424.74Zm-390.44-591.38c0-118.72-38.1-219.99-114.29-303.8-76.17-83.8-169.83-125.71-280.93-125.71s-204.74,41.91-280.93,125.71c-76.17,83.8-114.27,185.08-114.27,303.8s38.1,219.68,114.27,302.82c76.19,83.18,169.81,124.76,280.93,124.76s204.76-41.58,280.93-124.76c76.19-83.14,114.29-184.08,114.29-302.82Z"/><g><polyline class="cls-23" points="7207.79 2692.59 7334.49 2610.64 7334.49 2345.79"/><line class="cls-23" x1="7218.43" y1="2729.56" x2="7480.4" y2="2729.56"/><line class="cls-23" x1="7232.44" y1="2792.82" x2="7387.96" y2="2792.82"/><path class="cls-22" d="M7482.14,2755.28c32.56,0,32.62-50.6,0-50.6s-32.61,50.6,0,50.6h0Z"/><path class="cls-22" d="M7333.71,2367.33c32.56,0,32.61-50.6,0-50.6s-32.61,50.6,0,50.6h0Z"/><path class="cls-22" d="M7389.37,2821.07c32.56,0,32.61-50.6,0-50.6s-32.61,50.6,0,50.6h0Z"/></g></g></g></g><g><path class="cls-17" d="M2424.18,2704.6c0,9-3.17,16.63-9.5,22.89-6.33,6.26-13.93,9.4-22.78,9.4s-16.64-3.16-22.94-9.46c-6.29-6.3-9.45-13.91-9.45-22.83v-73.86c0-9,3.17-16.64,9.5-22.94,6.34-6.3,13.97-9.44,22.89-9.44s16.63,3.16,22.89,9.5c6.26,6.32,9.39,13.96,9.39,22.88v73.86Zm-21.16-74.29c0-3.24-1.15-6-3.45-8.31-2.31-2.3-5.08-3.44-8.31-3.44s-5.99,1.14-8.26,3.44c-2.26,2.31-3.4,5.08-3.4,8.31v73.96c0,3.24,1.14,6.01,3.4,8.31,2.27,2.3,5.02,3.46,8.26,3.46s6-1.16,8.31-3.46c2.3-2.3,3.45-5.08,3.45-8.31v-73.96Z"/><path class="cls-17" d="M2506.45,2704.6c0,9-3.17,16.63-9.5,22.89-6.33,6.26-13.93,9.4-22.78,9.4s-16.64-3.16-22.94-9.46c-6.3-6.3-9.45-13.91-9.45-22.83v-73.86c0-9,3.17-16.64,9.5-22.94,6.34-6.3,13.97-9.44,22.89-9.44s16.63,3.16,22.89,9.5c6.26,6.32,9.39,13.96,9.39,22.88v73.86Zm-21.16-74.29c0-3.24-1.15-6-3.45-8.31-2.31-2.3-5.08-3.44-8.31-3.44s-5.99,1.14-8.26,3.44c-2.26,2.31-3.4,5.08-3.4,8.31v73.96c0,3.24,1.14,6.01,3.4,8.31,2.27,2.3,5.02,3.46,8.26,3.46s6.01-1.16,8.31-3.46c2.3-2.3,3.45-5.08,3.45-8.31v-73.96Z"/><path class="cls-17" d="M2540.34,2735.48v-104.19h-17.38v-14.25c4.9-.58,9.56-2.44,13.99-5.57,4.43-3.13,7.62-6.92,9.55-11.39h14.25v135.4h-20.41Z"/><path class="cls-17" d="M2643.35,2704.6c0,9-3.17,16.63-9.5,22.89-6.33,6.26-13.93,9.4-22.78,9.4s-16.64-3.16-22.94-9.46c-6.3-6.3-9.45-13.91-9.45-22.83v-73.86c0-9,3.17-16.64,9.5-22.94,6.34-6.3,13.97-9.44,22.89-9.44s16.63,3.16,22.89,9.5c6.26,6.32,9.39,13.96,9.39,22.88v73.86Zm-21.16-74.29c0-3.24-1.15-6-3.45-8.31-2.31-2.3-5.08-3.44-8.31-3.44s-5.99,1.14-8.26,3.44c-2.26,2.31-3.4,5.08-3.4,8.31v73.96c0,3.24,1.14,6.01,3.4,8.31,2.27,2.3,5.02,3.46,8.26,3.46s6-1.16,8.31-3.46c2.3-2.3,3.45-5.08,3.45-8.31v-73.96Z"/><path class="cls-17" d="M2376.88,2917.91v-104.19h-17.38v-14.25c4.9-.58,9.56-2.44,13.98-5.57,4.42-3.13,7.62-6.92,9.55-11.39h14.25v135.4h-20.41Z"/><path class="cls-17" d="M2479.89,2887.03c0,9-3.17,16.63-9.5,22.89-6.33,6.26-13.93,9.4-22.78,9.4s-16.64-3.16-22.94-9.46c-6.29-6.3-9.45-13.91-9.45-22.83v-73.86c0-9,3.17-16.64,9.5-22.94,6.34-6.3,13.97-9.44,22.89-9.44s16.63,3.16,22.89,9.5c6.26,6.32,9.39,13.96,9.39,22.88v73.86Zm-21.16-74.29c0-3.24-1.15-6-3.45-8.31-2.31-2.3-5.08-3.44-8.31-3.44s-5.99,1.14-8.26,3.44c-2.26,2.31-3.4,5.08-3.4,8.31v73.96c0,3.24,1.14,6.01,3.4,8.31,2.27,2.3,5.02,3.46,8.26,3.46s6.01-1.16,8.31-3.46c2.3-2.3,3.45-5.08,3.45-8.31v-73.96Z"/><path class="cls-17" d="M2562.16,2887.03c0,9-3.17,16.63-9.5,22.89-6.33,6.26-13.93,9.4-22.78,9.4s-16.64-3.16-22.94-9.46c-6.3-6.3-9.45-13.91-9.45-22.83v-73.86c0-9,3.17-16.64,9.5-22.94,6.34-6.3,13.97-9.44,22.89-9.44s16.63,3.16,22.89,9.5c6.26,6.32,9.39,13.96,9.39,22.88v73.86Zm-21.16-74.29c0-3.24-1.15-6-3.45-8.31-2.31-2.3-5.08-3.44-8.31-3.44s-5.99,1.14-8.26,3.44c-2.26,2.31-3.4,5.08-3.4,8.31v73.96c0,3.24,1.14,6.01,3.4,8.31,2.27,2.3,5.02,3.46,8.26,3.46s6.01-1.16,8.31-3.46c2.3-2.3,3.45-5.08,3.45-8.31v-73.96Z"/><path class="cls-17" d="M2596.06,2917.91v-104.19h-17.38v-14.25c4.9-.58,9.56-2.44,13.98-5.57,4.42-3.13,7.62-6.92,9.55-11.39h14.25v135.4h-20.41Z"/></g><g><path class="cls-17" d="M4958.64,2065.58c0,9-3.17,16.63-9.5,22.89-6.33,6.26-13.93,9.4-22.78,9.4s-16.64-3.16-22.94-9.46c-6.3-6.29-9.45-13.91-9.45-22.83v-73.86c0-9,3.17-16.64,9.5-22.94,6.34-6.3,13.97-9.44,22.89-9.44s16.63,3.16,22.89,9.5c6.26,6.32,9.39,13.95,9.39,22.88v73.86Zm-21.16-74.29c0-3.24-1.15-6-3.45-8.31-2.31-2.3-5.08-3.44-8.31-3.44s-5.99,1.14-8.26,3.44c-2.26,2.32-3.4,5.08-3.4,8.31v73.96c0,3.24,1.14,6.01,3.4,8.31,2.27,2.3,5.02,3.46,8.26,3.46s6.01-1.16,8.31-3.46c2.3-2.3,3.45-5.08,3.45-8.31v-73.96Z"/><path class="cls-17" d="M5040.9,2065.58c0,9-3.17,16.63-9.5,22.89-6.33,6.26-13.93,9.4-22.78,9.4s-16.64-3.16-22.94-9.46c-6.29-6.29-9.45-13.91-9.45-22.83v-73.86c0-9,3.17-16.64,9.5-22.94,6.34-6.3,13.97-9.44,22.89-9.44s16.63,3.16,22.89,9.5c6.26,6.32,9.39,13.95,9.39,22.88v73.86Zm-21.16-74.29c0-3.24-1.15-6-3.45-8.31-2.31-2.3-5.08-3.44-8.31-3.44s-5.99,1.14-8.26,3.44c-2.26,2.32-3.4,5.08-3.4,8.31v73.96c0,3.24,1.14,6.01,3.4,8.31,2.27,2.3,5.02,3.46,8.26,3.46s6-1.16,8.31-3.46c2.3-2.3,3.45-5.08,3.45-8.31v-73.96Z"/><path class="cls-17" d="M5074.8,2096.46v-104.19h-17.38v-14.25c4.9-.58,9.56-2.43,13.98-5.57,4.42-3.13,7.62-6.92,9.55-11.39h14.25v135.4h-20.41Z"/><path class="cls-17" d="M5177.81,2065.58c0,9-3.17,16.63-9.5,22.89-6.33,6.26-13.93,9.4-22.78,9.4s-16.64-3.16-22.94-9.46c-6.3-6.29-9.45-13.91-9.45-22.83v-73.86c0-9,3.17-16.64,9.5-22.94,6.34-6.3,13.97-9.44,22.89-9.44s16.63,3.16,22.89,9.5c6.26,6.32,9.39,13.95,9.39,22.88v73.86Zm-21.16-74.29c0-3.24-1.15-6-3.45-8.31-2.31-2.3-5.08-3.44-8.31-3.44s-5.99,1.14-8.26,3.44c-2.26,2.32-3.4,5.08-3.4,8.31v73.96c0,3.24,1.14,6.01,3.4,8.31,2.27,2.3,5.02,3.46,8.26,3.46s6-1.16,8.31-3.46c2.3-2.3,3.45-5.08,3.45-8.31v-73.96Z"/><path class="cls-17" d="M4911.34,2278.89v-104.19h-17.38v-14.25c4.9-.58,9.56-2.43,13.98-5.57,4.43-3.13,7.62-6.92,9.55-11.39h14.25v135.4h-20.41Z"/><path class="cls-17" d="M5014.35,2248.01c0,9-3.17,16.63-9.5,22.89-6.33,6.26-13.93,9.4-22.78,9.4s-16.64-3.16-22.94-9.46c-6.3-6.29-9.45-13.91-9.45-22.83v-73.86c0-9,3.17-16.64,9.5-22.94,6.34-6.3,13.97-9.44,22.89-9.44s16.63,3.16,22.89,9.5c6.26,6.32,9.39,13.95,9.39,22.88v73.86Zm-21.16-74.29c0-3.24-1.15-6-3.45-8.31-2.31-2.3-5.08-3.44-8.31-3.44s-5.99,1.14-8.26,3.44c-2.26,2.32-3.4,5.08-3.4,8.31v73.96c0,3.24,1.14,6.01,3.4,8.31,2.27,2.3,5.02,3.46,8.26,3.46s6.01-1.16,8.31-3.46c2.3-2.3,3.45-5.08,3.45-8.31v-73.96Z"/><path class="cls-17" d="M5096.61,2248.01c0,9-3.17,16.63-9.5,22.89-6.33,6.26-13.93,9.4-22.78,9.4s-16.64-3.16-22.95-9.46c-6.29-6.29-9.45-13.91-9.45-22.83v-73.86c0-9,3.17-16.64,9.5-22.94,6.34-6.3,13.97-9.44,22.89-9.44s16.63,3.16,22.89,9.5c6.26,6.32,9.39,13.95,9.39,22.88v73.86Zm-21.16-74.29c0-3.24-1.15-6-3.45-8.31-2.31-2.3-5.08-3.44-8.31-3.44s-5.99,1.14-8.26,3.44c-2.26,2.32-3.4,5.08-3.4,8.31v73.96c0,3.24,1.14,6.01,3.4,8.31,2.27,2.3,5.02,3.46,8.26,3.46s6-1.16,8.31-3.46c2.3-2.3,3.45-5.08,3.45-8.31v-73.96Z"/><path class="cls-17" d="M5130.52,2278.89v-104.19h-17.38v-14.25c4.9-.58,9.56-2.43,13.98-5.57,4.42-3.13,7.62-6.92,9.55-11.39h14.25v135.4h-20.41Z"/><path class="cls-17" d="M5209,2096.31v-104.19h-17.38v-14.25c4.9-.58,9.56-2.44,13.99-5.57,4.42-3.13,7.62-6.92,9.55-11.39h14.25v135.4h-20.41Z"/></g><g><polyline class="cls-30" points="4160.82 3284.05 4160.82 2574.66 4012.8 2574.66"/><polyline class="cls-30" points="4196.87 3284.05 4196.87 2654.76 4256.33 2593.4 4256.33 2432.73"/><line class="cls-30" x1="4124.13" y1="3284.05" x2="4124.13" y2="2778.1"/><path class="cls-17" d="M4255.7,2448.55c32.56,0,32.61-50.6,0-50.6s-32.61,50.6,0,50.6h0Z"/><path class="cls-17" d="M3999.52,2597.19c32.56,0,32.61-50.6,0-50.6s-32.61,50.6,0,50.6h0Z"/><path class="cls-17" d="M4124.13,2793.92c32.56,0,32.61-50.6,0-50.6s-32.61,50.6,0,50.6h0Z"/></g><g><line class="cls-30" x1="5026.03" y1="2305.03" x2="5026.03" y2="3278.05"/><polyline class="cls-30" points="5026.03 2795.17 5085.07 2734.45 5085.07 2635.22"/><line class="cls-30" x1="4980.49" y1="3278.05" x2="4980.49" y2="2739.51"/><path class="cls-17" d="M4978.8,2758.06c32.56,0,32.61-50.6,0-50.6s-32.61,50.6,0,50.6h0Z"/><path class="cls-17" d="M5085.07,2654.33c32.56,0,32.61-50.6,0-50.6s-32.62,50.6,0,50.6h0Z"/></g><g><polyline class="cls-30" points="2493.35 2560.05 2493.35 2271.11 2421.24 2197.74 2421.24 2045.93"/><line class="cls-30" x1="2530.88" y1="2560.05" x2="2535.1" y2="2167.38"/><line class="cls-30" x1="2442.32" y1="2560.05" x2="2442.32" y2="2372.32"/><polyline class="cls-30" points="2590.76 2560.05 2590.76 2384.97 2533.44 2321.71"/><path class="cls-17" d="M2534.25,2140.39c-32.56,0-32.61,50.6,0,50.6s32.61-50.6,0-50.6h0Z"/><path class="cls-17" d="M2440.64,2346.17c-32.56,0-32.61,50.6,0,50.6s32.61-50.6,0-50.6h0Z"/><path class="cls-17" d="M2421.24,2019.78c-32.56,0-32.61,50.6,0,50.6s32.62-50.6,0-50.6h0Z"/></g></g><g><g><path class="cls-15" d="M5986.83,1253.43c5.36,8.79,6.76,20.42,10.91,29.84l-2.4,1.5c-6.3,242.15-898.99,593.76-908.41,218.37l58.7-22.83c107.87-160.28,565.16-332.9,749.91-281.17l62.94-23.65,28.35,77.95Z"/><g><path class="cls-19" d="M5122.76,1517.41l49.28,130.06c-2.31-.9-4.7-1.97-7.08-3.04l-47.38-125.05,5.18-1.96Z"/><path class="cls-19" d="M5169.74,1499.61l61.58,162.53c-2.06-.21-4.17-.59-6.3-.97l-60.47-159.6,5.18-1.96Z"/><path class="cls-19" d="M5227.08,1477.88l71.2,187.92c-1.99-.04-3.98-.07-5.9,.06l-70.48-186.02,5.18-1.96Z"/><path class="cls-19" d="M5284.43,1456.16l77.81,205.37c-1.86,.31-3.78,.44-5.64,.75l-77.35-204.16,5.18-1.96Z"/><path class="cls-19" d="M5341.77,1434.43l82.52,217.81c-1.79,.48-3.65,.79-5.51,1.1l-82.2-216.94,5.18-1.96Z"/><path class="cls-19" d="M5399.12,1412.7l85.73,226.27c-1.79,.48-3.59,.96-5.38,1.45l-85.53-225.75,5.18-1.96Z"/><path class="cls-19" d="M5456.46,1390.98l87.7,231.45c-1.73,.66-3.52,1.14-5.31,1.62l-87.56-231.11,5.18-1.96Z"/><rect class="cls-19" x="5552.5" y="1362.16" width="5.73" height="249.72" transform="translate(-166.47 2064.84) rotate(-20.75)"/><path class="cls-19" d="M5571.15,1347.52l88.22,232.83c-1.66,.83-3.39,1.48-5.29,2.2l-88.28-233,5.35-2.03Z"/><path class="cls-19" d="M5628.49,1325.79l86.84,229.2c-1.67,.83-3.33,1.65-5.16,2.55l-87.04-229.72,5.36-2.03Z"/><path class="cls-19" d="M5685.84,1304.07l84.23,222.29c-1.77,1.07-3.37,2.07-5.03,2.89l-84.56-223.16,5.36-2.03Z"/><path class="cls-19" d="M5743.18,1282.34l80.3,211.93c-1.6,1-3.19,2-4.9,3.24l-80.76-213.14,5.35-2.03Z"/><path class="cls-19" d="M5800.52,1260.61l74.6,196.9c-1.46,1.35-3,2.52-4.7,3.76l-75.26-198.63,5.36-2.03Z"/><path class="cls-19" d="M5857.69,1238.95l66.69,176c-1.47,1.34-2.86,2.86-4.33,4.21l-67.54-178.25,5.18-1.96Z"/><path class="cls-19" d="M5915.04,1217.22l54.58,144.05c-1.27,1.86-2.54,3.73-3.87,5.42l-55.89-147.5,5.18-1.96Z"/></g><path class="cls-14" d="M5969.22,1194.95c89.95,216.69-801.84,554.53-877.94,332.62-89.94-216.66,801.85-554.51,877.94-332.62Z"/><path class="cls-31" d="M5935.41,1207.76c79.82,192.94-747.92,504.11-815.29,310.56-73.41-194.52,739.89-507.64,815.29-310.56Z"/></g><g><path class="cls-15" d="M4467.06,638.11c10.04,2.29,19.35,9.4,28.99,13l-.6,2.76c169.1,173.44-201.73,1058.32-477.26,803.19l24.59-57.98c-39.58-189.11,155.75-637.16,321.69-733.44l26.96-61.59,75.62,34.07Z"/><g><path class="cls-19" d="M4053.41,1441.36l127.56,55.42c-2.26,1.03-4.69,1.99-7.12,2.95l-122.65-53.29,2.21-5.08Z"/><path class="cls-19" d="M4073.43,1395.28l159.41,69.26c-1.59,1.33-3.33,2.58-5.09,3.83l-156.53-68.01,2.21-5.08Z"/><path class="cls-19" d="M4097.87,1339.04l184.31,80.08c-1.41,1.4-2.83,2.8-4.07,4.27l-182.45-79.27,2.21-5.08Z"/><path class="cls-19" d="M4122.31,1282.79l201.42,87.52c-1.08,1.55-2.32,3.02-3.4,4.57l-200.24-87,2.21-5.08Z"/><path class="cls-19" d="M4146.74,1226.55l213.62,92.82c-.91,1.62-1.98,3.17-3.05,4.71l-212.77-92.45,2.21-5.08Z"/><path class="cls-19" d="M4171.18,1170.31l221.92,96.42c-.91,1.62-1.81,3.24-2.72,4.86l-221.41-96.2,2.21-5.08Z"/><path class="cls-19" d="M4195.62,1114.07l227,98.63c-.73,1.69-1.64,3.32-2.54,4.94l-226.67-98.48,2.21-5.08Z"/><rect class="cls-19" x="4330.57" y="985.34" width="5.73" height="249.72" transform="translate(1588.33 4642.29) rotate(-66.52)"/><path class="cls-19" d="M4244.49,1001.58l228.36,99.22c-.57,1.77-1.3,3.46-2.11,5.32l-228.53-99.29,2.28-5.25Z"/><path class="cls-19" d="M4268.93,945.34l224.8,97.67c-.57,1.77-1.13,3.54-1.77,5.47l-225.31-97.89,2.28-5.25Z"/><path class="cls-19" d="M4293.36,889.09l218.03,94.73c-.47,2.01-.87,3.85-1.43,5.62l-218.88-95.1,2.28-5.25Z"/><path class="cls-19" d="M4317.8,832.85l207.86,90.31c-.4,1.84-.8,3.68-1.1,5.77l-209.05-90.83,2.28-5.25Z"/><path class="cls-19" d="M4342.24,776.61l193.12,83.91c-.06,1.99-.29,3.9-.59,5.99l-194.82-84.65,2.28-5.25Z"/><path class="cls-19" d="M4366.6,720.54l172.62,75c-.06,1.99,.05,4.05,0,6.04l-174.83-75.96,2.21-5.08Z"/><path class="cls-19" d="M4391.03,664.29l141.29,61.39c.45,2.21,.9,4.42,1.18,6.55l-144.67-62.86,2.21-5.08Z"/></g><path class="cls-3" d="M4412.88,609.94c218,86.72-162.06,961.35-374.15,861.07-217.98-86.71,162.09-961.34,374.15-861.07Z"/><path class="cls-31" d="M4398.47,643.09c193.92,77.41-160.57,887.54-346.25,800.79-190.58-83.1,152.44-884.25,346.25-800.79Z"/></g><g><path class="cls-15" d="M5664.8,639.81c-4.43,9.3-13.39,16.83-19.01,25.46l-2.57-1.19c-206.15,127.19-988.82-427.75-679.73-640.99l51.22,36.65c193.19,2.62,587.83,290.99,645.6,473.95l54.22,39.75-49.74,66.37Z"/><g><path class="cls-19" d="M4971.14,60.9l-81.92,112.4c-.52-2.43-.92-5.01-1.33-7.59l78.76-108.07,4.48,3.26Z"/><path class="cls-19" d="M5011.74,90.49l-102.37,140.46c-.95-1.84-1.79-3.82-2.63-5.8l100.52-137.92,4.48,3.26Z"/><path class="cls-19" d="M5061.3,126.61l-118.36,162.4c-1.06-1.69-2.11-3.37-3.28-4.91l117.17-160.76,4.48,3.26Z"/><path class="cls-19" d="M5110.85,162.73l-129.35,177.48c-1.28-1.39-2.44-2.92-3.72-4.31l128.59-176.44,4.48,3.27Z"/><path class="cls-19" d="M5160.41,198.84l-137.18,188.23c-1.38-1.24-2.66-2.62-3.93-4.01l136.64-187.48,4.48,3.26Z"/><path class="cls-19" d="M5209.97,234.96l-142.51,195.54c-1.38-1.24-2.77-2.47-4.15-3.71l142.19-195.09,4.48,3.27Z"/><path class="cls-19" d="M5259.53,271.08l-145.77,200.02c-1.49-1.09-2.88-2.32-4.26-3.56l145.56-199.72,4.48,3.26Z"/><rect class="cls-19" x="5108.37" y="403.55" width="249.72" height="5.73" transform="translate(1822.51 4396.26) rotate(-53.92)"/><path class="cls-19" d="M5358.64,343.32l-146.65,201.21c-1.6-.94-3.09-2.03-4.73-3.22l146.76-201.36,4.62,3.37Z"/><path class="cls-19" d="M5408.2,379.43l-144.36,198.08c-1.61-.94-3.2-1.88-4.95-2.92l144.69-198.53,4.63,3.37Z"/><path class="cls-19" d="M5457.76,415.55l-140.01,192.11c-1.86-.9-3.57-1.69-5.17-2.63l140.56-192.86,4.63,3.37Z"/><path class="cls-19" d="M5507.31,451.67l-133.48,183.15c-1.71-.79-3.42-1.58-5.39-2.33l134.24-184.2,4.63,3.37Z"/><path class="cls-19" d="M5556.87,487.79l-124.02,170.16c-1.93-.49-3.75-1.13-5.71-1.88l125.11-171.66,4.63,3.37Z"/><path class="cls-19" d="M5606.28,523.8l-110.85,152.11c-1.93-.49-3.96-.83-5.89-1.33l112.27-154.04,4.48,3.26Z"/><path class="cls-19" d="M5655.83,559.91l-90.73,124.49c-2.25-.04-4.51-.09-6.65-.28l92.9-127.47,4.48,3.26Z"/></g><path class="cls-4" d="M5704.12,593.09c-132.19,193.83-902.84-367.88-758.7-552.98,132.17-193.81,902.83,367.9,758.7,552.98Z"/><path class="cls-31" d="M5674.9,571.8c-117.85,172.36-831.13-350.32-705.97-512.6,122.67-167.87,829.7,341.68,705.97,512.6Z"/></g><g><path class="cls-15" d="M8935.45,3253.36c-9.32,5.68-21.63,7.16-31.61,11.56l-1.59-2.54c-256.51-6.67-628.96-952.31-231.31-962.28l24.18,62.18c169.79,114.27,352.63,598.68,297.84,794.38l25.05,66.67-82.57,30.03Z"/><g><path class="cls-19" d="M8655.83,2338.05l-137.77,52.2c.95-2.45,2.09-4.98,3.23-7.5l132.47-50.18,2.08,5.49Z"/><path class="cls-19" d="M8674.68,2387.81l-172.17,65.23c.22-2.18,.62-4.42,1.03-6.67l169.06-64.05,2.08,5.49Z"/><path class="cls-19" d="M8697.7,2448.56l-199.07,75.42c.04-2.11,.08-4.21-.07-6.25l197.05-74.66,2.08,5.49Z"/><path class="cls-19" d="M8720.71,2509.3l-217.55,82.42c-.33-1.97-.47-4-.8-5.97l216.26-81.94,2.08,5.49Z"/><path class="cls-19" d="M8743.73,2570.05l-230.72,87.41c-.51-1.9-.84-3.87-1.17-5.83l229.81-87.07,2.08,5.49Z"/><path class="cls-19" d="M8766.74,2630.8l-239.68,90.81c-.51-1.9-1.02-3.8-1.53-5.7l239.14-90.6,2.08,5.49Z"/><path class="cls-19" d="M8789.76,2691.54l-245.17,92.89c-.69-1.83-1.21-3.73-1.72-5.62l244.81-92.75,2.08,5.49Z"/><rect class="cls-19" x="8555.75" y="2793.28" width="264.53" height="6.07" transform="translate(-427.16 3259.58) rotate(-20.75)"/><path class="cls-19" d="M8835.78,2813.03l-246.64,93.45c-.88-1.76-1.57-3.59-2.33-5.6l246.82-93.52,2.15,5.67Z"/><path class="cls-19" d="M8858.8,2873.77l-242.79,91.99c-.88-1.76-1.75-3.52-2.7-5.46l243.34-92.2,2.15,5.67Z"/><path class="cls-19" d="M8881.81,2934.52l-235.48,89.22c-1.13-1.88-2.19-3.57-3.06-5.33l236.39-89.57,2.15,5.67Z"/><path class="cls-19" d="M8904.83,2995.26l-224.5,85.06c-1.06-1.69-2.12-3.38-3.43-5.19l225.78-85.54,2.15,5.67Z"/><path class="cls-19" d="M8927.85,3056.01l-208.58,79.03c-1.43-1.55-2.67-3.17-3.98-4.98l210.41-79.72,2.15,5.67Z"/><path class="cls-19" d="M8950.79,3116.57l-186.44,70.64c-1.42-1.55-3.03-3.03-4.46-4.59l188.82-71.54,2.08,5.49Z"/><path class="cls-19" d="M8973.8,3177.31l-152.59,57.82c-1.97-1.34-3.95-2.69-5.74-4.1l156.25-59.2,2.08,5.49Z"/></g><path class="cls-2" d="M8997.39,3234.71c-229.54,95.28-587.4-849.4-352.33-930.01,229.51-95.27,587.38,849.41,352.33,930.01Z"/><path class="cls-31" d="M8983.82,3198.9c-204.38,84.55-533.99-792.27-328.97-863.64,206.06-77.77,537.73,783.77,328.97,863.64Z"/></g></g><path class="cls-25" d="M8150.99,556.47c81.53,2.27,108.04,37.11,111.07,71.94,3.82,43.94-30.29,50.74-29.53,83.3,.76,32.56,40.59,59.82,30.9,110.56-9.69,50.74-37.71,72.7-37.71,72.7l-404.14,41.01s-18.63-76.5,13.62-128.75c32.25-52.25,109.22-51.37,132.29-136.41,26.5-97.69,89.36-164.33,183.51-114.35Z"/><path class="cls-16" d="M8116.41,846.51s152,.25,194.11,36.35c74.21,63.61,174.17,652.77,174.17,652.77h-789.07l146.91-230.21-24.23-427.1s23.73-45.44,298.11-31.81Z"/><path d="M8484.69,1535.62s-1.7-10.02-4.8-27.47c-101.1-19.01-556.53-113.19-678.4-138.43l-105.87,165.91h789.07Z"/><path class="cls-21" d="M8339.8,1503.82l45.11,124.19,35.66,300.89h-422.05c-129.24,0-377.92,0-377.92-170.08,0-151.45,109.34-255,109.34-255h609.85Z"/><polygon points="7910.94 1049.28 7842.54 1305.37 7832.21 1124.11 7910.94 1049.28"/><path class="cls-17" d="M8055.32,797.29s-65.12,35.59-94.66,66.64c-29.53,31.05,94.66,73.46,94.66,73.46,0,0-39.38,18.68,0,43.42,39.38,24.74,101.47,20.95,118.89,52.76,0,0,19.1-35.32,31.3-52.76,17.67-25.24,4.04-49.47-18.18-52.5,27.26-28.02,37.81-61.59,22.21-76.74-15.6-15.15-92.77-39.13-92.77-39.13l-61.47-15.15Z"/><line class="cls-28" x1="8281.74" y1="996.45" x2="8305.98" y2="1210.83"/><path class="cls-28" d="M8169.67,1007.05l6.94,60.74c3.4,29.75-.42,59.88-11.14,87.83l-145.74,380"/><rect class="cls-24" x="7832.24" y="1597.63" width="388.85" height="30.38"/><path class="cls-18" d="M7935.67,1503.82l253.68,17.42s107.53,31.81,116.62,65.13h-193.1l-201.88,26.5,24.68-109.05Z"/><g><polygon class="cls-21" points="8704.78 1628.01 8165.61 1628.01 8290.73 1117.11 8829.91 1117.11 8704.78 1628.01"/><polygon points="8139.48 1628.01 8177.58 1628.01 8302.7 1117.11 8264.6 1117.11 8139.48 1628.01"/><path d="M8577.78,1398.31h-172.66c-14.22,0-22.92-11.53-19.44-25.75h0c3.48-14.22,17.83-25.75,32.05-25.75h172.66c14.22,0,22.93,11.53,19.44,25.75h0c-3.48,14.22-17.83,25.75-32.05,25.75Z"/></g><path class="cls-18" d="M8259.03,1628.01c84.81,0,344.76-42.41,396.25,189.32,51.5,231.72,119.41,874.29,119.41,874.29l61.87,145,54.82,48.85c7.23,6.45,2.61,18.43-7.08,18.23-26.65-.55-69.86-6.88-110.4-36.79-58.71-43.31-61.59-97.94-61.59-97.94l.78,116.17-24,.95s-44.43-135.8,8.12-188.83c0,0-55.57-187.78-101.01-286.23-45.44-98.44-154.48-329.66-131.76-482.13h-139.34l-66.08-300.89Z"/><path d="M8648.91,1793.62c-63.54-204.95-308.1-165.61-389.88-165.61l66.08,300.89h139.34c-6.42,43.11-2.3,92.52,7.93,143.44-23.84-124.44,105.01-269.88,176.54-278.72Z"/><path d="M8713.11,2885.14l-.78-116.17s2.89,54.63,61.59,97.94c40.54,29.91,83.74,36.24,110.4,36.79,9.69,.2,14.31-11.79,7.08-18.23l-54.82-48.85-28.01-65.63-39.64,23.22c-17.42-26.14-59.27-64.7-81.47-84.36-36.6,59.19,1.66,176.24,1.66,176.24l24-.95Z"/><path class="cls-18" d="M8133.66,620.17s-14.98,44.59-52.34,64.79c0,0-8.58-20.7-26.25-16.16-17.67,4.54-24.11,48.59,12.75,53.14l-40.51,124.57s94.91,76.74,131.77,134.29c0,0,4.54-96.43-18.17-136.31l10.1-56.04s22.85-.25,34.96-18.43c12.12-18.18,3.91-48.72,9.47-67.4,5.55-18.68,10.1-35.34,10.1-35.34,0,0-49.85,.5-71.86-47.12Z"/><path d="M8150.99,788.45c-31.68,2.02-62.35-18.05-68.41-33.57,2.27,31.05,24.45,57.28,63.53,60.64l4.88-27.06Z"/><g><path class="cls-18" d="M8103.91,1650.67c-38.94,39.36-103.07,128.6-53.95,256.77,4.99,13.02,17.75,21.47,31.7,21.47h26.82s-45.34,137.32-45.34,323.1-26.91,365.1-70.68,436.19c-36.99,60.08-36.99,124.67-24.43,219.76h16.15l7.18-107.65s17.84,61,53.78,93.3c35.93,32.3,104.11,55.62,109.5,48.44,5.38-7.18-44.85-84.33-44.85-84.33l-28.71-157.89s139.95-389.34,191.98-536.46c52.03-147.13,94.31-293.97,111.86-352.09,24.55-81.28-21.39-183.26-122.86-183.26h-103.85c-20.42,0-39.93,8.13-54.3,22.65Z"/><path class="cls-28" d="M8108.49,1928.9c27.36-82.79,87.94-154.48,87.94-154.48"/><path d="M8042.72,1749.41c-13.8,42.84-16.66,96.23,7.58,158.9,4.82,12.47,17.02,20.59,30.39,20.59h27.79c26.01-70.76,57.12-112.65,57.12-112.65-62.74-17.15-101.58-46.11-122.89-66.84Z"/></g><path d="M8097.06,2787.75l-51.08,10.5c-21.47-19.88-46-80.3-55.48-106.63-34.92,59.12-34.78,123.04-22.46,216.34h16.15l7.18-107.65s17.84,61,53.78,93.3c35.93,32.3,104.11,55.62,109.5,48.44,5.38-7.18-44.85-84.33-44.85-84.33l-12.72-69.96Z"/><path class="cls-16" d="M7818.19,878.27c-92.8,97.7-641.72,651.35-358.75,751.31,149.95,52.97,466.48,13.51,466.48,13.51l24.19-151.46-282.88-34.76,243.69-407.59s-13.98-133.16-92.74-171.01Z"/><path d="M7667.24,1456.87l-126.06-13.6s72.38-47.47,126.06,13.6Z"/><path class="cls-28" d="M8108.49,1928.9s-45.34,137.32-45.34,323.1"/><path class="cls-29" d="M8063.15,2252c0,185.78-26.91,365.1-70.68,436.19"/><g><path d="M3578.58,1760.19s46.52-40.01,79.09-33.5c22.87,4.57,57.2,42.49,75.62,64.67,8.37,10.08,18.47,18.57,30,24.77,26.04,14.02,75.16,43.52,101.62,78.91,19.18,25.66-7.03,60.57-37.13,49.6l-238.04-86.77-11.16-97.69Z"/><path d="M3589.75,1857.88l81.63,29.75c5.22-16.32,8.52-36.22,1.18-51.29-11.87-24.37-68.14-40.52-90.54-46.08l7.73,67.62Z"/></g><path class="cls-18" d="M2905.89,1189.73l-49.54,163.32c-20.15,66.44-61.76,124.31-118.32,164.57l-292.7,208.35-46.06-123.14,238.65-207.95,41.87-205.16h226.09Z"/><path d="M2665.8,1258.27c47.64,5.67,135.6,19.93,203.36,52.54l36.73-121.09h-226.09l-13.99,68.55Z"/><path class="cls-21" d="M3559.04,1339.06s38.6,88.88-18.14,202.37c-22.33,44.66-55.83,85.14-106.07,122.82h143.75s83.74,136.77,0,279.13h-876.46c-173.06,0-240.05-67.92-240.05-177.71s141.43-197.25,260.52-258.66c119.1-61.41,344.26-167.94,344.26-167.94h492.19Z"/><path class="cls-29" d="M3434.83,1664.24c-75.36,62.8-500.2,198.18-500.2,198.18"/><path d="M3597.53,1705.95c-9.41-26.09-18.95-41.71-18.95-41.71h-143.75c-32.88,27.4-132.27,68.61-233.89,106.37,0,0,111.54,38.45,199,0,73.88-32.48,144.37-66.59,197.59-64.66Z"/><path class="cls-29" d="M3011.95,1873.94s26.98,0,93.84-69.43"/><line class="cls-29" x1="3146.1" y1="1428.85" x2="2965.3" y2="1524.11"/><path d="M2652.55,1834.55h0c-23-72.16,9.05-150.42,76.05-185.73l220.81-116.34s-275.87,127.68-337.58,38.03c-81.56,53.46-149.76,118.91-149.76,195.15,0,109.79,66.99,177.71,240.05,177.71h99.33c-68.03,0-128.24-44.01-148.9-108.83Z"/><path class="cls-25" d="M3064.93,562.44c25.74-39.97,12.83-111.7-42-127.37-37.94-10.84-79.36,23.34-79.36,23.34,0,0-50.94-6.28-64.01,51.51-11.62,51.42,49.87,55.9,49.87,55.9l135.5-3.39Z"/><path class="cls-20" d="M3201.06,730.56c84.44,27.45,147.7,47.92,197.95,156.31,50.24,108.39,150.73,369.84,150.73,369.84,0,0,72.65,97.69,16.75,97.69h-507.08c-69.78,0-30.7-66.06-30.7-66.06,0,0-27.55-45.62-34.06-86.55,0,0-33.51-10.27-60.01-30.58l-11.07,70.61h-299.6s52.1-163.75,79.09-250.29c26.98-86.53,53.97-198.18,201.44-240.05l296.57-20.94Z"/><path d="M2934.63,1171.22s-46.74-31.08-60.82-106.87c0,0-20.32,51.64-5.3,86.06,5.12,11.73,8.54,24.17,8.23,36.97-.48,19.79-.86,32.35-.86,32.35h51.15l7.6-48.51Z"/><path class="cls-21" d="M2634.32,1209.27c-6.35,19.98-10.35,32.57-10.35,32.57h299.6l5.11-32.57h-294.35Z"/><path d="M3420.94,1111.55l-7.97,130.28h-307.17l45.27-199.34c-36.77,58.43-116.81,105.28-161.57,128.15-12.88,6.58-11.56,25.44,2.11,30.16,1.94,.67,3.03,1,3.03,1,6.51,40.94,34.06,86.55,34.06,86.55,0,0-39.08,66.06,30.7,66.06h408.55l-47.01-242.86Z"/><path class="cls-18" d="M3392.12,1225.55l-252.96-5.82-33.36,230.35-472.53,328.6-118.16,120.96,86.53,24.19,31.64-39.08c116.3-26.98,104.21-80.25,104.21-80.25l487.68-173.31c57.61-20.48,100.21-69.75,112.13-129.72l54.83-275.93Z"/><path d="M3131.57,1272.11c50.64,5.53,164.54,22.49,237.85,67.63l22.69-114.19-252.96-5.82-7.59,52.38Z"/><path class="cls-18" d="M3031.49,556.81s6.28-30.01,28.61-23.73c22.33,6.28,14.65,47.45-6.98,55.13l24.31,56.85c14.68,34.33,43.66,60.52,79.31,71.66l44.32,13.85s-55.46,156.31-185.62,156.31c-97.69,0-110.95-135.38-110.95-135.38l84.44-27.91-19.54-50.94s-36.98,9.77-39.08-30.01c-2.09-39.78-10.47-66.29-25.82-91.41,0,0,35.59-30.7,43.27-64.9,0,0,14.65,27.21,56.52,32.8,0,0,6.98,30.7,27.22,37.68Z"/><circle class="cls-25" cx="3065.11" cy="429.58" r="55.01" transform="translate(2150.1 3386.3) rotate(-80.78)"/><path d="M2969.39,672.65c27.56-6.28,55.13-43.61,63.15-74.32,0,0,14.66,16.4,0,46.75,3.14,28.26-18.86,64.88-46.76,70.3l-16.39-42.73Z"/><line class="cls-29" x1="2981.72" y1="754.29" x2="3010.09" y2="781.74"/><path class="cls-21" d="M3113.19,1209.27c-4.69,20.65-7.4,32.57-7.4,32.57h307.17l2.31-32.57h-302.09Z"/><path class="cls-29" d="M2872.54,1056.79c-3.26-21.65-3.86-46.71-.14-75.48l-12.1-64.2"/><line class="cls-29" x1="3186.41" y1="886.88" x2="3155.35" y2="1023.66"/><line class="cls-29" x1="3415.28" y1="1209.27" x2="3424.6" y2="1048.3"/><g><rect x="2462.07" y="1903.04" width="738.87" height="40.33"/><polygon class="cls-21" points="2635.32 1943.37 1770.02 1943.37 1568.27 1279.74 2433.57 1279.74 2635.32 1943.37"/><polygon points="2635.32 1943.37 2601.02 1943.37 2399.27 1279.74 2433.57 1279.74 2635.32 1943.37"/><path class="cls-17" d="M2225.75,1614.88c17.85,68.46-23.17,123.96-91.63,123.96s-138.43-55.5-156.28-123.96c-17.86-68.46,23.17-123.96,91.63-123.96s138.43,55.5,156.29,123.96Z"/></g><g><rect class="cls-22" x="4760.37" y="1171.14" width="167.15" height="160.29" transform="translate(9687.89 2502.56) rotate(180)"/><rect class="cls-22" x="4525.66" y="1584.1" width="167.15" height="160.29" transform="translate(9218.47 3328.49) rotate(180)"/><rect class="cls-22" x="3639.52" y="968.16" width="167.15" height="160.29" transform="translate(7446.19 2096.61) rotate(180)"/></g><line class="cls-27" x1="9740.1" y1="3278.05" x2=".25" y2="3278.05"/></svg>